<?xml version="1.0" encoding="utf-8" standalone="no"?>
<!DOCTYPE svg PUBLIC "-//W3C//DTD SVG 1.1//EN"
  "http://www.w3.org/Graphics/SVG/1.1/DTD/svg11.dtd">
<svg xmlns:xlink="http://www.w3.org/1999/xlink" width="902.723438pt" height="432.83625pt" viewBox="0 0 902.723438 432.83625" xmlns="http://www.w3.org/2000/svg" version="1.1">
 <metadata>
  <rdf:RDF xmlns:dc="http://purl.org/dc/elements/1.1/" xmlns:cc="http://creativecommons.org/ns#" xmlns:rdf="http://www.w3.org/1999/02/22-rdf-syntax-ns#">
   <cc:Work>
    <dc:type rdf:resource="http://purl.org/dc/dcmitype/StillImage"/>
    <dc:date>2023-03-08T15:56:19.914251</dc:date>
    <dc:format>image/svg+xml</dc:format>
    <dc:creator>
     <cc:Agent>
      <dc:title>Matplotlib v3.5.2, https://matplotlib.org/</dc:title>
     </cc:Agent>
    </dc:creator>
   </cc:Work>
  </rdf:RDF>
 </metadata>
 <defs>
  <style type="text/css">*{stroke-linejoin: round; stroke-linecap: butt}</style>
 </defs>
 <g id="figure_1">
  <g id="patch_1">
   <path d="M -0 432.83625 
L 902.723438 432.83625 
L 902.723438 0 
L -0 0 
z
" style="fill: #ffffff"/>
  </g>
  <g id="axes_1">
   <g id="patch_2">
    <path d="M 58.523438 395.28 
L 895.523438 395.28 
L 895.523438 7.2 
L 58.523438 7.2 
z
" style="fill: #ffffff"/>
   </g>
   <g id="matplotlib.axis_1">
    <g id="xtick_1">
     <g id="line2d_1">
      <defs>
       <path id="m55d73b88eb" d="M 0 0 
L 0 3.5 
" style="stroke: #000000; stroke-width: 0.8"/>
      </defs>
      <g>
       <use xlink:href="#m55d73b88eb" x="68.61713" y="395.28" style="stroke: #000000; stroke-width: 0.8"/>
      </g>
     </g>
     <g id="text_1">
      <!-- −150 -->
      <g transform="translate(54.883536 409.878437)scale(0.1 -0.1)">
       <defs>
        <path id="DejaVuSans-2212" d="M 678 2272 
L 4684 2272 
L 4684 1741 
L 678 1741 
L 678 2272 
z
" transform="scale(0.015625)"/>
        <path id="DejaVuSans-31" d="M 794 531 
L 1825 531 
L 1825 4091 
L 703 3866 
L 703 4441 
L 1819 4666 
L 2450 4666 
L 2450 531 
L 3481 531 
L 3481 0 
L 794 0 
L 794 531 
z
" transform="scale(0.015625)"/>
        <path id="DejaVuSans-35" d="M 691 4666 
L 3169 4666 
L 3169 4134 
L 1269 4134 
L 1269 2991 
Q 1406 3038 1543 3061 
Q 1681 3084 1819 3084 
Q 2600 3084 3056 2656 
Q 3513 2228 3513 1497 
Q 3513 744 3044 326 
Q 2575 -91 1722 -91 
Q 1428 -91 1123 -41 
Q 819 9 494 109 
L 494 744 
Q 775 591 1075 516 
Q 1375 441 1709 441 
Q 2250 441 2565 725 
Q 2881 1009 2881 1497 
Q 2881 1984 2565 2268 
Q 2250 2553 1709 2553 
Q 1456 2553 1204 2497 
Q 953 2441 691 2322 
L 691 4666 
z
" transform="scale(0.015625)"/>
        <path id="DejaVuSans-30" d="M 2034 4250 
Q 1547 4250 1301 3770 
Q 1056 3291 1056 2328 
Q 1056 1369 1301 889 
Q 1547 409 2034 409 
Q 2525 409 2770 889 
Q 3016 1369 3016 2328 
Q 3016 3291 2770 3770 
Q 2525 4250 2034 4250 
z
M 2034 4750 
Q 2819 4750 3233 4129 
Q 3647 3509 3647 2328 
Q 3647 1150 3233 529 
Q 2819 -91 2034 -91 
Q 1250 -91 836 529 
Q 422 1150 422 2328 
Q 422 3509 836 4129 
Q 1250 4750 2034 4750 
z
" transform="scale(0.015625)"/>
       </defs>
       <use xlink:href="#DejaVuSans-2212"/>
       <use xlink:href="#DejaVuSans-31" x="83.789062"/>
       <use xlink:href="#DejaVuSans-35" x="147.412109"/>
       <use xlink:href="#DejaVuSans-30" x="211.035156"/>
      </g>
     </g>
    </g>
    <g id="xtick_2">
     <g id="line2d_2">
      <g>
       <use xlink:href="#m55d73b88eb" x="223.904699" y="395.28" style="stroke: #000000; stroke-width: 0.8"/>
      </g>
     </g>
     <g id="text_2">
      <!-- −100 -->
      <g transform="translate(210.171105 409.878437)scale(0.1 -0.1)">
       <use xlink:href="#DejaVuSans-2212"/>
       <use xlink:href="#DejaVuSans-31" x="83.789062"/>
       <use xlink:href="#DejaVuSans-30" x="147.412109"/>
       <use xlink:href="#DejaVuSans-30" x="211.035156"/>
      </g>
     </g>
    </g>
    <g id="xtick_3">
     <g id="line2d_3">
      <g>
       <use xlink:href="#m55d73b88eb" x="379.192269" y="395.28" style="stroke: #000000; stroke-width: 0.8"/>
      </g>
     </g>
     <g id="text_3">
      <!-- −50 -->
      <g transform="translate(368.639925 409.878437)scale(0.1 -0.1)">
       <use xlink:href="#DejaVuSans-2212"/>
       <use xlink:href="#DejaVuSans-35" x="83.789062"/>
       <use xlink:href="#DejaVuSans-30" x="147.412109"/>
      </g>
     </g>
    </g>
    <g id="xtick_4">
     <g id="line2d_4">
      <g>
       <use xlink:href="#m55d73b88eb" x="534.479838" y="395.28" style="stroke: #000000; stroke-width: 0.8"/>
      </g>
     </g>
     <g id="text_4">
      <!-- 0 -->
      <g transform="translate(531.298588 409.878437)scale(0.1 -0.1)">
       <use xlink:href="#DejaVuSans-30"/>
      </g>
     </g>
    </g>
    <g id="xtick_5">
     <g id="line2d_5">
      <g>
       <use xlink:href="#m55d73b88eb" x="689.767408" y="395.28" style="stroke: #000000; stroke-width: 0.8"/>
      </g>
     </g>
     <g id="text_5">
      <!-- 50 -->
      <g transform="translate(683.404908 409.878437)scale(0.1 -0.1)">
       <use xlink:href="#DejaVuSans-35"/>
       <use xlink:href="#DejaVuSans-30" x="63.623047"/>
      </g>
     </g>
    </g>
    <g id="xtick_6">
     <g id="line2d_6">
      <g>
       <use xlink:href="#m55d73b88eb" x="845.054977" y="395.28" style="stroke: #000000; stroke-width: 0.8"/>
      </g>
     </g>
     <g id="text_6">
      <!-- 100 -->
      <g transform="translate(835.511227 409.878437)scale(0.1 -0.1)">
       <use xlink:href="#DejaVuSans-31"/>
       <use xlink:href="#DejaVuSans-30" x="63.623047"/>
       <use xlink:href="#DejaVuSans-30" x="127.246094"/>
      </g>
     </g>
    </g>
    <g id="text_7">
     <!-- Time to max (samples) -->
     <g transform="translate(419.424219 423.556562)scale(0.1 -0.1)">
      <defs>
       <path id="DejaVuSans-54" d="M -19 4666 
L 3928 4666 
L 3928 4134 
L 2272 4134 
L 2272 0 
L 1638 0 
L 1638 4134 
L -19 4134 
L -19 4666 
z
" transform="scale(0.015625)"/>
       <path id="DejaVuSans-69" d="M 603 3500 
L 1178 3500 
L 1178 0 
L 603 0 
L 603 3500 
z
M 603 4863 
L 1178 4863 
L 1178 4134 
L 603 4134 
L 603 4863 
z
" transform="scale(0.015625)"/>
       <path id="DejaVuSans-6d" d="M 3328 2828 
Q 3544 3216 3844 3400 
Q 4144 3584 4550 3584 
Q 5097 3584 5394 3201 
Q 5691 2819 5691 2113 
L 5691 0 
L 5113 0 
L 5113 2094 
Q 5113 2597 4934 2840 
Q 4756 3084 4391 3084 
Q 3944 3084 3684 2787 
Q 3425 2491 3425 1978 
L 3425 0 
L 2847 0 
L 2847 2094 
Q 2847 2600 2669 2842 
Q 2491 3084 2119 3084 
Q 1678 3084 1418 2786 
Q 1159 2488 1159 1978 
L 1159 0 
L 581 0 
L 581 3500 
L 1159 3500 
L 1159 2956 
Q 1356 3278 1631 3431 
Q 1906 3584 2284 3584 
Q 2666 3584 2933 3390 
Q 3200 3197 3328 2828 
z
" transform="scale(0.015625)"/>
       <path id="DejaVuSans-65" d="M 3597 1894 
L 3597 1613 
L 953 1613 
Q 991 1019 1311 708 
Q 1631 397 2203 397 
Q 2534 397 2845 478 
Q 3156 559 3463 722 
L 3463 178 
Q 3153 47 2828 -22 
Q 2503 -91 2169 -91 
Q 1331 -91 842 396 
Q 353 884 353 1716 
Q 353 2575 817 3079 
Q 1281 3584 2069 3584 
Q 2775 3584 3186 3129 
Q 3597 2675 3597 1894 
z
M 3022 2063 
Q 3016 2534 2758 2815 
Q 2500 3097 2075 3097 
Q 1594 3097 1305 2825 
Q 1016 2553 972 2059 
L 3022 2063 
z
" transform="scale(0.015625)"/>
       <path id="DejaVuSans-20" transform="scale(0.015625)"/>
       <path id="DejaVuSans-74" d="M 1172 4494 
L 1172 3500 
L 2356 3500 
L 2356 3053 
L 1172 3053 
L 1172 1153 
Q 1172 725 1289 603 
Q 1406 481 1766 481 
L 2356 481 
L 2356 0 
L 1766 0 
Q 1100 0 847 248 
Q 594 497 594 1153 
L 594 3053 
L 172 3053 
L 172 3500 
L 594 3500 
L 594 4494 
L 1172 4494 
z
" transform="scale(0.015625)"/>
       <path id="DejaVuSans-6f" d="M 1959 3097 
Q 1497 3097 1228 2736 
Q 959 2375 959 1747 
Q 959 1119 1226 758 
Q 1494 397 1959 397 
Q 2419 397 2687 759 
Q 2956 1122 2956 1747 
Q 2956 2369 2687 2733 
Q 2419 3097 1959 3097 
z
M 1959 3584 
Q 2709 3584 3137 3096 
Q 3566 2609 3566 1747 
Q 3566 888 3137 398 
Q 2709 -91 1959 -91 
Q 1206 -91 779 398 
Q 353 888 353 1747 
Q 353 2609 779 3096 
Q 1206 3584 1959 3584 
z
" transform="scale(0.015625)"/>
       <path id="DejaVuSans-61" d="M 2194 1759 
Q 1497 1759 1228 1600 
Q 959 1441 959 1056 
Q 959 750 1161 570 
Q 1363 391 1709 391 
Q 2188 391 2477 730 
Q 2766 1069 2766 1631 
L 2766 1759 
L 2194 1759 
z
M 3341 1997 
L 3341 0 
L 2766 0 
L 2766 531 
Q 2569 213 2275 61 
Q 1981 -91 1556 -91 
Q 1019 -91 701 211 
Q 384 513 384 1019 
Q 384 1609 779 1909 
Q 1175 2209 1959 2209 
L 2766 2209 
L 2766 2266 
Q 2766 2663 2505 2880 
Q 2244 3097 1772 3097 
Q 1472 3097 1187 3025 
Q 903 2953 641 2809 
L 641 3341 
Q 956 3463 1253 3523 
Q 1550 3584 1831 3584 
Q 2591 3584 2966 3190 
Q 3341 2797 3341 1997 
z
" transform="scale(0.015625)"/>
       <path id="DejaVuSans-78" d="M 3513 3500 
L 2247 1797 
L 3578 0 
L 2900 0 
L 1881 1375 
L 863 0 
L 184 0 
L 1544 1831 
L 300 3500 
L 978 3500 
L 1906 2253 
L 2834 3500 
L 3513 3500 
z
" transform="scale(0.015625)"/>
       <path id="DejaVuSans-28" d="M 1984 4856 
Q 1566 4138 1362 3434 
Q 1159 2731 1159 2009 
Q 1159 1288 1364 580 
Q 1569 -128 1984 -844 
L 1484 -844 
Q 1016 -109 783 600 
Q 550 1309 550 2009 
Q 550 2706 781 3412 
Q 1013 4119 1484 4856 
L 1984 4856 
z
" transform="scale(0.015625)"/>
       <path id="DejaVuSans-73" d="M 2834 3397 
L 2834 2853 
Q 2591 2978 2328 3040 
Q 2066 3103 1784 3103 
Q 1356 3103 1142 2972 
Q 928 2841 928 2578 
Q 928 2378 1081 2264 
Q 1234 2150 1697 2047 
L 1894 2003 
Q 2506 1872 2764 1633 
Q 3022 1394 3022 966 
Q 3022 478 2636 193 
Q 2250 -91 1575 -91 
Q 1294 -91 989 -36 
Q 684 19 347 128 
L 347 722 
Q 666 556 975 473 
Q 1284 391 1588 391 
Q 1994 391 2212 530 
Q 2431 669 2431 922 
Q 2431 1156 2273 1281 
Q 2116 1406 1581 1522 
L 1381 1569 
Q 847 1681 609 1914 
Q 372 2147 372 2553 
Q 372 3047 722 3315 
Q 1072 3584 1716 3584 
Q 2034 3584 2315 3537 
Q 2597 3491 2834 3397 
z
" transform="scale(0.015625)"/>
       <path id="DejaVuSans-70" d="M 1159 525 
L 1159 -1331 
L 581 -1331 
L 581 3500 
L 1159 3500 
L 1159 2969 
Q 1341 3281 1617 3432 
Q 1894 3584 2278 3584 
Q 2916 3584 3314 3078 
Q 3713 2572 3713 1747 
Q 3713 922 3314 415 
Q 2916 -91 2278 -91 
Q 1894 -91 1617 61 
Q 1341 213 1159 525 
z
M 3116 1747 
Q 3116 2381 2855 2742 
Q 2594 3103 2138 3103 
Q 1681 3103 1420 2742 
Q 1159 2381 1159 1747 
Q 1159 1113 1420 752 
Q 1681 391 2138 391 
Q 2594 391 2855 752 
Q 3116 1113 3116 1747 
z
" transform="scale(0.015625)"/>
       <path id="DejaVuSans-6c" d="M 603 4863 
L 1178 4863 
L 1178 0 
L 603 0 
L 603 4863 
z
" transform="scale(0.015625)"/>
       <path id="DejaVuSans-29" d="M 513 4856 
L 1013 4856 
Q 1481 4119 1714 3412 
Q 1947 2706 1947 2009 
Q 1947 1309 1714 600 
Q 1481 -109 1013 -844 
L 513 -844 
Q 928 -128 1133 580 
Q 1338 1288 1338 2009 
Q 1338 2731 1133 3434 
Q 928 4138 513 4856 
z
" transform="scale(0.015625)"/>
      </defs>
      <use xlink:href="#DejaVuSans-54"/>
      <use xlink:href="#DejaVuSans-69" x="57.958984"/>
      <use xlink:href="#DejaVuSans-6d" x="85.742188"/>
      <use xlink:href="#DejaVuSans-65" x="183.154297"/>
      <use xlink:href="#DejaVuSans-20" x="244.677734"/>
      <use xlink:href="#DejaVuSans-74" x="276.464844"/>
      <use xlink:href="#DejaVuSans-6f" x="315.673828"/>
      <use xlink:href="#DejaVuSans-20" x="376.855469"/>
      <use xlink:href="#DejaVuSans-6d" x="408.642578"/>
      <use xlink:href="#DejaVuSans-61" x="506.054688"/>
      <use xlink:href="#DejaVuSans-78" x="567.333984"/>
      <use xlink:href="#DejaVuSans-20" x="626.513672"/>
      <use xlink:href="#DejaVuSans-28" x="658.300781"/>
      <use xlink:href="#DejaVuSans-73" x="697.314453"/>
      <use xlink:href="#DejaVuSans-61" x="749.414062"/>
      <use xlink:href="#DejaVuSans-6d" x="810.693359"/>
      <use xlink:href="#DejaVuSans-70" x="908.105469"/>
      <use xlink:href="#DejaVuSans-6c" x="971.582031"/>
      <use xlink:href="#DejaVuSans-65" x="999.365234"/>
      <use xlink:href="#DejaVuSans-73" x="1060.888672"/>
      <use xlink:href="#DejaVuSans-29" x="1112.988281"/>
     </g>
    </g>
   </g>
   <g id="matplotlib.axis_2">
    <g id="ytick_1">
     <g id="line2d_7">
      <defs>
       <path id="m338a79ab33" d="M 0 0 
L -3.5 0 
" style="stroke: #000000; stroke-width: 0.8"/>
      </defs>
      <g>
       <use xlink:href="#m338a79ab33" x="58.523438" y="388.112797" style="stroke: #000000; stroke-width: 0.8"/>
      </g>
     </g>
     <g id="text_8">
      <!-- −10.0 -->
      <g transform="translate(20.878125 391.912016)scale(0.1 -0.1)">
       <defs>
        <path id="DejaVuSans-2e" d="M 684 794 
L 1344 794 
L 1344 0 
L 684 0 
L 684 794 
z
" transform="scale(0.015625)"/>
       </defs>
       <use xlink:href="#DejaVuSans-2212"/>
       <use xlink:href="#DejaVuSans-31" x="83.789062"/>
       <use xlink:href="#DejaVuSans-30" x="147.412109"/>
       <use xlink:href="#DejaVuSans-2e" x="211.035156"/>
       <use xlink:href="#DejaVuSans-30" x="242.822266"/>
      </g>
     </g>
    </g>
    <g id="ytick_2">
     <g id="line2d_8">
      <g>
       <use xlink:href="#m338a79ab33" x="58.523438" y="338.200929" style="stroke: #000000; stroke-width: 0.8"/>
      </g>
     </g>
     <g id="text_9">
      <!-- −7.5 -->
      <g transform="translate(27.240625 342.000147)scale(0.1 -0.1)">
       <defs>
        <path id="DejaVuSans-37" d="M 525 4666 
L 3525 4666 
L 3525 4397 
L 1831 0 
L 1172 0 
L 2766 4134 
L 525 4134 
L 525 4666 
z
" transform="scale(0.015625)"/>
       </defs>
       <use xlink:href="#DejaVuSans-2212"/>
       <use xlink:href="#DejaVuSans-37" x="83.789062"/>
       <use xlink:href="#DejaVuSans-2e" x="147.412109"/>
       <use xlink:href="#DejaVuSans-35" x="179.199219"/>
      </g>
     </g>
    </g>
    <g id="ytick_3">
     <g id="line2d_9">
      <g>
       <use xlink:href="#m338a79ab33" x="58.523438" y="288.28906" style="stroke: #000000; stroke-width: 0.8"/>
      </g>
     </g>
     <g id="text_10">
      <!-- −5.0 -->
      <g transform="translate(27.240625 292.088279)scale(0.1 -0.1)">
       <use xlink:href="#DejaVuSans-2212"/>
       <use xlink:href="#DejaVuSans-35" x="83.789062"/>
       <use xlink:href="#DejaVuSans-2e" x="147.412109"/>
       <use xlink:href="#DejaVuSans-30" x="179.199219"/>
      </g>
     </g>
    </g>
    <g id="ytick_4">
     <g id="line2d_10">
      <g>
       <use xlink:href="#m338a79ab33" x="58.523438" y="238.377191" style="stroke: #000000; stroke-width: 0.8"/>
      </g>
     </g>
     <g id="text_11">
      <!-- −2.5 -->
      <g transform="translate(27.240625 242.17641)scale(0.1 -0.1)">
       <defs>
        <path id="DejaVuSans-32" d="M 1228 531 
L 3431 531 
L 3431 0 
L 469 0 
L 469 531 
Q 828 903 1448 1529 
Q 2069 2156 2228 2338 
Q 2531 2678 2651 2914 
Q 2772 3150 2772 3378 
Q 2772 3750 2511 3984 
Q 2250 4219 1831 4219 
Q 1534 4219 1204 4116 
Q 875 4013 500 3803 
L 500 4441 
Q 881 4594 1212 4672 
Q 1544 4750 1819 4750 
Q 2544 4750 2975 4387 
Q 3406 4025 3406 3419 
Q 3406 3131 3298 2873 
Q 3191 2616 2906 2266 
Q 2828 2175 2409 1742 
Q 1991 1309 1228 531 
z
" transform="scale(0.015625)"/>
       </defs>
       <use xlink:href="#DejaVuSans-2212"/>
       <use xlink:href="#DejaVuSans-32" x="83.789062"/>
       <use xlink:href="#DejaVuSans-2e" x="147.412109"/>
       <use xlink:href="#DejaVuSans-35" x="179.199219"/>
      </g>
     </g>
    </g>
    <g id="ytick_5">
     <g id="line2d_11">
      <g>
       <use xlink:href="#m338a79ab33" x="58.523438" y="188.465323" style="stroke: #000000; stroke-width: 0.8"/>
      </g>
     </g>
     <g id="text_12">
      <!-- 0.0 -->
      <g transform="translate(35.620313 192.264542)scale(0.1 -0.1)">
       <use xlink:href="#DejaVuSans-30"/>
       <use xlink:href="#DejaVuSans-2e" x="63.623047"/>
       <use xlink:href="#DejaVuSans-30" x="95.410156"/>
      </g>
     </g>
    </g>
    <g id="ytick_6">
     <g id="line2d_12">
      <g>
       <use xlink:href="#m338a79ab33" x="58.523438" y="138.553454" style="stroke: #000000; stroke-width: 0.8"/>
      </g>
     </g>
     <g id="text_13">
      <!-- 2.5 -->
      <g transform="translate(35.620313 142.352673)scale(0.1 -0.1)">
       <use xlink:href="#DejaVuSans-32"/>
       <use xlink:href="#DejaVuSans-2e" x="63.623047"/>
       <use xlink:href="#DejaVuSans-35" x="95.410156"/>
      </g>
     </g>
    </g>
    <g id="ytick_7">
     <g id="line2d_13">
      <g>
       <use xlink:href="#m338a79ab33" x="58.523438" y="88.641586" style="stroke: #000000; stroke-width: 0.8"/>
      </g>
     </g>
     <g id="text_14">
      <!-- 5.0 -->
      <g transform="translate(35.620313 92.440805)scale(0.1 -0.1)">
       <use xlink:href="#DejaVuSans-35"/>
       <use xlink:href="#DejaVuSans-2e" x="63.623047"/>
       <use xlink:href="#DejaVuSans-30" x="95.410156"/>
      </g>
     </g>
    </g>
    <g id="ytick_8">
     <g id="line2d_14">
      <g>
       <use xlink:href="#m338a79ab33" x="58.523438" y="38.729717" style="stroke: #000000; stroke-width: 0.8"/>
      </g>
     </g>
     <g id="text_15">
      <!-- 7.5 -->
      <g transform="translate(35.620313 42.528936)scale(0.1 -0.1)">
       <use xlink:href="#DejaVuSans-37"/>
       <use xlink:href="#DejaVuSans-2e" x="63.623047"/>
       <use xlink:href="#DejaVuSans-35" x="95.410156"/>
      </g>
     </g>
    </g>
    <g id="text_16">
     <!-- Velocity (AU) -->
     <g transform="translate(14.798438 233.425937)rotate(-90)scale(0.1 -0.1)">
      <defs>
       <path id="DejaVuSans-56" d="M 1831 0 
L 50 4666 
L 709 4666 
L 2188 738 
L 3669 4666 
L 4325 4666 
L 2547 0 
L 1831 0 
z
" transform="scale(0.015625)"/>
       <path id="DejaVuSans-63" d="M 3122 3366 
L 3122 2828 
Q 2878 2963 2633 3030 
Q 2388 3097 2138 3097 
Q 1578 3097 1268 2742 
Q 959 2388 959 1747 
Q 959 1106 1268 751 
Q 1578 397 2138 397 
Q 2388 397 2633 464 
Q 2878 531 3122 666 
L 3122 134 
Q 2881 22 2623 -34 
Q 2366 -91 2075 -91 
Q 1284 -91 818 406 
Q 353 903 353 1747 
Q 353 2603 823 3093 
Q 1294 3584 2113 3584 
Q 2378 3584 2631 3529 
Q 2884 3475 3122 3366 
z
" transform="scale(0.015625)"/>
       <path id="DejaVuSans-79" d="M 2059 -325 
Q 1816 -950 1584 -1140 
Q 1353 -1331 966 -1331 
L 506 -1331 
L 506 -850 
L 844 -850 
Q 1081 -850 1212 -737 
Q 1344 -625 1503 -206 
L 1606 56 
L 191 3500 
L 800 3500 
L 1894 763 
L 2988 3500 
L 3597 3500 
L 2059 -325 
z
" transform="scale(0.015625)"/>
       <path id="DejaVuSans-41" d="M 2188 4044 
L 1331 1722 
L 3047 1722 
L 2188 4044 
z
M 1831 4666 
L 2547 4666 
L 4325 0 
L 3669 0 
L 3244 1197 
L 1141 1197 
L 716 0 
L 50 0 
L 1831 4666 
z
" transform="scale(0.015625)"/>
       <path id="DejaVuSans-55" d="M 556 4666 
L 1191 4666 
L 1191 1831 
Q 1191 1081 1462 751 
Q 1734 422 2344 422 
Q 2950 422 3222 751 
Q 3494 1081 3494 1831 
L 3494 4666 
L 4128 4666 
L 4128 1753 
Q 4128 841 3676 375 
Q 3225 -91 2344 -91 
Q 1459 -91 1007 375 
Q 556 841 556 1753 
L 556 4666 
z
" transform="scale(0.015625)"/>
      </defs>
      <use xlink:href="#DejaVuSans-56"/>
      <use xlink:href="#DejaVuSans-65" x="60.658203"/>
      <use xlink:href="#DejaVuSans-6c" x="122.181641"/>
      <use xlink:href="#DejaVuSans-6f" x="149.964844"/>
      <use xlink:href="#DejaVuSans-63" x="211.146484"/>
      <use xlink:href="#DejaVuSans-69" x="266.126953"/>
      <use xlink:href="#DejaVuSans-74" x="293.910156"/>
      <use xlink:href="#DejaVuSans-79" x="333.119141"/>
      <use xlink:href="#DejaVuSans-20" x="392.298828"/>
      <use xlink:href="#DejaVuSans-28" x="424.085938"/>
      <use xlink:href="#DejaVuSans-41" x="463.099609"/>
      <use xlink:href="#DejaVuSans-55" x="531.507812"/>
      <use xlink:href="#DejaVuSans-29" x="604.701172"/>
     </g>
    </g>
   </g>
   <g id="line2d_15">
    <path d="M 214.587445 188.486762 
L 236.327705 188.42584 
L 239.433456 188.350426 
L 242.539207 188.490055 
L 254.962213 188.522658 
L 267.385219 188.37062 
L 270.49097 188.540624 
L 282.913976 188.526189 
L 289.125478 188.431877 
L 292.23123 188.38047 
L 298.442732 188.514675 
L 301.548484 188.395903 
L 317.077241 188.554309 
L 323.288744 188.439079 
L 332.605998 188.452095 
L 335.711749 188.393686 
L 338.817501 188.560262 
L 345.029003 188.443954 
L 348.134755 188.519531 
L 357.452009 188.395565 
L 360.55776 188.490748 
L 363.663512 188.350755 
L 366.769263 188.530669 
L 369.875014 188.311936 
L 376.086517 188.509374 
L 382.29802 188.663003 
L 385.403771 188.366351 
L 388.509523 189.158356 
L 391.615274 187.976712 
L 394.721026 189.732233 
L 397.826777 184.517615 
L 400.932528 185.948096 
L 404.03828 198.607411 
L 407.144031 185.118094 
L 410.249783 183.092628 
L 413.355534 195.285201 
L 416.461285 185.216839 
L 419.567037 182.661921 
L 422.672788 193.923005 
L 425.77854 195.951306 
L 428.884291 180.695599 
L 431.990042 184.067786 
L 435.095794 198.012569 
L 438.201545 183.13881 
L 441.307296 185.504591 
L 444.413048 194.706852 
L 447.518799 183.106375 
L 450.624551 192.430749 
L 453.730302 190.389126 
L 456.836053 183.520911 
L 459.941805 192.270882 
L 463.047556 182.468095 
L 466.153308 191.871755 
L 469.259059 194.723056 
L 472.36481 180.750918 
L 475.470562 188.542627 
L 478.576313 191.235945 
L 481.682065 190.525609 
L 484.787816 185.224255 
L 487.893567 190.532853 
L 490.999319 187.923901 
L 494.10507 183.903105 
L 497.210822 186.793097 
L 500.316573 186.602207 
L 503.422324 201.736562 
L 506.528076 180.513638 
L 509.633827 193.130037 
L 512.739579 187.277754 
L 515.84533 195.524124 
L 518.951081 196.089012 
L 522.056833 170.806328 
L 525.162584 209.772144 
L 528.268335 78.542777 
L 531.374087 249.231561 
L 534.479838 337.188556 
L 537.58559 29.585566 
L 540.691341 211.122435 
L 543.797092 235.853276 
L 546.902844 122.905574 
L 550.008595 246.448886 
L 553.114347 168.319918 
L 556.220098 176.257484 
L 559.325849 198.356289 
L 562.431601 185.406257 
L 565.537352 199.53341 
L 568.643104 176.705272 
L 571.748855 182.433957 
L 574.854606 185.184539 
L 577.960358 207.682998 
L 581.066109 181.082834 
L 584.171861 200.63132 
L 587.277612 200.421972 
L 590.383363 146.087004 
L 593.489115 193.506592 
L 596.594866 201.716311 
L 599.700617 193.463284 
L 602.806369 188.871273 
L 605.91212 176.144004 
L 609.017872 196.735179 
L 612.123623 193.761186 
L 615.229374 183.791228 
L 618.335126 182.534575 
L 621.440877 192.531936 
L 627.65238 187.09131 
L 630.758131 189.844736 
L 633.863883 186.322376 
L 636.969634 187.965777 
L 640.075386 185.389747 
L 643.181137 193.157494 
L 646.286888 194.501916 
L 649.39264 187.770872 
L 652.498391 185.077805 
L 655.604143 182.722556 
L 658.709894 188.999769 
L 661.815645 190.740343 
L 664.921397 186.99097 
L 671.132899 192.394417 
L 674.238651 186.688515 
L 677.344402 185.794464 
L 680.450154 193.73873 
L 683.555905 189.96198 
L 686.661656 182.071045 
L 689.767408 185.903371 
L 692.873159 188.582559 
L 695.978911 190.290887 
L 699.084662 193.133949 
L 702.190413 188.608847 
L 705.296165 186.910241 
L 708.401916 187.973539 
L 711.507668 185.751348 
L 714.613419 188.18797 
L 717.71917 190.99202 
L 720.824922 189.174751 
L 723.930673 188.177882 
L 727.036425 185.823365 
L 730.142176 189.082606 
L 733.247927 192.530734 
L 736.353679 184.927734 
L 739.45943 187.814046 
L 742.565181 193.887137 
L 745.670933 187.208485 
L 748.776684 183.998822 
L 751.882436 185.470514 
L 754.988187 189.447482 
L 758.093938 194.549158 
L 764.305441 184.082651 
L 767.411193 188.7327 
L 770.516944 191.140877 
L 776.728447 186.444849 
L 779.834198 188.375744 
L 782.93995 186.783706 
L 786.045701 186.99611 
L 789.151452 193.473263 
L 792.257204 188.078548 
L 795.362955 186.130547 
L 798.468707 191.231646 
L 804.680209 184.775889 
L 807.785961 188.525251 
L 810.891712 191.693292 
L 813.997463 187.825867 
L 817.103215 187.910874 
L 820.208966 188.933582 
L 823.314718 188.836855 
L 826.420469 189.595265 
L 829.52622 186.807155 
L 832.631972 187.6573 
L 835.737723 189.160064 
L 835.737723 189.160064 
" clip-path="url(#p6b7b1916bf)" style="fill: none; stroke: #000000; stroke-width: 1.5; stroke-linecap: square"/>
   </g>
   <g id="line2d_16">
    <path d="M 217.693196 188.464804 
L 326.394495 188.45877 
L 338.817501 188.46447 
L 354.346258 188.58081 
L 357.452009 188.446638 
L 360.55776 188.491211 
L 366.769263 188.287199 
L 369.875014 188.360715 
L 372.980766 188.095862 
L 376.086517 188.509312 
L 379.192269 188.181456 
L 382.29802 188.886129 
L 385.403771 188.719 
L 388.509523 189.293243 
L 391.615274 189.634139 
L 394.721026 189.359637 
L 397.826777 190.107494 
L 400.932528 178.519089 
L 404.03828 184.178349 
L 407.144031 200.601496 
L 410.249783 190.42469 
L 413.355534 186.36908 
L 416.461285 189.387944 
L 419.567037 185.264933 
L 422.672788 180.544556 
L 425.77854 189.675381 
L 428.884291 203.442221 
L 431.990042 185.853125 
L 435.095794 181.789966 
L 438.201545 193.128782 
L 441.307296 183.95001 
L 444.413048 188.630252 
L 447.518799 184.207232 
L 450.624551 184.266653 
L 453.730302 201.595826 
L 456.836053 190.229702 
L 459.941805 186.780442 
L 463.047556 184.326353 
L 466.153308 182.3585 
L 469.259059 195.735429 
L 472.36481 190.448406 
L 475.470562 187.193328 
L 478.576313 184.5317 
L 481.682065 186.298858 
L 484.787816 196.389725 
L 487.893567 192.71024 
L 490.999319 185.223772 
L 494.10507 185.3372 
L 497.210822 187.569608 
L 500.316573 170.867793 
L 503.422324 186.91108 
L 506.528076 204.405329 
L 509.633827 186.09592 
L 512.739579 195.725826 
L 515.84533 194.939735 
L 518.951081 214.721745 
L 522.056833 187.326033 
L 525.162584 187.699037 
L 528.268335 148.725621 
L 531.374087 73.391366 
L 534.479838 313.28539 
L 537.58559 224.050488 
L 540.691341 99.850339 
L 543.797092 287.289642 
L 546.902844 115.632376 
L 550.008595 195.786483 
L 553.114347 267.187826 
L 556.220098 132.140006 
L 559.325849 201.490531 
L 562.431601 161.55985 
L 565.537352 186.547854 
L 568.643104 194.955811 
L 571.748855 179.689678 
L 574.854606 187.286767 
L 577.960358 186.493795 
L 581.066109 195.054404 
L 584.171861 181.951458 
L 587.277612 249.606269 
L 590.383363 164.263625 
L 593.489115 158.535006 
L 596.594866 217.078962 
L 599.700617 151.202188 
L 602.806369 196.331577 
L 605.91212 187.288765 
L 609.017872 179.782315 
L 612.123623 209.562655 
L 615.229374 201.259001 
L 618.335126 196.038198 
L 621.440877 171.518368 
L 624.546629 170.45972 
L 627.65238 190.4227 
L 630.758131 205.684681 
L 633.863883 178.54683 
L 636.969634 194.934116 
L 640.075386 191.299755 
L 643.181137 160.427627 
L 646.286888 202.590483 
L 649.39264 201.16271 
L 652.498391 198.510009 
L 655.604143 190.103106 
L 658.709894 169.972285 
L 661.815645 189.796392 
L 664.921397 186.384221 
L 668.027148 186.588964 
L 671.132899 184.180492 
L 674.238651 189.299684 
L 677.344402 199.659233 
L 680.450154 181.246152 
L 683.555905 195.352366 
L 686.661656 197.777148 
L 689.767408 184.169875 
L 692.873159 192.022554 
L 695.978911 171.391663 
L 699.084662 179.493152 
L 702.190413 197.186054 
L 705.296165 189.413097 
L 708.401916 197.502209 
L 711.507668 189.58628 
L 714.613419 186.783344 
L 717.71917 185.727266 
L 720.824922 183.962179 
L 723.930673 197.056616 
L 727.036425 188.603333 
L 730.142176 180.948625 
L 733.247927 182.646369 
L 736.353679 190.006975 
L 739.45943 199.319766 
L 742.565181 188.969868 
L 745.670933 187.934083 
L 748.776684 190.850401 
L 751.882436 182.844761 
L 754.988187 181.666802 
L 758.093938 187.495175 
L 761.19969 196.405293 
L 767.411193 185.263395 
L 770.516944 188.044117 
L 773.622695 185.06144 
L 776.728447 190.072125 
L 779.834198 193.991715 
L 782.93995 191.15624 
L 786.045701 184.76259 
L 789.151452 184.352434 
L 792.257204 191.419194 
L 795.362955 185.152663 
L 798.468707 187.171019 
L 801.574458 195.970508 
L 804.680209 186.789298 
L 807.785961 182.413662 
L 810.891712 188.496004 
L 813.997463 189.184378 
L 817.103215 190.593338 
L 820.208966 191.257893 
L 823.314718 187.998998 
L 826.420469 191.220177 
L 829.52622 189.470022 
L 832.631972 183.954012 
L 835.737723 185.735706 
L 838.843475 189.312007 
L 838.843475 189.312007 
" clip-path="url(#p6b7b1916bf)" style="fill: none; stroke: #696969; stroke-width: 0.75; stroke-linecap: square"/>
   </g>
   <g id="line2d_17">
    <path d="M 236.327705 188.491753 
L 248.75071 188.468681 
L 251.856462 188.526246 
L 258.067964 188.415852 
L 267.385219 188.491019 
L 341.923252 188.461118 
L 351.240506 188.526827 
L 357.452009 188.463586 
L 360.55776 188.46699 
L 363.663512 188.328969 
L 366.769263 188.547304 
L 369.875014 188.239359 
L 372.980766 188.65184 
L 376.086517 188.374692 
L 379.192269 188.60009 
L 382.29802 188.667576 
L 385.403771 188.351883 
L 388.509523 189.041299 
L 391.615274 187.961083 
L 394.721026 189.720001 
L 397.826777 184.096609 
L 400.932528 188.08165 
L 404.03828 197.20716 
L 407.144031 182.72209 
L 410.249783 187.071698 
L 413.355534 193.484726 
L 416.461285 183.220266 
L 419.567037 186.622544 
L 422.672788 192.600194 
L 425.77854 194.06374 
L 428.884291 181.36593 
L 431.990042 186.366538 
L 435.095794 195.965135 
L 438.201545 181.212017 
L 441.307296 190.858493 
L 444.413048 190.138074 
L 447.518799 183.476657 
L 450.624551 196.951477 
L 453.730302 184.733451 
L 456.836053 185.870361 
L 459.941805 191.66195 
L 463.047556 183.46689 
L 466.153308 193.526319 
L 469.259059 188.619619 
L 472.36481 186.457428 
L 475.470562 189.440496 
L 478.576313 186.514484 
L 481.682065 190.550786 
L 484.787816 189.079562 
L 487.893567 191.106686 
L 490.999319 180.064402 
L 494.10507 191.711276 
L 497.210822 186.274142 
L 500.316573 183.715689 
L 503.422324 203.10506 
L 506.528076 179.829276 
L 509.633827 195.946436 
L 512.739579 182.670296 
L 515.84533 203.454013 
L 518.951081 182.592485 
L 522.056833 186.120436 
L 525.162584 188.684841 
L 528.268335 70.114353 
L 531.374087 326.016545 
L 534.479838 269.30015 
L 537.58559 24.84 
L 540.691341 246.976794 
L 543.797092 185.488508 
L 546.902844 177.384844 
L 550.008595 231.376565 
L 553.114347 143.882308 
L 556.220098 209.253061 
L 559.325849 175.711153 
L 565.537352 206.407874 
L 568.643104 163.550601 
L 571.748855 189.079088 
L 574.854606 188.807922 
L 577.960358 204.685211 
L 581.066109 188.913491 
L 584.171861 197.26781 
L 587.277612 185.897586 
L 590.383363 149.481973 
L 593.489115 206.771603 
L 596.594866 204.929316 
L 599.700617 182.024118 
L 602.806369 182.22491 
L 605.91212 183.093093 
L 609.017872 202.039585 
L 615.229374 183.261113 
L 618.335126 178.637751 
L 621.440877 192.551468 
L 624.546629 194.445916 
L 627.65238 180.611157 
L 630.758131 193.104066 
L 633.863883 190.00453 
L 636.969634 184.810622 
L 640.075386 186.309357 
L 643.181137 187.989479 
L 646.286888 201.074365 
L 649.39264 187.482676 
L 652.498391 176.834155 
L 655.604143 189.763029 
L 658.709894 190.674549 
L 661.815645 187.147287 
L 664.921397 190.061591 
L 668.027148 189.988067 
L 671.132899 185.966333 
L 674.238651 188.925403 
L 677.344402 191.365369 
L 680.450154 188.758256 
L 683.555905 187.829543 
L 686.661656 188.284744 
L 689.767408 184.279044 
L 692.873159 185.725715 
L 695.978911 193.084839 
L 699.084662 191.224236 
L 702.190413 189.060285 
L 705.296165 188.811726 
L 708.401916 186.151616 
L 711.507668 185.372364 
L 714.613419 187.490921 
L 717.71917 191.174378 
L 720.824922 191.934648 
L 723.930673 187.567334 
L 727.036425 185.380468 
L 730.142176 187.455366 
L 733.247927 191.331514 
L 736.353679 189.822682 
L 739.45943 187.081141 
L 742.565181 189.800855 
L 745.670933 186.69563 
L 748.776684 187.070429 
L 754.988187 187.471583 
L 758.093938 193.313566 
L 764.305441 186.57957 
L 767.411193 186.422947 
L 770.516944 189.509234 
L 773.622695 189.672143 
L 776.728447 186.347943 
L 779.834198 189.66127 
L 782.93995 188.195297 
L 786.045701 187.466064 
L 789.151452 189.240542 
L 792.257204 189.238588 
L 798.468707 187.454883 
L 801.574458 189.936374 
L 804.680209 186.394047 
L 807.785961 187.943789 
L 810.891712 192.10071 
L 813.997463 186.214587 
L 817.103215 188.324535 
L 820.208966 189.788904 
L 823.314718 187.451657 
L 826.420469 189.404546 
L 829.52622 187.904682 
L 832.631972 188.274717 
L 835.737723 187.94491 
L 838.843475 187.18783 
L 841.949226 189.185933 
L 845.054977 189.762976 
L 848.160729 187.987302 
L 851.26648 188.126763 
L 854.372232 190.349006 
L 857.477983 188.867013 
L 857.477983 188.867013 
" clip-path="url(#p6b7b1916bf)" style="fill: none; stroke: #696969; stroke-width: 0.75; stroke-linecap: square"/>
   </g>
   <g id="line2d_18">
    <path d="M 214.587445 188.811383 
L 220.798948 188.569018 
L 223.904699 188.103792 
L 227.01045 188.824667 
L 233.221953 188.155027 
L 236.327705 188.474567 
L 239.433456 187.695772 
L 242.539207 188.639591 
L 245.644959 189.093328 
L 248.75071 188.61423 
L 251.856462 188.82107 
L 254.962213 188.288371 
L 258.067964 188.236153 
L 261.173716 188.63823 
L 264.279467 188.096627 
L 267.385219 188.156074 
L 273.596721 188.580473 
L 276.702473 189.110212 
L 279.808224 188.410933 
L 282.913976 188.349233 
L 286.019727 188.439392 
L 289.125478 188.257492 
L 292.23123 188.928592 
L 295.336981 188.255114 
L 298.442732 187.863661 
L 301.548484 188.586115 
L 307.759987 188.902182 
L 310.865738 188.356669 
L 313.971489 188.02756 
L 317.077241 188.822248 
L 323.288744 188.28077 
L 326.394495 188.352644 
L 329.500246 188.070831 
L 332.605998 188.410465 
L 335.711749 188.919305 
L 338.817501 188.970569 
L 341.923252 188.219869 
L 345.029003 188.223163 
L 348.134755 188.524753 
L 351.240506 188.194873 
L 357.452009 188.790652 
L 360.55776 188.280665 
L 363.663512 188.189494 
L 366.769263 189.231932 
L 369.875014 188.212243 
L 376.086517 188.359366 
L 379.192269 188.135856 
L 382.29802 188.765537 
L 385.403771 188.133314 
L 388.509523 189.5697 
L 391.615274 188.18274 
L 394.721026 190.142564 
L 397.826777 183.496678 
L 400.932528 186.504596 
L 404.03828 200.069687 
L 407.144031 182.42887 
L 410.249783 184.831167 
L 413.355534 194.668004 
L 416.461285 183.58439 
L 419.567037 184.901801 
L 422.672788 193.363048 
L 425.77854 196.952109 
L 428.884291 178.945709 
L 431.990042 185.196072 
L 435.095794 197.496534 
L 438.201545 182.582451 
L 441.307296 188.072134 
L 444.413048 189.649257 
L 447.518799 188.550607 
L 450.624551 191.786203 
L 453.730302 185.411443 
L 459.941805 190.975789 
L 463.047556 183.336024 
L 466.153308 189.040861 
L 469.259059 197.605916 
L 472.36481 180.479369 
L 475.470562 185.525119 
L 478.576313 196.406258 
L 481.682065 186.611807 
L 484.787816 186.281587 
L 487.893567 190.101731 
L 490.999319 189.086681 
L 494.10507 183.672505 
L 497.210822 189.110554 
L 500.316573 182.534628 
L 503.422324 198.499427 
L 506.528076 189.137935 
L 509.633827 183.093315 
L 512.739579 199.643785 
L 515.84533 178.495155 
L 518.951081 209.583331 
L 522.056833 170.871711 
L 525.162584 208.601359 
L 528.268335 137.342439 
L 531.374087 112.171696 
L 534.479838 377.64 
L 537.58559 146.661434 
L 540.691341 90.061368 
L 543.797092 286.960098 
L 546.902844 135.023883 
L 550.008595 189.258272 
L 553.114347 209.84115 
L 556.220098 176.617579 
L 559.325849 189.836118 
L 562.431601 175.56884 
L 565.537352 207.259173 
L 571.748855 176.935236 
L 574.854606 171.198553 
L 577.960358 213.020567 
L 581.066109 181.213297 
L 584.171861 182.094503 
L 587.277612 232.450826 
L 590.383363 161.294691 
L 593.489115 147.689801 
L 596.594866 205.087391 
L 599.700617 214.253482 
L 602.806369 185.981081 
L 605.91212 181.232064 
L 609.017872 187.318511 
L 612.123623 194.767504 
L 615.229374 179.344277 
L 618.335126 179.657501 
L 621.440877 210.869832 
L 624.546629 178.478473 
L 627.65238 182.056539 
L 630.758131 202.459125 
L 633.863883 180.948643 
L 636.969634 182.023249 
L 640.075386 187.99509 
L 643.181137 195.551246 
L 646.286888 192.32504 
L 649.39264 188.164737 
L 652.498391 187.226477 
L 655.604143 185.575881 
L 658.709894 187.172363 
L 661.815645 186.191268 
L 664.921397 189.145597 
L 668.027148 189.360225 
L 671.132899 192.897666 
L 674.238651 184.742637 
L 677.344402 186.450211 
L 680.450154 198.034703 
L 683.555905 189.046343 
L 686.661656 182.409593 
L 689.767408 180.850399 
L 692.873159 190.007195 
L 695.978911 192.61508 
L 699.084662 187.649172 
L 702.190413 196.599052 
L 708.401916 178.871918 
L 711.507668 191.376613 
L 714.613419 188.912312 
L 717.71917 188.723712 
L 720.824922 191.88801 
L 723.930673 183.957297 
L 727.036425 188.384289 
L 730.142176 190.160037 
L 733.247927 189.364434 
L 736.353679 187.521153 
L 739.45943 185.225396 
L 742.565181 193.524374 
L 745.670933 191.050186 
L 748.776684 185.518752 
L 751.882436 184.992227 
L 754.988187 186.073699 
L 758.093938 192.669622 
L 761.19969 190.476865 
L 764.305441 185.234865 
L 770.516944 191.66079 
L 773.622695 189.357053 
L 776.728447 186.305204 
L 779.834198 188.576197 
L 782.93995 186.943665 
L 786.045701 186.211338 
L 789.151452 190.484009 
L 792.257204 189.939259 
L 798.468707 188.622658 
L 801.574458 188.901658 
L 804.680209 185.783891 
L 807.785961 187.423508 
L 810.891712 190.733144 
L 813.997463 187.483008 
L 817.103215 189.826948 
L 820.208966 187.646766 
L 823.314718 188.953252 
L 826.420469 189.676889 
L 829.52622 185.19397 
L 832.631972 191.354416 
L 835.737723 189.316661 
L 835.737723 189.316661 
" clip-path="url(#p6b7b1916bf)" style="fill: none; stroke: #696969; stroke-width: 0.75; stroke-linecap: square"/>
   </g>
   <g id="line2d_19">
    <path d="M 96.568892 180.118044 
L 99.674643 197.511531 
L 102.780395 190.24712 
L 105.886146 176.021477 
L 108.991898 189.975616 
L 112.097649 189.799663 
L 115.2034 191.290424 
L 118.309152 185.027775 
L 121.414903 189.889277 
L 124.520655 193.562047 
L 127.626406 188.128143 
L 130.732157 180.795758 
L 133.837909 187.6414 
L 136.94366 199.751894 
L 140.049412 180.975734 
L 143.155163 193.340042 
L 146.260914 189.315255 
L 149.366666 173.080758 
L 152.472417 196.827584 
L 155.578168 189.58674 
L 158.68392 194.330124 
L 161.789671 192.936229 
L 164.895423 169.376411 
L 168.001174 198.879974 
L 171.106925 194.425271 
L 174.212677 176.301865 
L 177.318428 198.887337 
L 180.42418 181.778689 
L 183.529931 188.960648 
L 186.635682 195.381098 
L 189.741434 173.436148 
L 192.847185 198.110638 
L 195.952937 189.951588 
L 199.058688 188.798973 
L 202.164439 195.980459 
L 205.270191 172.850952 
L 208.375942 194.858799 
L 211.481694 192.842794 
L 214.587445 178.577839 
L 217.693196 189.706038 
L 220.798948 191.832523 
L 223.904699 192.504436 
L 227.01045 185.159394 
L 230.116202 192.229919 
L 233.221953 185.488964 
L 236.327705 183.884288 
L 239.433456 198.970054 
L 242.539207 179.837218 
L 245.644959 189.126186 
L 248.75071 189.316936 
L 251.856462 181.373555 
L 254.962213 202.634949 
L 258.067964 180.003267 
L 261.173716 187.95 
L 264.279467 196.447296 
L 267.385219 178.024496 
L 270.49097 197.339218 
L 273.596721 186.272904 
L 276.702473 184.930922 
L 279.808224 193.232451 
L 282.913976 182.68864 
L 286.019727 194.266024 
L 289.125478 184.895041 
L 292.23123 178.634949 
L 295.336981 199.115898 
L 298.442732 194.117334 
L 301.548484 180.903591 
L 304.654235 194.842692 
L 307.759987 186.386334 
L 310.865738 180.057593 
L 313.971489 200.017166 
L 317.077241 179.895707 
L 320.182992 182.269648 
L 323.288744 198.541462 
L 326.394495 184.440904 
L 329.500246 199.494538 
L 332.605998 186.532669 
L 335.711749 174.648777 
L 338.817501 204.043377 
L 341.923252 176.577784 
L 345.029003 180.348118 
L 348.134755 209.478084 
L 351.240506 179.790621 
L 354.346258 193.653275 
L 357.452009 183.617808 
L 360.55776 174.924863 
L 363.663512 207.681804 
L 366.769263 180.617531 
L 369.875014 187.369052 
L 372.980766 195.336028 
L 376.086517 178.299614 
L 379.192269 194.006379 
L 382.29802 197.639983 
L 385.403771 187.551101 
L 388.509523 178.914725 
L 391.615274 187.231896 
L 394.721026 184.128799 
L 397.826777 188.428123 
L 400.932528 196.490783 
L 404.03828 188.808985 
L 407.144031 187.122591 
L 413.355534 198.443568 
L 416.461285 171.374117 
L 419.567037 187.832888 
L 422.672788 197.619005 
L 425.77854 172.207939 
L 428.884291 189.050264 
L 435.095794 200.155346 
L 438.201545 184.206154 
L 441.307296 187.677836 
L 444.413048 197.579816 
L 447.518799 169.640941 
L 450.624551 196.759696 
L 453.730302 192.773986 
L 456.836053 164.353752 
L 459.941805 200.104029 
L 463.047556 203.672832 
L 466.153308 180.475052 
L 469.259059 199.75976 
L 472.36481 190.073268 
L 475.470562 166.451188 
L 478.576313 176.473897 
L 481.682065 210.53801 
L 484.787816 210.633352 
L 487.893567 144.97444 
L 490.999319 196.244735 
L 494.10507 223.498087 
L 497.210822 152.221169 
L 500.316573 209.506967 
L 503.422324 215.124848 
L 506.528076 137.234473 
L 509.633827 177.027708 
L 512.739579 232.855411 
L 515.84533 167.858514 
L 518.951081 173.933359 
L 522.056833 238.611409 
L 525.162584 138.743122 
L 528.268335 185.460999 
L 531.374087 271.732343 
L 534.479838 120.595115 
L 537.58559 165.86808 
L 540.691341 235.550506 
L 543.797092 144.861551 
L 546.902844 207.952095 
L 550.008595 215.733061 
L 553.114347 172.34271 
L 556.220098 185.796797 
L 559.325849 170.750498 
L 562.431601 215.522811 
L 565.537352 170.33088 
L 568.643104 167.779565 
L 571.748855 252.490724 
L 574.854606 146.667974 
L 577.960358 167.610961 
L 581.066109 240.365533 
L 584.171861 168.797658 
L 587.277612 190.064677 
L 590.383363 173.465999 
L 593.489115 185.710652 
L 596.594866 195.271689 
L 599.700617 151.496643 
L 602.806369 238.559527 
L 605.91212 208.046554 
L 609.017872 146.761778 
L 612.123623 228.020591 
L 615.229374 180.050717 
L 618.335126 145.554272 
L 621.440877 207.988059 
L 624.546629 175.497422 
L 627.65238 194.263512 
L 630.758131 211.869156 
L 633.863883 182.052777 
L 636.969634 180.130261 
L 640.075386 179.922594 
L 643.181137 219.167824 
L 646.286888 169.710085 
L 649.39264 165.980287 
L 652.498391 231.793276 
L 655.604143 178.584882 
L 658.709894 172.950524 
L 661.815645 190.315276 
L 664.921397 173.879701 
L 668.027148 201.856517 
L 671.132899 189.350689 
L 674.238651 186.147642 
L 677.344402 215.887631 
L 680.450154 169.273805 
L 683.555905 165.929221 
L 686.661656 202.357114 
L 689.767408 195.444275 
L 692.873159 197.586208 
L 695.978911 181.088065 
L 699.084662 200.701141 
L 702.190413 156.980172 
L 705.296165 162.216808 
L 708.401916 255.586272 
L 711.507668 170.645135 
L 714.613419 191.418975 
L 717.71917 204.115106 
L 717.71917 204.115106 
" clip-path="url(#p6b7b1916bf)" style="fill: none; stroke: #696969; stroke-width: 0.75; stroke-linecap: square"/>
   </g>
   <g id="patch_3">
    <path d="M 58.523438 395.28 
L 58.523438 7.2 
" style="fill: none; stroke: #000000; stroke-width: 0.8; stroke-linejoin: miter; stroke-linecap: square"/>
   </g>
   <g id="patch_4">
    <path d="M 895.523438 395.28 
L 895.523438 7.2 
" style="fill: none; stroke: #000000; stroke-width: 0.8; stroke-linejoin: miter; stroke-linecap: square"/>
   </g>
   <g id="patch_5">
    <path d="M 58.523438 395.28 
L 895.523438 395.28 
" style="fill: none; stroke: #000000; stroke-width: 0.8; stroke-linejoin: miter; stroke-linecap: square"/>
   </g>
   <g id="patch_6">
    <path d="M 58.523438 7.2 
L 895.523438 7.2 
" style="fill: none; stroke: #000000; stroke-width: 0.8; stroke-linejoin: miter; stroke-linecap: square"/>
   </g>
  </g>
 </g>
 <defs>
  <clipPath id="p6b7b1916bf">
   <rect x="58.523438" y="7.2" width="837" height="388.08"/>
  </clipPath>
 </defs>
</svg>
