<?xml version="1.0" encoding="utf-8" standalone="no"?>
<!DOCTYPE svg PUBLIC "-//W3C//DTD SVG 1.1//EN"
  "http://www.w3.org/Graphics/SVG/1.1/DTD/svg11.dtd">
<svg xmlns:xlink="http://www.w3.org/1999/xlink" width="886.820312pt" height="432.83625pt" viewBox="0 0 886.820312 432.83625" xmlns="http://www.w3.org/2000/svg" version="1.1">
 <metadata>
  <rdf:RDF xmlns:dc="http://purl.org/dc/elements/1.1/" xmlns:cc="http://creativecommons.org/ns#" xmlns:rdf="http://www.w3.org/1999/02/22-rdf-syntax-ns#">
   <cc:Work>
    <dc:type rdf:resource="http://purl.org/dc/dcmitype/StillImage"/>
    <dc:date>2023-05-24T14:20:43.561764</dc:date>
    <dc:format>image/svg+xml</dc:format>
    <dc:creator>
     <cc:Agent>
      <dc:title>Matplotlib v3.5.2, https://matplotlib.org/</dc:title>
     </cc:Agent>
    </dc:creator>
   </cc:Work>
  </rdf:RDF>
 </metadata>
 <defs>
  <style type="text/css">*{stroke-linejoin: round; stroke-linecap: butt}</style>
 </defs>
 <g id="figure_1">
  <g id="patch_1">
   <path d="M 0 432.83625 
L 886.820312 432.83625 
L 886.820312 0 
L 0 0 
z
" style="fill: #ffffff"/>
  </g>
  <g id="axes_1">
   <g id="patch_2">
    <path d="M 42.620313 395.28 
L 879.620312 395.28 
L 879.620312 7.2 
L 42.620313 7.2 
z
" style="fill: #ffffff"/>
   </g>
   <g id="matplotlib.axis_1">
    <g id="xtick_1">
     <g id="line2d_1">
      <defs>
       <path id="m19cf20d057" d="M 0 0 
L 0 3.5 
" style="stroke: #000000; stroke-width: 0.8"/>
      </defs>
      <g>
       <use xlink:href="#m19cf20d057" x="114.071532" y="395.28" style="stroke: #000000; stroke-width: 0.8"/>
      </g>
     </g>
     <g id="text_1">
      <!-- −100 -->
      <g transform="translate(100.337938 409.878437)scale(0.1 -0.1)">
       <defs>
        <path id="DejaVuSans-2212" d="M 678 2272 
L 4684 2272 
L 4684 1741 
L 678 1741 
L 678 2272 
z
" transform="scale(0.015625)"/>
        <path id="DejaVuSans-31" d="M 794 531 
L 1825 531 
L 1825 4091 
L 703 3866 
L 703 4441 
L 1819 4666 
L 2450 4666 
L 2450 531 
L 3481 531 
L 3481 0 
L 794 0 
L 794 531 
z
" transform="scale(0.015625)"/>
        <path id="DejaVuSans-30" d="M 2034 4250 
Q 1547 4250 1301 3770 
Q 1056 3291 1056 2328 
Q 1056 1369 1301 889 
Q 1547 409 2034 409 
Q 2525 409 2770 889 
Q 3016 1369 3016 2328 
Q 3016 3291 2770 3770 
Q 2525 4250 2034 4250 
z
M 2034 4750 
Q 2819 4750 3233 4129 
Q 3647 3509 3647 2328 
Q 3647 1150 3233 529 
Q 2819 -91 2034 -91 
Q 1250 -91 836 529 
Q 422 1150 422 2328 
Q 422 3509 836 4129 
Q 1250 4750 2034 4750 
z
" transform="scale(0.015625)"/>
       </defs>
       <use xlink:href="#DejaVuSans-2212"/>
       <use xlink:href="#DejaVuSans-31" x="83.789062"/>
       <use xlink:href="#DejaVuSans-30" x="147.412109"/>
       <use xlink:href="#DejaVuSans-30" x="211.035156"/>
      </g>
     </g>
    </g>
    <g id="xtick_2">
     <g id="line2d_2">
      <g>
       <use xlink:href="#m19cf20d057" x="299.659115" y="395.28" style="stroke: #000000; stroke-width: 0.8"/>
      </g>
     </g>
     <g id="text_2">
      <!-- −50 -->
      <g transform="translate(289.106771 409.878437)scale(0.1 -0.1)">
       <defs>
        <path id="DejaVuSans-35" d="M 691 4666 
L 3169 4666 
L 3169 4134 
L 1269 4134 
L 1269 2991 
Q 1406 3038 1543 3061 
Q 1681 3084 1819 3084 
Q 2600 3084 3056 2656 
Q 3513 2228 3513 1497 
Q 3513 744 3044 326 
Q 2575 -91 1722 -91 
Q 1428 -91 1123 -41 
Q 819 9 494 109 
L 494 744 
Q 775 591 1075 516 
Q 1375 441 1709 441 
Q 2250 441 2565 725 
Q 2881 1009 2881 1497 
Q 2881 1984 2565 2268 
Q 2250 2553 1709 2553 
Q 1456 2553 1204 2497 
Q 953 2441 691 2322 
L 691 4666 
z
" transform="scale(0.015625)"/>
       </defs>
       <use xlink:href="#DejaVuSans-2212"/>
       <use xlink:href="#DejaVuSans-35" x="83.789062"/>
       <use xlink:href="#DejaVuSans-30" x="147.412109"/>
      </g>
     </g>
    </g>
    <g id="xtick_3">
     <g id="line2d_3">
      <g>
       <use xlink:href="#m19cf20d057" x="485.246698" y="395.28" style="stroke: #000000; stroke-width: 0.8"/>
      </g>
     </g>
     <g id="text_3">
      <!-- 0 -->
      <g transform="translate(482.065448 409.878437)scale(0.1 -0.1)">
       <use xlink:href="#DejaVuSans-30"/>
      </g>
     </g>
    </g>
    <g id="xtick_4">
     <g id="line2d_4">
      <g>
       <use xlink:href="#m19cf20d057" x="670.834281" y="395.28" style="stroke: #000000; stroke-width: 0.8"/>
      </g>
     </g>
     <g id="text_4">
      <!-- 50 -->
      <g transform="translate(664.471781 409.878437)scale(0.1 -0.1)">
       <use xlink:href="#DejaVuSans-35"/>
       <use xlink:href="#DejaVuSans-30" x="63.623047"/>
      </g>
     </g>
    </g>
    <g id="xtick_5">
     <g id="line2d_5">
      <g>
       <use xlink:href="#m19cf20d057" x="856.421865" y="395.28" style="stroke: #000000; stroke-width: 0.8"/>
      </g>
     </g>
     <g id="text_5">
      <!-- 100 -->
      <g transform="translate(846.878115 409.878437)scale(0.1 -0.1)">
       <use xlink:href="#DejaVuSans-31"/>
       <use xlink:href="#DejaVuSans-30" x="63.623047"/>
       <use xlink:href="#DejaVuSans-30" x="127.246094"/>
      </g>
     </g>
    </g>
    <g id="text_6">
     <!-- Time to max (samples) -->
     <g transform="translate(403.521094 423.556562)scale(0.1 -0.1)">
      <defs>
       <path id="DejaVuSans-54" d="M -19 4666 
L 3928 4666 
L 3928 4134 
L 2272 4134 
L 2272 0 
L 1638 0 
L 1638 4134 
L -19 4134 
L -19 4666 
z
" transform="scale(0.015625)"/>
       <path id="DejaVuSans-69" d="M 603 3500 
L 1178 3500 
L 1178 0 
L 603 0 
L 603 3500 
z
M 603 4863 
L 1178 4863 
L 1178 4134 
L 603 4134 
L 603 4863 
z
" transform="scale(0.015625)"/>
       <path id="DejaVuSans-6d" d="M 3328 2828 
Q 3544 3216 3844 3400 
Q 4144 3584 4550 3584 
Q 5097 3584 5394 3201 
Q 5691 2819 5691 2113 
L 5691 0 
L 5113 0 
L 5113 2094 
Q 5113 2597 4934 2840 
Q 4756 3084 4391 3084 
Q 3944 3084 3684 2787 
Q 3425 2491 3425 1978 
L 3425 0 
L 2847 0 
L 2847 2094 
Q 2847 2600 2669 2842 
Q 2491 3084 2119 3084 
Q 1678 3084 1418 2786 
Q 1159 2488 1159 1978 
L 1159 0 
L 581 0 
L 581 3500 
L 1159 3500 
L 1159 2956 
Q 1356 3278 1631 3431 
Q 1906 3584 2284 3584 
Q 2666 3584 2933 3390 
Q 3200 3197 3328 2828 
z
" transform="scale(0.015625)"/>
       <path id="DejaVuSans-65" d="M 3597 1894 
L 3597 1613 
L 953 1613 
Q 991 1019 1311 708 
Q 1631 397 2203 397 
Q 2534 397 2845 478 
Q 3156 559 3463 722 
L 3463 178 
Q 3153 47 2828 -22 
Q 2503 -91 2169 -91 
Q 1331 -91 842 396 
Q 353 884 353 1716 
Q 353 2575 817 3079 
Q 1281 3584 2069 3584 
Q 2775 3584 3186 3129 
Q 3597 2675 3597 1894 
z
M 3022 2063 
Q 3016 2534 2758 2815 
Q 2500 3097 2075 3097 
Q 1594 3097 1305 2825 
Q 1016 2553 972 2059 
L 3022 2063 
z
" transform="scale(0.015625)"/>
       <path id="DejaVuSans-20" transform="scale(0.015625)"/>
       <path id="DejaVuSans-74" d="M 1172 4494 
L 1172 3500 
L 2356 3500 
L 2356 3053 
L 1172 3053 
L 1172 1153 
Q 1172 725 1289 603 
Q 1406 481 1766 481 
L 2356 481 
L 2356 0 
L 1766 0 
Q 1100 0 847 248 
Q 594 497 594 1153 
L 594 3053 
L 172 3053 
L 172 3500 
L 594 3500 
L 594 4494 
L 1172 4494 
z
" transform="scale(0.015625)"/>
       <path id="DejaVuSans-6f" d="M 1959 3097 
Q 1497 3097 1228 2736 
Q 959 2375 959 1747 
Q 959 1119 1226 758 
Q 1494 397 1959 397 
Q 2419 397 2687 759 
Q 2956 1122 2956 1747 
Q 2956 2369 2687 2733 
Q 2419 3097 1959 3097 
z
M 1959 3584 
Q 2709 3584 3137 3096 
Q 3566 2609 3566 1747 
Q 3566 888 3137 398 
Q 2709 -91 1959 -91 
Q 1206 -91 779 398 
Q 353 888 353 1747 
Q 353 2609 779 3096 
Q 1206 3584 1959 3584 
z
" transform="scale(0.015625)"/>
       <path id="DejaVuSans-61" d="M 2194 1759 
Q 1497 1759 1228 1600 
Q 959 1441 959 1056 
Q 959 750 1161 570 
Q 1363 391 1709 391 
Q 2188 391 2477 730 
Q 2766 1069 2766 1631 
L 2766 1759 
L 2194 1759 
z
M 3341 1997 
L 3341 0 
L 2766 0 
L 2766 531 
Q 2569 213 2275 61 
Q 1981 -91 1556 -91 
Q 1019 -91 701 211 
Q 384 513 384 1019 
Q 384 1609 779 1909 
Q 1175 2209 1959 2209 
L 2766 2209 
L 2766 2266 
Q 2766 2663 2505 2880 
Q 2244 3097 1772 3097 
Q 1472 3097 1187 3025 
Q 903 2953 641 2809 
L 641 3341 
Q 956 3463 1253 3523 
Q 1550 3584 1831 3584 
Q 2591 3584 2966 3190 
Q 3341 2797 3341 1997 
z
" transform="scale(0.015625)"/>
       <path id="DejaVuSans-78" d="M 3513 3500 
L 2247 1797 
L 3578 0 
L 2900 0 
L 1881 1375 
L 863 0 
L 184 0 
L 1544 1831 
L 300 3500 
L 978 3500 
L 1906 2253 
L 2834 3500 
L 3513 3500 
z
" transform="scale(0.015625)"/>
       <path id="DejaVuSans-28" d="M 1984 4856 
Q 1566 4138 1362 3434 
Q 1159 2731 1159 2009 
Q 1159 1288 1364 580 
Q 1569 -128 1984 -844 
L 1484 -844 
Q 1016 -109 783 600 
Q 550 1309 550 2009 
Q 550 2706 781 3412 
Q 1013 4119 1484 4856 
L 1984 4856 
z
" transform="scale(0.015625)"/>
       <path id="DejaVuSans-73" d="M 2834 3397 
L 2834 2853 
Q 2591 2978 2328 3040 
Q 2066 3103 1784 3103 
Q 1356 3103 1142 2972 
Q 928 2841 928 2578 
Q 928 2378 1081 2264 
Q 1234 2150 1697 2047 
L 1894 2003 
Q 2506 1872 2764 1633 
Q 3022 1394 3022 966 
Q 3022 478 2636 193 
Q 2250 -91 1575 -91 
Q 1294 -91 989 -36 
Q 684 19 347 128 
L 347 722 
Q 666 556 975 473 
Q 1284 391 1588 391 
Q 1994 391 2212 530 
Q 2431 669 2431 922 
Q 2431 1156 2273 1281 
Q 2116 1406 1581 1522 
L 1381 1569 
Q 847 1681 609 1914 
Q 372 2147 372 2553 
Q 372 3047 722 3315 
Q 1072 3584 1716 3584 
Q 2034 3584 2315 3537 
Q 2597 3491 2834 3397 
z
" transform="scale(0.015625)"/>
       <path id="DejaVuSans-70" d="M 1159 525 
L 1159 -1331 
L 581 -1331 
L 581 3500 
L 1159 3500 
L 1159 2969 
Q 1341 3281 1617 3432 
Q 1894 3584 2278 3584 
Q 2916 3584 3314 3078 
Q 3713 2572 3713 1747 
Q 3713 922 3314 415 
Q 2916 -91 2278 -91 
Q 1894 -91 1617 61 
Q 1341 213 1159 525 
z
M 3116 1747 
Q 3116 2381 2855 2742 
Q 2594 3103 2138 3103 
Q 1681 3103 1420 2742 
Q 1159 2381 1159 1747 
Q 1159 1113 1420 752 
Q 1681 391 2138 391 
Q 2594 391 2855 752 
Q 3116 1113 3116 1747 
z
" transform="scale(0.015625)"/>
       <path id="DejaVuSans-6c" d="M 603 4863 
L 1178 4863 
L 1178 0 
L 603 0 
L 603 4863 
z
" transform="scale(0.015625)"/>
       <path id="DejaVuSans-29" d="M 513 4856 
L 1013 4856 
Q 1481 4119 1714 3412 
Q 1947 2706 1947 2009 
Q 1947 1309 1714 600 
Q 1481 -109 1013 -844 
L 513 -844 
Q 928 -128 1133 580 
Q 1338 1288 1338 2009 
Q 1338 2731 1133 3434 
Q 928 4138 513 4856 
z
" transform="scale(0.015625)"/>
      </defs>
      <use xlink:href="#DejaVuSans-54"/>
      <use xlink:href="#DejaVuSans-69" x="57.958984"/>
      <use xlink:href="#DejaVuSans-6d" x="85.742188"/>
      <use xlink:href="#DejaVuSans-65" x="183.154297"/>
      <use xlink:href="#DejaVuSans-20" x="244.677734"/>
      <use xlink:href="#DejaVuSans-74" x="276.464844"/>
      <use xlink:href="#DejaVuSans-6f" x="315.673828"/>
      <use xlink:href="#DejaVuSans-20" x="376.855469"/>
      <use xlink:href="#DejaVuSans-6d" x="408.642578"/>
      <use xlink:href="#DejaVuSans-61" x="506.054688"/>
      <use xlink:href="#DejaVuSans-78" x="567.333984"/>
      <use xlink:href="#DejaVuSans-20" x="626.513672"/>
      <use xlink:href="#DejaVuSans-28" x="658.300781"/>
      <use xlink:href="#DejaVuSans-73" x="697.314453"/>
      <use xlink:href="#DejaVuSans-61" x="749.414062"/>
      <use xlink:href="#DejaVuSans-6d" x="810.693359"/>
      <use xlink:href="#DejaVuSans-70" x="908.105469"/>
      <use xlink:href="#DejaVuSans-6c" x="971.582031"/>
      <use xlink:href="#DejaVuSans-65" x="999.365234"/>
      <use xlink:href="#DejaVuSans-73" x="1060.888672"/>
      <use xlink:href="#DejaVuSans-29" x="1112.988281"/>
     </g>
    </g>
   </g>
   <g id="matplotlib.axis_2">
    <g id="ytick_1">
     <g id="line2d_6">
      <defs>
       <path id="m1be5ed57de" d="M 0 0 
L -3.5 0 
" style="stroke: #000000; stroke-width: 0.8"/>
      </defs>
      <g>
       <use xlink:href="#m1be5ed57de" x="42.620313" y="386.673044" style="stroke: #000000; stroke-width: 0.8"/>
      </g>
     </g>
     <g id="text_7">
      <!-- −6 -->
      <g transform="translate(20.878125 390.472263)scale(0.1 -0.1)">
       <defs>
        <path id="DejaVuSans-36" d="M 2113 2584 
Q 1688 2584 1439 2293 
Q 1191 2003 1191 1497 
Q 1191 994 1439 701 
Q 1688 409 2113 409 
Q 2538 409 2786 701 
Q 3034 994 3034 1497 
Q 3034 2003 2786 2293 
Q 2538 2584 2113 2584 
z
M 3366 4563 
L 3366 3988 
Q 3128 4100 2886 4159 
Q 2644 4219 2406 4219 
Q 1781 4219 1451 3797 
Q 1122 3375 1075 2522 
Q 1259 2794 1537 2939 
Q 1816 3084 2150 3084 
Q 2853 3084 3261 2657 
Q 3669 2231 3669 1497 
Q 3669 778 3244 343 
Q 2819 -91 2113 -91 
Q 1303 -91 875 529 
Q 447 1150 447 2328 
Q 447 3434 972 4092 
Q 1497 4750 2381 4750 
Q 2619 4750 2861 4703 
Q 3103 4656 3366 4563 
z
" transform="scale(0.015625)"/>
       </defs>
       <use xlink:href="#DejaVuSans-2212"/>
       <use xlink:href="#DejaVuSans-36" x="83.789062"/>
      </g>
     </g>
    </g>
    <g id="ytick_2">
     <g id="line2d_7">
      <g>
       <use xlink:href="#m1be5ed57de" x="42.620313" y="323.425079" style="stroke: #000000; stroke-width: 0.8"/>
      </g>
     </g>
     <g id="text_8">
      <!-- −4 -->
      <g transform="translate(20.878125 327.224298)scale(0.1 -0.1)">
       <defs>
        <path id="DejaVuSans-34" d="M 2419 4116 
L 825 1625 
L 2419 1625 
L 2419 4116 
z
M 2253 4666 
L 3047 4666 
L 3047 1625 
L 3713 1625 
L 3713 1100 
L 3047 1100 
L 3047 0 
L 2419 0 
L 2419 1100 
L 313 1100 
L 313 1709 
L 2253 4666 
z
" transform="scale(0.015625)"/>
       </defs>
       <use xlink:href="#DejaVuSans-2212"/>
       <use xlink:href="#DejaVuSans-34" x="83.789062"/>
      </g>
     </g>
    </g>
    <g id="ytick_3">
     <g id="line2d_8">
      <g>
       <use xlink:href="#m1be5ed57de" x="42.620313" y="260.177115" style="stroke: #000000; stroke-width: 0.8"/>
      </g>
     </g>
     <g id="text_9">
      <!-- −2 -->
      <g transform="translate(20.878125 263.976333)scale(0.1 -0.1)">
       <defs>
        <path id="DejaVuSans-32" d="M 1228 531 
L 3431 531 
L 3431 0 
L 469 0 
L 469 531 
Q 828 903 1448 1529 
Q 2069 2156 2228 2338 
Q 2531 2678 2651 2914 
Q 2772 3150 2772 3378 
Q 2772 3750 2511 3984 
Q 2250 4219 1831 4219 
Q 1534 4219 1204 4116 
Q 875 4013 500 3803 
L 500 4441 
Q 881 4594 1212 4672 
Q 1544 4750 1819 4750 
Q 2544 4750 2975 4387 
Q 3406 4025 3406 3419 
Q 3406 3131 3298 2873 
Q 3191 2616 2906 2266 
Q 2828 2175 2409 1742 
Q 1991 1309 1228 531 
z
" transform="scale(0.015625)"/>
       </defs>
       <use xlink:href="#DejaVuSans-2212"/>
       <use xlink:href="#DejaVuSans-32" x="83.789062"/>
      </g>
     </g>
    </g>
    <g id="ytick_4">
     <g id="line2d_9">
      <g>
       <use xlink:href="#m1be5ed57de" x="42.620313" y="196.92915" style="stroke: #000000; stroke-width: 0.8"/>
      </g>
     </g>
     <g id="text_10">
      <!-- 0 -->
      <g transform="translate(29.257813 200.728369)scale(0.1 -0.1)">
       <use xlink:href="#DejaVuSans-30"/>
      </g>
     </g>
    </g>
    <g id="ytick_5">
     <g id="line2d_10">
      <g>
       <use xlink:href="#m1be5ed57de" x="42.620313" y="133.681185" style="stroke: #000000; stroke-width: 0.8"/>
      </g>
     </g>
     <g id="text_11">
      <!-- 2 -->
      <g transform="translate(29.257813 137.480404)scale(0.1 -0.1)">
       <use xlink:href="#DejaVuSans-32"/>
      </g>
     </g>
    </g>
    <g id="ytick_6">
     <g id="line2d_11">
      <g>
       <use xlink:href="#m1be5ed57de" x="42.620313" y="70.433221" style="stroke: #000000; stroke-width: 0.8"/>
      </g>
     </g>
     <g id="text_12">
      <!-- 4 -->
      <g transform="translate(29.257813 74.23244)scale(0.1 -0.1)">
       <use xlink:href="#DejaVuSans-34"/>
      </g>
     </g>
    </g>
    <g id="text_13">
     <!-- Velocity (AU) -->
     <g transform="translate(14.798438 233.425937)rotate(-90)scale(0.1 -0.1)">
      <defs>
       <path id="DejaVuSans-56" d="M 1831 0 
L 50 4666 
L 709 4666 
L 2188 738 
L 3669 4666 
L 4325 4666 
L 2547 0 
L 1831 0 
z
" transform="scale(0.015625)"/>
       <path id="DejaVuSans-63" d="M 3122 3366 
L 3122 2828 
Q 2878 2963 2633 3030 
Q 2388 3097 2138 3097 
Q 1578 3097 1268 2742 
Q 959 2388 959 1747 
Q 959 1106 1268 751 
Q 1578 397 2138 397 
Q 2388 397 2633 464 
Q 2878 531 3122 666 
L 3122 134 
Q 2881 22 2623 -34 
Q 2366 -91 2075 -91 
Q 1284 -91 818 406 
Q 353 903 353 1747 
Q 353 2603 823 3093 
Q 1294 3584 2113 3584 
Q 2378 3584 2631 3529 
Q 2884 3475 3122 3366 
z
" transform="scale(0.015625)"/>
       <path id="DejaVuSans-79" d="M 2059 -325 
Q 1816 -950 1584 -1140 
Q 1353 -1331 966 -1331 
L 506 -1331 
L 506 -850 
L 844 -850 
Q 1081 -850 1212 -737 
Q 1344 -625 1503 -206 
L 1606 56 
L 191 3500 
L 800 3500 
L 1894 763 
L 2988 3500 
L 3597 3500 
L 2059 -325 
z
" transform="scale(0.015625)"/>
       <path id="DejaVuSans-41" d="M 2188 4044 
L 1331 1722 
L 3047 1722 
L 2188 4044 
z
M 1831 4666 
L 2547 4666 
L 4325 0 
L 3669 0 
L 3244 1197 
L 1141 1197 
L 716 0 
L 50 0 
L 1831 4666 
z
" transform="scale(0.015625)"/>
       <path id="DejaVuSans-55" d="M 556 4666 
L 1191 4666 
L 1191 1831 
Q 1191 1081 1462 751 
Q 1734 422 2344 422 
Q 2950 422 3222 751 
Q 3494 1081 3494 1831 
L 3494 4666 
L 4128 4666 
L 4128 1753 
Q 4128 841 3676 375 
Q 3225 -91 2344 -91 
Q 1459 -91 1007 375 
Q 556 841 556 1753 
L 556 4666 
z
" transform="scale(0.015625)"/>
      </defs>
      <use xlink:href="#DejaVuSans-56"/>
      <use xlink:href="#DejaVuSans-65" x="60.658203"/>
      <use xlink:href="#DejaVuSans-6c" x="122.181641"/>
      <use xlink:href="#DejaVuSans-6f" x="149.964844"/>
      <use xlink:href="#DejaVuSans-63" x="211.146484"/>
      <use xlink:href="#DejaVuSans-69" x="266.126953"/>
      <use xlink:href="#DejaVuSans-74" x="293.910156"/>
      <use xlink:href="#DejaVuSans-79" x="333.119141"/>
      <use xlink:href="#DejaVuSans-20" x="392.298828"/>
      <use xlink:href="#DejaVuSans-28" x="424.085938"/>
      <use xlink:href="#DejaVuSans-41" x="463.099609"/>
      <use xlink:href="#DejaVuSans-55" x="531.507812"/>
      <use xlink:href="#DejaVuSans-29" x="604.701172"/>
     </g>
    </g>
   </g>
   <g id="line2d_12">
    <path d="M 99.224525 197.359617 
L 102.936277 195.505647 
L 106.648029 196.202613 
L 110.35978 197.779555 
L 114.071532 196.753998 
L 117.783284 196.955333 
L 121.495035 196.281281 
L 125.206787 196.160314 
L 128.918539 198.486856 
L 132.63029 198.056489 
L 136.342042 196.225369 
L 140.053794 196.9415 
L 143.765545 196.960083 
L 147.477297 196.507131 
L 151.189049 197.386248 
L 154.9008 196.6645 
L 158.612552 195.760117 
L 162.324304 196.768445 
L 166.036055 197.176844 
L 169.747807 197.721974 
L 173.459559 196.784602 
L 177.17131 196.565979 
L 180.883062 198.234091 
L 184.594814 197.033853 
L 188.306565 197.08182 
L 192.018317 196.508137 
L 195.730069 195.627895 
L 199.44182 196.724976 
L 206.865324 197.965177 
L 210.577075 196.450492 
L 214.288827 196.209068 
L 221.71233 197.111319 
L 225.424082 198.690929 
L 229.135834 196.422835 
L 232.847585 195.785015 
L 236.559337 197.496448 
L 240.271089 197.422097 
L 243.98284 197.958384 
L 247.694592 195.356241 
L 251.406344 195.500182 
L 255.118095 197.746289 
L 258.829847 196.394523 
L 262.541599 197.872732 
L 266.25335 197.977308 
L 269.965102 196.657525 
L 273.676854 196.949162 
L 277.388605 196.432686 
L 281.100357 196.592104 
L 284.812109 197.095277 
L 288.52386 197.129231 
L 292.235612 196.92079 
L 295.947363 196.413751 
L 299.659115 197.526592 
L 303.370867 197.941952 
L 307.082618 194.481804 
L 310.79437 196.766037 
L 314.506122 198.007449 
L 318.217873 197.666421 
L 321.929625 197.057113 
L 325.641377 196.186243 
L 329.353128 198.938482 
L 333.06488 194.816985 
L 336.776632 200.075978 
L 340.488383 193.773151 
L 344.200135 194.123224 
L 347.911887 199.190154 
L 351.623638 190.94155 
L 355.33539 208.793407 
L 359.047142 200.086936 
L 362.758893 188.14896 
L 366.470645 189.155558 
L 370.182397 200.78467 
L 373.894148 209.108981 
L 377.6059 189.256276 
L 381.317652 202.330281 
L 385.029403 192.640213 
L 388.741155 192.243776 
L 392.452907 200.382612 
L 396.164658 190.58195 
L 399.87641 209.254942 
L 403.588162 190.232113 
L 407.299913 192.44165 
L 411.011665 202.718842 
L 414.723417 191.0682 
L 418.435168 209.557402 
L 422.14692 189.451078 
L 425.858672 187.144836 
L 429.570423 216.409229 
L 433.282175 205.636559 
L 436.993927 185.939335 
L 440.705678 186.937386 
L 444.41743 200.798093 
L 448.129182 188.853422 
L 451.840933 196.340678 
L 455.552685 172.244907 
L 459.264437 188.122573 
L 462.976188 244.643675 
L 466.68794 237.575926 
L 470.399692 205.192989 
L 474.111443 114.241873 
L 477.823195 266.133558 
L 481.534947 191.173673 
L 485.246698 24.84 
L 488.95845 333.412113 
L 492.670202 254.391883 
L 496.381953 106.395501 
L 500.093705 189.0098 
L 503.805457 281.032462 
L 507.517208 213.368914 
L 511.22896 66.801224 
L 514.940712 325.263451 
L 518.652463 162.116586 
L 522.364215 81.716305 
L 526.075967 315.584844 
L 529.787718 143.723997 
L 533.49947 220.157336 
L 537.211222 229.784534 
L 540.922973 155.898306 
L 544.634725 258.185555 
L 548.346477 185.046685 
L 552.058228 124.024161 
L 555.76998 140.082722 
L 559.481732 289.021711 
L 563.193483 267.567753 
L 566.905235 117.22186 
L 570.616987 183.768637 
L 574.328738 212.541757 
L 578.04049 236.540602 
L 581.752242 179.894652 
L 585.463993 135.94426 
L 589.175745 234.021591 
L 592.887497 224.458127 
L 596.599248 181.820596 
L 600.311 181.395934 
L 604.022752 207.914013 
L 607.734503 209.332292 
L 611.446255 189.732963 
L 615.158007 180.893684 
L 618.869758 195.510418 
L 622.58151 212.929829 
L 626.293262 185.148061 
L 630.005013 205.42597 
L 633.716765 214.451473 
L 637.428516 177.296617 
L 641.140268 178.02582 
L 644.85202 219.494936 
L 648.563771 214.542039 
L 652.275523 176.74417 
L 655.987275 197.720706 
L 659.699026 192.643486 
L 663.410778 189.687363 
L 667.12253 201.26974 
L 670.834281 196.23479 
L 674.546033 202.51636 
L 678.257785 209.1837 
L 681.969536 210.487165 
L 685.681288 171.340879 
L 689.39304 185.452305 
L 693.104791 209.460494 
L 696.816543 192.416883 
L 700.528295 205.77252 
L 704.240046 189.470946 
L 707.951798 189.964276 
L 711.66355 213.634063 
L 715.375301 199.856242 
L 719.087053 188.344011 
L 722.798805 191.927557 
L 726.510556 197.649264 
L 730.222308 201.470728 
L 733.93406 197.287021 
L 737.645811 196.807993 
L 741.357563 199.587 
L 745.069315 188.228726 
L 748.781066 199.226365 
L 752.492818 200.465219 
L 756.20457 189.302927 
L 759.916321 208.244309 
L 763.628073 196.883611 
L 767.339825 197.503973 
L 771.051576 203.236585 
L 774.763328 180.820038 
L 778.47508 187.810386 
L 782.186831 199.004066 
L 785.898583 205.887253 
L 789.610335 202.085532 
L 793.322086 199.662837 
L 797.033838 202.538307 
L 800.74559 191.000225 
L 804.457341 192.221107 
L 808.169093 190.643172 
L 811.880845 196.395911 
L 815.592596 208.234611 
L 819.304348 195.084547 
L 823.0161 193.04482 
L 826.727851 195.034623 
L 830.439603 194.268763 
L 834.151355 203.354246 
L 837.863106 198.8519 
L 841.574858 197.054241 
L 841.574858 197.054241 
" clip-path="url(#pae19ff070f)" style="fill: none; stroke: #000000; stroke-width: 1.5; stroke-linecap: square"/>
   </g>
   <g id="line2d_13">
    <path d="M 91.801022 201.859543 
L 95.512774 199.163101 
L 99.224525 190.128668 
L 102.936277 186.578983 
L 106.648029 196.76524 
L 110.35978 198.187629 
L 114.071532 193.893228 
L 117.783284 202.015364 
L 121.495035 199.505732 
L 125.206787 202.533581 
L 128.918539 202.602653 
L 132.63029 193.881213 
L 136.342042 196.712718 
L 140.053794 190.749158 
L 143.765545 194.480532 
L 147.477297 194.441594 
L 151.189049 187.144099 
L 154.9008 200.742092 
L 158.612552 203.091008 
L 162.324304 205.806828 
L 166.036055 203.766784 
L 169.747807 192.011218 
L 173.459559 195.584529 
L 177.17131 190.938715 
L 180.883062 196.198058 
L 184.594814 196.143696 
L 188.306565 185.779984 
L 192.018317 204.945169 
L 195.730069 208.962195 
L 199.44182 195.435055 
L 203.153572 196.210035 
L 206.865324 193.564313 
L 210.577075 193.604487 
L 214.288827 196.945147 
L 218.000579 196.283559 
L 221.71233 198.678929 
L 225.424082 188.824466 
L 229.135834 195.690783 
L 232.847585 217.214019 
L 236.559337 204.390804 
L 240.271089 186.675397 
L 243.98284 186.01716 
L 247.694592 196.730004 
L 251.406344 197.071634 
L 255.118095 191.802832 
L 258.829847 203.429836 
L 262.541599 201.380165 
L 266.25335 196.764365 
L 269.965102 197.048488 
L 273.676854 197.914194 
L 277.388605 198.369717 
L 281.100357 187.060399 
L 284.812109 199.805242 
L 288.52386 201.276247 
L 292.235612 190.980545 
L 295.947363 201.969667 
L 299.659115 196.834057 
L 303.370867 198.510761 
L 307.082618 196.388208 
L 310.79437 194.040003 
L 314.506122 197.227249 
L 318.217873 198.52101 
L 321.929625 202.473991 
L 325.641377 186.674887 
L 329.353128 196.254829 
L 333.06488 199.845272 
L 336.776632 191.779092 
L 340.488383 199.774177 
L 344.200135 202.72427 
L 347.911887 204.119814 
L 351.623638 191.680037 
L 355.33539 197.52925 
L 359.047142 201.314348 
L 362.758893 190.762604 
L 366.470645 181.9969 
L 370.182397 186.90975 
L 373.894148 213.429938 
L 377.6059 210.716132 
L 381.317652 199.964309 
L 385.029403 196.909629 
L 392.452907 187.162772 
L 396.164658 189.149455 
L 399.87641 209.216618 
L 403.588162 200.755163 
L 407.299913 181.862614 
L 414.723417 211.666722 
L 418.435168 205.288756 
L 422.14692 184.974261 
L 425.858672 186.570331 
L 429.570423 209.097382 
L 433.282175 209.841238 
L 436.993927 187.735954 
L 440.705678 194.815062 
L 444.41743 203.555967 
L 448.129182 179.985204 
L 451.840933 190.458238 
L 455.552685 165.302711 
L 459.264437 199.596777 
L 462.976188 250.794599 
L 466.68794 242.367502 
L 470.399692 191.378951 
L 474.111443 112.833951 
L 477.823195 286.216998 
L 481.534947 141.90784 
L 485.246698 53.676666 
L 488.95845 377.64 
L 492.670202 205.701758 
L 496.381953 102.521544 
L 500.093705 225.196952 
L 503.805457 277.967318 
L 507.517208 149.946623 
L 511.22896 115.10235 
L 514.940712 339.515362 
L 518.652463 105.800608 
L 522.364215 150.838212 
L 526.075967 286.327356 
L 529.787718 123.180318 
L 533.49947 250.783612 
L 537.211222 201.804948 
L 540.922973 189.763521 
L 544.634725 253.10679 
L 548.346477 160.486707 
L 552.058228 124.428347 
L 555.76998 160.143494 
L 559.481732 298.555034 
L 563.193483 227.510726 
L 566.905235 128.691466 
L 570.616987 194.125718 
L 574.328738 205.975744 
L 578.04049 249.260567 
L 581.752242 179.429754 
L 585.463993 137.403847 
L 589.175745 245.889255 
L 592.887497 209.34607 
L 596.599248 154.452472 
L 600.311 198.110835 
L 604.022752 206.096192 
L 607.734503 208.423561 
L 611.446255 212.278043 
L 615.158007 171.320026 
L 618.869758 196.962897 
L 622.58151 215.532493 
L 626.293262 174.136357 
L 630.005013 204.106216 
L 633.716765 217.817075 
L 637.428516 182.106829 
L 641.140268 172.856877 
L 644.85202 212.286177 
L 648.563771 217.115751 
L 652.275523 189.887633 
L 655.987275 199.378691 
L 659.699026 184.153178 
L 663.410778 190.520726 
L 667.12253 199.676047 
L 670.834281 196.950252 
L 674.546033 199.796584 
L 678.257785 207.647757 
L 681.969536 214.985171 
L 685.681288 165.116839 
L 689.39304 188.952576 
L 693.104791 221.986376 
L 696.816543 188.925052 
L 700.528295 195.320968 
L 704.240046 190.158622 
L 707.951798 194.913892 
L 711.66355 210.198008 
L 715.375301 200.970881 
L 719.087053 193.062113 
L 722.798805 191.376698 
L 726.510556 190.658324 
L 730.222308 194.691032 
L 733.93406 206.603428 
L 737.645811 202.892817 
L 741.357563 192.597705 
L 745.069315 186.320414 
L 748.781066 203.906029 
L 752.492818 205.865687 
L 756.20457 191.231627 
L 759.916321 202.948525 
L 763.628073 193.6357 
L 767.339825 192.86917 
L 771.051576 194.420195 
L 774.763328 183.847588 
L 778.47508 198.269043 
L 782.186831 207.471415 
L 785.898583 202.80572 
L 789.610335 201.503305 
L 793.322086 201.189708 
L 797.033838 192.608067 
L 800.74559 196.990481 
L 804.457341 193.206922 
L 808.169093 181.028174 
L 811.880845 204.147266 
L 815.592596 205.353449 
L 819.304348 187.115327 
L 823.0161 195.866897 
L 826.727851 197.799317 
L 830.439603 204.708444 
L 834.151355 201.559837 
L 834.151355 201.559837 
" clip-path="url(#pae19ff070f)" style="fill: none; stroke: #696969; stroke-width: 0.75; stroke-linecap: square"/>
   </g>
   <g id="line2d_14">
    <path d="M 88.08927 203.025528 
L 91.801022 206.869109 
L 95.512774 174.705223 
L 102.936277 214.600327 
L 106.648029 199.073983 
L 110.35978 203.487821 
L 114.071532 172.760732 
L 117.783284 171.052427 
L 121.495035 202.552325 
L 125.206787 217.777664 
L 128.918539 204.661102 
L 132.63029 199.843608 
L 136.342042 203.657984 
L 140.053794 206.90805 
L 143.765545 199.560886 
L 147.477297 161.870112 
L 151.189049 188.185021 
L 154.9008 196.890389 
L 158.612552 196.16315 
L 162.324304 221.418276 
L 166.036055 190.622209 
L 169.747807 197.866743 
L 173.459559 203.697625 
L 177.17131 202.641562 
L 180.883062 198.941681 
L 184.594814 178.329784 
L 188.306565 197.269312 
L 192.018317 207.837446 
L 195.730069 198.072919 
L 199.44182 174.516018 
L 203.153572 185.926042 
L 206.865324 212.382263 
L 210.577075 203.354138 
L 214.288827 203.749955 
L 218.000579 211.872968 
L 221.71233 195.040969 
L 225.424082 176.584576 
L 229.135834 190.619164 
L 232.847585 207.687559 
L 236.559337 209.276029 
L 240.271089 193.498977 
L 243.98284 174.112802 
L 247.694592 189.264128 
L 251.406344 213.714707 
L 255.118095 198.40077 
L 258.829847 193.89742 
L 262.541599 213.612788 
L 266.25335 202.570461 
L 269.965102 188.247406 
L 273.676854 192.991526 
L 277.388605 203.792108 
L 281.100357 185.797605 
L 284.812109 163.720489 
L 288.52386 196.781152 
L 292.235612 220.5204 
L 295.947363 213.207594 
L 299.659115 206.883928 
L 303.370867 203.356057 
L 307.082618 205.934472 
L 310.79437 183.993393 
L 314.506122 169.700072 
L 318.217873 174.90826 
L 321.929625 198.950872 
L 325.641377 225.346284 
L 329.353128 200.338915 
L 333.06488 194.329054 
L 336.776632 191.83985 
L 340.488383 198.767574 
L 344.200135 209.127366 
L 347.911887 190.404752 
L 351.623638 201.86864 
L 355.33539 186.976608 
L 359.047142 204.943429 
L 362.758893 206.19308 
L 366.470645 174.880261 
L 370.182397 187.798587 
L 373.894148 186.375397 
L 377.6059 234.256317 
L 381.317652 211.914824 
L 385.029403 164.331524 
L 388.741155 194.210525 
L 392.452907 189.81609 
L 396.164658 211.047941 
L 399.87641 213.656416 
L 403.588162 186.979474 
L 407.299913 191.796148 
L 411.011665 192.004895 
L 414.723417 205.172344 
L 418.435168 204.208804 
L 422.14692 187.528213 
L 425.858672 191.223914 
L 429.570423 198.228365 
L 433.282175 213.06511 
L 436.993927 193.976146 
L 440.705678 177.944689 
L 444.41743 194.840911 
L 448.129182 202.165707 
L 451.840933 184.858188 
L 455.552685 183.964786 
L 459.264437 226.808514 
L 462.976188 238.907663 
L 466.68794 218.712614 
L 470.399692 119.881982 
L 474.111443 219.662794 
L 477.823195 232.008847 
L 481.534947 33.89684 
L 485.246698 279.705832 
L 488.95845 309.773273 
L 492.670202 124.841983 
L 496.381953 159.501246 
L 500.093705 239.077251 
L 503.805457 252.122336 
L 507.517208 80.885647 
L 511.22896 276.621023 
L 514.940712 228.224896 
L 518.652463 45.018995 
L 522.364215 267.428543 
L 526.075967 192.482374 
L 529.787718 230.596728 
L 533.49947 247.472043 
L 537.211222 142.820076 
L 540.922973 249.178723 
L 544.634725 196.853631 
L 548.346477 117.873772 
L 552.058228 111.367844 
L 555.76998 242.741944 
L 559.481732 303.320811 
L 563.193483 161.873782 
L 566.905235 197.444909 
L 570.616987 229.093374 
L 574.328738 200.917022 
L 578.04049 165.74325 
L 581.752242 121.086939 
L 585.463993 212.752218 
L 589.175745 258.007639 
L 592.887497 209.015483 
L 596.599248 172.140351 
L 600.311 199.362477 
L 604.022752 217.881618 
L 607.734503 182.820341 
L 611.446255 172.899708 
L 615.158007 176.060427 
L 618.869758 214.328317 
L 622.58151 215.184995 
L 626.293262 195.942919 
L 630.005013 221.570718 
L 633.716765 185.451388 
L 637.428516 161.398511 
L 641.140268 228.992153 
L 644.85202 222.080265 
L 648.563771 158.586853 
L 652.275523 179.691569 
L 655.987275 201.952744 
L 659.699026 206.501226 
L 663.410778 197.319579 
L 667.12253 192.613353 
L 670.834281 211.312712 
L 674.546033 206.262377 
L 678.257785 210.543972 
L 681.969536 178.425095 
L 685.681288 175.532805 
L 689.39304 195.123892 
L 693.104791 188.158348 
L 696.816543 222.727052 
L 700.528295 207.336323 
L 704.240046 181.504057 
L 707.951798 193.444637 
L 711.66355 209.993147 
L 715.375301 212.116258 
L 719.087053 180.106775 
L 722.798805 181.898091 
L 726.510556 190.997928 
L 730.222308 198.901985 
L 733.93406 213.253634 
L 737.645811 193.480661 
L 741.357563 189.01454 
L 745.069315 208.00927 
L 748.781066 208.441943 
L 752.492818 186.437947 
L 756.20457 196.929262 
L 759.916321 208.258423 
L 763.628073 177.746317 
L 767.339825 191.504297 
L 771.051576 197.788456 
L 774.763328 189.13572 
L 778.47508 213.590597 
L 782.186831 208.91007 
L 785.898583 192.774885 
L 789.610335 187.352012 
L 793.322086 197.060701 
L 797.033838 197.174672 
L 800.74559 185.823443 
L 804.457341 197.264785 
L 808.169093 209.386836 
L 811.880845 219.007212 
L 815.592596 202.702297 
L 819.304348 171.822423 
L 823.0161 182.117716 
L 826.727851 197.890208 
L 830.439603 187.268102 
L 830.439603 187.268102 
" clip-path="url(#pae19ff070f)" style="fill: none; stroke: #696969; stroke-width: 0.75; stroke-linecap: square"/>
   </g>
   <g id="line2d_15">
    <path d="M 80.665767 196.91793 
L 84.377519 198.451699 
L 88.08927 196.78527 
L 91.801022 196.734241 
L 95.512774 193.25077 
L 99.224525 200.925729 
L 102.936277 196.315267 
L 106.648029 195.415761 
L 110.35978 199.515493 
L 114.071532 195.736144 
L 117.783284 199.254628 
L 121.495035 195.868006 
L 125.206787 194.588337 
L 128.918539 197.041618 
L 132.63029 195.325038 
L 136.342042 197.608534 
L 140.053794 198.395844 
L 143.765545 198.556276 
L 147.477297 198.03834 
L 151.189049 195.699158 
L 154.9008 197.089334 
L 158.612552 196.531892 
L 162.324304 194.341718 
L 166.036055 196.787156 
L 169.747807 198.150648 
L 173.459559 196.62981 
L 177.17131 198.255778 
L 180.883062 197.508219 
L 184.594814 195.167148 
L 188.306565 198.420661 
L 192.018317 197.23192 
L 195.730069 195.314231 
L 199.44182 196.916696 
L 203.153572 197.591676 
L 206.865324 196.664797 
L 210.577075 196.378175 
L 214.288827 199.02296 
L 218.000579 196.73912 
L 221.71233 196.374784 
L 225.424082 196.243772 
L 229.135834 195.477866 
L 232.847585 198.935411 
L 236.559337 195.257705 
L 240.271089 195.619894 
L 243.98284 199.592648 
L 247.694592 197.164146 
L 251.406344 198.226959 
L 255.118095 197.382537 
L 258.829847 196.219849 
L 262.541599 196.708849 
L 266.25335 194.048727 
L 269.965102 195.853037 
L 273.676854 197.995507 
L 277.388605 199.500817 
L 281.100357 195.339075 
L 284.812109 195.974857 
L 288.52386 202.322963 
L 292.235612 193.63417 
L 295.947363 196.613743 
L 299.659115 198.318244 
L 303.370867 193.628474 
L 307.082618 199.484496 
L 310.79437 194.211317 
L 314.506122 198.453808 
L 318.217873 197.705377 
L 321.929625 194.841899 
L 325.641377 200.218461 
L 329.353128 195.364788 
L 333.06488 200.510298 
L 336.776632 193.707561 
L 340.488383 196.451234 
L 344.200135 195.947457 
L 347.911887 190.039764 
L 351.623638 208.265904 
L 355.33539 198.801933 
L 359.047142 190.885323 
L 362.758893 191.306724 
L 366.470645 203.364334 
L 370.182397 203.201285 
L 373.894148 189.399449 
L 377.6059 204.174307 
L 381.317652 188.466672 
L 385.029403 196.180526 
L 388.741155 203.2176 
L 392.452907 187.20538 
L 396.164658 206.904013 
L 399.87641 194.997188 
L 403.588162 192.222649 
L 407.299913 199.780752 
L 411.011665 193.509226 
L 414.723417 205.055601 
L 418.435168 186.61088 
L 422.14692 195.843208 
L 425.858672 217.582608 
L 429.570423 199.98468 
L 433.282175 187.590002 
L 436.993927 186.672036 
L 440.705678 206.262569 
L 444.41743 182.834743 
L 448.129182 190.875226 
L 451.840933 182.629232 
L 455.552685 185.597398 
L 459.264437 236.149106 
L 462.976188 229.613358 
L 466.68794 234.657596 
L 470.399692 122.0239 
L 474.111443 232.039725 
L 477.823195 196.712166 
L 481.534947 31.761886 
L 485.246698 328.985806 
L 488.95845 250.29915 
L 492.670202 114.761503 
L 496.381953 206.66307 
L 500.093705 261.940644 
L 503.805457 195.306995 
L 507.517208 98.416346 
L 511.22896 327.239383 
L 514.940712 118.503641 
L 518.652463 113.311666 
L 522.364215 332.394525 
L 526.075967 106.923662 
L 529.787718 250.205936 
L 533.49947 223.124083 
L 537.211222 128.461729 
L 540.922973 283.558575 
L 548.346477 104.494138 
L 552.058228 143.253849 
L 555.76998 309.02481 
L 559.481732 242.012749 
L 563.193483 123.347191 
L 566.905235 197.103835 
L 570.616987 197.81354 
L 574.328738 243.52903 
L 578.04049 174.349593 
L 581.752242 139.047199 
L 585.463993 240.874646 
L 592.887497 185.206228 
L 596.599248 194.920412 
L 600.311 193.603963 
L 604.022752 203.455362 
L 607.734503 197.003255 
L 611.446255 183.229632 
L 615.158007 201.014081 
L 618.869758 204.577129 
L 622.58151 183.977829 
L 626.293262 207.181099 
L 630.005013 212.538175 
L 633.716765 186.061161 
L 637.428516 173.600909 
L 641.140268 209.748351 
L 644.85202 226.43759 
L 648.563771 178.095853 
L 652.275523 187.580215 
L 655.987275 198.967659 
L 659.699026 196.735403 
L 663.410778 189.361966 
L 667.12253 191.533394 
L 670.834281 211.255391 
L 674.546033 210.009013 
L 678.257785 211.634639 
L 681.969536 165.42468 
L 685.681288 192.328951 
L 689.39304 214.07134 
L 693.104791 182.244419 
L 696.816543 208.445957 
L 700.528295 184.760954 
L 704.240046 189.409924 
L 707.951798 219.030388 
L 711.66355 202.255151 
L 715.375301 187.48811 
L 719.087053 187.050787 
L 722.798805 201.860657 
L 726.510556 199.960945 
L 730.222308 197.297335 
L 733.93406 200.797264 
L 737.645811 193.64944 
L 741.357563 190.982465 
L 745.069315 200.543599 
L 748.781066 193.300143 
L 752.492818 194.969512 
L 756.20457 206.964181 
L 759.916321 196.503443 
L 763.628073 200.784161 
L 767.339825 197.948134 
L 771.051576 189.135581 
L 774.763328 184.642198 
L 778.47508 195.457765 
L 782.186831 208.726076 
L 785.898583 196.758848 
L 789.610335 205.585785 
L 793.322086 198.203214 
L 797.033838 192.200992 
L 800.74559 198.473681 
L 804.457341 184.347925 
L 808.169093 198.556683 
L 811.880845 205.143797 
L 815.592596 195.788657 
L 819.304348 197.677081 
L 823.0161 190.695146 
L 823.0161 190.695146 
" clip-path="url(#pae19ff070f)" style="fill: none; stroke: #696969; stroke-width: 0.75; stroke-linecap: square"/>
   </g>
   <g id="line2d_16">
    <path d="M 88.08927 198.494016 
L 91.801022 195.406344 
L 95.512774 195.15352 
L 99.224525 197.16795 
L 102.936277 196.134263 
L 106.648029 197.869684 
L 110.35978 196.941189 
L 114.071532 197.202602 
L 117.783284 199.621218 
L 121.495035 195.971053 
L 125.206787 195.480175 
L 128.918539 197.124529 
L 132.63029 195.849027 
L 140.053794 196.840449 
L 143.765545 197.627103 
L 147.477297 198.693961 
L 151.189049 197.3927 
L 154.9008 196.834547 
L 158.612552 195.080185 
L 162.324304 196.225831 
L 166.036055 198.248189 
L 169.747807 197.037564 
L 173.459559 198.661443 
L 177.17131 195.163272 
L 180.883062 194.554496 
L 184.594814 198.509112 
L 188.306565 196.87293 
L 192.018317 197.403736 
L 195.730069 197.393312 
L 199.44182 196.813475 
L 203.153572 197.129606 
L 206.865324 197.001829 
L 210.577075 197.809316 
L 214.288827 197.212437 
L 218.000579 195.899579 
L 221.71233 195.278879 
L 225.424082 195.321729 
L 229.135834 196.74369 
L 232.847585 200.334686 
L 236.559337 198.895301 
L 240.271089 195.614592 
L 243.98284 195.276382 
L 247.694592 196.525742 
L 251.406344 198.958839 
L 255.118095 195.63226 
L 258.829847 196.828672 
L 262.541599 197.387257 
L 266.25335 195.273115 
L 269.965102 198.964806 
L 273.676854 196.014964 
L 277.388605 197.21256 
L 281.100357 198.809664 
L 284.812109 195.648836 
L 288.52386 196.484228 
L 292.235612 195.556708 
L 295.947363 197.304379 
L 299.659115 196.802219 
L 303.370867 196.618959 
L 307.082618 198.802569 
L 314.506122 197.001209 
L 318.217873 195.823299 
L 321.929625 195.544114 
L 325.641377 196.892546 
L 329.353128 196.861947 
L 333.06488 197.575816 
L 336.776632 200.600983 
L 340.488383 192.926036 
L 344.200135 196.977123 
L 347.911887 196.733614 
L 351.623638 193.647402 
L 355.33539 207.024728 
L 359.047142 194.625464 
L 362.758893 188.6992 
L 366.470645 192.958175 
L 370.182397 205.551976 
L 373.894148 203.10713 
L 377.6059 190.291488 
L 381.317652 203.543082 
L 385.029403 190.475722 
L 388.741155 196.941106 
L 392.452907 197.013334 
L 396.164658 190.416945 
L 399.87641 207.988813 
L 403.588162 189.785739 
L 407.299913 195.778117 
L 411.011665 199.076165 
L 414.723417 193.524273 
L 418.435168 207.325451 
L 422.14692 188.06287 
L 425.858672 197.01627 
L 429.570423 214.562262 
L 433.282175 201.350703 
L 436.993927 182.417154 
L 440.705678 190.221283 
L 444.41743 202.260495 
L 448.129182 183.004341 
L 451.840933 196.474951 
L 455.552685 167.251759 
L 459.264437 201.919115 
L 462.976188 247.586526 
L 466.68794 239.095656 
L 470.399692 189.679107 
L 474.111443 121.291616 
L 477.823195 288.473516 
L 481.534947 122.184179 
L 485.246698 69.478369 
L 488.95845 373.34235 
L 492.670202 194.409492 
L 496.381953 116.387943 
L 500.093705 217.098601 
L 503.805457 286.368295 
L 507.517208 151.710761 
L 511.22896 122.275989 
L 514.940712 336.050929 
L 518.652463 80.386813 
L 522.364215 163.038736 
L 526.075967 292.26856 
L 529.787718 125.306362 
L 533.49947 261.393418 
L 537.211222 185.196493 
L 540.922973 182.507697 
L 544.634725 266.115875 
L 548.346477 158.942798 
L 552.058228 110.000657 
L 555.76998 167.583519 
L 559.481732 320.835488 
L 563.193483 216.010079 
L 566.905235 122.369533 
L 570.616987 201.22676 
L 574.328738 208.435393 
L 578.04049 240.597697 
L 581.752242 156.530212 
L 585.463993 156.018403 
L 589.175745 249.613257 
L 592.887497 201.788994 
L 596.599248 177.877012 
L 600.311 193.831846 
L 604.022752 203.872641 
L 607.734503 205.803248 
L 611.446255 192.903962 
L 615.158007 180.918955 
L 618.869758 203.070471 
L 622.58151 203.441762 
L 626.293262 183.945639 
L 630.005013 213.215128 
L 633.716765 208.383161 
L 637.428516 173.960898 
L 641.140268 180.341629 
L 644.85202 227.384278 
L 648.563771 210.534619 
L 652.275523 176.124636 
L 655.987275 199.665238 
L 659.699026 189.255865 
L 663.410778 190.665159 
L 667.12253 197.113189 
L 674.546033 202.717086 
L 678.257785 212.794457 
L 681.969536 208.877868 
L 685.681288 162.423911 
L 689.39304 195.418717 
L 693.104791 208.781241 
L 696.816543 192.008794 
L 700.528295 205.771191 
L 704.240046 182.34401 
L 707.951798 195.418739 
L 711.66355 215.124587 
L 715.375301 196.298717 
L 719.087053 189.082758 
L 722.798805 194.19129 
L 726.510556 198.263458 
L 730.222308 200.041803 
L 733.93406 196.95512 
L 737.645811 200.061671 
L 741.357563 195.818063 
L 745.069315 186.6209 
L 748.781066 201.645636 
L 752.492818 195.733817 
L 756.20457 196.194863 
L 759.916321 208.774262 
L 763.628073 193.955653 
L 767.339825 199.770219 
L 771.051576 197.046325 
L 774.763328 184.292301 
L 778.47508 187.770728 
L 782.186831 199.259903 
L 785.898583 209.631431 
L 789.610335 198.172499 
L 793.322086 202.321376 
L 797.033838 199.463959 
L 800.74559 189.031043 
L 804.457341 194.892042 
L 808.169093 188.566068 
L 811.880845 203.032047 
L 815.592596 204.790725 
L 819.304348 189.673208 
L 823.0161 200.222974 
L 826.727851 192.126444 
L 830.439603 194.253841 
L 830.439603 194.253841 
" clip-path="url(#pae19ff070f)" style="fill: none; stroke: #696969; stroke-width: 0.75; stroke-linecap: square"/>
   </g>
   <g id="patch_3">
    <path d="M 42.620313 395.28 
L 42.620313 7.2 
" style="fill: none; stroke: #000000; stroke-width: 0.8; stroke-linejoin: miter; stroke-linecap: square"/>
   </g>
   <g id="patch_4">
    <path d="M 879.620312 395.28 
L 879.620312 7.2 
" style="fill: none; stroke: #000000; stroke-width: 0.8; stroke-linejoin: miter; stroke-linecap: square"/>
   </g>
   <g id="patch_5">
    <path d="M 42.620313 395.28 
L 879.620312 395.28 
" style="fill: none; stroke: #000000; stroke-width: 0.8; stroke-linejoin: miter; stroke-linecap: square"/>
   </g>
   <g id="patch_6">
    <path d="M 42.620313 7.2 
L 879.620312 7.2 
" style="fill: none; stroke: #000000; stroke-width: 0.8; stroke-linejoin: miter; stroke-linecap: square"/>
   </g>
  </g>
 </g>
 <defs>
  <clipPath id="pae19ff070f">
   <rect x="42.620313" y="7.2" width="837" height="388.08"/>
  </clipPath>
 </defs>
</svg>
