<?xml version="1.0" encoding="utf-8" standalone="no"?>
<!DOCTYPE svg PUBLIC "-//W3C//DTD SVG 1.1//EN"
  "http://www.w3.org/Graphics/SVG/1.1/DTD/svg11.dtd">
<svg xmlns:xlink="http://www.w3.org/1999/xlink" width="902.723438pt" height="425.27625pt" viewBox="0 0 902.723438 425.27625" xmlns="http://www.w3.org/2000/svg" version="1.1">
 <metadata>
  <rdf:RDF xmlns:dc="http://purl.org/dc/elements/1.1/" xmlns:cc="http://creativecommons.org/ns#" xmlns:rdf="http://www.w3.org/1999/02/22-rdf-syntax-ns#">
   <cc:Work>
    <dc:type rdf:resource="http://purl.org/dc/dcmitype/StillImage"/>
    <dc:date>2022-09-22T13:51:02.252676</dc:date>
    <dc:format>image/svg+xml</dc:format>
    <dc:creator>
     <cc:Agent>
      <dc:title>Matplotlib v3.5.1, https://matplotlib.org/</dc:title>
     </cc:Agent>
    </dc:creator>
   </cc:Work>
  </rdf:RDF>
 </metadata>
 <defs>
  <style type="text/css">*{stroke-linejoin: round; stroke-linecap: butt}</style>
 </defs>
 <g id="figure_1">
  <g id="patch_1">
   <path d="M -0 425.27625 
L 902.723438 425.27625 
L 902.723438 0 
L -0 0 
L -0 425.27625 
z
" style="fill: none"/>
  </g>
  <g id="axes_1">
   <g id="patch_2">
    <path d="M 58.523438 387.72 
L 895.523438 387.72 
L 895.523438 7.2 
L 58.523438 7.2 
z
" style="fill: #ffffff"/>
   </g>
   <g id="matplotlib.axis_1">
    <g id="xtick_1">
     <g id="line2d_1">
      <defs>
       <path id="m60fcd66d8f" d="M 0 0 
L 0 3.5 
" style="stroke: #000000; stroke-width: 0.8"/>
      </defs>
      <g>
       <use xlink:href="#m60fcd66d8f" x="114.859976" y="387.72" style="stroke: #000000; stroke-width: 0.8"/>
      </g>
     </g>
     <g id="text_1">
      <!-- −100 -->
      <g transform="translate(101.126382 402.318437)scale(0.1 -0.1)">
       <defs>
        <path id="DejaVuSans-2212" d="M 678 2272 
L 4684 2272 
L 4684 1741 
L 678 1741 
L 678 2272 
z
" transform="scale(0.015625)"/>
        <path id="DejaVuSans-31" d="M 794 531 
L 1825 531 
L 1825 4091 
L 703 3866 
L 703 4441 
L 1819 4666 
L 2450 4666 
L 2450 531 
L 3481 531 
L 3481 0 
L 794 0 
L 794 531 
z
" transform="scale(0.015625)"/>
        <path id="DejaVuSans-30" d="M 2034 4250 
Q 1547 4250 1301 3770 
Q 1056 3291 1056 2328 
Q 1056 1369 1301 889 
Q 1547 409 2034 409 
Q 2525 409 2770 889 
Q 3016 1369 3016 2328 
Q 3016 3291 2770 3770 
Q 2525 4250 2034 4250 
z
M 2034 4750 
Q 2819 4750 3233 4129 
Q 3647 3509 3647 2328 
Q 3647 1150 3233 529 
Q 2819 -91 2034 -91 
Q 1250 -91 836 529 
Q 422 1150 422 2328 
Q 422 3509 836 4129 
Q 1250 4750 2034 4750 
z
" transform="scale(0.015625)"/>
       </defs>
       <use xlink:href="#DejaVuSans-2212"/>
       <use xlink:href="#DejaVuSans-31" x="83.789062"/>
       <use xlink:href="#DejaVuSans-30" x="147.412109"/>
       <use xlink:href="#DejaVuSans-30" x="211.035156"/>
      </g>
     </g>
    </g>
    <g id="xtick_2">
     <g id="line2d_2">
      <g>
       <use xlink:href="#m60fcd66d8f" x="297.770815" y="387.72" style="stroke: #000000; stroke-width: 0.8"/>
      </g>
     </g>
     <g id="text_2">
      <!-- −50 -->
      <g transform="translate(287.218471 402.318437)scale(0.1 -0.1)">
       <defs>
        <path id="DejaVuSans-35" d="M 691 4666 
L 3169 4666 
L 3169 4134 
L 1269 4134 
L 1269 2991 
Q 1406 3038 1543 3061 
Q 1681 3084 1819 3084 
Q 2600 3084 3056 2656 
Q 3513 2228 3513 1497 
Q 3513 744 3044 326 
Q 2575 -91 1722 -91 
Q 1428 -91 1123 -41 
Q 819 9 494 109 
L 494 744 
Q 775 591 1075 516 
Q 1375 441 1709 441 
Q 2250 441 2565 725 
Q 2881 1009 2881 1497 
Q 2881 1984 2565 2268 
Q 2250 2553 1709 2553 
Q 1456 2553 1204 2497 
Q 953 2441 691 2322 
L 691 4666 
z
" transform="scale(0.015625)"/>
       </defs>
       <use xlink:href="#DejaVuSans-2212"/>
       <use xlink:href="#DejaVuSans-35" x="83.789062"/>
       <use xlink:href="#DejaVuSans-30" x="147.412109"/>
      </g>
     </g>
    </g>
    <g id="xtick_3">
     <g id="line2d_3">
      <g>
       <use xlink:href="#m60fcd66d8f" x="480.681654" y="387.72" style="stroke: #000000; stroke-width: 0.8"/>
      </g>
     </g>
     <g id="text_3">
      <!-- 0 -->
      <g transform="translate(477.500404 402.318437)scale(0.1 -0.1)">
       <use xlink:href="#DejaVuSans-30"/>
      </g>
     </g>
    </g>
    <g id="xtick_4">
     <g id="line2d_4">
      <g>
       <use xlink:href="#m60fcd66d8f" x="663.592493" y="387.72" style="stroke: #000000; stroke-width: 0.8"/>
      </g>
     </g>
     <g id="text_4">
      <!-- 50 -->
      <g transform="translate(657.229993 402.318437)scale(0.1 -0.1)">
       <use xlink:href="#DejaVuSans-35"/>
       <use xlink:href="#DejaVuSans-30" x="63.623047"/>
      </g>
     </g>
    </g>
    <g id="xtick_5">
     <g id="line2d_5">
      <g>
       <use xlink:href="#m60fcd66d8f" x="846.503333" y="387.72" style="stroke: #000000; stroke-width: 0.8"/>
      </g>
     </g>
     <g id="text_5">
      <!-- 100 -->
      <g transform="translate(836.959583 402.318437)scale(0.1 -0.1)">
       <use xlink:href="#DejaVuSans-31"/>
       <use xlink:href="#DejaVuSans-30" x="63.623047"/>
       <use xlink:href="#DejaVuSans-30" x="127.246094"/>
      </g>
     </g>
    </g>
    <g id="text_6">
     <!-- Time to max (samples) -->
     <g transform="translate(419.424219 415.996562)scale(0.1 -0.1)">
      <defs>
       <path id="DejaVuSans-54" d="M -19 4666 
L 3928 4666 
L 3928 4134 
L 2272 4134 
L 2272 0 
L 1638 0 
L 1638 4134 
L -19 4134 
L -19 4666 
z
" transform="scale(0.015625)"/>
       <path id="DejaVuSans-69" d="M 603 3500 
L 1178 3500 
L 1178 0 
L 603 0 
L 603 3500 
z
M 603 4863 
L 1178 4863 
L 1178 4134 
L 603 4134 
L 603 4863 
z
" transform="scale(0.015625)"/>
       <path id="DejaVuSans-6d" d="M 3328 2828 
Q 3544 3216 3844 3400 
Q 4144 3584 4550 3584 
Q 5097 3584 5394 3201 
Q 5691 2819 5691 2113 
L 5691 0 
L 5113 0 
L 5113 2094 
Q 5113 2597 4934 2840 
Q 4756 3084 4391 3084 
Q 3944 3084 3684 2787 
Q 3425 2491 3425 1978 
L 3425 0 
L 2847 0 
L 2847 2094 
Q 2847 2600 2669 2842 
Q 2491 3084 2119 3084 
Q 1678 3084 1418 2786 
Q 1159 2488 1159 1978 
L 1159 0 
L 581 0 
L 581 3500 
L 1159 3500 
L 1159 2956 
Q 1356 3278 1631 3431 
Q 1906 3584 2284 3584 
Q 2666 3584 2933 3390 
Q 3200 3197 3328 2828 
z
" transform="scale(0.015625)"/>
       <path id="DejaVuSans-65" d="M 3597 1894 
L 3597 1613 
L 953 1613 
Q 991 1019 1311 708 
Q 1631 397 2203 397 
Q 2534 397 2845 478 
Q 3156 559 3463 722 
L 3463 178 
Q 3153 47 2828 -22 
Q 2503 -91 2169 -91 
Q 1331 -91 842 396 
Q 353 884 353 1716 
Q 353 2575 817 3079 
Q 1281 3584 2069 3584 
Q 2775 3584 3186 3129 
Q 3597 2675 3597 1894 
z
M 3022 2063 
Q 3016 2534 2758 2815 
Q 2500 3097 2075 3097 
Q 1594 3097 1305 2825 
Q 1016 2553 972 2059 
L 3022 2063 
z
" transform="scale(0.015625)"/>
       <path id="DejaVuSans-20" transform="scale(0.015625)"/>
       <path id="DejaVuSans-74" d="M 1172 4494 
L 1172 3500 
L 2356 3500 
L 2356 3053 
L 1172 3053 
L 1172 1153 
Q 1172 725 1289 603 
Q 1406 481 1766 481 
L 2356 481 
L 2356 0 
L 1766 0 
Q 1100 0 847 248 
Q 594 497 594 1153 
L 594 3053 
L 172 3053 
L 172 3500 
L 594 3500 
L 594 4494 
L 1172 4494 
z
" transform="scale(0.015625)"/>
       <path id="DejaVuSans-6f" d="M 1959 3097 
Q 1497 3097 1228 2736 
Q 959 2375 959 1747 
Q 959 1119 1226 758 
Q 1494 397 1959 397 
Q 2419 397 2687 759 
Q 2956 1122 2956 1747 
Q 2956 2369 2687 2733 
Q 2419 3097 1959 3097 
z
M 1959 3584 
Q 2709 3584 3137 3096 
Q 3566 2609 3566 1747 
Q 3566 888 3137 398 
Q 2709 -91 1959 -91 
Q 1206 -91 779 398 
Q 353 888 353 1747 
Q 353 2609 779 3096 
Q 1206 3584 1959 3584 
z
" transform="scale(0.015625)"/>
       <path id="DejaVuSans-61" d="M 2194 1759 
Q 1497 1759 1228 1600 
Q 959 1441 959 1056 
Q 959 750 1161 570 
Q 1363 391 1709 391 
Q 2188 391 2477 730 
Q 2766 1069 2766 1631 
L 2766 1759 
L 2194 1759 
z
M 3341 1997 
L 3341 0 
L 2766 0 
L 2766 531 
Q 2569 213 2275 61 
Q 1981 -91 1556 -91 
Q 1019 -91 701 211 
Q 384 513 384 1019 
Q 384 1609 779 1909 
Q 1175 2209 1959 2209 
L 2766 2209 
L 2766 2266 
Q 2766 2663 2505 2880 
Q 2244 3097 1772 3097 
Q 1472 3097 1187 3025 
Q 903 2953 641 2809 
L 641 3341 
Q 956 3463 1253 3523 
Q 1550 3584 1831 3584 
Q 2591 3584 2966 3190 
Q 3341 2797 3341 1997 
z
" transform="scale(0.015625)"/>
       <path id="DejaVuSans-78" d="M 3513 3500 
L 2247 1797 
L 3578 0 
L 2900 0 
L 1881 1375 
L 863 0 
L 184 0 
L 1544 1831 
L 300 3500 
L 978 3500 
L 1906 2253 
L 2834 3500 
L 3513 3500 
z
" transform="scale(0.015625)"/>
       <path id="DejaVuSans-28" d="M 1984 4856 
Q 1566 4138 1362 3434 
Q 1159 2731 1159 2009 
Q 1159 1288 1364 580 
Q 1569 -128 1984 -844 
L 1484 -844 
Q 1016 -109 783 600 
Q 550 1309 550 2009 
Q 550 2706 781 3412 
Q 1013 4119 1484 4856 
L 1984 4856 
z
" transform="scale(0.015625)"/>
       <path id="DejaVuSans-73" d="M 2834 3397 
L 2834 2853 
Q 2591 2978 2328 3040 
Q 2066 3103 1784 3103 
Q 1356 3103 1142 2972 
Q 928 2841 928 2578 
Q 928 2378 1081 2264 
Q 1234 2150 1697 2047 
L 1894 2003 
Q 2506 1872 2764 1633 
Q 3022 1394 3022 966 
Q 3022 478 2636 193 
Q 2250 -91 1575 -91 
Q 1294 -91 989 -36 
Q 684 19 347 128 
L 347 722 
Q 666 556 975 473 
Q 1284 391 1588 391 
Q 1994 391 2212 530 
Q 2431 669 2431 922 
Q 2431 1156 2273 1281 
Q 2116 1406 1581 1522 
L 1381 1569 
Q 847 1681 609 1914 
Q 372 2147 372 2553 
Q 372 3047 722 3315 
Q 1072 3584 1716 3584 
Q 2034 3584 2315 3537 
Q 2597 3491 2834 3397 
z
" transform="scale(0.015625)"/>
       <path id="DejaVuSans-70" d="M 1159 525 
L 1159 -1331 
L 581 -1331 
L 581 3500 
L 1159 3500 
L 1159 2969 
Q 1341 3281 1617 3432 
Q 1894 3584 2278 3584 
Q 2916 3584 3314 3078 
Q 3713 2572 3713 1747 
Q 3713 922 3314 415 
Q 2916 -91 2278 -91 
Q 1894 -91 1617 61 
Q 1341 213 1159 525 
z
M 3116 1747 
Q 3116 2381 2855 2742 
Q 2594 3103 2138 3103 
Q 1681 3103 1420 2742 
Q 1159 2381 1159 1747 
Q 1159 1113 1420 752 
Q 1681 391 2138 391 
Q 2594 391 2855 752 
Q 3116 1113 3116 1747 
z
" transform="scale(0.015625)"/>
       <path id="DejaVuSans-6c" d="M 603 4863 
L 1178 4863 
L 1178 0 
L 603 0 
L 603 4863 
z
" transform="scale(0.015625)"/>
       <path id="DejaVuSans-29" d="M 513 4856 
L 1013 4856 
Q 1481 4119 1714 3412 
Q 1947 2706 1947 2009 
Q 1947 1309 1714 600 
Q 1481 -109 1013 -844 
L 513 -844 
Q 928 -128 1133 580 
Q 1338 1288 1338 2009 
Q 1338 2731 1133 3434 
Q 928 4138 513 4856 
z
" transform="scale(0.015625)"/>
      </defs>
      <use xlink:href="#DejaVuSans-54"/>
      <use xlink:href="#DejaVuSans-69" x="57.958984"/>
      <use xlink:href="#DejaVuSans-6d" x="85.742188"/>
      <use xlink:href="#DejaVuSans-65" x="183.154297"/>
      <use xlink:href="#DejaVuSans-20" x="244.677734"/>
      <use xlink:href="#DejaVuSans-74" x="276.464844"/>
      <use xlink:href="#DejaVuSans-6f" x="315.673828"/>
      <use xlink:href="#DejaVuSans-20" x="376.855469"/>
      <use xlink:href="#DejaVuSans-6d" x="408.642578"/>
      <use xlink:href="#DejaVuSans-61" x="506.054688"/>
      <use xlink:href="#DejaVuSans-78" x="567.333984"/>
      <use xlink:href="#DejaVuSans-20" x="626.513672"/>
      <use xlink:href="#DejaVuSans-28" x="658.300781"/>
      <use xlink:href="#DejaVuSans-73" x="697.314453"/>
      <use xlink:href="#DejaVuSans-61" x="749.414062"/>
      <use xlink:href="#DejaVuSans-6d" x="810.693359"/>
      <use xlink:href="#DejaVuSans-70" x="908.105469"/>
      <use xlink:href="#DejaVuSans-6c" x="971.582031"/>
      <use xlink:href="#DejaVuSans-65" x="999.365234"/>
      <use xlink:href="#DejaVuSans-73" x="1060.888672"/>
      <use xlink:href="#DejaVuSans-29" x="1112.988281"/>
     </g>
    </g>
   </g>
   <g id="matplotlib.axis_2">
    <g id="ytick_1">
     <g id="line2d_6">
      <defs>
       <path id="mc9363c0892" d="M 0 0 
L -3.5 0 
" style="stroke: #000000; stroke-width: 0.8"/>
      </defs>
      <g>
       <use xlink:href="#mc9363c0892" x="58.523438" y="384.87864" style="stroke: #000000; stroke-width: 0.8"/>
      </g>
     </g>
     <g id="text_7">
      <!-- −10.0 -->
      <g transform="translate(20.878125 388.677859)scale(0.1 -0.1)">
       <defs>
        <path id="DejaVuSans-2e" d="M 684 794 
L 1344 794 
L 1344 0 
L 684 0 
L 684 794 
z
" transform="scale(0.015625)"/>
       </defs>
       <use xlink:href="#DejaVuSans-2212"/>
       <use xlink:href="#DejaVuSans-31" x="83.789062"/>
       <use xlink:href="#DejaVuSans-30" x="147.412109"/>
       <use xlink:href="#DejaVuSans-2e" x="211.035156"/>
       <use xlink:href="#DejaVuSans-30" x="242.822266"/>
      </g>
     </g>
    </g>
    <g id="ytick_2">
     <g id="line2d_7">
      <g>
       <use xlink:href="#mc9363c0892" x="58.523438" y="334.708591" style="stroke: #000000; stroke-width: 0.8"/>
      </g>
     </g>
     <g id="text_8">
      <!-- −7.5 -->
      <g transform="translate(27.240625 338.50781)scale(0.1 -0.1)">
       <defs>
        <path id="DejaVuSans-37" d="M 525 4666 
L 3525 4666 
L 3525 4397 
L 1831 0 
L 1172 0 
L 2766 4134 
L 525 4134 
L 525 4666 
z
" transform="scale(0.015625)"/>
       </defs>
       <use xlink:href="#DejaVuSans-2212"/>
       <use xlink:href="#DejaVuSans-37" x="83.789062"/>
       <use xlink:href="#DejaVuSans-2e" x="147.412109"/>
       <use xlink:href="#DejaVuSans-35" x="179.199219"/>
      </g>
     </g>
    </g>
    <g id="ytick_3">
     <g id="line2d_8">
      <g>
       <use xlink:href="#mc9363c0892" x="58.523438" y="284.538542" style="stroke: #000000; stroke-width: 0.8"/>
      </g>
     </g>
     <g id="text_9">
      <!-- −5.0 -->
      <g transform="translate(27.240625 288.337761)scale(0.1 -0.1)">
       <use xlink:href="#DejaVuSans-2212"/>
       <use xlink:href="#DejaVuSans-35" x="83.789062"/>
       <use xlink:href="#DejaVuSans-2e" x="147.412109"/>
       <use xlink:href="#DejaVuSans-30" x="179.199219"/>
      </g>
     </g>
    </g>
    <g id="ytick_4">
     <g id="line2d_9">
      <g>
       <use xlink:href="#mc9363c0892" x="58.523438" y="234.368493" style="stroke: #000000; stroke-width: 0.8"/>
      </g>
     </g>
     <g id="text_10">
      <!-- −2.5 -->
      <g transform="translate(27.240625 238.167712)scale(0.1 -0.1)">
       <defs>
        <path id="DejaVuSans-32" d="M 1228 531 
L 3431 531 
L 3431 0 
L 469 0 
L 469 531 
Q 828 903 1448 1529 
Q 2069 2156 2228 2338 
Q 2531 2678 2651 2914 
Q 2772 3150 2772 3378 
Q 2772 3750 2511 3984 
Q 2250 4219 1831 4219 
Q 1534 4219 1204 4116 
Q 875 4013 500 3803 
L 500 4441 
Q 881 4594 1212 4672 
Q 1544 4750 1819 4750 
Q 2544 4750 2975 4387 
Q 3406 4025 3406 3419 
Q 3406 3131 3298 2873 
Q 3191 2616 2906 2266 
Q 2828 2175 2409 1742 
Q 1991 1309 1228 531 
z
" transform="scale(0.015625)"/>
       </defs>
       <use xlink:href="#DejaVuSans-2212"/>
       <use xlink:href="#DejaVuSans-32" x="83.789062"/>
       <use xlink:href="#DejaVuSans-2e" x="147.412109"/>
       <use xlink:href="#DejaVuSans-35" x="179.199219"/>
      </g>
     </g>
    </g>
    <g id="ytick_5">
     <g id="line2d_10">
      <g>
       <use xlink:href="#mc9363c0892" x="58.523438" y="184.198445" style="stroke: #000000; stroke-width: 0.8"/>
      </g>
     </g>
     <g id="text_11">
      <!-- 0.0 -->
      <g transform="translate(35.620313 187.997663)scale(0.1 -0.1)">
       <use xlink:href="#DejaVuSans-30"/>
       <use xlink:href="#DejaVuSans-2e" x="63.623047"/>
       <use xlink:href="#DejaVuSans-30" x="95.410156"/>
      </g>
     </g>
    </g>
    <g id="ytick_6">
     <g id="line2d_11">
      <g>
       <use xlink:href="#mc9363c0892" x="58.523438" y="134.028396" style="stroke: #000000; stroke-width: 0.8"/>
      </g>
     </g>
     <g id="text_12">
      <!-- 2.5 -->
      <g transform="translate(35.620313 137.827614)scale(0.1 -0.1)">
       <use xlink:href="#DejaVuSans-32"/>
       <use xlink:href="#DejaVuSans-2e" x="63.623047"/>
       <use xlink:href="#DejaVuSans-35" x="95.410156"/>
      </g>
     </g>
    </g>
    <g id="ytick_7">
     <g id="line2d_12">
      <g>
       <use xlink:href="#mc9363c0892" x="58.523438" y="83.858347" style="stroke: #000000; stroke-width: 0.8"/>
      </g>
     </g>
     <g id="text_13">
      <!-- 5.0 -->
      <g transform="translate(35.620313 87.657565)scale(0.1 -0.1)">
       <use xlink:href="#DejaVuSans-35"/>
       <use xlink:href="#DejaVuSans-2e" x="63.623047"/>
       <use xlink:href="#DejaVuSans-30" x="95.410156"/>
      </g>
     </g>
    </g>
    <g id="ytick_8">
     <g id="line2d_13">
      <g>
       <use xlink:href="#mc9363c0892" x="58.523438" y="33.688298" style="stroke: #000000; stroke-width: 0.8"/>
      </g>
     </g>
     <g id="text_14">
      <!-- 7.5 -->
      <g transform="translate(35.620313 37.487517)scale(0.1 -0.1)">
       <use xlink:href="#DejaVuSans-37"/>
       <use xlink:href="#DejaVuSans-2e" x="63.623047"/>
       <use xlink:href="#DejaVuSans-35" x="95.410156"/>
      </g>
     </g>
    </g>
    <g id="text_15">
     <!-- Velocity (AU) -->
     <g transform="translate(14.798438 229.645937)rotate(-90)scale(0.1 -0.1)">
      <defs>
       <path id="DejaVuSans-56" d="M 1831 0 
L 50 4666 
L 709 4666 
L 2188 738 
L 3669 4666 
L 4325 4666 
L 2547 0 
L 1831 0 
z
" transform="scale(0.015625)"/>
       <path id="DejaVuSans-63" d="M 3122 3366 
L 3122 2828 
Q 2878 2963 2633 3030 
Q 2388 3097 2138 3097 
Q 1578 3097 1268 2742 
Q 959 2388 959 1747 
Q 959 1106 1268 751 
Q 1578 397 2138 397 
Q 2388 397 2633 464 
Q 2878 531 3122 666 
L 3122 134 
Q 2881 22 2623 -34 
Q 2366 -91 2075 -91 
Q 1284 -91 818 406 
Q 353 903 353 1747 
Q 353 2603 823 3093 
Q 1294 3584 2113 3584 
Q 2378 3584 2631 3529 
Q 2884 3475 3122 3366 
z
" transform="scale(0.015625)"/>
       <path id="DejaVuSans-79" d="M 2059 -325 
Q 1816 -950 1584 -1140 
Q 1353 -1331 966 -1331 
L 506 -1331 
L 506 -850 
L 844 -850 
Q 1081 -850 1212 -737 
Q 1344 -625 1503 -206 
L 1606 56 
L 191 3500 
L 800 3500 
L 1894 763 
L 2988 3500 
L 3597 3500 
L 2059 -325 
z
" transform="scale(0.015625)"/>
       <path id="DejaVuSans-41" d="M 2188 4044 
L 1331 1722 
L 3047 1722 
L 2188 4044 
z
M 1831 4666 
L 2547 4666 
L 4325 0 
L 3669 0 
L 3244 1197 
L 1141 1197 
L 716 0 
L 50 0 
L 1831 4666 
z
" transform="scale(0.015625)"/>
       <path id="DejaVuSans-55" d="M 556 4666 
L 1191 4666 
L 1191 1831 
Q 1191 1081 1462 751 
Q 1734 422 2344 422 
Q 2950 422 3222 751 
Q 3494 1081 3494 1831 
L 3494 4666 
L 4128 4666 
L 4128 1753 
Q 4128 841 3676 375 
Q 3225 -91 2344 -91 
Q 1459 -91 1007 375 
Q 556 841 556 1753 
L 556 4666 
z
" transform="scale(0.015625)"/>
      </defs>
      <use xlink:href="#DejaVuSans-56"/>
      <use xlink:href="#DejaVuSans-65" x="60.658203"/>
      <use xlink:href="#DejaVuSans-6c" x="122.181641"/>
      <use xlink:href="#DejaVuSans-6f" x="149.964844"/>
      <use xlink:href="#DejaVuSans-63" x="211.146484"/>
      <use xlink:href="#DejaVuSans-69" x="266.126953"/>
      <use xlink:href="#DejaVuSans-74" x="293.910156"/>
      <use xlink:href="#DejaVuSans-79" x="333.119141"/>
      <use xlink:href="#DejaVuSans-20" x="392.298828"/>
      <use xlink:href="#DejaVuSans-28" x="424.085938"/>
      <use xlink:href="#DejaVuSans-41" x="463.099609"/>
      <use xlink:href="#DejaVuSans-55" x="531.507812"/>
      <use xlink:href="#DejaVuSans-29" x="604.701172"/>
     </g>
    </g>
   </g>
   <g id="line2d_14">
    <path d="M 100.227109 184.207558 
L 111.201759 184.264499 
L 114.859976 184.143337 
L 118.518193 184.2447 
L 129.492843 184.158757 
L 133.15106 184.082952 
L 136.809277 184.223304 
L 151.442144 184.256076 
L 166.075011 184.103251 
L 169.733228 184.274135 
L 184.366095 184.259626 
L 191.682528 184.164826 
L 195.340745 184.113152 
L 202.657179 184.248052 
L 206.315396 184.128665 
L 224.606479 184.287891 
L 231.922913 184.172065 
L 242.897563 184.185148 
L 246.55578 184.126436 
L 250.213997 184.293875 
L 257.530431 184.176965 
L 261.188647 184.252933 
L 272.163298 184.128325 
L 275.821514 184.224001 
L 279.479731 184.083283 
L 283.137948 184.264128 
L 286.796165 184.044264 
L 294.112598 184.242724 
L 301.429032 184.397148 
L 305.087249 184.09896 
L 308.745465 184.895065 
L 312.403682 183.707305 
L 316.061899 185.471911 
L 319.720116 180.230304 
L 323.378333 181.668189 
L 327.036549 194.393026 
L 330.694766 180.833891 
L 334.352983 178.797942 
L 338.0112 191.053621 
L 341.669417 180.933148 
L 345.327633 178.365006 
L 348.98585 189.684375 
L 352.644067 191.723173 
L 356.302284 176.388507 
L 359.9605 179.778147 
L 363.618717 193.795105 
L 367.276934 178.844363 
L 370.935151 181.222389 
L 374.593368 190.472279 
L 378.251584 178.81176 
L 381.909801 188.184395 
L 385.568018 186.132205 
L 389.226235 179.228442 
L 392.884451 188.0237 
L 396.542668 178.170176 
L 400.200885 187.622507 
L 403.859102 190.488566 
L 407.517319 176.444112 
L 411.175535 184.276149 
L 414.833752 186.983407 
L 418.491969 186.269394 
L 422.150186 180.940602 
L 425.808403 186.276676 
L 429.466619 183.65422 
L 433.124836 179.612613 
L 436.783053 182.517564 
L 440.44127 182.325686 
L 444.099486 197.538372 
L 447.757703 176.205604 
L 451.41592 188.887302 
L 455.074137 183.004729 
L 458.732354 191.29378 
L 462.39057 191.861592 
L 466.048787 166.448051 
L 469.707004 205.615544 
L 473.365221 73.706966 
L 477.023438 245.279194 
L 480.681654 333.691434 
L 484.339871 24.496364 
L 487.998088 206.972824 
L 491.656305 231.831667 
L 495.314521 118.299374 
L 498.972738 242.482117 
L 502.630955 163.948772 
L 506.289172 171.927421 
L 509.947389 194.140604 
L 513.605605 181.123546 
L 517.263822 195.323818 
L 520.922039 172.377527 
L 524.580256 178.135862 
L 528.238472 180.90068 
L 531.896689 203.515585 
L 535.554906 176.777746 
L 539.213123 196.42741 
L 542.87134 196.216978 
L 546.529556 141.600786 
L 550.187773 189.265806 
L 553.84599 197.518017 
L 557.504207 189.222274 
L 561.162424 184.606495 
L 564.82064 171.813354 
L 568.478857 192.511104 
L 572.137074 189.521718 
L 575.795291 179.500157 
L 579.453507 178.237 
L 583.111724 188.286105 
L 590.428158 182.81732 
L 594.086375 185.584997 
L 597.744591 182.044406 
L 601.402808 183.696313 
L 605.061025 181.10695 
L 608.719242 188.914901 
L 612.377458 190.266282 
L 616.035675 183.500399 
L 619.693892 180.793394 
L 623.352109 178.425955 
L 627.010326 184.735657 
L 630.668542 186.485239 
L 634.326759 182.71646 
L 641.643193 188.147875 
L 645.30141 182.41244 
L 648.959626 181.513762 
L 652.617843 189.499146 
L 656.27606 185.702848 
L 659.934277 177.771072 
L 663.592493 181.623232 
L 667.25071 184.316287 
L 670.908927 186.033458 
L 674.567144 188.891234 
L 678.225361 184.342712 
L 681.883577 182.635314 
L 685.541794 183.704115 
L 689.200011 181.470423 
L 692.858228 183.919656 
L 696.516444 186.738219 
L 700.174661 184.911544 
L 703.832878 183.909516 
L 707.491095 181.542812 
L 711.149312 184.818923 
L 714.807528 188.284897 
L 718.465745 180.642546 
L 722.123962 183.543797 
L 725.782179 189.64832 
L 729.440396 182.935102 
L 733.098612 179.708826 
L 736.756829 181.188136 
L 740.415046 185.185687 
L 744.073263 190.313768 
L 751.389696 179.793089 
L 755.047913 184.467206 
L 758.70613 186.887846 
L 766.022563 182.167514 
L 769.68078 184.108402 
L 773.338997 182.508124 
L 776.997214 182.721628 
L 780.655431 189.232305 
L 784.313647 183.809668 
L 787.971864 181.851584 
L 791.630081 186.979085 
L 798.946514 180.489915 
L 802.604731 184.258683 
L 806.262948 187.443121 
L 809.921165 183.555679 
L 813.579382 183.641126 
L 817.237598 184.669128 
L 820.895815 184.571899 
L 824.554032 185.334235 
L 828.212249 182.531695 
L 831.870465 183.38624 
L 831.870465 183.38624 
" clip-path="url(#p485f3c9499)" style="fill: none; stroke: #000000; stroke-width: 1.5; stroke-linecap: square"/>
   </g>
   <g id="line2d_15">
    <path d="M 125.834626 184.195251 
L 220.948263 184.204088 
L 257.530431 184.217703 
L 261.188647 184.286189 
L 264.846864 184.219233 
L 268.505081 184.3145 
L 272.163298 184.179667 
L 275.821514 184.22446 
L 283.137948 184.019445 
L 286.796165 184.093323 
L 290.454382 183.827168 
L 294.112598 184.24265 
L 297.770815 183.913182 
L 301.429032 184.621319 
L 305.087249 184.453369 
L 308.745465 185.030434 
L 312.403682 185.373006 
L 316.061899 185.097154 
L 319.720116 185.848688 
L 323.378333 174.203319 
L 327.036549 179.890398 
L 330.694766 196.394274 
L 334.352983 186.167443 
L 338.0112 182.091897 
L 341.669417 185.1256 
L 345.327633 180.982323 
L 348.98585 176.238742 
L 352.644067 185.414451 
L 356.302284 199.248964 
L 359.9605 181.573406 
L 363.618717 177.490274 
L 367.276934 188.884827 
L 370.935151 179.660936 
L 374.593368 184.364185 
L 378.251584 179.919422 
L 381.909801 179.979135 
L 385.568018 197.393492 
L 389.226235 185.971496 
L 392.884451 182.505281 
L 396.542668 180.039129 
L 400.200885 178.061602 
L 403.859102 191.504288 
L 407.517319 186.191275 
L 411.175535 182.920197 
L 414.833752 180.245485 
L 418.491969 182.02133 
L 422.150186 192.1618 
L 425.808403 188.464228 
L 429.466619 180.94096 
L 433.124836 181.054945 
L 436.783053 183.298327 
L 440.44127 166.514412 
L 444.099486 182.636561 
L 447.757703 200.216806 
L 451.41592 181.817394 
L 455.074137 191.494637 
L 458.732354 190.704683 
L 462.39057 210.583933 
L 466.048787 183.053554 
L 469.707004 183.428392 
L 473.365221 144.263398 
L 477.023438 68.558828 
L 480.681654 309.63208 
L 484.339871 219.958533 
L 487.998088 95.147863 
L 491.656305 283.508546 
L 495.314521 111.007478 
L 498.972738 191.555593 
L 502.630955 263.307917 
L 506.289172 127.596253 
L 509.947389 197.287679 
L 513.605605 157.160715 
L 517.263822 182.27155 
L 520.922039 190.720838 
L 524.580256 175.379662 
L 528.238472 183.014095 
L 531.896689 182.217225 
L 535.554906 190.819915 
L 539.213123 177.65256 
L 542.87134 245.639937 
L 546.529556 159.87778 
L 550.187773 154.121002 
L 553.84599 212.952737 
L 557.504207 146.752138 
L 561.162424 192.103366 
L 564.82064 183.016103 
L 568.478857 175.472754 
L 572.137074 205.399483 
L 575.795291 197.055011 
L 579.453507 191.808545 
L 583.111724 167.168185 
L 586.769941 166.104332 
L 590.428158 186.165443 
L 594.086375 201.502446 
L 597.744591 174.231196 
L 601.402808 190.699036 
L 605.061025 187.04681 
L 608.719242 156.022926 
L 612.377458 198.393039 
L 616.035675 196.958248 
L 619.693892 194.292506 
L 623.352109 185.844279 
L 627.010326 165.614502 
L 630.668542 185.536057 
L 634.326759 182.107112 
L 637.984976 182.312863 
L 641.643193 179.892551 
L 645.30141 185.036907 
L 648.959626 195.44738 
L 652.617843 176.943787 
L 656.27606 191.119342 
L 659.934277 193.556043 
L 663.592493 179.881881 
L 667.25071 187.773161 
L 670.908927 167.040857 
L 674.567144 175.18217 
L 678.225361 192.962043 
L 681.883577 185.150878 
L 685.541794 193.279753 
L 689.200011 185.324911 
L 692.858228 182.508198 
L 696.516444 181.446928 
L 700.174661 179.673165 
L 703.832878 192.831969 
L 707.491095 184.337133 
L 711.149312 176.644798 
L 714.807528 178.350887 
L 718.465745 185.747675 
L 722.123962 195.106244 
L 725.782179 184.70547 
L 729.440396 183.664594 
L 733.098612 186.595246 
L 736.756829 178.550254 
L 740.415046 177.366504 
L 744.073263 183.223528 
L 747.731479 192.177445 
L 755.047913 180.980778 
L 758.70613 183.775168 
L 762.364347 180.77783 
L 766.022563 185.813145 
L 769.68078 189.752002 
L 773.338997 186.902589 
L 776.997214 180.477511 
L 780.655431 180.065338 
L 784.313647 187.166835 
L 787.971864 180.8695 
L 791.630081 182.897778 
L 795.288298 191.740522 
L 798.946514 182.514181 
L 802.604731 178.117036 
L 806.262948 184.229276 
L 809.921165 184.921034 
L 813.579382 186.33692 
L 817.237598 187.004742 
L 820.895815 183.729827 
L 824.554032 186.966841 
L 828.212249 185.208082 
L 831.870465 179.664958 
L 835.528682 181.45541 
L 839.186899 185.04929 
L 842.845116 186.87546 
L 846.503333 179.792305 
L 850.161549 182.854294 
L 853.819766 186.222909 
L 857.477983 181.190414 
L 857.477983 181.190414 
" clip-path="url(#p485f3c9499)" style="fill: none; stroke: #696969; stroke-width: 0.75; stroke-linecap: square"/>
   </g>
   <g id="line2d_16">
    <path d="M 103.885326 184.031287 
L 107.543542 184.007973 
L 111.201759 184.264953 
L 114.859976 184.365212 
L 133.15106 184.116599 
L 140.467493 184.279473 
L 144.12571 183.950159 
L 151.442144 184.506992 
L 158.758577 184.192842 
L 166.075011 184.009684 
L 173.391444 184.252808 
L 184.366095 184.181531 
L 188.024312 184.317072 
L 191.682528 184.255524 
L 195.340745 184.034772 
L 209.973612 184.253252 
L 213.631829 184.4479 
L 217.290046 184.354908 
L 220.948263 183.807879 
L 224.606479 184.19334 
L 228.264696 184.37016 
L 231.922913 184.143194 
L 239.239347 183.997307 
L 246.55578 184.544166 
L 250.213997 184.215034 
L 253.872214 184.123322 
L 257.530431 184.191674 
L 261.188647 184.119382 
L 264.846864 184.378625 
L 268.505081 184.001316 
L 272.163298 183.910894 
L 275.821514 184.420359 
L 286.796165 184.104536 
L 294.112598 184.426025 
L 297.770815 184.085945 
L 301.429032 183.990739 
L 305.087249 184.080134 
L 308.745465 184.434845 
L 312.403682 184.261624 
L 316.061899 184.247521 
L 319.720116 184.430945 
L 323.378333 183.343456 
L 327.036549 184.798873 
L 330.694766 183.900764 
L 334.352983 183.54913 
L 338.0112 186.421139 
L 341.669417 182.680931 
L 345.327633 183.443348 
L 348.98585 185.296937 
L 352.644067 183.972158 
L 356.302284 185.311596 
L 359.9605 183.113838 
L 363.618717 183.784908 
L 367.276934 183.737808 
L 370.935151 185.437772 
L 374.593368 185.407294 
L 378.251584 180.679062 
L 381.909801 186.790828 
L 385.568018 184.504705 
L 389.226235 180.516247 
L 392.884451 187.176638 
L 396.542668 184.392561 
L 403.859102 183.652527 
L 407.517319 185.090911 
L 411.175535 186.744985 
L 414.833752 179.384511 
L 418.491969 184.56252 
L 422.150186 185.365859 
L 425.808403 190.027794 
L 429.466619 179.628118 
L 433.124836 174.519878 
L 436.783053 191.760277 
L 440.44127 178.962144 
L 444.099486 190.754357 
L 447.757703 181.933747 
L 451.41592 192.830682 
L 455.074137 181.484438 
L 458.732354 179.868668 
L 462.39057 207.112492 
L 466.048787 164.671066 
L 469.707004 212.355601 
L 473.365221 72.995662 
L 477.023438 188.619892 
L 480.681654 370.423636 
L 484.339871 72.787364 
L 487.998088 177.222029 
L 491.656305 206.759458 
L 495.314521 129.570118 
L 498.972738 255.105124 
L 502.630955 148.128138 
L 506.289172 188.560717 
L 509.947389 190.766904 
L 513.605605 160.051613 
L 517.263822 213.827563 
L 520.922039 178.672408 
L 524.580256 171.715854 
L 528.238472 174.39425 
L 531.896689 196.869888 
L 535.554906 182.852442 
L 539.213123 209.713907 
L 542.87134 208.062644 
L 546.529556 124.104465 
L 550.187773 164.455832 
L 553.84599 212.83432 
L 557.504207 194.734951 
L 561.162424 184.691243 
L 564.82064 185.062872 
L 568.478857 183.153518 
L 572.137074 186.335586 
L 575.795291 181.793194 
L 579.453507 171.150907 
L 583.111724 189.793603 
L 586.769941 186.338326 
L 590.428158 185.067132 
L 594.086375 192.37986 
L 597.744591 173.149924 
L 601.402808 182.592883 
L 605.061025 193.264971 
L 608.719242 179.460301 
L 612.377458 187.955262 
L 616.035675 188.721515 
L 619.693892 173.267566 
L 623.352109 182.954762 
L 627.010326 188.234426 
L 630.668542 183.638853 
L 634.326759 186.485464 
L 637.984976 184.402098 
L 641.643193 180.672063 
L 645.30141 183.459356 
L 648.959626 191.133751 
L 652.617843 185.622711 
L 656.27606 180.527408 
L 659.934277 183.111947 
L 663.592493 179.715824 
L 667.25071 184.551218 
L 670.908927 185.136195 
L 674.567144 183.295303 
L 678.225361 190.372362 
L 681.883577 189.84189 
L 685.541794 180.70233 
L 689.200011 175.07923 
L 692.858228 182.924489 
L 696.516444 189.158498 
L 700.174661 187.021734 
L 703.832878 183.138411 
L 707.491095 181.5216 
L 711.149312 186.379798 
L 714.807528 184.735832 
L 718.465745 181.551152 
L 722.123962 185.156606 
L 725.782179 186.474922 
L 729.440396 182.962308 
L 733.098612 184.757073 
L 736.756829 184.608143 
L 740.415046 177.48246 
L 744.073263 186.512774 
L 747.731479 191.078412 
L 751.389696 180.804508 
L 755.047913 181.530876 
L 758.70613 188.338888 
L 762.364347 186.089063 
L 766.022563 177.749929 
L 769.68078 184.856973 
L 773.338997 188.485773 
L 776.997214 180.277503 
L 780.655431 185.347482 
L 784.313647 185.185093 
L 787.971864 181.665939 
L 791.630081 186.277418 
L 795.288298 184.751885 
L 798.946514 181.716543 
L 802.604731 186.966316 
L 806.262948 186.863899 
L 809.921165 179.436032 
L 813.579382 184.369081 
L 817.237598 185.254012 
L 820.895815 182.236116 
L 824.554032 186.520775 
L 828.212249 184.923211 
L 831.870465 184.709535 
L 835.528682 182.20122 
L 835.528682 182.20122 
" clip-path="url(#p485f3c9499)" style="fill: none; stroke: #696969; stroke-width: 0.75; stroke-linecap: square"/>
   </g>
   <g id="line2d_17">
    <path d="M 96.568892 184.030446 
L 111.201759 184.265009 
L 114.859976 184.379133 
L 118.518193 184.090698 
L 122.17641 184.089544 
L 125.834626 184.337967 
L 129.492843 184.132529 
L 133.15106 184.216335 
L 136.809277 184.163153 
L 140.467493 184.272534 
L 147.783927 184.138076 
L 151.442144 184.241807 
L 162.416794 184.071031 
L 166.075011 184.31616 
L 180.707878 184.106572 
L 184.366095 184.345672 
L 188.024312 184.067894 
L 191.682528 184.029474 
L 195.340745 184.477461 
L 198.998962 184.263943 
L 209.973612 183.957616 
L 213.631829 184.318666 
L 224.606479 184.160866 
L 228.264696 184.064636 
L 231.922913 184.239538 
L 235.58113 184.110535 
L 239.239347 184.299365 
L 242.897563 184.268272 
L 246.55578 184.086911 
L 253.872214 184.28836 
L 268.505081 184.068125 
L 272.163298 184.388302 
L 275.821514 184.262652 
L 279.479731 184.003324 
L 283.137948 184.43094 
L 286.796165 184.02064 
L 290.454382 184.329091 
L 297.770815 183.999512 
L 301.429032 184.476828 
L 305.087249 184.054685 
L 308.745465 184.550219 
L 312.403682 183.762024 
L 316.061899 185.040578 
L 319.720116 182.671699 
L 323.378333 183.066758 
L 327.036549 188.936347 
L 330.694766 181.262962 
L 334.352983 182.864391 
L 338.0112 187.818042 
L 341.669417 181.089795 
L 345.327633 183.341713 
L 348.98585 186.056673 
L 352.644067 186.561703 
L 356.302284 181.784143 
L 359.9605 182.36004 
L 363.618717 188.265926 
L 367.276934 181.056207 
L 370.935151 184.244525 
L 374.593368 185.634064 
L 378.251584 182.347771 
L 381.909801 187.5213 
L 385.568018 182.595891 
L 389.226235 183.333291 
L 392.884451 184.225204 
L 396.542668 181.896708 
L 400.200885 187.504608 
L 403.859102 185.769759 
L 407.517319 180.875567 
L 411.175535 185.361474 
L 414.833752 186.439959 
L 418.491969 182.068399 
L 422.150186 184.056156 
L 425.808403 184.12108 
L 429.466619 190.335687 
L 433.124836 175.99963 
L 436.783053 177.985244 
L 440.44127 191.443211 
L 444.099486 180.480936 
L 447.757703 187.768579 
L 451.41592 184.066699 
L 455.074137 196.896445 
L 458.732354 171.461851 
L 462.39057 196.820185 
L 466.048787 188.868794 
L 469.707004 177.755322 
L 473.365221 197.01382 
L 477.023438 43.371846 
L 480.681654 277.474534 
L 484.339871 322.461723 
L 487.998088 51.107953 
L 491.656305 209.175715 
L 495.314521 183.902305 
L 498.972738 155.208349 
L 502.630955 215.509062 
L 506.289172 183.031952 
L 509.947389 188.702154 
L 513.605605 164.355865 
L 517.263822 190.767813 
L 520.922039 184.772759 
L 524.580256 200.996967 
L 528.238472 157.392823 
L 531.896689 181.238962 
L 535.554906 209.190183 
L 539.213123 153.839157 
L 542.87134 237.308833 
L 546.529556 186.566112 
L 550.187773 123.833208 
L 553.84599 187.917315 
L 557.504207 202.511416 
L 561.162424 195.946371 
L 564.82064 180.827248 
L 568.478857 177.291995 
L 572.137074 185.277468 
L 575.795291 193.596691 
L 579.453507 173.703859 
L 583.111724 183.918705 
L 586.769941 189.383562 
L 590.428158 173.961344 
L 594.086375 199.835269 
L 597.744591 175.625272 
L 601.402808 177.416745 
L 605.061025 198.243584 
L 608.719242 170.261988 
L 612.377458 188.767085 
L 616.035675 197.814317 
L 619.693892 176.067128 
L 623.352109 178.026636 
L 627.010326 182.902372 
L 630.668542 191.652752 
L 634.326759 184.93022 
L 637.984976 174.435209 
L 641.643193 186.953748 
L 645.30141 188.460188 
L 648.959626 185.165693 
L 652.617843 184.96397 
L 656.27606 184.993003 
L 659.934277 183.170515 
L 663.592493 180.807096 
L 667.25071 182.063018 
L 670.908927 179.779237 
L 674.567144 191.19597 
L 678.225361 189.061183 
L 681.883577 181.204625 
L 685.541794 189.445439 
L 689.200011 179.918802 
L 692.858228 176.296244 
L 696.516444 185.432656 
L 700.174661 187.867156 
L 703.832878 187.309455 
L 707.491095 184.026819 
L 711.149312 182.310602 
L 714.807528 182.231007 
L 718.465745 185.892637 
L 722.123962 184.194296 
L 725.782179 182.285622 
L 729.440396 188.590226 
L 733.098612 186.000579 
L 736.756829 181.375935 
L 740.415046 179.024669 
L 744.073263 182.550074 
L 747.731479 190.331532 
L 751.389696 184.480961 
L 755.047913 182.165684 
L 758.70613 186.863947 
L 762.364347 185.496719 
L 766.022563 181.227139 
L 769.68078 182.458842 
L 773.338997 187.306604 
L 776.997214 184.007913 
L 780.655431 181.715169 
L 784.313647 183.345713 
L 787.971864 185.9321 
L 791.630081 185.257116 
L 795.288298 182.645338 
L 798.946514 184.700187 
L 802.604731 185.699065 
L 806.262948 185.688318 
L 809.921165 182.551243 
L 813.579382 181.768139 
L 817.237598 183.708241 
L 820.895815 186.072292 
L 824.554032 185.517645 
L 828.212249 182.912896 
L 828.212249 182.912896 
" clip-path="url(#p485f3c9499)" style="fill: none; stroke: #696969; stroke-width: 0.75; stroke-linecap: square"/>
   </g>
   <g id="line2d_18">
    <path d="M 125.834626 184.205725 
L 147.783927 184.226326 
L 151.442144 184.085429 
L 158.758577 184.291436 
L 166.075011 184.11148 
L 173.391444 184.18683 
L 177.049661 184.063806 
L 180.707878 184.328846 
L 202.657179 184.03931 
L 206.315396 184.281022 
L 209.973612 184.13913 
L 217.290046 184.318314 
L 220.948263 184.057259 
L 224.606479 184.279115 
L 228.264696 184.099429 
L 235.58113 184.341276 
L 239.239347 184.029853 
L 250.213997 184.317436 
L 253.872214 184.307654 
L 261.188647 184.046263 
L 268.505081 184.206876 
L 272.163298 184.166516 
L 275.821514 184.317324 
L 279.479731 184.169486 
L 283.137948 184.234979 
L 286.796165 183.97712 
L 290.454382 184.305155 
L 294.112598 184.344631 
L 297.770815 183.970444 
L 301.429032 184.490211 
L 305.087249 184.077648 
L 308.745465 184.462715 
L 312.403682 184.082529 
L 316.061899 184.556898 
L 319.720116 183.205046 
L 323.378333 182.171543 
L 327.036549 188.101982 
L 330.694766 184.365039 
L 334.352983 181.329545 
L 338.0112 186.583788 
L 341.669417 183.383529 
L 345.327633 181.66549 
L 348.98585 185.231352 
L 352.644067 188.178428 
L 356.302284 182.863792 
L 359.9605 180.802964 
L 363.618717 187.17361 
L 367.276934 182.743251 
L 370.935151 184.180449 
L 374.593368 185.19263 
L 378.251584 181.011417 
L 381.909801 188.275125 
L 389.226235 181.321334 
L 392.884451 184.832776 
L 396.542668 183.114711 
L 400.200885 185.289534 
L 403.859102 185.658016 
L 407.517319 184.75624 
L 411.175535 182.200129 
L 414.833752 183.49526 
L 418.491969 184.995525 
L 422.150186 185.988586 
L 425.808403 185.949528 
L 429.466619 176.658018 
L 433.124836 186.702683 
L 436.783053 181.417221 
L 440.44127 183.847809 
L 444.099486 192.551026 
L 447.757703 180.431844 
L 451.41592 188.694022 
L 455.074137 180.239277 
L 458.732354 201.576263 
L 462.39057 172.185066 
L 466.048787 190.202785 
L 469.707004 156.956799 
L 473.365221 93.69739 
L 477.023438 350.394681 
L 480.681654 205.42935 
L 484.339871 31.796257 
L 487.998088 279.132639 
L 491.656305 157.431352 
L 495.314521 163.029257 
L 498.972738 244.908137 
L 502.630955 132.932687 
L 506.289172 198.861712 
L 509.947389 186.099791 
L 513.605605 178.923279 
L 517.263822 198.513323 
L 520.922039 161.668468 
L 524.580256 185.743935 
L 528.238472 187.44374 
L 531.896689 191.610655 
L 535.554906 194.458293 
L 539.213123 193.853684 
L 542.87134 169.772465 
L 546.529556 154.046819 
L 550.187773 202.671437 
L 553.84599 194.867042 
L 557.504207 179.696652 
L 561.162424 183.544128 
L 564.82064 178.841049 
L 568.478857 192.546032 
L 572.137074 186.133401 
L 575.795291 182.344489 
L 579.453507 180.081073 
L 583.111724 181.436821 
L 586.769941 186.713886 
L 590.428158 186.327277 
L 594.086375 183.844307 
L 597.744591 179.077325 
L 601.402808 190.972923 
L 605.061025 182.374177 
L 608.719242 180.667994 
L 612.377458 194.25698 
L 616.035675 182.038344 
L 619.693892 177.658137 
L 623.352109 180.957689 
L 627.010326 187.275595 
L 630.668542 186.505307 
L 634.326759 182.725581 
L 637.984976 186.527259 
L 641.643193 182.240275 
L 645.30141 185.715792 
L 648.959626 186.573351 
L 652.617843 181.458143 
L 656.27606 184.248854 
L 659.934277 183.548021 
L 663.592493 182.096823 
L 667.25071 183.76691 
L 670.908927 185.571433 
L 674.567144 188.233506 
L 678.225361 184.587159 
L 681.883577 181.851867 
L 685.541794 184.92 
L 689.200011 180.758993 
L 692.858228 182.240453 
L 696.516444 188.020137 
L 700.174661 185.072069 
L 703.832878 184.895187 
L 707.491095 183.126514 
L 711.149312 182.054703 
L 714.807528 187.24609 
L 718.465745 184.019451 
L 722.123962 183.159791 
L 725.782179 186.980178 
L 729.440396 180.989317 
L 736.756829 183.9482 
L 740.415046 183.172547 
L 744.073263 189.605507 
L 747.731479 183.815946 
L 751.389696 183.202612 
L 755.047913 185.156784 
L 758.70613 181.664224 
L 762.364347 185.828903 
L 766.022563 183.274151 
L 769.68078 183.18577 
L 773.338997 185.378453 
L 776.997214 183.237747 
L 780.655431 185.770201 
L 787.971864 183.015206 
L 791.630081 184.908071 
L 795.288298 184.019501 
L 798.946514 183.588563 
L 802.604731 183.588337 
L 806.262948 185.761245 
L 809.921165 185.07933 
L 813.579382 182.142487 
L 817.237598 184.867181 
L 820.895815 185.457186 
L 824.554032 184.050317 
L 828.212249 183.752245 
L 831.870465 182.514573 
L 835.528682 183.398613 
L 839.186899 185.764341 
L 846.503333 183.205817 
L 850.161549 185.849571 
L 853.819766 184.150274 
L 857.477983 184.673194 
L 857.477983 184.673194 
" clip-path="url(#p485f3c9499)" style="fill: none; stroke: #696969; stroke-width: 0.75; stroke-linecap: square"/>
   </g>
   <g id="patch_3">
    <path d="M 58.523438 387.72 
L 58.523438 7.2 
" style="fill: none; stroke: #000000; stroke-width: 0.8; stroke-linejoin: miter; stroke-linecap: square"/>
   </g>
   <g id="patch_4">
    <path d="M 895.523438 387.72 
L 895.523438 7.2 
" style="fill: none; stroke: #000000; stroke-width: 0.8; stroke-linejoin: miter; stroke-linecap: square"/>
   </g>
   <g id="patch_5">
    <path d="M 58.523438 387.72 
L 895.523438 387.72 
" style="fill: none; stroke: #000000; stroke-width: 0.8; stroke-linejoin: miter; stroke-linecap: square"/>
   </g>
   <g id="patch_6">
    <path d="M 58.523438 7.2 
L 895.523438 7.2 
" style="fill: none; stroke: #000000; stroke-width: 0.8; stroke-linejoin: miter; stroke-linecap: square"/>
   </g>
  </g>
 </g>
 <defs>
  <clipPath id="p485f3c9499">
   <rect x="58.523438" y="7.2" width="837" height="380.52"/>
  </clipPath>
 </defs>
</svg>
