<?xml version="1.0" encoding="utf-8" standalone="no"?>
<!DOCTYPE svg PUBLIC "-//W3C//DTD SVG 1.1//EN"
  "http://www.w3.org/Graphics/SVG/1.1/DTD/svg11.dtd">
<svg xmlns:xlink="http://www.w3.org/1999/xlink" width="950.86875pt" height="320.355469pt" viewBox="0 0 950.86875 320.355469" xmlns="http://www.w3.org/2000/svg" version="1.1">
 <metadata>
  <rdf:RDF xmlns:dc="http://purl.org/dc/elements/1.1/" xmlns:cc="http://creativecommons.org/ns#" xmlns:rdf="http://www.w3.org/1999/02/22-rdf-syntax-ns#">
   <cc:Work>
    <dc:type rdf:resource="http://purl.org/dc/dcmitype/StillImage"/>
    <dc:date>2022-09-22T11:47:16.313429</dc:date>
    <dc:format>image/svg+xml</dc:format>
    <dc:creator>
     <cc:Agent>
      <dc:title>Matplotlib v3.5.1, https://matplotlib.org/</dc:title>
     </cc:Agent>
    </dc:creator>
   </cc:Work>
  </rdf:RDF>
 </metadata>
 <defs>
  <style type="text/css">*{stroke-linejoin: round; stroke-linecap: butt}</style>
 </defs>
 <g id="figure_1">
  <g id="patch_1">
   <path d="M 0 320.355469 
L 950.86875 320.355469 
L 950.86875 0 
L 0 0 
L 0 320.355469 
z
" style="fill: none"/>
  </g>
  <g id="axes_1">
   <g id="patch_2">
    <path d="M 55.345313 282.799219 
L 892.345312 282.799219 
L 892.345312 10.999219 
L 55.345313 10.999219 
z
" style="fill: #ffffff"/>
   </g>
   <g id="matplotlib.axis_1">
    <g id="xtick_1">
     <g id="line2d_1">
      <defs>
       <path id="ma87061e0b2" d="M 0 0 
L 0 3.5 
" style="stroke: #000000; stroke-width: 0.8"/>
      </defs>
      <g>
       <use xlink:href="#ma87061e0b2" x="93.390767" y="282.799219" style="stroke: #000000; stroke-width: 0.8"/>
      </g>
     </g>
     <g id="text_1">
      <!-- 0 -->
      <g transform="translate(90.209517 297.397656)scale(0.1 -0.1)">
       <defs>
        <path id="DejaVuSans-30" d="M 2034 4250 
Q 1547 4250 1301 3770 
Q 1056 3291 1056 2328 
Q 1056 1369 1301 889 
Q 1547 409 2034 409 
Q 2525 409 2770 889 
Q 3016 1369 3016 2328 
Q 3016 3291 2770 3770 
Q 2525 4250 2034 4250 
z
M 2034 4750 
Q 2819 4750 3233 4129 
Q 3647 3509 3647 2328 
Q 3647 1150 3233 529 
Q 2819 -91 2034 -91 
Q 1250 -91 836 529 
Q 422 1150 422 2328 
Q 422 3509 836 4129 
Q 1250 4750 2034 4750 
z
" transform="scale(0.015625)"/>
       </defs>
       <use xlink:href="#DejaVuSans-30"/>
      </g>
     </g>
    </g>
    <g id="xtick_2">
     <g id="line2d_2">
      <g>
       <use xlink:href="#ma87061e0b2" x="262.500466" y="282.799219" style="stroke: #000000; stroke-width: 0.8"/>
      </g>
     </g>
     <g id="text_2">
      <!-- 2000 -->
      <g transform="translate(249.775466 297.397656)scale(0.1 -0.1)">
       <defs>
        <path id="DejaVuSans-32" d="M 1228 531 
L 3431 531 
L 3431 0 
L 469 0 
L 469 531 
Q 828 903 1448 1529 
Q 2069 2156 2228 2338 
Q 2531 2678 2651 2914 
Q 2772 3150 2772 3378 
Q 2772 3750 2511 3984 
Q 2250 4219 1831 4219 
Q 1534 4219 1204 4116 
Q 875 4013 500 3803 
L 500 4441 
Q 881 4594 1212 4672 
Q 1544 4750 1819 4750 
Q 2544 4750 2975 4387 
Q 3406 4025 3406 3419 
Q 3406 3131 3298 2873 
Q 3191 2616 2906 2266 
Q 2828 2175 2409 1742 
Q 1991 1309 1228 531 
z
" transform="scale(0.015625)"/>
       </defs>
       <use xlink:href="#DejaVuSans-32"/>
       <use xlink:href="#DejaVuSans-30" x="63.623047"/>
       <use xlink:href="#DejaVuSans-30" x="127.246094"/>
       <use xlink:href="#DejaVuSans-30" x="190.869141"/>
      </g>
     </g>
    </g>
    <g id="xtick_3">
     <g id="line2d_3">
      <g>
       <use xlink:href="#ma87061e0b2" x="431.610165" y="282.799219" style="stroke: #000000; stroke-width: 0.8"/>
      </g>
     </g>
     <g id="text_3">
      <!-- 4000 -->
      <g transform="translate(418.885165 297.397656)scale(0.1 -0.1)">
       <defs>
        <path id="DejaVuSans-34" d="M 2419 4116 
L 825 1625 
L 2419 1625 
L 2419 4116 
z
M 2253 4666 
L 3047 4666 
L 3047 1625 
L 3713 1625 
L 3713 1100 
L 3047 1100 
L 3047 0 
L 2419 0 
L 2419 1100 
L 313 1100 
L 313 1709 
L 2253 4666 
z
" transform="scale(0.015625)"/>
       </defs>
       <use xlink:href="#DejaVuSans-34"/>
       <use xlink:href="#DejaVuSans-30" x="63.623047"/>
       <use xlink:href="#DejaVuSans-30" x="127.246094"/>
       <use xlink:href="#DejaVuSans-30" x="190.869141"/>
      </g>
     </g>
    </g>
    <g id="xtick_4">
     <g id="line2d_4">
      <g>
       <use xlink:href="#ma87061e0b2" x="600.719864" y="282.799219" style="stroke: #000000; stroke-width: 0.8"/>
      </g>
     </g>
     <g id="text_4">
      <!-- 6000 -->
      <g transform="translate(587.994864 297.397656)scale(0.1 -0.1)">
       <defs>
        <path id="DejaVuSans-36" d="M 2113 2584 
Q 1688 2584 1439 2293 
Q 1191 2003 1191 1497 
Q 1191 994 1439 701 
Q 1688 409 2113 409 
Q 2538 409 2786 701 
Q 3034 994 3034 1497 
Q 3034 2003 2786 2293 
Q 2538 2584 2113 2584 
z
M 3366 4563 
L 3366 3988 
Q 3128 4100 2886 4159 
Q 2644 4219 2406 4219 
Q 1781 4219 1451 3797 
Q 1122 3375 1075 2522 
Q 1259 2794 1537 2939 
Q 1816 3084 2150 3084 
Q 2853 3084 3261 2657 
Q 3669 2231 3669 1497 
Q 3669 778 3244 343 
Q 2819 -91 2113 -91 
Q 1303 -91 875 529 
Q 447 1150 447 2328 
Q 447 3434 972 4092 
Q 1497 4750 2381 4750 
Q 2619 4750 2861 4703 
Q 3103 4656 3366 4563 
z
" transform="scale(0.015625)"/>
       </defs>
       <use xlink:href="#DejaVuSans-36"/>
       <use xlink:href="#DejaVuSans-30" x="63.623047"/>
       <use xlink:href="#DejaVuSans-30" x="127.246094"/>
       <use xlink:href="#DejaVuSans-30" x="190.869141"/>
      </g>
     </g>
    </g>
    <g id="xtick_5">
     <g id="line2d_5">
      <g>
       <use xlink:href="#ma87061e0b2" x="769.829563" y="282.799219" style="stroke: #000000; stroke-width: 0.8"/>
      </g>
     </g>
     <g id="text_5">
      <!-- 8000 -->
      <g transform="translate(757.104563 297.397656)scale(0.1 -0.1)">
       <defs>
        <path id="DejaVuSans-38" d="M 2034 2216 
Q 1584 2216 1326 1975 
Q 1069 1734 1069 1313 
Q 1069 891 1326 650 
Q 1584 409 2034 409 
Q 2484 409 2743 651 
Q 3003 894 3003 1313 
Q 3003 1734 2745 1975 
Q 2488 2216 2034 2216 
z
M 1403 2484 
Q 997 2584 770 2862 
Q 544 3141 544 3541 
Q 544 4100 942 4425 
Q 1341 4750 2034 4750 
Q 2731 4750 3128 4425 
Q 3525 4100 3525 3541 
Q 3525 3141 3298 2862 
Q 3072 2584 2669 2484 
Q 3125 2378 3379 2068 
Q 3634 1759 3634 1313 
Q 3634 634 3220 271 
Q 2806 -91 2034 -91 
Q 1263 -91 848 271 
Q 434 634 434 1313 
Q 434 1759 690 2068 
Q 947 2378 1403 2484 
z
M 1172 3481 
Q 1172 3119 1398 2916 
Q 1625 2713 2034 2713 
Q 2441 2713 2670 2916 
Q 2900 3119 2900 3481 
Q 2900 3844 2670 4047 
Q 2441 4250 2034 4250 
Q 1625 4250 1398 4047 
Q 1172 3844 1172 3481 
z
" transform="scale(0.015625)"/>
       </defs>
       <use xlink:href="#DejaVuSans-38"/>
       <use xlink:href="#DejaVuSans-30" x="63.623047"/>
       <use xlink:href="#DejaVuSans-30" x="127.246094"/>
       <use xlink:href="#DejaVuSans-30" x="190.869141"/>
      </g>
     </g>
    </g>
    <g id="text_6">
     <!-- Time (samples) -->
     <g transform="translate(435.3375 311.075781)scale(0.1 -0.1)">
      <defs>
       <path id="DejaVuSans-54" d="M -19 4666 
L 3928 4666 
L 3928 4134 
L 2272 4134 
L 2272 0 
L 1638 0 
L 1638 4134 
L -19 4134 
L -19 4666 
z
" transform="scale(0.015625)"/>
       <path id="DejaVuSans-69" d="M 603 3500 
L 1178 3500 
L 1178 0 
L 603 0 
L 603 3500 
z
M 603 4863 
L 1178 4863 
L 1178 4134 
L 603 4134 
L 603 4863 
z
" transform="scale(0.015625)"/>
       <path id="DejaVuSans-6d" d="M 3328 2828 
Q 3544 3216 3844 3400 
Q 4144 3584 4550 3584 
Q 5097 3584 5394 3201 
Q 5691 2819 5691 2113 
L 5691 0 
L 5113 0 
L 5113 2094 
Q 5113 2597 4934 2840 
Q 4756 3084 4391 3084 
Q 3944 3084 3684 2787 
Q 3425 2491 3425 1978 
L 3425 0 
L 2847 0 
L 2847 2094 
Q 2847 2600 2669 2842 
Q 2491 3084 2119 3084 
Q 1678 3084 1418 2786 
Q 1159 2488 1159 1978 
L 1159 0 
L 581 0 
L 581 3500 
L 1159 3500 
L 1159 2956 
Q 1356 3278 1631 3431 
Q 1906 3584 2284 3584 
Q 2666 3584 2933 3390 
Q 3200 3197 3328 2828 
z
" transform="scale(0.015625)"/>
       <path id="DejaVuSans-65" d="M 3597 1894 
L 3597 1613 
L 953 1613 
Q 991 1019 1311 708 
Q 1631 397 2203 397 
Q 2534 397 2845 478 
Q 3156 559 3463 722 
L 3463 178 
Q 3153 47 2828 -22 
Q 2503 -91 2169 -91 
Q 1331 -91 842 396 
Q 353 884 353 1716 
Q 353 2575 817 3079 
Q 1281 3584 2069 3584 
Q 2775 3584 3186 3129 
Q 3597 2675 3597 1894 
z
M 3022 2063 
Q 3016 2534 2758 2815 
Q 2500 3097 2075 3097 
Q 1594 3097 1305 2825 
Q 1016 2553 972 2059 
L 3022 2063 
z
" transform="scale(0.015625)"/>
       <path id="DejaVuSans-20" transform="scale(0.015625)"/>
       <path id="DejaVuSans-28" d="M 1984 4856 
Q 1566 4138 1362 3434 
Q 1159 2731 1159 2009 
Q 1159 1288 1364 580 
Q 1569 -128 1984 -844 
L 1484 -844 
Q 1016 -109 783 600 
Q 550 1309 550 2009 
Q 550 2706 781 3412 
Q 1013 4119 1484 4856 
L 1984 4856 
z
" transform="scale(0.015625)"/>
       <path id="DejaVuSans-73" d="M 2834 3397 
L 2834 2853 
Q 2591 2978 2328 3040 
Q 2066 3103 1784 3103 
Q 1356 3103 1142 2972 
Q 928 2841 928 2578 
Q 928 2378 1081 2264 
Q 1234 2150 1697 2047 
L 1894 2003 
Q 2506 1872 2764 1633 
Q 3022 1394 3022 966 
Q 3022 478 2636 193 
Q 2250 -91 1575 -91 
Q 1294 -91 989 -36 
Q 684 19 347 128 
L 347 722 
Q 666 556 975 473 
Q 1284 391 1588 391 
Q 1994 391 2212 530 
Q 2431 669 2431 922 
Q 2431 1156 2273 1281 
Q 2116 1406 1581 1522 
L 1381 1569 
Q 847 1681 609 1914 
Q 372 2147 372 2553 
Q 372 3047 722 3315 
Q 1072 3584 1716 3584 
Q 2034 3584 2315 3537 
Q 2597 3491 2834 3397 
z
" transform="scale(0.015625)"/>
       <path id="DejaVuSans-61" d="M 2194 1759 
Q 1497 1759 1228 1600 
Q 959 1441 959 1056 
Q 959 750 1161 570 
Q 1363 391 1709 391 
Q 2188 391 2477 730 
Q 2766 1069 2766 1631 
L 2766 1759 
L 2194 1759 
z
M 3341 1997 
L 3341 0 
L 2766 0 
L 2766 531 
Q 2569 213 2275 61 
Q 1981 -91 1556 -91 
Q 1019 -91 701 211 
Q 384 513 384 1019 
Q 384 1609 779 1909 
Q 1175 2209 1959 2209 
L 2766 2209 
L 2766 2266 
Q 2766 2663 2505 2880 
Q 2244 3097 1772 3097 
Q 1472 3097 1187 3025 
Q 903 2953 641 2809 
L 641 3341 
Q 956 3463 1253 3523 
Q 1550 3584 1831 3584 
Q 2591 3584 2966 3190 
Q 3341 2797 3341 1997 
z
" transform="scale(0.015625)"/>
       <path id="DejaVuSans-70" d="M 1159 525 
L 1159 -1331 
L 581 -1331 
L 581 3500 
L 1159 3500 
L 1159 2969 
Q 1341 3281 1617 3432 
Q 1894 3584 2278 3584 
Q 2916 3584 3314 3078 
Q 3713 2572 3713 1747 
Q 3713 922 3314 415 
Q 2916 -91 2278 -91 
Q 1894 -91 1617 61 
Q 1341 213 1159 525 
z
M 3116 1747 
Q 3116 2381 2855 2742 
Q 2594 3103 2138 3103 
Q 1681 3103 1420 2742 
Q 1159 2381 1159 1747 
Q 1159 1113 1420 752 
Q 1681 391 2138 391 
Q 2594 391 2855 752 
Q 3116 1113 3116 1747 
z
" transform="scale(0.015625)"/>
       <path id="DejaVuSans-6c" d="M 603 4863 
L 1178 4863 
L 1178 0 
L 603 0 
L 603 4863 
z
" transform="scale(0.015625)"/>
       <path id="DejaVuSans-29" d="M 513 4856 
L 1013 4856 
Q 1481 4119 1714 3412 
Q 1947 2706 1947 2009 
Q 1947 1309 1714 600 
Q 1481 -109 1013 -844 
L 513 -844 
Q 928 -128 1133 580 
Q 1338 1288 1338 2009 
Q 1338 2731 1133 3434 
Q 928 4138 513 4856 
z
" transform="scale(0.015625)"/>
      </defs>
      <use xlink:href="#DejaVuSans-54"/>
      <use xlink:href="#DejaVuSans-69" x="57.958984"/>
      <use xlink:href="#DejaVuSans-6d" x="85.742188"/>
      <use xlink:href="#DejaVuSans-65" x="183.154297"/>
      <use xlink:href="#DejaVuSans-20" x="244.677734"/>
      <use xlink:href="#DejaVuSans-28" x="276.464844"/>
      <use xlink:href="#DejaVuSans-73" x="315.478516"/>
      <use xlink:href="#DejaVuSans-61" x="367.578125"/>
      <use xlink:href="#DejaVuSans-6d" x="428.857422"/>
      <use xlink:href="#DejaVuSans-70" x="526.269531"/>
      <use xlink:href="#DejaVuSans-6c" x="589.746094"/>
      <use xlink:href="#DejaVuSans-65" x="617.529297"/>
      <use xlink:href="#DejaVuSans-73" x="679.052734"/>
      <use xlink:href="#DejaVuSans-29" x="731.152344"/>
     </g>
    </g>
   </g>
   <g id="matplotlib.axis_2">
    <g id="ytick_1">
     <g id="line2d_6">
      <defs>
       <path id="m3dfeb657f4" d="M 0 0 
L -3.5 0 
" style="stroke: #000000; stroke-width: 0.8"/>
      </defs>
      <g>
       <use xlink:href="#m3dfeb657f4" x="55.345313" y="260.59013" style="stroke: #000000; stroke-width: 0.8"/>
      </g>
     </g>
     <g id="text_7">
      <!-- −400 -->
      <g transform="translate(20.878125 264.389349)scale(0.1 -0.1)">
       <defs>
        <path id="DejaVuSans-2212" d="M 678 2272 
L 4684 2272 
L 4684 1741 
L 678 1741 
L 678 2272 
z
" transform="scale(0.015625)"/>
       </defs>
       <use xlink:href="#DejaVuSans-2212"/>
       <use xlink:href="#DejaVuSans-34" x="83.789062"/>
       <use xlink:href="#DejaVuSans-30" x="147.412109"/>
       <use xlink:href="#DejaVuSans-30" x="211.035156"/>
      </g>
     </g>
    </g>
    <g id="ytick_2">
     <g id="line2d_7">
      <g>
       <use xlink:href="#m3dfeb657f4" x="55.345313" y="209.985942" style="stroke: #000000; stroke-width: 0.8"/>
      </g>
     </g>
     <g id="text_8">
      <!-- −200 -->
      <g transform="translate(20.878125 213.785161)scale(0.1 -0.1)">
       <use xlink:href="#DejaVuSans-2212"/>
       <use xlink:href="#DejaVuSans-32" x="83.789062"/>
       <use xlink:href="#DejaVuSans-30" x="147.412109"/>
       <use xlink:href="#DejaVuSans-30" x="211.035156"/>
      </g>
     </g>
    </g>
    <g id="ytick_3">
     <g id="line2d_8">
      <g>
       <use xlink:href="#m3dfeb657f4" x="55.345313" y="159.381754" style="stroke: #000000; stroke-width: 0.8"/>
      </g>
     </g>
     <g id="text_9">
      <!-- 0 -->
      <g transform="translate(41.982813 163.180972)scale(0.1 -0.1)">
       <use xlink:href="#DejaVuSans-30"/>
      </g>
     </g>
    </g>
    <g id="ytick_4">
     <g id="line2d_9">
      <g>
       <use xlink:href="#m3dfeb657f4" x="55.345313" y="108.777566" style="stroke: #000000; stroke-width: 0.8"/>
      </g>
     </g>
     <g id="text_10">
      <!-- 200 -->
      <g transform="translate(29.257813 112.576784)scale(0.1 -0.1)">
       <use xlink:href="#DejaVuSans-32"/>
       <use xlink:href="#DejaVuSans-30" x="63.623047"/>
       <use xlink:href="#DejaVuSans-30" x="127.246094"/>
      </g>
     </g>
    </g>
    <g id="ytick_5">
     <g id="line2d_10">
      <g>
       <use xlink:href="#m3dfeb657f4" x="55.345313" y="58.173377" style="stroke: #000000; stroke-width: 0.8"/>
      </g>
     </g>
     <g id="text_11">
      <!-- 400 -->
      <g transform="translate(29.257813 61.972596)scale(0.1 -0.1)">
       <use xlink:href="#DejaVuSans-34"/>
       <use xlink:href="#DejaVuSans-30" x="63.623047"/>
       <use xlink:href="#DejaVuSans-30" x="127.246094"/>
      </g>
     </g>
    </g>
    <g id="text_12">
     <!-- Velocity [m/s] -->
     <g transform="translate(14.798438 181.164844)rotate(-90)scale(0.1 -0.1)">
      <defs>
       <path id="DejaVuSans-56" d="M 1831 0 
L 50 4666 
L 709 4666 
L 2188 738 
L 3669 4666 
L 4325 4666 
L 2547 0 
L 1831 0 
z
" transform="scale(0.015625)"/>
       <path id="DejaVuSans-6f" d="M 1959 3097 
Q 1497 3097 1228 2736 
Q 959 2375 959 1747 
Q 959 1119 1226 758 
Q 1494 397 1959 397 
Q 2419 397 2687 759 
Q 2956 1122 2956 1747 
Q 2956 2369 2687 2733 
Q 2419 3097 1959 3097 
z
M 1959 3584 
Q 2709 3584 3137 3096 
Q 3566 2609 3566 1747 
Q 3566 888 3137 398 
Q 2709 -91 1959 -91 
Q 1206 -91 779 398 
Q 353 888 353 1747 
Q 353 2609 779 3096 
Q 1206 3584 1959 3584 
z
" transform="scale(0.015625)"/>
       <path id="DejaVuSans-63" d="M 3122 3366 
L 3122 2828 
Q 2878 2963 2633 3030 
Q 2388 3097 2138 3097 
Q 1578 3097 1268 2742 
Q 959 2388 959 1747 
Q 959 1106 1268 751 
Q 1578 397 2138 397 
Q 2388 397 2633 464 
Q 2878 531 3122 666 
L 3122 134 
Q 2881 22 2623 -34 
Q 2366 -91 2075 -91 
Q 1284 -91 818 406 
Q 353 903 353 1747 
Q 353 2603 823 3093 
Q 1294 3584 2113 3584 
Q 2378 3584 2631 3529 
Q 2884 3475 3122 3366 
z
" transform="scale(0.015625)"/>
       <path id="DejaVuSans-74" d="M 1172 4494 
L 1172 3500 
L 2356 3500 
L 2356 3053 
L 1172 3053 
L 1172 1153 
Q 1172 725 1289 603 
Q 1406 481 1766 481 
L 2356 481 
L 2356 0 
L 1766 0 
Q 1100 0 847 248 
Q 594 497 594 1153 
L 594 3053 
L 172 3053 
L 172 3500 
L 594 3500 
L 594 4494 
L 1172 4494 
z
" transform="scale(0.015625)"/>
       <path id="DejaVuSans-79" d="M 2059 -325 
Q 1816 -950 1584 -1140 
Q 1353 -1331 966 -1331 
L 506 -1331 
L 506 -850 
L 844 -850 
Q 1081 -850 1212 -737 
Q 1344 -625 1503 -206 
L 1606 56 
L 191 3500 
L 800 3500 
L 1894 763 
L 2988 3500 
L 3597 3500 
L 2059 -325 
z
" transform="scale(0.015625)"/>
       <path id="DejaVuSans-5b" d="M 550 4863 
L 1875 4863 
L 1875 4416 
L 1125 4416 
L 1125 -397 
L 1875 -397 
L 1875 -844 
L 550 -844 
L 550 4863 
z
" transform="scale(0.015625)"/>
       <path id="DejaVuSans-2f" d="M 1625 4666 
L 2156 4666 
L 531 -594 
L 0 -594 
L 1625 4666 
z
" transform="scale(0.015625)"/>
       <path id="DejaVuSans-5d" d="M 1947 4863 
L 1947 -844 
L 622 -844 
L 622 -397 
L 1369 -397 
L 1369 4416 
L 622 4416 
L 622 4863 
L 1947 4863 
z
" transform="scale(0.015625)"/>
      </defs>
      <use xlink:href="#DejaVuSans-56"/>
      <use xlink:href="#DejaVuSans-65" x="60.658203"/>
      <use xlink:href="#DejaVuSans-6c" x="122.181641"/>
      <use xlink:href="#DejaVuSans-6f" x="149.964844"/>
      <use xlink:href="#DejaVuSans-63" x="211.146484"/>
      <use xlink:href="#DejaVuSans-69" x="266.126953"/>
      <use xlink:href="#DejaVuSans-74" x="293.910156"/>
      <use xlink:href="#DejaVuSans-79" x="333.119141"/>
      <use xlink:href="#DejaVuSans-20" x="392.298828"/>
      <use xlink:href="#DejaVuSans-5b" x="424.085938"/>
      <use xlink:href="#DejaVuSans-6d" x="463.099609"/>
      <use xlink:href="#DejaVuSans-2f" x="560.511719"/>
      <use xlink:href="#DejaVuSans-73" x="594.203125"/>
      <use xlink:href="#DejaVuSans-5d" x="646.302734"/>
     </g>
    </g>
   </g>
   <g id="line2d_11">
    <path d="M 93.390767 159.365863 
L 93.559877 159.374926 
L 94.236316 159.357602 
L 94.574535 159.400768 
L 95.335529 159.340892 
L 95.504638 159.404272 
L 95.758303 159.384717 
L 96.603851 159.369741 
L 97.026626 159.364134 
L 99.140497 159.39222 
L 99.816936 159.379663 
L 103.283684 159.440255 
L 103.368239 159.31575 
L 103.537349 159.45403 
L 103.621904 159.288631 
L 103.706459 159.454339 
L 103.875568 159.335365 
L 103.960123 159.456693 
L 104.044678 159.30895 
L 104.213788 159.382658 
L 104.298343 159.347287 
L 104.382897 159.447913 
L 104.552007 159.394653 
L 105.228446 159.386398 
L 105.82033 159.37719 
L 109.794408 159.373221 
L 111.316395 159.372586 
L 112.077389 159.38398 
L 112.584718 159.365279 
L 113.007492 159.393078 
L 113.853041 159.377525 
L 114.698589 159.378841 
L 115.882357 159.387089 
L 116.558796 159.376305 
L 118.249893 159.388298 
L 119.179996 159.385898 
L 124.929726 159.375503 
L 125.18339 159.418794 
L 125.3525 159.370166 
L 125.606165 159.428528 
L 125.775274 159.363309 
L 126.028939 159.414351 
L 126.198049 159.36054 
L 126.451713 159.418236 
L 126.789933 159.345868 
L 127.043597 159.389092 
L 127.804591 159.351528 
L 128.058255 159.384425 
L 129.495688 159.360761 
L 129.749352 159.391902 
L 130.510346 159.334636 
L 130.679456 159.372035 
L 131.863224 159.435357 
L 131.947778 159.322978 
L 132.116888 159.369625 
L 132.370553 159.330938 
L 132.539662 159.369173 
L 133.216101 159.350354 
L 133.385211 159.350322 
L 133.977095 159.403877 
L 134.230759 159.357994 
L 134.399869 159.386552 
L 134.484424 159.330262 
L 134.568979 159.450598 
L 134.738088 159.391309 
L 135.414527 159.38473 
L 135.499082 159.342951 
L 135.583637 159.437307 
L 135.752747 159.392093 
L 136.260076 159.423679 
L 136.344631 159.311646 
L 136.429185 159.435597 
L 136.598295 159.370422 
L 136.68285 159.432499 
L 136.767405 159.316764 
L 136.85196 159.447326 
L 137.021069 159.385923 
L 137.105624 159.435573 
L 137.190179 159.316671 
L 137.274734 159.432622 
L 137.443844 159.377164 
L 137.697508 159.404652 
L 138.289392 159.382845 
L 141.925251 159.365258 
L 142.43258 159.38628 
L 145.645664 159.39535 
L 145.899329 159.370052 
L 147.252206 159.378507 
L 147.759535 159.384207 
L 156.891459 159.384658 
L 157.314233 159.39094 
L 158.667111 159.379157 
L 159.34355 159.389148 
L 162.13386 159.376673 
L 163.317628 159.39906 
L 163.909512 159.390867 
L 164.58595 159.38155 
L 165.262389 159.365231 
L 165.600609 159.386796 
L 166.023383 159.384761 
L 167.799035 159.374931 
L 169.067357 159.376129 
L 170.082016 159.378807 
L 170.50479 159.401503 
L 171.350338 159.3842 
L 175.578081 159.378189 
L 175.9163 159.396428 
L 176.25452 159.386799 
L 177.691952 159.385313 
L 178.283836 159.378014 
L 183.441682 159.385901 
L 184.540895 159.390411 
L 185.386443 159.367411 
L 185.724663 159.398244 
L 186.992985 159.360593 
L 187.669424 159.402497 
L 188.007644 159.350749 
L 188.176753 159.370758 
L 190.121515 159.388224 
L 190.459734 159.361511 
L 190.882509 159.391664 
L 203.227517 159.361243 
L 203.312071 159.47698 
L 203.396626 159.301123 
L 203.481181 159.432841 
L 203.565736 159.369589 
L 203.650291 159.323856 
L 203.734846 159.444698 
L 203.819401 159.314555 
L 203.98851 159.384121 
L 204.242175 159.325883 
L 204.32673 159.436689 
L 204.495839 159.354279 
L 204.749504 159.43336 
L 204.834059 159.326489 
L 205.003168 159.393126 
L 205.256833 159.335293 
L 205.425943 159.382883 
L 205.933272 159.338722 
L 206.102381 159.365218 
L 206.694265 159.383064 
L 207.708924 159.3769 
L 208.047143 159.391662 
L 208.723582 159.37527 
L 209.315466 159.382756 
L 210.245569 159.366258 
L 211.260227 159.408929 
L 211.513892 159.371337 
L 214.642421 159.373324 
L 214.811531 159.376063 
L 231.384281 159.408351 
L 231.468836 159.326431 
L 231.553391 159.427245 
L 231.722501 159.371187 
L 231.976165 159.424268 
L 232.314385 159.364602 
L 233.075378 159.385939 
L 233.244488 159.397191 
L 235.104695 159.380303 
L 236.034798 159.376473 
L 237.303121 159.392522 
L 238.486889 159.386572 
L 238.994218 159.404824 
L 242.799186 159.377198 
L 244.236619 159.379623 
L 244.997612 159.37892 
L 247.449703 159.379298 
L 248.210697 159.384088 
L 249.056245 159.38736 
L 249.563574 159.393882 
L 254.129536 159.380075 
L 254.805975 159.382103 
L 255.736078 159.397942 
L 256.497072 159.39614 
L 257.596285 159.384018 
L 258.695498 159.368536 
L 262.415911 159.387556 
L 262.669576 159.394181 
L 264.191563 159.381955 
L 264.952557 159.371955 
L 265.544441 159.372769 
L 268.165641 159.389184 
L 268.588415 159.3984 
L 271.209616 159.379136 
L 271.970609 159.372047 
L 274.59181 159.381929 
L 277.297565 159.378659 
L 278.396778 159.397361 
L 278.988662 159.385718 
L 279.495991 159.380721 
L 284.822946 159.380521 
L 285.41483 159.37974 
L 285.922159 159.389684 
L 290.826341 159.37954 
L 291.840999 159.380413 
L 292.940212 159.379212 
L 293.447541 159.386277 
L 294.039425 159.38719 
L 294.969528 159.397275 
L 295.392303 159.37834 
L 296.153296 159.369603 
L 297.844393 159.392726 
L 298.351722 159.390474 
L 300.381039 159.384031 
L 301.142032 159.400898 
L 301.564807 159.372838 
L 302.833129 159.381138 
L 303.340458 159.375677 
L 305.961659 159.387545 
L 306.638098 159.378647 
L 309.259298 159.382169 
L 309.682072 159.400809 
L 311.457724 159.359515 
L 311.795943 159.396009 
L 312.134163 159.37487 
L 312.895156 159.386967 
L 313.65615 159.370723 
L 317.038344 159.377679 
L 317.883893 159.384287 
L 319.57499 159.344518 
L 319.828654 159.719734 
L 319.913209 159.59333 
L 319.997764 159.728548 
L 320.251428 159.231387 
L 320.335983 158.448329 
L 320.420538 158.858337 
L 320.505093 157.954133 
L 320.843312 161.320018 
L 320.927867 161.01506 
L 321.012422 164.053801 
L 321.096977 160.8527 
L 321.181532 163.567519 
L 321.519751 143.51219 
L 321.604306 150.77839 
L 321.688861 125.780877 
L 321.85797 243.898732 
L 322.02708 134.125893 
L 322.111635 133.440471 
L 322.280745 165.515211 
L 322.3653 135.013856 
L 322.534409 181.586631 
L 322.703519 150.123107 
L 322.788074 140.878872 
L 322.872629 183.777922 
L 322.957184 179.207006 
L 323.041738 151.089964 
L 323.126293 169.139213 
L 323.295403 128.281513 
L 323.464513 164.119268 
L 323.549067 201.627773 
L 323.633622 180.824636 
L 323.718177 114.168889 
L 323.887287 163.983839 
L 324.056397 181.542724 
L 324.140951 129.664646 
L 324.310061 163.797501 
L 324.394616 142.480286 
L 324.479171 200.152868 
L 324.563726 190.564108 
L 324.648281 102.162444 
L 324.81739 169.320181 
L 324.901945 104.316025 
L 324.9865 204.868955 
L 325.071055 182.564093 
L 325.15561 171.377688 
L 325.324719 97.928787 
L 325.409274 204.590761 
L 325.493829 181.102512 
L 325.578384 171.081042 
L 325.662939 142.670405 
L 325.747494 197.155036 
L 325.832048 140.356603 
L 325.916603 146.383228 
L 326.001158 236.805691 
L 326.085713 23.353764 
L 326.254823 233.900714 
L 326.339377 101.134952 
L 326.423932 220.062878 
L 326.508487 187.272239 
L 326.593042 153.173752 
L 326.677597 176.915096 
L 326.762152 140.486822 
L 326.846707 194.524766 
L 326.931261 79.580209 
L 327.015816 105.324688 
L 327.100371 183.871377 
L 327.184926 154.264779 
L 327.269481 270.444673 
L 327.438591 105.063224 
L 327.523145 140.414955 
L 327.6077 113.782069 
L 327.861365 216.178747 
L 327.94592 187.411311 
L 328.030474 125.146089 
L 328.115029 130.186307 
L 328.199584 164.476909 
L 328.284139 158.657955 
L 328.368694 145.621671 
L 328.453249 192.546774 
L 328.622358 123.235495 
L 328.706913 177.930319 
L 328.791468 157.283427 
L 328.960578 174.68351 
L 329.045133 151.539197 
L 329.129688 171.003962 
L 329.214242 140.6327 
L 329.383352 157.291257 
L 329.467907 129.51211 
L 329.637017 182.498255 
L 329.721571 158.29306 
L 329.890681 179.389449 
L 330.059791 134.823302 
L 330.313455 170.10174 
L 330.39801 162.828815 
L 330.482565 164.118602 
L 330.56712 174.885137 
L 330.820785 146.58594 
L 330.905339 149.987065 
L 330.989894 168.133821 
L 331.159004 158.384383 
L 331.243559 158.952328 
L 331.328114 152.087595 
L 331.412668 164.296666 
L 331.497223 159.319864 
L 331.581778 165.488075 
L 331.666333 162.816582 
L 331.750888 147.955504 
L 331.919998 163.81684 
L 332.004552 171.615033 
L 332.089107 161.84851 
L 332.173662 138.626933 
L 332.427327 167.098857 
L 332.511882 166.758354 
L 332.596436 165.844644 
L 332.680991 145.615384 
L 332.850101 169.057315 
L 332.934656 143.273133 
L 333.103765 174.854425 
L 333.272875 148.773676 
L 333.35743 149.898911 
L 333.441985 168.93057 
L 333.52654 157.684994 
L 333.695649 167.502693 
L 333.780204 152.905289 
L 333.864759 154.986453 
L 333.949314 162.862112 
L 334.118424 152.600087 
L 334.456643 162.00635 
L 334.541198 177.625343 
L 334.879417 140.852392 
L 335.048527 161.796638 
L 335.133082 155.779992 
L 335.302192 167.336834 
L 335.471301 155.637784 
L 335.640411 165.302961 
L 335.724966 167.785158 
L 335.894075 142.04325 
L 335.97863 156.310785 
L 336.063185 153.23174 
L 336.14774 158.491888 
L 336.232295 173.872679 
L 336.570514 152.183088 
L 336.655069 157.25426 
L 336.739624 152.297362 
L 336.824179 158.604682 
L 336.908734 155.619449 
L 336.993289 162.965213 
L 337.077843 161.670687 
L 337.162398 153.58825 
L 337.246953 167.361556 
L 337.331508 166.935351 
L 337.416063 166.238793 
L 337.585172 149.365927 
L 337.669727 159.637286 
L 337.838837 155.721054 
L 338.007947 161.53201 
L 338.092502 159.892937 
L 338.177056 161.488391 
L 338.261611 167.659216 
L 338.515276 152.740531 
L 338.599831 156.175455 
L 338.684386 156.856809 
L 338.76894 151.678366 
L 338.853495 161.197946 
L 338.93805 159.121354 
L 339.10716 170.094116 
L 339.191715 156.924357 
L 339.276269 158.084 
L 339.360824 162.273504 
L 339.445379 148.914386 
L 339.529934 152.408837 
L 339.614489 165.55727 
L 339.699044 165.226811 
L 339.783599 166.898764 
L 339.952708 151.057148 
L 340.037263 166.491858 
L 340.121818 157.940596 
L 340.206373 158.380768 
L 340.375483 160.778333 
L 340.460037 165.185784 
L 340.544592 153.425811 
L 340.713702 162.664145 
L 340.798257 157.375547 
L 340.882812 162.440206 
L 341.051921 155.88234 
L 341.136476 162.763462 
L 341.221031 152.252008 
L 341.305586 153.752934 
L 341.390141 173.660642 
L 341.55925 154.475866 
L 341.643805 163.289793 
L 341.812915 152.631551 
L 341.982025 162.441375 
L 342.06658 161.127356 
L 342.151134 162.117699 
L 342.320244 156.012153 
L 342.404799 160.708095 
L 342.489354 155.317392 
L 342.658463 168.501749 
L 342.743018 155.526306 
L 342.827573 155.761855 
L 342.912128 163.417318 
L 343.165793 154.866529 
L 343.334902 161.316895 
L 343.588567 155.281105 
L 343.757677 165.851162 
L 343.926786 156.030533 
L 344.095896 165.102339 
L 344.180451 154.540946 
L 344.265006 156.582781 
L 344.34956 164.117887 
L 344.434115 150.895803 
L 344.603225 167.763674 
L 344.68778 158.077345 
L 344.85689 164.689956 
L 344.941444 152.227155 
L 345.110554 161.471462 
L 345.195109 159.363155 
L 345.279664 163.561737 
L 345.364219 151.846426 
L 345.533328 165.332306 
L 345.617883 153.507157 
L 345.702438 156.884242 
L 345.871548 165.973372 
L 345.956103 163.312463 
L 346.040657 155.244407 
L 346.125212 160.424363 
L 346.209767 154.225617 
L 346.378877 162.394073 
L 346.463432 152.506578 
L 346.547987 163.265652 
L 346.632541 160.310371 
L 346.717096 158.507961 
L 346.801651 166.06458 
L 346.886206 157.534809 
L 346.970761 162.942391 
L 347.055316 160.681103 
L 347.13987 152.662919 
L 347.224425 157.918413 
L 347.30898 156.35897 
L 347.47809 162.540856 
L 347.562645 154.41487 
L 347.731754 163.939035 
L 347.900864 160.742523 
L 347.985419 152.068611 
L 348.154529 164.381269 
L 348.239084 163.42972 
L 348.408193 152.013887 
L 348.492748 164.883594 
L 348.577303 162.980777 
L 348.661858 154.167564 
L 348.830967 165.682055 
L 349.000077 154.712094 
L 349.084632 158.371315 
L 349.169187 163.913736 
L 349.253742 161.076925 
L 349.338297 153.560384 
L 349.422851 154.43793 
L 349.507406 162.703344 
L 349.591961 157.111383 
L 349.676516 165.178373 
L 349.761071 161.940494 
L 349.845626 150.030324 
L 349.930181 167.367146 
L 350.09929 156.937073 
L 350.183845 163.462161 
L 350.2684 155.95271 
L 350.352955 164.610916 
L 350.522064 155.200833 
L 350.691174 159.613879 
L 350.775729 165.12485 
L 350.944839 156.253201 
L 351.029394 158.217424 
L 351.113948 164.692567 
L 351.283058 156.471962 
L 351.367613 162.651135 
L 351.452168 156.123276 
L 351.621278 162.235095 
L 351.705832 156.082071 
L 351.874942 161.580289 
L 351.959497 158.481578 
L 352.044052 160.95026 
L 352.128607 160.154544 
L 352.213161 156.982678 
L 352.297716 161.14368 
L 352.466826 156.200275 
L 352.551381 157.460014 
L 352.720491 163.118281 
L 352.8896 159.443267 
L 352.974155 162.95416 
L 353.143265 153.223716 
L 353.22782 166.051198 
L 353.396929 154.833464 
L 353.481484 157.955004 
L 353.650594 161.686 
L 353.904258 155.066848 
L 354.073368 162.868188 
L 354.242478 158.337602 
L 354.327033 157.321711 
L 354.411588 162.040654 
L 354.496142 158.772919 
L 354.665252 162.60338 
L 354.749807 154.626386 
L 354.834362 160.977186 
L 354.918917 155.066321 
L 355.088026 166.033741 
L 355.172581 151.677007 
L 355.341691 163.977364 
L 355.426246 157.93136 
L 355.510801 162.104206 
L 355.67991 155.817265 
L 355.764465 156.569181 
L 355.84902 164.477494 
L 356.01813 153.485446 
L 356.102685 161.224311 
L 356.187239 161.088669 
L 356.271794 160.692223 
L 356.356349 158.018568 
L 356.525459 162.27781 
L 356.610014 157.387484 
L 356.694568 160.314964 
L 356.779123 156.054711 
L 356.948233 161.743834 
L 357.032788 157.915341 
L 357.201898 161.1273 
L 357.286452 160.798326 
L 357.371007 156.534701 
L 357.455562 156.640651 
L 357.540117 162.29419 
L 357.709227 159.099559 
L 357.793782 160.556696 
L 357.962891 156.481231 
L 358.047446 158.243954 
L 358.216556 161.201272 
L 358.301111 158.570283 
L 358.47022 160.65394 
L 358.554775 158.627391 
L 358.63933 160.138769 
L 358.723885 155.505267 
L 358.892995 163.0051 
L 358.977549 150.889044 
L 359.146659 166.421026 
L 359.315769 155.3189 
L 359.400324 161.028632 
L 359.484879 159.526373 
L 359.569433 156.722904 
L 359.653988 161.029902 
L 359.738543 159.254243 
L 359.823098 161.619941 
L 359.992208 156.945616 
L 360.245872 161.167568 
L 360.330427 158.342936 
L 360.414982 158.40464 
L 360.499537 158.037764 
L 360.668646 161.244837 
L 360.753201 154.850401 
L 360.922311 163.054511 
L 361.006866 156.928881 
L 361.175976 161.66394 
L 361.345085 158.350237 
L 361.42964 155.318919 
L 361.59875 161.775067 
L 361.683305 159.12889 
L 361.767859 159.602077 
L 361.852414 159.146448 
L 361.936969 157.053768 
L 362.021524 159.43908 
L 362.106079 159.265875 
L 362.190634 160.743809 
L 362.275189 164.262479 
L 362.444298 157.736959 
L 362.528853 159.534967 
L 362.613408 156.381257 
L 362.697963 161.180877 
L 362.782518 160.720544 
L 362.867072 156.228467 
L 363.036182 161.817449 
L 363.120737 161.100409 
L 363.289847 158.245079 
L 363.374402 158.375151 
L 363.458956 157.938683 
L 363.543511 158.495127 
L 363.628066 161.639144 
L 363.712621 160.783306 
L 363.881731 159.50856 
L 363.966286 155.338586 
L 364.135395 162.825199 
L 364.304505 159.210454 
L 364.473615 158.682933 
L 364.558169 160.074801 
L 364.727279 158.431997 
L 364.980944 159.906747 
L 365.065499 160.972878 
L 365.150053 160.797229 
L 365.403718 156.877247 
L 365.572828 160.838724 
L 365.657383 158.636838 
L 365.741937 159.934589 
L 365.826492 158.917084 
L 365.995602 161.357061 
L 366.080157 158.278071 
L 366.164712 158.468666 
L 366.249266 158.31418 
L 366.418376 161.149017 
L 366.502931 158.584982 
L 366.587486 158.758732 
L 366.672041 160.044358 
L 366.84115 158.888084 
L 366.925705 160.800322 
L 367.094815 157.293704 
L 367.17937 160.930535 
L 367.263925 160.159943 
L 367.34848 158.409921 
L 367.517589 160.088735 
L 367.686699 158.268448 
L 367.771254 160.969026 
L 367.855809 159.902129 
L 367.940363 156.365174 
L 368.109473 161.527316 
L 368.363138 157.851133 
L 368.532247 160.471749 
L 368.616802 158.099314 
L 368.785912 160.614262 
L 368.870467 160.209553 
L 368.955022 158.137116 
L 369.124131 159.355538 
L 369.208686 157.963396 
L 369.377796 160.288923 
L 369.462351 160.449621 
L 369.546906 159.139623 
L 369.63146 159.895105 
L 369.80057 159.259138 
L 369.885125 159.694773 
L 369.96968 156.530075 
L 370.13879 160.643073 
L 370.223344 159.008924 
L 370.307899 159.344258 
L 370.392454 158.210281 
L 370.477009 160.307191 
L 370.561564 160.193454 
L 370.646119 160.979257 
L 370.730673 160.055749 
L 370.815228 157.631029 
L 370.899783 158.898715 
L 370.984338 157.494149 
L 371.153448 161.454288 
L 371.238003 156.662372 
L 371.407112 161.576621 
L 371.491667 158.266061 
L 371.576222 160.170659 
L 371.660777 160.090089 
L 371.745332 156.642315 
L 371.998996 160.98796 
L 372.168106 157.824728 
L 372.252661 159.080793 
L 372.337216 160.458062 
L 372.506325 157.432636 
L 372.675435 161.269137 
L 372.75999 157.756211 
L 372.844545 159.485531 
L 372.9291 159.139185 
L 373.013654 158.192328 
L 373.098209 161.257041 
L 373.267319 159.593054 
L 373.351874 159.466123 
L 373.436429 157.438507 
L 373.605538 160.574096 
L 373.690093 158.918983 
L 373.774648 159.2338 
L 373.859203 158.148035 
L 374.028313 162.725184 
L 374.197422 157.652155 
L 374.281977 159.632301 
L 374.366532 158.302135 
L 374.535642 160.678878 
L 374.704751 158.48299 
L 374.789306 160.261517 
L 374.873861 159.97182 
L 374.958416 159.287515 
L 375.042971 160.003637 
L 375.127526 158.060525 
L 375.212081 159.022622 
L 375.296635 158.935021 
L 375.38119 157.6414 
L 375.465745 162.354387 
L 375.5503 161.296596 
L 375.634855 156.847757 
L 375.803964 160.434642 
L 375.888519 160.336857 
L 376.057629 157.215728 
L 376.226739 159.692155 
L 376.311294 159.117717 
L 376.395848 161.126648 
L 376.564958 158.591179 
L 376.649513 158.897377 
L 376.734068 160.554219 
L 376.903178 156.259342 
L 377.072287 161.142935 
L 377.156842 158.411424 
L 377.241397 158.658553 
L 377.410507 161.57521 
L 377.495061 157.798765 
L 377.579616 158.232898 
L 377.664171 160.091755 
L 377.833281 158.221266 
L 378.086945 160.635807 
L 378.1715 159.544585 
L 378.256055 159.877666 
L 378.34061 159.682496 
L 378.425165 158.488432 
L 378.50972 159.819589 
L 378.678829 157.616771 
L 378.847939 160.739446 
L 379.017049 158.39989 
L 379.270713 161.128584 
L 379.355268 160.423246 
L 379.439823 156.127366 
L 379.608933 161.679899 
L 379.778042 158.992918 
L 379.862597 160.451395 
L 380.031707 157.281451 
L 380.200817 161.368162 
L 380.369926 158.904609 
L 380.454481 160.137282 
L 380.539036 158.71045 
L 380.623591 159.841427 
L 380.708146 159.359738 
L 380.792701 157.292231 
L 380.877255 160.498007 
L 380.96181 159.729148 
L 381.046365 158.625605 
L 381.13092 160.620479 
L 381.30003 158.426319 
L 381.469139 159.751111 
L 381.553694 159.256337 
L 381.638249 159.416435 
L 381.891914 158.905964 
L 381.976468 159.366103 
L 382.061023 160.509176 
L 382.314688 159.133566 
L 382.399243 159.119574 
L 382.483798 159.371329 
L 382.568352 158.96899 
L 382.652907 159.857817 
L 382.822017 157.80222 
L 382.991127 160.794965 
L 383.160236 159.32046 
L 383.244791 158.065529 
L 383.329346 159.217873 
L 383.413901 159.163117 
L 383.498456 159.736052 
L 383.583011 159.489459 
L 383.667565 158.321201 
L 383.75212 159.846225 
L 383.836675 159.56748 
L 383.92123 159.590285 
L 384.005785 159.819698 
L 384.09034 158.073364 
L 384.259449 161.460044 
L 384.344004 160.936815 
L 384.513114 156.983859 
L 384.682224 160.626541 
L 384.851333 157.874325 
L 384.935888 158.842559 
L 385.104998 161.124781 
L 385.274108 159.101824 
L 385.358662 159.735295 
L 385.443217 158.628378 
L 385.527772 158.70014 
L 385.612327 159.517889 
L 385.781437 158.477518 
L 385.865992 160.789273 
L 385.950546 160.071956 
L 386.035101 158.991807 
L 386.119656 160.002267 
L 386.204211 158.796578 
L 386.373321 159.691678 
L 386.54243 158.632743 
L 386.626985 158.982887 
L 386.71154 160.678442 
L 386.796095 158.874916 
L 386.88065 159.178938 
L 386.965205 159.987589 
L 387.049759 158.959357 
L 387.134314 159.608843 
L 387.218869 159.05349 
L 387.387979 160.426073 
L 387.557089 158.606629 
L 387.641643 159.143975 
L 387.726198 158.783107 
L 387.810753 158.81756 
L 387.895308 159.958449 
L 387.979863 159.234901 
L 388.064418 160.942108 
L 388.148973 160.747041 
L 388.233527 157.544533 
L 388.318082 157.871774 
L 388.487192 160.243873 
L 388.571747 158.888632 
L 388.740856 159.999317 
L 388.825411 158.433216 
L 388.994521 159.484294 
L 389.079076 159.518296 
L 389.163631 159.900142 
L 389.417295 158.471085 
L 389.586405 159.945029 
L 389.840069 158.763285 
L 390.262844 160.038927 
L 390.431953 158.864835 
L 390.516508 159.500196 
L 390.601063 158.60352 
L 390.770173 160.167732 
L 390.939283 159.122757 
L 391.023837 159.238592 
L 391.108392 159.979908 
L 391.277502 159.27892 
L 391.362057 159.652673 
L 391.531166 158.613795 
L 391.700276 159.487121 
L 391.784831 159.263279 
L 392.038496 160.203539 
L 392.207605 158.783878 
L 392.29216 159.444656 
L 392.376715 158.777914 
L 392.46127 159.686599 
L 392.545825 159.598832 
L 392.63038 159.216334 
L 392.714934 159.490379 
L 392.799489 158.567987 
L 392.968599 160.33433 
L 393.053154 158.559046 
L 393.137709 158.792864 
L 393.306818 160.356303 
L 393.391373 160.007132 
L 393.475928 158.672068 
L 393.560483 159.116363 
L 393.645038 159.089706 
L 393.729593 158.390708 
L 393.814147 159.630133 
L 393.898702 159.329175 
L 394.067812 159.609284 
L 394.152367 159.412433 
L 394.236922 161.005973 
L 394.406031 158.495478 
L 394.490586 159.543817 
L 394.659696 158.870718 
L 394.744251 159.139809 
L 394.828806 159.838997 
L 394.997915 159.221821 
L 395.08247 159.899699 
L 395.25158 159.111227 
L 395.336135 159.506962 
L 395.42069 159.4726 
L 395.589799 159.00008 
L 395.758909 160.10047 
L 395.843464 159.026189 
L 395.928019 159.081947 
L 396.012574 158.951316 
L 396.097128 159.007783 
L 396.181683 159.888766 
L 396.350793 159.167987 
L 396.435348 159.762936 
L 396.689012 159.261053 
L 396.773567 159.287491 
L 396.858122 159.557144 
L 397.027232 158.717766 
L 397.196341 160.179913 
L 397.280896 159.918999 
L 397.365451 158.992202 
L 397.534561 159.471968 
L 397.619116 159.482926 
L 397.70367 159.801667 
L 397.788225 158.839913 
L 397.87278 158.861203 
L 397.957335 159.438554 
L 398.04189 159.049347 
L 398.211 159.874981 
L 398.380109 159.413727 
L 398.464664 159.395422 
L 398.633774 159.730341 
L 398.718329 158.768515 
L 398.802884 158.96536 
L 398.887438 159.474725 
L 399.056548 159.095527 
L 399.225658 159.880477 
L 399.310213 159.488022 
L 399.394767 159.607309 
L 399.563877 159.17412 
L 399.648432 159.600889 
L 399.817542 159.242976 
L 399.902097 159.192666 
L 400.071206 159.351889 
L 400.155761 158.967589 
L 400.324871 159.988579 
L 400.409426 159.680693 
L 400.66309 159.413316 
L 400.747645 159.744893 
L 400.8322 158.457797 
L 400.916755 158.751509 
L 401.00131 160.18591 
L 401.254974 158.779666 
L 401.424084 159.978513 
L 401.508639 159.16477 
L 401.593194 159.655212 
L 401.677748 159.502326 
L 401.846858 159.415069 
L 401.931413 158.73856 
L 402.100523 159.754808 
L 402.185078 159.110097 
L 402.269632 159.579474 
L 402.438742 158.768615 
L 402.523297 159.02289 
L 402.692407 159.858597 
L 402.776961 159.587708 
L 402.861516 159.593426 
L 402.946071 160.040897 
L 403.199736 158.626983 
L 403.368845 160.51312 
L 403.62251 158.721664 
L 403.79162 159.212918 
L 403.876175 159.322298 
L 403.960729 160.21641 
L 404.129839 159.018134 
L 404.214394 159.781776 
L 404.298949 159.694585 
L 404.383504 158.696549 
L 404.468058 158.888477 
L 404.721723 159.752321 
L 404.890833 159.283458 
L 404.975388 159.636775 
L 405.144497 159.308831 
L 405.313607 159.238913 
L 405.482717 159.554487 
L 405.651826 158.968804 
L 405.820936 160.033012 
L 405.990046 158.877425 
L 406.159155 159.413517 
L 406.41282 159.258609 
L 406.58193 159.94887 
L 406.751039 159.388748 
L 406.920149 158.715948 
L 407.004704 158.896315 
L 407.089259 159.8731 
L 407.258368 158.878009 
L 407.342923 160.114544 
L 407.427478 159.814787 
L 407.512033 159.119964 
L 407.596588 159.610767 
L 407.934807 158.755712 
L 408.103917 159.633534 
L 408.273027 159.800075 
L 408.526691 159.026983 
L 408.695801 159.449343 
L 408.780356 160.154785 
L 408.949465 158.657652 
L 409.03402 159.101782 
L 409.287685 159.773854 
L 409.456795 159.146763 
L 409.625904 159.403584 
L 409.795014 159.460121 
L 409.964124 159.075081 
L 410.133233 159.854885 
L 410.471453 158.808946 
L 410.640562 159.722701 
L 410.725117 159.664198 
L 410.809672 159.170379 
L 410.894227 159.529259 
L 410.978782 159.502672 
L 411.063337 159.216997 
L 411.147892 159.720371 
L 411.317001 159.155117 
L 411.401556 159.663667 
L 411.486111 159.549423 
L 411.655221 158.816197 
L 411.739776 159.552743 
L 411.82433 159.353829 
L 411.908885 159.197436 
L 411.99344 159.8815 
L 412.077995 159.778811 
L 412.500769 158.830739 
L 413.008098 160.12296 
L 413.177208 158.599841 
L 413.261763 159.198081 
L 413.346318 159.180769 
L 413.515427 159.836647 
L 413.769092 159.197886 
L 413.853647 159.493465 
L 414.022756 159.164328 
L 414.191866 159.626778 
L 414.276421 159.455571 
L 414.360976 158.978759 
L 414.530086 159.71677 
L 414.61464 159.389784 
L 414.699195 159.634265 
L 414.868305 159.093056 
L 414.95286 159.56135 
L 415.12197 159.024586 
L 415.291079 159.741599 
L 415.544744 159.106137 
L 415.713853 159.86739 
L 415.882963 159.194969 
L 416.052073 159.305936 
L 416.136628 159.503016 
L 416.474847 159.249497 
L 416.559402 159.225516 
L 416.728512 159.755044 
L 416.813066 159.370839 
L 416.897621 159.53731 
L 416.982176 159.360105 
L 417.151286 159.617114 
L 417.320396 158.774876 
L 417.40495 158.96005 
L 417.57406 159.897758 
L 417.658615 159.514662 
L 417.74317 159.784033 
L 417.91228 158.955971 
L 418.081389 159.722639 
L 418.250499 159.044307 
L 418.335054 159.494741 
L 418.504163 159.101909 
L 418.673273 159.554217 
L 418.842383 159.741015 
L 418.926938 159.868484 
L 419.096047 158.560492 
L 419.180602 159.820394 
L 419.265157 159.735161 
L 419.349712 158.982759 
L 419.518822 159.56395 
L 419.603377 159.222039 
L 419.687931 159.352187 
L 419.772486 159.238139 
L 419.941596 159.923566 
L 420.19526 159.157521 
L 420.36437 159.02975 
L 420.53348 159.488646 
L 420.618035 159.87519 
L 420.70259 159.79814 
L 420.787144 159.367744 
L 420.871699 159.447441 
L 421.040809 159.077674 
L 421.125364 159.409752 
L 421.209919 159.214412 
L 421.294474 159.272817 
L 421.379028 159.627692 
L 421.463583 159.581835 
L 421.632693 159.328583 
L 421.717248 159.491974 
L 421.801803 159.386182 
L 421.886357 159.045857 
L 421.970912 159.176503 
L 422.055467 159.756712 
L 422.140022 159.648365 
L 422.309132 159.158554 
L 422.478241 159.681207 
L 422.562796 159.014672 
L 422.731906 159.861972 
L 422.901016 159.077441 
L 422.985571 159.493915 
L 423.15468 159.20762 
L 423.32379 159.661301 
L 423.408345 159.851061 
L 423.577454 159.084963 
L 423.662009 159.358998 
L 423.746564 159.215565 
L 423.915674 159.711517 
L 424.169338 158.978702 
L 424.338448 159.425441 
L 424.423003 159.374323 
L 424.592113 159.880435 
L 424.761222 158.982406 
L 424.845777 159.509141 
L 424.930332 159.400133 
L 425.014887 158.912769 
L 425.268551 159.720131 
L 425.353106 159.688982 
L 425.437661 159.292975 
L 425.522216 159.376372 
L 425.606771 159.526888 
L 425.775881 159.194941 
L 425.860435 159.309157 
L 425.94499 159.163917 
L 426.198655 159.598947 
L 426.28321 159.682807 
L 426.367764 159.069852 
L 426.452319 159.202184 
L 426.536874 159.644488 
L 426.705984 159.20586 
L 426.790539 159.103503 
L 426.959648 159.84337 
L 427.213313 159.026485 
L 427.382423 159.964668 
L 427.636087 158.90036 
L 427.805197 159.757434 
L 427.889752 159.529495 
L 428.058861 159.566391 
L 428.227971 159.030431 
L 428.397081 159.536728 
L 428.481636 159.442694 
L 428.566191 159.642736 
L 428.7353 159.106464 
L 428.90441 159.376432 
L 429.07352 159.413619 
L 429.158075 159.189819 
L 429.496294 159.640355 
L 429.665404 158.993271 
L 429.834513 159.669718 
L 429.919068 159.535796 
L 430.088178 158.919642 
L 430.257288 159.603176 
L 430.341842 159.236746 
L 430.510952 159.695063 
L 430.680062 159.198699 
L 430.849172 159.470555 
L 430.933726 159.422682 
L 431.102836 159.230085 
L 431.271946 159.602695 
L 431.441055 159.163601 
L 431.610165 159.310193 
L 431.69472 159.267665 
L 431.779275 159.532249 
L 431.86383 159.267303 
L 432.032939 159.751592 
L 432.202049 159.267939 
L 432.286604 159.294329 
L 432.371159 159.464303 
L 432.540269 158.976586 
L 432.709378 159.735963 
L 432.878488 159.241019 
L 433.047598 159.535553 
L 433.132152 159.521513 
L 433.385817 159.077402 
L 433.470372 159.142584 
L 433.639482 159.934542 
L 433.808591 158.99002 
L 433.977701 159.55714 
L 434.231365 159.155934 
L 434.400475 159.455313 
L 434.569585 159.355204 
L 434.65414 159.225253 
L 434.738695 159.64139 
L 434.907804 159.169191 
L 434.992359 159.706526 
L 435.161469 159.246113 
L 435.246024 159.640061 
L 435.415133 159.248606 
L 435.499688 159.323413 
L 435.584243 159.232217 
L 435.753353 159.613375 
L 435.922462 159.272729 
L 436.007017 159.51659 
L 436.091572 159.473227 
L 436.260682 159.270764 
L 436.429792 159.625422 
L 436.598901 158.91534 
L 436.852566 159.824189 
L 436.937121 159.666739 
L 437.190785 159.168676 
L 437.359895 159.404782 
L 437.44445 159.201445 
L 437.782669 159.512742 
L 437.867224 159.54806 
L 438.036334 159.247039 
L 438.120889 159.646797 
L 438.289998 159.141408 
L 438.374553 159.540698 
L 438.459108 159.435581 
L 438.543663 159.079179 
L 438.712773 159.392455 
L 438.797327 159.256212 
L 439.050992 159.578556 
L 439.220102 159.190034 
L 439.389211 159.389746 
L 439.642876 159.312835 
L 439.811986 159.561053 
L 439.89654 159.06114 
L 439.981095 159.184169 
L 440.06565 159.705248 
L 440.150205 159.576837 
L 440.23476 159.568617 
L 440.319315 159.391905 
L 440.40387 158.893063 
L 440.488424 159.080943 
L 440.657534 159.679456 
L 440.826644 159.350842 
L 440.911199 159.45884 
L 441.080308 159.067966 
L 441.249418 159.612446 
L 441.418528 159.630281 
L 441.672192 159.018826 
L 441.841302 159.482947 
L 441.925857 159.398258 
L 442.010412 159.639744 
L 442.179521 159.232894 
L 442.264076 159.465589 
L 442.348631 159.355163 
L 442.433186 159.548836 
L 442.602296 159.220997 
L 442.85596 159.535599 
L 443.19418 159.112125 
L 443.363289 159.540908 
L 443.447844 159.517908 
L 443.616954 159.201898 
L 443.701509 159.258351 
L 443.870618 159.503363 
L 444.039728 159.368551 
L 444.293393 159.4446 
L 444.462502 159.220104 
L 444.631612 159.465477 
L 444.716167 159.315912 
L 444.885277 159.510163 
L 444.969831 159.280102 
L 445.054386 159.339223 
L 445.138941 159.347035 
L 445.223496 159.488378 
L 445.392606 159.163915 
L 445.47716 159.302379 
L 445.81538 159.554236 
L 445.98449 159.263127 
L 446.576374 159.532522 
L 446.745483 159.051745 
L 446.914593 159.657626 
L 446.999148 159.249732 
L 447.083703 159.291992 
L 447.506477 159.503497 
L 447.675587 158.968813 
L 447.844696 159.468093 
L 447.929251 159.415399 
L 448.098361 159.723722 
L 448.267471 158.956177 
L 448.43658 159.768445 
L 448.60569 159.135262 
L 448.690245 159.401344 
L 448.7748 159.32501 
L 449.113019 159.689242 
L 449.282129 159.107935 
L 449.366684 159.196457 
L 449.451238 159.423288 
L 449.535793 159.37693 
L 449.620348 159.317817 
L 449.789458 159.689569 
L 449.958568 159.126225 
L 450.043122 159.215553 
L 450.212232 159.501119 
L 450.296787 159.437513 
L 450.381342 159.10244 
L 450.465897 159.236347 
L 450.550451 159.603687 
L 450.635006 159.573589 
L 450.804116 159.518248 
L 450.888671 159.09367 
L 450.973226 159.153896 
L 451.22689 159.474788 
L 451.480555 159.497242 
L 451.649664 159.190873 
L 451.818774 159.554649 
L 452.156994 159.377383 
L 452.326103 159.198243 
L 452.495213 159.56585 
L 452.748878 159.395935 
L 452.833432 159.481384 
L 452.917987 159.215951 
L 453.002542 159.256854 
L 453.087097 159.358931 
L 453.171652 159.264842 
L 453.340761 159.515697 
L 453.594426 159.267142 
L 453.678981 159.476628 
L 453.763536 159.427988 
L 453.848091 159.269079 
L 454.101755 159.533712 
L 454.270865 159.149283 
L 454.439975 159.424636 
L 454.524529 159.512926 
L 454.609084 159.40354 
L 454.693639 159.532387 
L 454.778194 159.432213 
L 454.862749 159.109028 
L 455.116413 159.488767 
L 455.200968 159.50769 
L 455.454633 159.265884 
L 455.539188 159.459834 
L 455.708297 159.162084 
L 455.961962 159.567704 
L 456.215626 159.201223 
L 456.384736 159.745167 
L 456.553846 159.174668 
L 456.722955 159.294077 
L 456.80751 159.55334 
L 456.97662 159.259143 
L 457.061175 159.431557 
L 457.14573 159.379055 
L 457.230285 159.415336 
L 457.314839 159.656916 
L 457.399394 159.535862 
L 457.568504 159.120017 
L 457.737614 159.324865 
L 457.906723 159.474955 
L 458.160388 159.419685 
L 458.583162 159.248045 
L 458.836827 159.451707 
L 458.921382 159.480235 
L 459.090491 159.283776 
L 459.259601 159.549611 
L 459.428711 159.370372 
L 459.59782 159.128277 
L 459.76693 159.492441 
L 460.020595 159.401562 
L 460.189704 159.572382 
L 460.443369 159.226837 
L 460.527924 159.266128 
L 460.612479 159.514015 
L 460.697033 159.430242 
L 460.781588 159.278549 
L 460.866143 159.61868 
L 461.204362 159.198678 
L 461.288917 159.246972 
L 461.542582 159.541589 
L 461.711692 159.287393 
L 461.880801 159.393713 
L 462.134466 159.30889 
L 462.303576 159.68755 
L 462.472685 159.207858 
L 462.980014 159.529309 
L 463.149124 159.180641 
L 463.318234 159.468061 
L 463.487343 159.392303 
L 463.571898 159.56118 
L 463.741008 159.165598 
L 463.910118 159.534477 
L 464.248337 159.306677 
L 464.417447 159.529683 
L 464.671111 159.164983 
L 464.840221 159.582232 
L 464.924776 159.243613 
L 465.009331 159.361505 
L 465.17844 159.384054 
L 465.262995 159.626578 
L 465.432105 159.206595 
L 465.601215 159.497392 
L 465.770324 159.293739 
L 465.854879 159.459993 
L 466.023989 159.393468 
L 466.108544 159.4476 
L 466.193099 159.311457 
L 466.277653 159.382881 
L 466.446763 159.399221 
L 466.869537 159.323663 
L 466.954092 159.376471 
L 467.038647 159.577818 
L 467.207757 159.258943 
L 467.630531 159.484211 
L 467.799641 159.194527 
L 468.053305 159.519198 
L 468.391525 159.314371 
L 468.560634 159.424153 
L 468.983409 159.319623 
L 469.067964 159.403393 
L 469.152518 159.233439 
L 469.237073 159.284719 
L 469.321628 159.588173 
L 469.490738 159.238005 
L 469.659847 159.502746 
L 470.082622 159.32468 
L 470.167177 159.357461 
L 470.336286 159.295091 
L 470.505396 159.445443 
L 470.589951 159.690265 
L 470.843615 159.320796 
L 471.09728 159.231335 
L 471.26639 159.436744 
L 471.604609 159.417886 
L 471.858274 159.223406 
L 472.027383 159.406246 
L 472.196493 159.479998 
L 472.534712 159.37196 
L 472.619267 159.421637 
L 472.788377 159.119874 
L 473.042041 159.584936 
L 473.464816 159.242711 
L 473.71848 159.499077 
L 474.0567 159.262189 
L 474.141254 159.284753 
L 474.394919 159.562034 
L 474.648584 159.182888 
L 474.733138 159.303218 
L 475.409577 159.459069 
L 475.747797 159.355961 
L 476.170571 159.473671 
L 476.50879 159.305713 
L 476.6779 159.380879 
L 476.84701 159.398833 
L 476.931565 159.523578 
L 477.100674 159.268709 
L 477.185229 159.556069 
L 477.269784 159.471539 
L 477.523448 159.269021 
L 477.861668 159.515873 
L 478.115332 159.325945 
L 478.284442 159.369446 
L 478.368997 159.298053 
L 478.538107 159.448273 
L 478.707216 159.429602 
L 478.960881 159.424013 
L 479.129991 159.194171 
L 479.2991 159.338142 
L 479.46821 159.51145 
L 479.721875 159.379149 
L 479.890984 159.403988 
L 479.975539 159.426257 
L 480.144649 159.226991 
L 480.313758 159.409801 
L 480.398313 159.318452 
L 480.651978 159.501137 
L 480.821088 159.216467 
L 480.990197 159.419963 
L 481.159307 159.401815 
L 481.328417 159.449148 
L 481.497526 159.281668 
L 481.666636 159.375499 
L 482.42763 159.416058 
L 482.596739 159.288376 
L 482.765849 159.462605 
L 482.934959 159.256733 
L 483.104069 159.462655 
L 483.357733 159.319297 
L 483.526843 159.418882 
L 483.611398 159.357351 
L 483.780507 159.463768 
L 484.034172 159.2126 
L 484.203282 159.491564 
L 484.372391 159.353896 
L 484.626056 159.42902 
L 484.87972 159.301512 
L 485.133385 159.431466 
L 485.302495 159.341405 
L 485.387049 159.528702 
L 485.556159 159.249267 
L 485.809824 159.483887 
L 485.894379 159.46897 
L 486.063488 159.320021 
L 486.317153 159.404606 
L 486.655372 159.359421 
L 486.824482 159.409356 
L 486.993592 159.361126 
L 487.162701 159.496535 
L 487.500921 159.311635 
L 487.67003 159.349496 
L 487.83914 159.492324 
L 488.177359 159.256378 
L 488.346469 159.460794 
L 488.600134 159.362075 
L 488.684689 159.456294 
L 488.853798 159.269007 
L 489.192018 159.431914 
L 489.445682 159.356413 
L 490.122121 159.424797 
L 490.375786 159.330763 
L 490.62945 159.445914 
L 491.305889 159.337778 
L 491.559553 159.502913 
L 491.728663 159.377526 
L 491.982328 159.247895 
L 492.151437 159.449309 
L 492.405102 159.352116 
L 492.574212 159.354289 
L 492.743321 159.434008 
L 492.912431 159.355575 
L 493.25065 159.324733 
L 493.41976 159.370468 
L 494.011644 159.38386 
L 494.180754 159.457161 
L 494.434418 159.409537 
L 495.026302 159.394681 
L 495.195412 159.426461 
L 495.364522 159.37801 
L 495.618186 159.395502 
L 495.871851 159.349186 
L 496.040961 159.417982 
L 496.21007 159.386865 
L 497.393838 159.328974 
L 497.562948 159.276269 
L 497.732057 159.468969 
L 497.901167 159.409309 
L 498.154832 159.366254 
L 498.323941 159.34405 
L 498.577606 159.39048 
L 498.746716 159.356206 
L 499.3386 159.354529 
L 499.507709 159.270758 
L 499.761374 159.432365 
L 500.184148 159.289595 
L 500.522368 159.40001 
L 501.198806 159.268724 
L 501.452471 159.502577 
L 501.621581 159.336299 
L 501.79069 159.362093 
L 502.467129 159.387198 
L 502.805348 159.308655 
L 503.059013 159.473387 
L 503.312678 159.254082 
L 503.904562 159.414244 
L 504.158226 159.314781 
L 504.411891 159.415557 
L 506.018433 159.452023 
L 506.102988 159.476563 
L 506.356652 159.309762 
L 506.610317 159.447537 
L 506.948536 159.32456 
L 508.470523 159.476078 
L 508.639633 159.319151 
L 509.146962 159.353209 
L 509.316072 159.364904 
L 509.400627 159.451855 
L 509.569736 159.400831 
L 509.738846 159.384369 
L 509.992511 159.347103 
L 510.16162 159.418671 
L 511.007169 159.380502 
L 511.176279 159.328176 
L 511.345388 159.403775 
L 511.514498 159.378942 
L 512.444601 159.395285 
L 512.613711 159.323287 
L 513.45926 159.376126 
L 513.628369 159.326655 
L 513.882034 159.408342 
L 514.051143 159.349859 
L 514.304808 159.443883 
L 514.558473 159.321239 
L 514.727582 159.426966 
L 515.150356 159.368396 
L 519.716318 159.35422 
L 519.885428 159.404364 
L 520.139093 159.33993 
L 520.308202 159.45724 
L 520.646422 159.323233 
L 520.984641 159.467138 
L 521.153751 159.339134 
L 521.322861 159.421794 
L 521.576525 159.343448 
L 522.083854 159.381265 
L 522.252964 159.315662 
L 522.506628 159.399365 
L 522.760293 159.376607 
L 523.436732 159.372199 
L 524.197725 159.452683 
L 524.45139 159.286284 
L 525.043274 159.394841 
L 525.381493 159.38141 
L 525.635158 159.367214 
L 525.973377 159.415302 
L 526.227042 159.340897 
L 526.480706 159.383013 
L 526.649816 159.447344 
L 526.903481 159.332967 
L 527.157145 159.385293 
L 528.087248 159.347748 
L 528.256358 159.349664 
L 528.594578 159.392117 
L 528.848242 159.385995 
L 529.693791 159.405762 
L 529.8629 159.373 
L 530.370229 159.41413 
L 532.314991 159.385762 
L 532.568655 159.353645 
L 532.99143 159.392468 
L 534.513417 159.374158 
L 534.767082 159.36396 
L 534.936191 159.332567 
L 535.189856 159.418956 
L 538.656605 159.38108 
L 538.910269 159.374098 
L 540.432257 159.412639 
L 540.601366 159.402728 
L 540.939586 159.347225 
L 541.277805 159.387027 
L 541.700579 159.384566 
L 542.207908 159.39137 
L 542.461573 159.368417 
L 543.053457 159.390855 
L 543.222567 159.37416 
L 543.645341 159.363674 
L 544.659999 159.379451 
L 544.829109 159.358669 
L 545.082773 159.429285 
L 545.336438 159.356388 
L 545.928322 159.410639 
L 546.181986 159.371898 
L 546.351096 159.378979 
L 546.604761 159.403877 
L 546.94298 159.375911 
L 547.619419 159.392159 
L 547.873083 159.378218 
L 549.310516 159.401408 
L 549.73329 159.352197 
L 550.240619 159.382928 
L 550.663393 159.385616 
L 551.001613 159.378754 
L 551.508942 159.379825 
L 552.016271 159.40632 
L 552.69271 159.381835 
L 560.809975 159.399084 
L 561.06364 159.384705 
L 561.570969 159.379591 
L 562.670182 159.378763 
L 563.008401 159.411046 
L 563.431176 159.368471 
L 563.938505 159.394706 
L 564.276724 159.387387 
L 565.375937 159.369499 
L 565.883266 159.392247 
L 568.335357 159.378059 
L 568.589021 159.398125 
L 569.011796 159.376397 
L 569.857344 159.392139 
L 610.697336 159.364252 
L 610.951001 159.382443 
L 611.120111 159.384804 
L 611.542885 159.394195 
L 612.134769 159.407378 
L 612.303879 159.398485 
L 613.318537 159.378409 
L 614.07953 159.404764 
L 614.58686 159.378067 
L 628.031081 159.372245 
L 629.806732 159.377312 
L 630.905945 159.377213 
L 632.343378 159.381268 
L 633.94992 159.39186 
L 634.288139 159.372458 
L 634.795469 159.379892 
L 651.452774 159.356743 
L 651.621884 159.382476 
L 651.875548 159.359399 
L 652.044658 159.379567 
L 652.551987 159.373509 
L 653.989419 159.403747 
L 654.243084 159.37648 
L 710.556614 159.373761 
L 711.486717 159.37575 
L 712.078601 159.373513 
L 723.155286 159.376013 
L 723.324396 159.401554 
L 723.408951 159.32148 
L 723.578061 159.367524 
L 723.91628 159.395256 
L 724.169945 159.392578 
L 725.015493 159.402371 
L 725.691932 159.416264 
L 725.945596 159.397213 
L 731.357107 159.38752 
L 737.952385 159.384867 
L 738.967043 159.375449 
L 740.066256 159.399963 
L 740.48903 159.373573 
L 742.095573 159.381009 
L 744.209444 159.381677 
L 745.139547 159.372924 
L 746.323315 159.380574 
L 747.760748 159.445269 
L 747.845302 159.286675 
L 747.929857 159.412095 
L 748.098967 159.292217 
L 748.183522 159.476771 
L 748.268077 159.022506 
L 748.352631 160.401314 
L 748.521741 158.269817 
L 748.606296 159.824475 
L 748.690851 159.122494 
L 748.859961 159.621547 
L 748.944515 159.071202 
L 749.02907 159.790004 
L 749.113625 159.175834 
L 749.19818 159.317643 
L 749.451845 159.53058 
L 749.536399 159.313339 
L 749.620954 159.465578 
L 749.705509 159.243104 
L 749.790064 159.451371 
L 749.874619 159.226042 
L 749.959174 159.348957 
L 750.043728 159.709288 
L 750.128283 159.304301 
L 750.212838 159.332565 
L 750.381948 159.309755 
L 750.551058 159.468848 
L 750.720167 159.344213 
L 750.804722 159.345961 
L 750.973832 159.57908 
L 751.058387 158.981393 
L 751.227496 159.835554 
L 751.312051 158.412281 
L 751.481161 159.734189 
L 751.565716 158.660378 
L 751.650271 160.151128 
L 751.734825 159.207703 
L 751.81938 159.559198 
L 751.903935 158.84843 
L 751.98849 158.88896 
L 752.073045 161.10724 
L 752.1576 158.113349 
L 752.326709 159.917657 
L 752.411264 158.382514 
L 752.495819 160.076325 
L 752.580374 159.165147 
L 752.664929 159.507561 
L 752.749484 159.187532 
L 752.834039 159.865214 
L 753.003148 158.250184 
L 753.087703 160.212103 
L 753.172258 159.197179 
L 753.256813 159.438727 
L 753.341368 159.808987 
L 753.425922 159.121091 
L 753.510477 160.438881 
L 753.679587 158.148549 
L 753.764142 160.079095 
L 753.848697 159.711064 
L 753.933252 160.156577 
L 754.017806 159.013693 
L 754.102361 159.144993 
L 754.186916 159.415236 
L 754.271471 158.847705 
L 754.356026 159.651957 
L 754.440581 159.563837 
L 754.525136 160.114233 
L 754.694245 158.637087 
L 754.94791 160.172807 
L 755.117019 159.130208 
L 755.201574 159.36128 
L 755.286129 158.994407 
L 755.370684 159.76128 
L 755.455239 159.555412 
L 755.539794 159.618664 
L 755.624349 158.915103 
L 755.708903 159.189788 
L 755.793458 159.959002 
L 755.878013 158.936394 
L 755.962568 159.567829 
L 756.131678 158.888705 
L 756.216233 159.923489 
L 756.300787 159.776721 
L 756.469897 158.8788 
L 756.639007 159.599851 
L 756.723562 159.155001 
L 756.892671 159.494538 
L 757.061781 159.250512 
L 757.230891 159.670122 
L 757.315446 159.161369 
L 757.4 159.261328 
L 757.484555 159.405778 
L 757.56911 159.321409 
L 757.73822 159.459038 
L 757.907329 159.341656 
L 757.991884 159.497557 
L 758.076439 159.350531 
L 758.245549 159.424245 
L 758.499213 159.284946 
L 758.583768 159.368188 
L 758.668323 159.283333 
L 758.752878 159.53991 
L 758.837433 159.492304 
L 759.091097 159.256092 
L 759.175652 159.482792 
L 759.344762 159.336745 
L 759.429317 159.415866 
L 759.513872 159.271931 
L 759.682981 159.600698 
L 759.852091 159.298842 
L 759.936646 159.455439 
L 760.021201 159.296769 
L 760.105756 159.364817 
L 760.274865 159.3904 
L 760.35942 159.489691 
L 760.52853 159.354986 
L 760.613085 159.335192 
L 760.782194 159.365638 
L 760.866749 159.36685 
L 760.951304 159.486852 
L 761.035859 159.33329 
L 761.120414 159.400335 
L 761.204969 159.425256 
L 761.374078 159.357722 
L 761.881407 159.481897 
L 761.965962 159.340151 
L 762.050517 159.395287 
L 762.135072 159.418679 
L 762.219627 159.21623 
L 762.388737 159.469472 
L 762.473291 159.296699 
L 762.642401 159.376786 
L 764.756272 159.39636 
L 764.840827 159.458274 
L 765.009937 159.395218 
L 765.432711 159.347044 
L 765.601821 159.401519 
L 771.351551 159.383214 
L 771.52066 159.382854 
L 771.774325 159.382695 
L 771.85888 159.425719 
L 772.027989 159.386114 
L 772.112544 159.435464 
L 772.281654 159.357164 
L 772.619873 159.432809 
L 772.788983 159.322084 
L 772.873538 159.427714 
L 773.042648 159.395652 
L 773.549977 159.369296 
L 773.803641 159.391672 
L 774.395525 159.374938 
L 774.48008 159.419854 
L 774.64919 159.342681 
L 774.818299 159.424262 
L 774.987409 159.350458 
L 775.156519 159.383099 
L 775.325628 159.369567 
L 775.494738 159.420659 
L 775.663848 159.347582 
L 775.832958 159.394045 
L 776.171177 159.363544 
L 776.340287 159.41766 
L 776.424842 159.320647 
L 776.593951 159.363199 
L 777.185835 159.392379 
L 777.4395 159.389416 
L 790.376392 159.368803 
L 790.630056 159.377823 
L 791.306495 159.410376 
L 791.475605 159.389149 
L 791.56016 159.427403 
L 791.729269 159.367765 
L 791.982934 159.378331 
L 798.493657 159.361427 
L 798.662767 159.397642 
L 798.916432 159.366967 
L 799.508315 159.381898 
L 800.522974 159.368956 
L 800.861193 159.397016 
L 801.537632 159.380254 
L 801.875851 159.383577 
L 803.482393 159.366566 
L 803.820613 159.399999 
L 804.074277 159.390528 
L 805.088936 159.368957 
L 805.427155 159.370555 
L 806.610923 159.385765 
L 806.949142 159.35141 
L 807.118252 159.378895 
L 807.541026 159.380982 
L 807.879246 159.408216 
L 808.048355 159.394694 
L 810.415891 159.361987 
L 810.75411 159.403131 
L 811.007775 159.379286 
L 813.206201 159.382033 
L 830.962719 159.387608 
L 834.936797 159.380377 
L 835.444127 159.389203 
L 842.631289 159.379439 
L 843.392282 159.371052 
L 843.730502 159.376622 
L 845.167934 159.385188 
L 845.928928 159.377831 
L 846.774476 159.378702 
L 847.789135 159.395001 
L 847.958244 159.365866 
L 848.296464 159.379088 
L 850.072115 159.379891 
L 854.299858 159.381819 
L 854.299858 159.381819 
" clip-path="url(#pc50d8d7650)" style="fill: none; stroke: #000000; stroke-width: 1.5; stroke-linecap: square"/>
   </g>
   <g id="patch_3">
    <path d="M 55.345313 282.799219 
L 55.345313 10.999219 
" style="fill: none; stroke: #000000; stroke-width: 0.8; stroke-linejoin: miter; stroke-linecap: square"/>
   </g>
   <g id="patch_4">
    <path d="M 892.345312 282.799219 
L 892.345312 10.999219 
" style="fill: none; stroke: #000000; stroke-width: 0.8; stroke-linejoin: miter; stroke-linecap: square"/>
   </g>
   <g id="patch_5">
    <path d="M 55.345313 282.799219 
L 892.345312 282.799219 
" style="fill: none; stroke: #000000; stroke-width: 0.8; stroke-linejoin: miter; stroke-linecap: square"/>
   </g>
   <g id="patch_6">
    <path d="M 55.345313 10.999219 
L 892.345312 10.999219 
" style="fill: none; stroke: #000000; stroke-width: 0.8; stroke-linejoin: miter; stroke-linecap: square"/>
   </g>
  </g>
  <g id="axes_2">
   <g id="matplotlib.axis_3">
    <g id="ytick_6">
     <g id="line2d_12">
      <defs>
       <path id="mf1a19ba091" d="M 0 0 
L 3.5 0 
" style="stroke: #000000; stroke-width: 0.8"/>
      </defs>
      <g>
       <use xlink:href="#mf1a19ba091" x="892.345312" y="282.799219" style="stroke: #000000; stroke-width: 0.8"/>
      </g>
     </g>
     <g id="text_13">
      <!-- −1.00 -->
      <g transform="translate(899.345312 286.598437)scale(0.1 -0.1)">
       <defs>
        <path id="DejaVuSans-31" d="M 794 531 
L 1825 531 
L 1825 4091 
L 703 3866 
L 703 4441 
L 1819 4666 
L 2450 4666 
L 2450 531 
L 3481 531 
L 3481 0 
L 794 0 
L 794 531 
z
" transform="scale(0.015625)"/>
        <path id="DejaVuSans-2e" d="M 684 794 
L 1344 794 
L 1344 0 
L 684 0 
L 684 794 
z
" transform="scale(0.015625)"/>
       </defs>
       <use xlink:href="#DejaVuSans-2212"/>
       <use xlink:href="#DejaVuSans-31" x="83.789062"/>
       <use xlink:href="#DejaVuSans-2e" x="147.412109"/>
       <use xlink:href="#DejaVuSans-30" x="179.199219"/>
       <use xlink:href="#DejaVuSans-30" x="242.822266"/>
      </g>
     </g>
    </g>
    <g id="ytick_7">
     <g id="line2d_13">
      <g>
       <use xlink:href="#mf1a19ba091" x="892.345312" y="248.824219" style="stroke: #000000; stroke-width: 0.8"/>
      </g>
     </g>
     <g id="text_14">
      <!-- −0.75 -->
      <g transform="translate(899.345312 252.623437)scale(0.1 -0.1)">
       <defs>
        <path id="DejaVuSans-37" d="M 525 4666 
L 3525 4666 
L 3525 4397 
L 1831 0 
L 1172 0 
L 2766 4134 
L 525 4134 
L 525 4666 
z
" transform="scale(0.015625)"/>
        <path id="DejaVuSans-35" d="M 691 4666 
L 3169 4666 
L 3169 4134 
L 1269 4134 
L 1269 2991 
Q 1406 3038 1543 3061 
Q 1681 3084 1819 3084 
Q 2600 3084 3056 2656 
Q 3513 2228 3513 1497 
Q 3513 744 3044 326 
Q 2575 -91 1722 -91 
Q 1428 -91 1123 -41 
Q 819 9 494 109 
L 494 744 
Q 775 591 1075 516 
Q 1375 441 1709 441 
Q 2250 441 2565 725 
Q 2881 1009 2881 1497 
Q 2881 1984 2565 2268 
Q 2250 2553 1709 2553 
Q 1456 2553 1204 2497 
Q 953 2441 691 2322 
L 691 4666 
z
" transform="scale(0.015625)"/>
       </defs>
       <use xlink:href="#DejaVuSans-2212"/>
       <use xlink:href="#DejaVuSans-30" x="83.789062"/>
       <use xlink:href="#DejaVuSans-2e" x="147.412109"/>
       <use xlink:href="#DejaVuSans-37" x="179.199219"/>
       <use xlink:href="#DejaVuSans-35" x="242.822266"/>
      </g>
     </g>
    </g>
    <g id="ytick_8">
     <g id="line2d_14">
      <g>
       <use xlink:href="#mf1a19ba091" x="892.345312" y="214.849219" style="stroke: #000000; stroke-width: 0.8"/>
      </g>
     </g>
     <g id="text_15">
      <!-- −0.50 -->
      <g transform="translate(899.345312 218.648437)scale(0.1 -0.1)">
       <use xlink:href="#DejaVuSans-2212"/>
       <use xlink:href="#DejaVuSans-30" x="83.789062"/>
       <use xlink:href="#DejaVuSans-2e" x="147.412109"/>
       <use xlink:href="#DejaVuSans-35" x="179.199219"/>
       <use xlink:href="#DejaVuSans-30" x="242.822266"/>
      </g>
     </g>
    </g>
    <g id="ytick_9">
     <g id="line2d_15">
      <g>
       <use xlink:href="#mf1a19ba091" x="892.345312" y="180.874219" style="stroke: #000000; stroke-width: 0.8"/>
      </g>
     </g>
     <g id="text_16">
      <!-- −0.25 -->
      <g transform="translate(899.345312 184.673437)scale(0.1 -0.1)">
       <use xlink:href="#DejaVuSans-2212"/>
       <use xlink:href="#DejaVuSans-30" x="83.789062"/>
       <use xlink:href="#DejaVuSans-2e" x="147.412109"/>
       <use xlink:href="#DejaVuSans-32" x="179.199219"/>
       <use xlink:href="#DejaVuSans-35" x="242.822266"/>
      </g>
     </g>
    </g>
    <g id="ytick_10">
     <g id="line2d_16">
      <g>
       <use xlink:href="#mf1a19ba091" x="892.345312" y="146.899219" style="stroke: #000000; stroke-width: 0.8"/>
      </g>
     </g>
     <g id="text_17">
      <!-- 0.00 -->
      <g transform="translate(899.345312 150.698437)scale(0.1 -0.1)">
       <use xlink:href="#DejaVuSans-30"/>
       <use xlink:href="#DejaVuSans-2e" x="63.623047"/>
       <use xlink:href="#DejaVuSans-30" x="95.410156"/>
       <use xlink:href="#DejaVuSans-30" x="159.033203"/>
      </g>
     </g>
    </g>
    <g id="ytick_11">
     <g id="line2d_17">
      <g>
       <use xlink:href="#mf1a19ba091" x="892.345312" y="112.924219" style="stroke: #000000; stroke-width: 0.8"/>
      </g>
     </g>
     <g id="text_18">
      <!-- 0.25 -->
      <g transform="translate(899.345312 116.723437)scale(0.1 -0.1)">
       <use xlink:href="#DejaVuSans-30"/>
       <use xlink:href="#DejaVuSans-2e" x="63.623047"/>
       <use xlink:href="#DejaVuSans-32" x="95.410156"/>
       <use xlink:href="#DejaVuSans-35" x="159.033203"/>
      </g>
     </g>
    </g>
    <g id="ytick_12">
     <g id="line2d_18">
      <g>
       <use xlink:href="#mf1a19ba091" x="892.345312" y="78.949219" style="stroke: #000000; stroke-width: 0.8"/>
      </g>
     </g>
     <g id="text_19">
      <!-- 0.50 -->
      <g transform="translate(899.345312 82.748437)scale(0.1 -0.1)">
       <use xlink:href="#DejaVuSans-30"/>
       <use xlink:href="#DejaVuSans-2e" x="63.623047"/>
       <use xlink:href="#DejaVuSans-35" x="95.410156"/>
       <use xlink:href="#DejaVuSans-30" x="159.033203"/>
      </g>
     </g>
    </g>
    <g id="ytick_13">
     <g id="line2d_19">
      <g>
       <use xlink:href="#mf1a19ba091" x="892.345312" y="44.974219" style="stroke: #000000; stroke-width: 0.8"/>
      </g>
     </g>
     <g id="text_20">
      <!-- 0.75 -->
      <g transform="translate(899.345312 48.773438)scale(0.1 -0.1)">
       <use xlink:href="#DejaVuSans-30"/>
       <use xlink:href="#DejaVuSans-2e" x="63.623047"/>
       <use xlink:href="#DejaVuSans-37" x="95.410156"/>
       <use xlink:href="#DejaVuSans-35" x="159.033203"/>
      </g>
     </g>
    </g>
    <g id="ytick_14">
     <g id="line2d_20">
      <g>
       <use xlink:href="#mf1a19ba091" x="892.345312" y="10.999219" style="stroke: #000000; stroke-width: 0.8"/>
      </g>
     </g>
     <g id="text_21">
      <!-- 1.00 -->
      <g transform="translate(899.345312 14.798438)scale(0.1 -0.1)">
       <use xlink:href="#DejaVuSans-31"/>
       <use xlink:href="#DejaVuSans-2e" x="63.623047"/>
       <use xlink:href="#DejaVuSans-30" x="95.410156"/>
       <use xlink:href="#DejaVuSans-30" x="159.033203"/>
      </g>
     </g>
    </g>
    <g id="text_22">
     <!-- Waveform Feature -->
     <g transform="translate(941.589063 192.760937)rotate(-90)scale(0.1 -0.1)">
      <defs>
       <path id="DejaVuSans-57" d="M 213 4666 
L 850 4666 
L 1831 722 
L 2809 4666 
L 3519 4666 
L 4500 722 
L 5478 4666 
L 6119 4666 
L 4947 0 
L 4153 0 
L 3169 4050 
L 2175 0 
L 1381 0 
L 213 4666 
z
" transform="scale(0.015625)"/>
       <path id="DejaVuSans-76" d="M 191 3500 
L 800 3500 
L 1894 563 
L 2988 3500 
L 3597 3500 
L 2284 0 
L 1503 0 
L 191 3500 
z
" transform="scale(0.015625)"/>
       <path id="DejaVuSans-66" d="M 2375 4863 
L 2375 4384 
L 1825 4384 
Q 1516 4384 1395 4259 
Q 1275 4134 1275 3809 
L 1275 3500 
L 2222 3500 
L 2222 3053 
L 1275 3053 
L 1275 0 
L 697 0 
L 697 3053 
L 147 3053 
L 147 3500 
L 697 3500 
L 697 3744 
Q 697 4328 969 4595 
Q 1241 4863 1831 4863 
L 2375 4863 
z
" transform="scale(0.015625)"/>
       <path id="DejaVuSans-72" d="M 2631 2963 
Q 2534 3019 2420 3045 
Q 2306 3072 2169 3072 
Q 1681 3072 1420 2755 
Q 1159 2438 1159 1844 
L 1159 0 
L 581 0 
L 581 3500 
L 1159 3500 
L 1159 2956 
Q 1341 3275 1631 3429 
Q 1922 3584 2338 3584 
Q 2397 3584 2469 3576 
Q 2541 3569 2628 3553 
L 2631 2963 
z
" transform="scale(0.015625)"/>
       <path id="DejaVuSans-46" d="M 628 4666 
L 3309 4666 
L 3309 4134 
L 1259 4134 
L 1259 2759 
L 3109 2759 
L 3109 2228 
L 1259 2228 
L 1259 0 
L 628 0 
L 628 4666 
z
" transform="scale(0.015625)"/>
       <path id="DejaVuSans-75" d="M 544 1381 
L 544 3500 
L 1119 3500 
L 1119 1403 
Q 1119 906 1312 657 
Q 1506 409 1894 409 
Q 2359 409 2629 706 
Q 2900 1003 2900 1516 
L 2900 3500 
L 3475 3500 
L 3475 0 
L 2900 0 
L 2900 538 
Q 2691 219 2414 64 
Q 2138 -91 1772 -91 
Q 1169 -91 856 284 
Q 544 659 544 1381 
z
M 1991 3584 
L 1991 3584 
z
" transform="scale(0.015625)"/>
      </defs>
      <use xlink:href="#DejaVuSans-57"/>
      <use xlink:href="#DejaVuSans-61" x="92.501953"/>
      <use xlink:href="#DejaVuSans-76" x="153.78125"/>
      <use xlink:href="#DejaVuSans-65" x="212.960938"/>
      <use xlink:href="#DejaVuSans-66" x="274.484375"/>
      <use xlink:href="#DejaVuSans-6f" x="309.689453"/>
      <use xlink:href="#DejaVuSans-72" x="370.871094"/>
      <use xlink:href="#DejaVuSans-6d" x="410.234375"/>
      <use xlink:href="#DejaVuSans-20" x="507.646484"/>
      <use xlink:href="#DejaVuSans-46" x="539.433594"/>
      <use xlink:href="#DejaVuSans-65" x="591.453125"/>
      <use xlink:href="#DejaVuSans-61" x="652.976562"/>
      <use xlink:href="#DejaVuSans-74" x="714.255859"/>
      <use xlink:href="#DejaVuSans-75" x="753.464844"/>
      <use xlink:href="#DejaVuSans-72" x="816.84375"/>
      <use xlink:href="#DejaVuSans-65" x="855.707031"/>
     </g>
    </g>
   </g>
   <g id="line2d_21">
    <path d="M 93.390767 146.899205 
L 318.475776 146.822766 
L 318.644886 146.638792 
L 318.813996 145.289194 
L 318.898551 144.076037 
L 319.152215 130.932696 
L 319.57499 106.480502 
L 320.589648 30.65626 
L 320.843312 22.090394 
L 320.927867 21.781449 
L 321.096977 23.311437 
L 321.350641 32.368155 
L 322.3653 105.332568 
L 322.618964 126.561621 
L 323.041738 144.98994 
L 323.210848 146.689664 
L 323.464513 146.869474 
L 324.140951 146.898196 
L 415.544744 146.89905 
L 691.700882 146.898595 
L 745.477767 146.843212 
L 745.646876 146.514004 
L 745.900541 144.904381 
L 746.154205 141.469219 
L 746.323315 135.841868 
L 747.168864 66.873804 
L 747.591638 30.423135 
L 747.929857 17.227558 
L 748.014412 16.039426 
L 748.098967 16.071949 
L 748.183522 16.861912 
L 748.437186 25.590335 
L 748.944515 66.643878 
L 749.36729 105.42741 
L 750.128283 144.150757 
L 750.466503 146.588822 
L 751.227496 146.882997 
L 753.341368 146.894752 
L 756.639007 146.898232 
L 796.126121 146.898391 
L 844.322386 146.899166 
L 854.299858 146.899195 
L 854.299858 146.899195 
" clip-path="url(#pc50d8d7650)" style="fill: none; stroke: #1f77b4; stroke-width: 1.5; stroke-linecap: square"/>
   </g>
   <g id="line2d_22">
    <path d="M 93.390767 146.898986 
L 322.280745 146.889688 
L 322.534409 146.784168 
L 322.618964 146.679812 
L 322.788074 145.49265 
L 322.957184 142.287285 
L 323.041738 137.220925 
L 323.126293 137.9255 
L 323.379958 125.823352 
L 323.718177 101.643882 
L 324.310061 49.248197 
L 324.81739 19.810548 
L 324.9865 18.28713 
L 325.071055 18.482444 
L 325.15561 19.373571 
L 325.409274 28.153293 
L 325.662939 47.718607 
L 326.593042 132.204874 
L 326.846707 144.896088 
L 327.100371 146.513307 
L 327.354036 146.815375 
L 327.77681 146.876892 
L 348.239084 146.899166 
L 749.36729 146.840678 
L 749.536399 146.652797 
L 749.705509 145.805859 
L 749.790064 145.041933 
L 749.959174 137.676628 
L 750.551058 94.08302 
L 751.058387 39.717896 
L 751.142942 39.00798 
L 751.650271 21.691957 
L 751.734825 21.395569 
L 751.903935 22.855359 
L 752.242155 41.444833 
L 753.003148 110.865988 
L 753.679587 144.989699 
L 754.017806 146.134213 
L 754.440581 146.656149 
L 754.7788 146.754742 
L 757.315446 146.894936 
L 779.215152 146.899017 
L 854.299858 146.899206 
L 854.299858 146.899206 
" clip-path="url(#pc50d8d7650)" style="fill: none; stroke: #ff7f0e; stroke-width: 1.5; stroke-linecap: square"/>
   </g>
   <g id="patch_7">
    <path d="M 55.345313 282.799219 
L 55.345313 10.999219 
" style="fill: none; stroke: #000000; stroke-width: 0.8; stroke-linejoin: miter; stroke-linecap: square"/>
   </g>
   <g id="patch_8">
    <path d="M 892.345312 282.799219 
L 892.345312 10.999219 
" style="fill: none; stroke: #000000; stroke-width: 0.8; stroke-linejoin: miter; stroke-linecap: square"/>
   </g>
   <g id="patch_9">
    <path d="M 55.345313 282.799219 
L 892.345312 282.799219 
" style="fill: none; stroke: #000000; stroke-width: 0.8; stroke-linejoin: miter; stroke-linecap: square"/>
   </g>
   <g id="patch_10">
    <path d="M 55.345313 10.999219 
L 892.345312 10.999219 
" style="fill: none; stroke: #000000; stroke-width: 0.8; stroke-linejoin: miter; stroke-linecap: square"/>
   </g>
   <g id="legend_1">
    <g id="patch_11">
     <path d="M 755.08125 277.799219 
L 885.345312 277.799219 
Q 887.345312 277.799219 887.345312 275.799219 
L 887.345312 247.442969 
Q 887.345312 245.442969 885.345312 245.442969 
L 755.08125 245.442969 
Q 753.08125 245.442969 753.08125 247.442969 
L 753.08125 275.799219 
Q 753.08125 277.799219 755.08125 277.799219 
z
" style="fill: #ffffff; opacity: 0.8; stroke: #cccccc; stroke-linejoin: miter"/>
    </g>
    <g id="line2d_23">
     <path d="M 757.08125 253.541406 
L 767.08125 253.541406 
L 777.08125 253.541406 
" style="fill: none; stroke: #1f77b4; stroke-width: 1.5; stroke-linecap: square"/>
    </g>
    <g id="text_23">
     <!-- P-arrival probability -->
     <g transform="translate(785.08125 257.041406)scale(0.1 -0.1)">
      <defs>
       <path id="DejaVuSans-50" d="M 1259 4147 
L 1259 2394 
L 2053 2394 
Q 2494 2394 2734 2622 
Q 2975 2850 2975 3272 
Q 2975 3691 2734 3919 
Q 2494 4147 2053 4147 
L 1259 4147 
z
M 628 4666 
L 2053 4666 
Q 2838 4666 3239 4311 
Q 3641 3956 3641 3272 
Q 3641 2581 3239 2228 
Q 2838 1875 2053 1875 
L 1259 1875 
L 1259 0 
L 628 0 
L 628 4666 
z
" transform="scale(0.015625)"/>
       <path id="DejaVuSans-2d" d="M 313 2009 
L 1997 2009 
L 1997 1497 
L 313 1497 
L 313 2009 
z
" transform="scale(0.015625)"/>
       <path id="DejaVuSans-62" d="M 3116 1747 
Q 3116 2381 2855 2742 
Q 2594 3103 2138 3103 
Q 1681 3103 1420 2742 
Q 1159 2381 1159 1747 
Q 1159 1113 1420 752 
Q 1681 391 2138 391 
Q 2594 391 2855 752 
Q 3116 1113 3116 1747 
z
M 1159 2969 
Q 1341 3281 1617 3432 
Q 1894 3584 2278 3584 
Q 2916 3584 3314 3078 
Q 3713 2572 3713 1747 
Q 3713 922 3314 415 
Q 2916 -91 2278 -91 
Q 1894 -91 1617 61 
Q 1341 213 1159 525 
L 1159 0 
L 581 0 
L 581 4863 
L 1159 4863 
L 1159 2969 
z
" transform="scale(0.015625)"/>
      </defs>
      <use xlink:href="#DejaVuSans-50"/>
      <use xlink:href="#DejaVuSans-2d" x="58.052734"/>
      <use xlink:href="#DejaVuSans-61" x="94.136719"/>
      <use xlink:href="#DejaVuSans-72" x="155.416016"/>
      <use xlink:href="#DejaVuSans-72" x="194.779297"/>
      <use xlink:href="#DejaVuSans-69" x="235.892578"/>
      <use xlink:href="#DejaVuSans-76" x="263.675781"/>
      <use xlink:href="#DejaVuSans-61" x="322.855469"/>
      <use xlink:href="#DejaVuSans-6c" x="384.134766"/>
      <use xlink:href="#DejaVuSans-20" x="411.917969"/>
      <use xlink:href="#DejaVuSans-70" x="443.705078"/>
      <use xlink:href="#DejaVuSans-72" x="507.181641"/>
      <use xlink:href="#DejaVuSans-6f" x="546.044922"/>
      <use xlink:href="#DejaVuSans-62" x="607.226562"/>
      <use xlink:href="#DejaVuSans-61" x="670.703125"/>
      <use xlink:href="#DejaVuSans-62" x="731.982422"/>
      <use xlink:href="#DejaVuSans-69" x="795.458984"/>
      <use xlink:href="#DejaVuSans-6c" x="823.242188"/>
      <use xlink:href="#DejaVuSans-69" x="851.025391"/>
      <use xlink:href="#DejaVuSans-74" x="878.808594"/>
      <use xlink:href="#DejaVuSans-79" x="918.017578"/>
     </g>
    </g>
    <g id="line2d_24">
     <path d="M 757.08125 268.219531 
L 767.08125 268.219531 
L 777.08125 268.219531 
" style="fill: none; stroke: #ff7f0e; stroke-width: 1.5; stroke-linecap: square"/>
    </g>
    <g id="text_24">
     <!-- S-arrival probability -->
     <g transform="translate(785.08125 271.719531)scale(0.1 -0.1)">
      <defs>
       <path id="DejaVuSans-53" d="M 3425 4513 
L 3425 3897 
Q 3066 4069 2747 4153 
Q 2428 4238 2131 4238 
Q 1616 4238 1336 4038 
Q 1056 3838 1056 3469 
Q 1056 3159 1242 3001 
Q 1428 2844 1947 2747 
L 2328 2669 
Q 3034 2534 3370 2195 
Q 3706 1856 3706 1288 
Q 3706 609 3251 259 
Q 2797 -91 1919 -91 
Q 1588 -91 1214 -16 
Q 841 59 441 206 
L 441 856 
Q 825 641 1194 531 
Q 1563 422 1919 422 
Q 2459 422 2753 634 
Q 3047 847 3047 1241 
Q 3047 1584 2836 1778 
Q 2625 1972 2144 2069 
L 1759 2144 
Q 1053 2284 737 2584 
Q 422 2884 422 3419 
Q 422 4038 858 4394 
Q 1294 4750 2059 4750 
Q 2388 4750 2728 4690 
Q 3069 4631 3425 4513 
z
" transform="scale(0.015625)"/>
      </defs>
      <use xlink:href="#DejaVuSans-53"/>
      <use xlink:href="#DejaVuSans-2d" x="63.476562"/>
      <use xlink:href="#DejaVuSans-61" x="99.560547"/>
      <use xlink:href="#DejaVuSans-72" x="160.839844"/>
      <use xlink:href="#DejaVuSans-72" x="200.203125"/>
      <use xlink:href="#DejaVuSans-69" x="241.316406"/>
      <use xlink:href="#DejaVuSans-76" x="269.099609"/>
      <use xlink:href="#DejaVuSans-61" x="328.279297"/>
      <use xlink:href="#DejaVuSans-6c" x="389.558594"/>
      <use xlink:href="#DejaVuSans-20" x="417.341797"/>
      <use xlink:href="#DejaVuSans-70" x="449.128906"/>
      <use xlink:href="#DejaVuSans-72" x="512.605469"/>
      <use xlink:href="#DejaVuSans-6f" x="551.46875"/>
      <use xlink:href="#DejaVuSans-62" x="612.650391"/>
      <use xlink:href="#DejaVuSans-61" x="676.126953"/>
      <use xlink:href="#DejaVuSans-62" x="737.40625"/>
      <use xlink:href="#DejaVuSans-69" x="800.882812"/>
      <use xlink:href="#DejaVuSans-6c" x="828.666016"/>
      <use xlink:href="#DejaVuSans-69" x="856.449219"/>
      <use xlink:href="#DejaVuSans-74" x="884.232422"/>
      <use xlink:href="#DejaVuSans-79" x="923.441406"/>
     </g>
    </g>
   </g>
  </g>
 </g>
 <defs>
  <clipPath id="pc50d8d7650">
   <rect x="55.345313" y="10.999219" width="837" height="271.8"/>
  </clipPath>
 </defs>
</svg>
