<?xml version="1.0" encoding="utf-8" standalone="no"?>
<!DOCTYPE svg PUBLIC "-//W3C//DTD SVG 1.1//EN"
  "http://www.w3.org/Graphics/SVG/1.1/DTD/svg11.dtd">
<svg xmlns:xlink="http://www.w3.org/1999/xlink" width="947.684375pt" height="327.154687pt" viewBox="0 0 947.684375 327.154687" xmlns="http://www.w3.org/2000/svg" version="1.1">
 <metadata>
  <rdf:RDF xmlns:dc="http://purl.org/dc/elements/1.1/" xmlns:cc="http://creativecommons.org/ns#" xmlns:rdf="http://www.w3.org/1999/02/22-rdf-syntax-ns#">
   <cc:Work>
    <dc:type rdf:resource="http://purl.org/dc/dcmitype/StillImage"/>
    <dc:date>2023-05-26T14:12:19.824082</dc:date>
    <dc:format>image/svg+xml</dc:format>
    <dc:creator>
     <cc:Agent>
      <dc:title>Matplotlib v3.5.1, https://matplotlib.org/</dc:title>
     </cc:Agent>
    </dc:creator>
   </cc:Work>
  </rdf:RDF>
 </metadata>
 <defs>
  <style type="text/css">*{stroke-linejoin: round; stroke-linecap: butt}</style>
 </defs>
 <g id="figure_1">
  <g id="patch_1">
   <path d="M 0 327.154687 
L 947.684375 327.154687 
L 947.684375 0 
L 0 0 
L 0 327.154687 
z
" style="fill: none"/>
  </g>
  <g id="axes_1">
   <g id="patch_2">
    <path d="M 52.160938 289.598437 
L 889.160938 289.598437 
L 889.160938 17.798437 
L 52.160938 17.798437 
z
" style="fill: #ffffff"/>
   </g>
   <g id="matplotlib.axis_1">
    <g id="xtick_1">
     <g id="line2d_1">
      <defs>
       <path id="mcf3e265caf" d="M 0 0 
L 0 3.5 
" style="stroke: #000000; stroke-width: 0.8"/>
      </defs>
      <g>
       <use xlink:href="#mcf3e265caf" x="90.206392" y="289.598437" style="stroke: #000000; stroke-width: 0.8"/>
      </g>
     </g>
     <g id="text_1">
      <text style="font: 10px 'sans-serif'; text-anchor: middle" x="90.206392" y="304.196875" transform="rotate(-0, 90.206392, 304.196875)">0</text>
     </g>
    </g>
    <g id="xtick_2">
     <g id="line2d_2">
      <g>
       <use xlink:href="#mcf3e265caf" x="231.167691" y="289.598437" style="stroke: #000000; stroke-width: 0.8"/>
      </g>
     </g>
     <g id="text_2">
      <text style="font: 10px 'sans-serif'; text-anchor: middle" x="231.167691" y="304.196875" transform="rotate(-0, 231.167691, 304.196875)">500</text>
     </g>
    </g>
    <g id="xtick_3">
     <g id="line2d_3">
      <g>
       <use xlink:href="#mcf3e265caf" x="372.12899" y="289.598437" style="stroke: #000000; stroke-width: 0.8"/>
      </g>
     </g>
     <g id="text_3">
      <text style="font: 10px 'sans-serif'; text-anchor: middle" x="372.12899" y="304.196875" transform="rotate(-0, 372.12899, 304.196875)">1000</text>
     </g>
    </g>
    <g id="xtick_4">
     <g id="line2d_4">
      <g>
       <use xlink:href="#mcf3e265caf" x="513.090288" y="289.598437" style="stroke: #000000; stroke-width: 0.8"/>
      </g>
     </g>
     <g id="text_4">
      <text style="font: 10px 'sans-serif'; text-anchor: middle" x="513.090288" y="304.196875" transform="rotate(-0, 513.090288, 304.196875)">1500</text>
     </g>
    </g>
    <g id="xtick_5">
     <g id="line2d_5">
      <g>
       <use xlink:href="#mcf3e265caf" x="654.051587" y="289.598437" style="stroke: #000000; stroke-width: 0.8"/>
      </g>
     </g>
     <g id="text_5">
      <text style="font: 10px 'sans-serif'; text-anchor: middle" x="654.051587" y="304.196875" transform="rotate(-0, 654.051587, 304.196875)">2000</text>
     </g>
    </g>
    <g id="xtick_6">
     <g id="line2d_6">
      <g>
       <use xlink:href="#mcf3e265caf" x="795.012886" y="289.598437" style="stroke: #000000; stroke-width: 0.8"/>
      </g>
     </g>
     <g id="text_6">
      <text style="font: 10px 'sans-serif'; text-anchor: middle" x="795.012886" y="304.196875" transform="rotate(-0, 795.012886, 304.196875)">2500</text>
     </g>
    </g>
    <g id="text_7">
     <text style="font: 10px 'sans-serif'; text-anchor: middle" x="470.660938" y="317.875" transform="rotate(-0, 470.660938, 317.875)">Time (samples)</text>
    </g>
   </g>
   <g id="matplotlib.axis_2">
    <g id="ytick_1">
     <g id="line2d_7">
      <defs>
       <path id="m153e3f5599" d="M 0 0 
L -3.5 0 
" style="stroke: #000000; stroke-width: 0.8"/>
      </defs>
      <g>
       <use xlink:href="#m153e3f5599" x="52.160938" y="284.203966" style="stroke: #000000; stroke-width: 0.8"/>
      </g>
     </g>
     <g id="text_8">
      <text style="font: 10px 'sans-serif'; text-anchor: end" x="45.160938" y="288.003185" transform="rotate(-0, 45.160938, 288.003185)">−1.5</text>
     </g>
    </g>
    <g id="ytick_2">
     <g id="line2d_8">
      <g>
       <use xlink:href="#m153e3f5599" x="52.160938" y="238.318286" style="stroke: #000000; stroke-width: 0.8"/>
      </g>
     </g>
     <g id="text_9">
      <text style="font: 10px 'sans-serif'; text-anchor: end" x="45.160938" y="242.117504" transform="rotate(-0, 45.160938, 242.117504)">−1.0</text>
     </g>
    </g>
    <g id="ytick_3">
     <g id="line2d_9">
      <g>
       <use xlink:href="#m153e3f5599" x="52.160938" y="192.432605" style="stroke: #000000; stroke-width: 0.8"/>
      </g>
     </g>
     <g id="text_10">
      <text style="font: 10px 'sans-serif'; text-anchor: end" x="45.160938" y="196.231824" transform="rotate(-0, 45.160938, 196.231824)">−0.5</text>
     </g>
    </g>
    <g id="ytick_4">
     <g id="line2d_10">
      <g>
       <use xlink:href="#m153e3f5599" x="52.160938" y="146.546925" style="stroke: #000000; stroke-width: 0.8"/>
      </g>
     </g>
     <g id="text_11">
      <text style="font: 10px 'sans-serif'; text-anchor: end" x="45.160938" y="150.346144" transform="rotate(-0, 45.160938, 150.346144)">0.0</text>
     </g>
    </g>
    <g id="ytick_5">
     <g id="line2d_11">
      <g>
       <use xlink:href="#m153e3f5599" x="52.160938" y="100.661245" style="stroke: #000000; stroke-width: 0.8"/>
      </g>
     </g>
     <g id="text_12">
      <text style="font: 10px 'sans-serif'; text-anchor: end" x="45.160938" y="104.460464" transform="rotate(-0, 45.160938, 104.460464)">0.5</text>
     </g>
    </g>
    <g id="ytick_6">
     <g id="line2d_12">
      <g>
       <use xlink:href="#m153e3f5599" x="52.160938" y="54.775565" style="stroke: #000000; stroke-width: 0.8"/>
      </g>
     </g>
     <g id="text_13">
      <text style="font: 10px 'sans-serif'; text-anchor: end" x="45.160938" y="58.574783" transform="rotate(-0, 45.160938, 58.574783)">1.0</text>
     </g>
    </g>
    <g id="text_14">
     <text style="font: 10px 'sans-serif'; text-anchor: middle" x="14.798438" y="153.698437" transform="rotate(-90, 14.798438, 153.698437)">Velocity [m/s]</text>
    </g>
    <g id="text_15">
     <text style="font: 10px 'sans-serif'; text-anchor: start" x="52.160938" y="14.798437" transform="rotate(-0, 52.160938, 14.798437)">1e−6</text>
    </g>
   </g>
   <g id="line2d_13">
    <path d="M 90.206392 147.314097 
L 90.488315 148.068714 
L 90.770237 146.105705 
L 91.05216 145.563228 
L 91.334082 148.078098 
L 91.897928 145.554994 
L 92.17985 145.592123 
L 92.461773 144.965472 
L 92.743695 147.567674 
L 93.025618 147.983093 
L 93.307541 142.641094 
L 93.871386 151.325982 
L 94.153308 146.48969 
L 94.435231 147.877263 
L 94.717154 143.511317 
L 94.999076 143.835382 
L 95.280999 149.217126 
L 95.562921 144.539147 
L 95.844844 144.385458 
L 96.126767 147.842934 
L 96.408689 148.397148 
L 96.690612 148.062816 
L 96.972534 144.899292 
L 97.53638 150.261354 
L 97.818302 142.685752 
L 98.100225 144.429382 
L 98.382147 147.745794 
L 98.66407 142.151983 
L 98.945993 149.566231 
L 99.227915 148.99175 
L 99.509838 144.96582 
L 99.79176 150.677257 
L 100.073683 145.484878 
L 100.355606 144.884784 
L 100.637528 147.033735 
L 100.919451 145.264346 
L 101.201373 145.055347 
L 101.483296 146.295602 
L 101.765219 146.622201 
L 102.047141 148.081095 
L 102.329064 147.933368 
L 102.610986 144.049595 
L 102.892909 148.376887 
L 103.174832 147.23821 
L 103.456754 146.70157 
L 103.738677 147.969156 
L 104.020599 143.770058 
L 104.302522 145.817972 
L 104.584445 146.852074 
L 104.866367 146.046506 
L 105.14829 146.609444 
L 105.430212 146.2617 
L 105.712135 144.358886 
L 105.994058 148.958935 
L 106.27598 150.607316 
L 106.557903 146.742162 
L 106.839825 147.382902 
L 107.121748 144.923661 
L 107.40367 143.660564 
L 107.967516 144.731294 
L 108.531361 149.247717 
L 108.813283 148.889572 
L 109.095206 148.066394 
L 109.377129 145.338168 
L 109.659051 144.823562 
L 109.940974 148.53574 
L 110.222896 148.061267 
L 110.504819 142.144648 
L 110.786742 145.208107 
L 111.068664 150.85064 
L 111.350587 141.100384 
L 111.914432 152.709058 
L 112.196355 143.761658 
L 112.478277 148.442498 
L 112.7602 147.204462 
L 113.042122 142.025723 
L 113.324045 152.933554 
L 113.605968 148.383561 
L 113.88789 138.020815 
L 114.169813 142.257805 
L 114.451735 152.311346 
L 114.733658 151.646032 
L 115.015581 139.111442 
L 115.297503 155.408064 
L 115.579426 147.894682 
L 115.861348 132.366101 
L 116.143271 151.069728 
L 116.425194 150.709902 
L 116.707116 148.060946 
L 116.989039 143.842893 
L 117.270961 146.43198 
L 117.552884 151.155206 
L 117.834807 142.510666 
L 118.116729 143.228715 
L 118.398652 148.188618 
L 118.680574 146.680224 
L 118.962497 148.935691 
L 119.24442 145.115155 
L 119.526342 144.650456 
L 119.808265 152.830013 
L 120.090187 142.320766 
L 120.37211 147.594295 
L 120.654033 148.363675 
L 120.935955 142.433488 
L 121.217878 145.89829 
L 121.4998 144.702784 
L 121.781723 151.542221 
L 122.063646 146.433075 
L 122.345568 147.642741 
L 122.627491 146.524624 
L 122.909413 144.331826 
L 123.191336 145.567799 
L 123.473259 144.326429 
L 123.755181 152.735733 
L 124.037104 142.298522 
L 124.319026 147.079472 
L 124.600949 149.228103 
L 124.882872 141.710903 
L 125.164794 155.435899 
L 125.446717 140.354032 
L 125.728639 141.208445 
L 126.010562 157.295965 
L 126.292485 142.023106 
L 126.574407 143.597355 
L 126.85633 150.481347 
L 127.138252 144.599157 
L 127.702098 148.095979 
L 127.98402 144.706609 
L 128.265943 145.732824 
L 128.547865 151.194644 
L 129.111711 142.465275 
L 129.393633 147.378931 
L 129.675556 146.756885 
L 129.957478 147.981168 
L 130.239401 149.832164 
L 130.521324 144.645481 
L 130.803246 142.673566 
L 131.085169 148.904302 
L 131.649014 144.810319 
L 131.930936 145.883884 
L 132.212859 145.674161 
L 132.494782 150.381978 
L 132.776704 146.54383 
L 133.058627 146.875304 
L 133.340549 146.532695 
L 133.622472 144.52944 
L 133.904395 148.57848 
L 134.186317 147.747159 
L 134.46824 142.5676 
L 135.032085 150.356853 
L 135.314008 138.54883 
L 135.877853 157.143288 
L 136.159775 141.190351 
L 136.723621 147.618772 
L 137.005543 143.500992 
L 137.287466 150.001102 
L 137.569388 145.154386 
L 137.851311 144.617412 
L 138.133234 153.497266 
L 138.697079 139.435144 
L 138.979001 150.053982 
L 139.260924 143.37451 
L 139.542847 141.219089 
L 139.824769 156.5768 
L 140.106692 142.975166 
L 140.388614 146.195977 
L 140.670537 153.238114 
L 140.95246 143.247494 
L 141.234382 145.895576 
L 141.516305 145.713614 
L 141.798227 147.201844 
L 142.08015 144.815618 
L 142.643995 147.057462 
L 142.925918 143.007586 
L 143.20784 148.442571 
L 143.489763 149.564724 
L 143.771686 146.140805 
L 144.053608 147.301611 
L 144.335531 149.460362 
L 144.899376 142.337523 
L 145.181299 148.548479 
L 145.745144 142.875087 
L 146.027066 150.866366 
L 146.308989 144.616721 
L 146.590912 148.883159 
L 146.872834 150.523234 
L 147.154757 141.015597 
L 147.436679 148.056166 
L 147.718602 145.943079 
L 148.000525 144.965488 
L 148.282447 148.268929 
L 148.56437 146.143294 
L 148.846292 149.041283 
L 149.128215 145.042388 
L 149.410138 145.237579 
L 149.69206 148.803812 
L 149.973983 144.435189 
L 150.255905 146.439197 
L 150.537828 147.282417 
L 150.819751 145.755183 
L 151.101673 147.107713 
L 151.383596 145.866916 
L 151.665518 147.37555 
L 151.947441 147.674546 
L 152.229364 146.045046 
L 152.511286 147.203185 
L 152.793209 147.157514 
L 153.075131 143.615292 
L 153.357054 145.463055 
L 153.638977 148.979193 
L 153.920899 146.252 
L 154.202822 146.366091 
L 154.484744 147.2478 
L 154.766667 145.35193 
L 155.048589 147.781685 
L 155.330512 148.335084 
L 155.612435 144.160228 
L 155.894357 145.981214 
L 156.17628 145.838266 
L 156.458202 147.332153 
L 156.740125 147.697303 
L 157.022048 143.888501 
L 157.30397 149.743935 
L 157.867815 145.276612 
L 158.149738 146.702333 
L 158.431661 144.813224 
L 158.713583 145.964296 
L 158.995506 145.940476 
L 159.277428 148.476361 
L 159.559351 145.160656 
L 159.841274 146.094455 
L 160.123196 149.059415 
L 160.405119 147.093274 
L 160.687041 148.374022 
L 160.968964 145.560593 
L 161.250887 145.408025 
L 161.532809 143.765063 
L 161.814732 145.560187 
L 162.096654 146.200239 
L 162.378577 146.005672 
L 162.6605 150.511466 
L 162.942422 148.17298 
L 163.224345 147.946845 
L 163.506267 146.656726 
L 164.070113 142.434604 
L 164.352035 147.188314 
L 164.633958 149.454384 
L 164.91588 144.022852 
L 165.197803 146.312104 
L 165.479726 145.952562 
L 165.761648 149.486721 
L 166.043571 146.30065 
L 166.325493 144.861905 
L 166.607416 150.128601 
L 166.889339 143.708841 
L 167.171261 149.619005 
L 167.453184 147.099389 
L 167.735106 139.547353 
L 168.017029 150.106884 
L 168.580874 144.246177 
L 168.862797 148.807887 
L 169.144719 146.866739 
L 169.708565 147.163344 
L 169.990487 145.857295 
L 170.27241 146.514631 
L 170.554332 145.857151 
L 170.836255 143.937046 
L 171.118178 150.80045 
L 171.4001 147.358203 
L 171.682023 141.226608 
L 171.963945 150.261769 
L 172.245868 148.23916 
L 172.527791 141.835153 
L 172.809713 146.641913 
L 173.091636 148.271067 
L 173.373558 146.226435 
L 173.655481 149.321451 
L 173.937404 147.204561 
L 174.219326 144.016191 
L 174.501249 148.793055 
L 175.065094 142.428275 
L 175.347017 146.122868 
L 175.628939 146.519016 
L 175.910862 147.495511 
L 176.192784 149.690287 
L 176.474707 147.21465 
L 176.75663 145.757469 
L 177.038552 146.799912 
L 177.320475 144.376381 
L 177.602397 145.130023 
L 177.88432 148.623668 
L 178.166242 148.110265 
L 179.01201 144.694506 
L 180.139701 148.261476 
L 180.421623 145.187278 
L 180.703546 145.491399 
L 180.985468 145.511214 
L 181.267391 145.222869 
L 181.549314 149.369925 
L 181.831236 149.529314 
L 182.113159 146.504214 
L 182.677004 145.306674 
L 182.958927 143.992189 
L 183.240849 147.334163 
L 183.522772 148.529057 
L 184.36854 144.362906 
L 184.650462 147.065829 
L 184.932385 147.666965 
L 185.214307 147.806989 
L 185.49623 145.383093 
L 185.778153 147.28767 
L 186.060075 147.03632 
L 186.341998 144.677549 
L 186.62392 147.431404 
L 186.905843 145.483614 
L 187.187766 148.878669 
L 187.751611 145.47589 
L 188.033533 146.050922 
L 188.315456 144.702191 
L 188.597379 147.573565 
L 188.879301 146.140287 
L 189.161224 145.908818 
L 189.443146 145.36914 
L 189.725069 149.556108 
L 190.006992 149.320232 
L 190.288914 145.751367 
L 190.570837 147.215938 
L 190.852759 141.698857 
L 191.134682 144.453417 
L 191.416605 149.025859 
L 191.698527 146.555037 
L 191.98045 147.14068 
L 192.262372 148.692291 
L 192.544295 148.366179 
L 192.826218 145.794818 
L 193.10814 145.558538 
L 193.390063 143.290847 
L 193.671985 144.153875 
L 193.953908 149.601444 
L 194.235831 148.193795 
L 194.517753 147.703842 
L 194.799676 146.740661 
L 195.081598 145.100547 
L 195.363521 145.90313 
L 195.645444 146.040159 
L 195.927366 147.223884 
L 196.209289 146.061422 
L 196.491211 148.025796 
L 196.773134 147.371032 
L 197.055057 142.69632 
L 197.336979 145.000845 
L 197.618902 148.302161 
L 197.900824 149.432161 
L 198.182747 146.624488 
L 198.746592 150.20893 
L 199.028515 141.317247 
L 199.310437 142.776174 
L 199.59236 146.947184 
L 199.874283 143.729591 
L 200.156205 148.750688 
L 200.438128 147.701175 
L 200.72005 147.392078 
L 201.001973 154.45624 
L 201.283895 145.025169 
L 201.565818 140.985177 
L 201.847741 145.930096 
L 202.129663 143.06795 
L 202.693508 150.489473 
L 202.975431 146.794894 
L 203.257354 145.2947 
L 203.539276 147.800858 
L 204.103121 145.871456 
L 204.385044 147.94182 
L 204.666967 147.097518 
L 205.230812 143.750419 
L 205.512734 146.235335 
L 205.794657 150.384077 
L 206.07658 144.317086 
L 206.358502 144.607156 
L 206.640425 149.556189 
L 206.922347 146.521982 
L 207.20427 146.727981 
L 207.486193 145.282647 
L 207.768115 148.357546 
L 208.050038 145.8153 
L 208.33196 144.516163 
L 208.613883 149.863354 
L 208.895806 142.795042 
L 209.459651 149.119386 
L 209.741573 150.237468 
L 210.023496 146.964907 
L 210.305419 141.188732 
L 210.587341 148.537658 
L 210.869264 146.423332 
L 211.151186 143.264702 
L 211.433109 145.853971 
L 211.715032 150.213532 
L 212.278877 145.318248 
L 212.560799 149.856516 
L 212.842722 145.604499 
L 213.124645 144.492294 
L 213.68849 147.801612 
L 213.970412 145.31663 
L 214.534258 145.422148 
L 214.81618 148.25609 
L 215.098103 149.362079 
L 215.380025 143.956286 
L 215.661948 148.82294 
L 215.943871 148.085081 
L 216.225793 145.54114 
L 216.507716 145.135763 
L 216.789638 145.688071 
L 217.071561 146.864927 
L 217.353484 144.140515 
L 217.635406 144.399678 
L 218.199251 150.329138 
L 218.481174 148.399375 
L 218.763097 147.681702 
L 219.326942 144.84108 
L 219.608864 145.250251 
L 219.890787 144.813302 
L 220.17271 148.29993 
L 220.454632 146.927556 
L 220.736555 142.129789 
L 221.018477 148.76769 
L 221.3004 148.85164 
L 221.582323 148.211096 
L 222.146168 143.259676 
L 222.42809 149.295413 
L 222.710013 142.848728 
L 222.991936 150.678364 
L 223.555781 145.650031 
L 223.837703 148.365498 
L 224.119626 140.185169 
L 224.401549 148.131994 
L 224.683471 146.595875 
L 224.965394 145.970251 
L 225.247316 146.009825 
L 225.529239 147.416515 
L 225.811161 149.904678 
L 226.093084 149.90302 
L 226.656929 139.311364 
L 226.938852 148.464295 
L 227.502697 144.332996 
L 228.066542 150.602418 
L 228.348465 147.461894 
L 228.630387 146.505973 
L 228.91231 146.263547 
L 229.194233 141.700688 
L 229.476155 147.976599 
L 229.758078 146.321315 
L 230.321923 148.754306 
L 230.603846 145.00052 
L 230.885768 144.306478 
L 231.167691 148.196228 
L 231.449613 148.667999 
L 231.731536 143.646071 
L 232.013459 148.584 
L 232.295381 144.952476 
L 232.577304 143.771111 
L 232.859226 149.275323 
L 233.141149 149.137835 
L 233.423072 144.900025 
L 233.704994 149.061561 
L 233.986917 146.372688 
L 234.268839 142.192021 
L 234.550762 148.680757 
L 234.832685 141.431077 
L 235.114607 147.48424 
L 235.39653 149.589817 
L 235.678452 147.18531 
L 235.960375 150.923058 
L 236.52422 142.626233 
L 236.806143 146.218289 
L 237.088065 148.173693 
L 237.369988 141.812504 
L 237.651911 150.265808 
L 238.215756 143.893419 
L 238.497678 150.085874 
L 238.779601 142.567455 
L 239.061524 151.20968 
L 239.343446 146.070115 
L 239.625369 143.341657 
L 239.907291 150.574013 
L 240.189214 141.140843 
L 240.471137 148.23361 
L 241.034982 147.027202 
L 241.316904 146.946678 
L 241.598827 145.711764 
L 241.88075 148.565613 
L 242.162672 144.497262 
L 242.444595 146.511389 
L 242.726517 144.938242 
L 243.00844 149.870916 
L 243.572285 143.923156 
L 243.854208 146.467775 
L 244.13613 145.681564 
L 244.418053 146.333274 
L 244.699976 149.064618 
L 244.981898 145.596099 
L 245.263821 145.092172 
L 245.545743 152.3222 
L 245.827666 144.397747 
L 246.391511 147.736292 
L 246.673434 144.420844 
L 246.955356 144.107495 
L 247.237279 144.436172 
L 247.519202 147.31148 
L 247.801124 147.332434 
L 248.083047 150.335 
L 248.364969 148.730904 
L 248.646892 143.528832 
L 248.928814 148.82685 
L 249.49266 142.011581 
L 249.774582 149.241257 
L 250.056505 145.679997 
L 250.338427 148.894391 
L 250.62035 146.28098 
L 250.902273 149.46133 
L 251.184195 143.573625 
L 251.466118 142.017318 
L 251.74804 152.034449 
L 252.029963 142.695834 
L 252.311886 146.748886 
L 252.593808 149.150391 
L 252.875731 146.6642 
L 253.157653 146.214154 
L 253.439576 148.992252 
L 253.721499 144.6932 
L 254.285344 147.241285 
L 254.567266 142.95498 
L 254.849189 149.569665 
L 255.131112 141.587957 
L 255.694957 154.189893 
L 255.976879 145.006424 
L 256.258802 147.789759 
L 256.540725 142.89217 
L 256.822647 140.870844 
L 257.10457 143.270548 
L 257.386492 150.778815 
L 257.668415 151.991361 
L 257.950338 145.744002 
L 258.23226 149.422399 
L 258.514183 144.250199 
L 258.796105 144.716418 
L 259.078028 149.229562 
L 259.359951 146.468016 
L 259.641873 139.066832 
L 259.923796 149.839744 
L 260.205718 151.655828 
L 260.487641 138.414854 
L 260.769564 150.660758 
L 261.051486 147.557143 
L 261.615331 146.064672 
L 261.897254 147.694416 
L 262.179177 147.523567 
L 262.461099 141.770871 
L 262.743022 150.969072 
L 263.024944 145.482405 
L 263.306867 145.132646 
L 263.58879 146.177633 
L 263.870712 145.946597 
L 264.434557 148.09873 
L 264.71648 147.526825 
L 264.998403 146.609843 
L 265.280325 147.138139 
L 265.562248 144.516016 
L 265.84417 146.213659 
L 266.126093 144.453004 
L 266.408016 148.024599 
L 266.689938 147.385603 
L 266.971861 146.440834 
L 267.253783 146.312922 
L 267.817629 149.170128 
L 268.099551 143.878908 
L 268.381474 147.193323 
L 268.663396 145.126121 
L 268.945319 144.193763 
L 269.227242 145.965329 
L 269.509164 149.102136 
L 269.791087 148.455641 
L 270.073009 144.863084 
L 270.354932 152.001656 
L 270.636855 143.266111 
L 270.918777 142.81149 
L 271.2007 146.78019 
L 271.482622 143.41764 
L 271.764545 149.813809 
L 272.046467 148.791175 
L 272.32839 149.01114 
L 272.610313 145.165346 
L 272.892235 147.19273 
L 273.174158 141.786751 
L 273.738003 152.753195 
L 274.019926 133.461654 
L 274.301848 155.314849 
L 274.865693 137.00793 
L 275.147616 159.814001 
L 275.429539 144.001712 
L 275.711461 143.75871 
L 275.993384 149.704038 
L 276.275306 144.028778 
L 276.557229 147.621104 
L 277.121074 142.163586 
L 277.402997 150.160329 
L 277.684919 148.682849 
L 277.966842 144.268146 
L 278.248765 149.750516 
L 278.81261 144.628272 
L 279.094532 146.866118 
L 279.376455 146.543414 
L 279.658378 142.39062 
L 279.9403 146.889377 
L 280.222223 148.534181 
L 280.504145 144.889095 
L 280.786068 147.812629 
L 281.067991 147.13705 
L 281.349913 147.826803 
L 281.631836 146.955333 
L 281.913758 148.039969 
L 282.195681 147.236298 
L 282.477604 143.647175 
L 282.759526 145.274116 
L 283.041449 144.19415 
L 283.323371 146.37207 
L 283.887217 148.465345 
L 284.169139 148.744591 
L 284.451062 144.881423 
L 285.014907 148.84258 
L 285.29683 144.017167 
L 285.578752 145.119087 
L 285.860675 147.788557 
L 286.142597 143.750879 
L 286.706443 148.953922 
L 286.988365 144.432612 
L 287.270288 149.086187 
L 287.55221 149.954308 
L 287.834133 144.506423 
L 288.116056 145.594006 
L 288.397978 143.908428 
L 288.679901 146.384657 
L 288.961823 147.382217 
L 289.243746 146.350869 
L 289.525669 148.591946 
L 289.807591 145.66516 
L 290.371436 148.627402 
L 290.935282 143.666962 
L 291.217204 144.433481 
L 291.499127 147.861428 
L 291.781049 149.869998 
L 292.062972 146.526297 
L 292.344895 146.197531 
L 292.626817 147.126206 
L 292.90874 144.892698 
L 293.190662 146.116214 
L 293.472585 145.453672 
L 294.03643 148.812653 
L 294.318353 145.62233 
L 294.600275 147.298717 
L 294.882198 147.152145 
L 295.16412 144.272125 
L 296.009888 148.34213 
L 296.291811 145.653901 
L 296.573733 147.480553 
L 296.855656 147.613642 
L 297.137579 143.204252 
L 297.419501 147.647541 
L 297.701424 145.954634 
L 297.983346 146.189963 
L 298.265269 147.320373 
L 298.547192 147.32009 
L 298.829114 146.884733 
L 299.111037 143.863865 
L 299.392959 151.363974 
L 299.674882 147.818558 
L 299.956805 142.664757 
L 300.238727 143.204778 
L 300.802572 148.885643 
L 301.084495 148.269686 
L 301.366418 148.392542 
L 301.64834 143.650141 
L 301.930263 147.764281 
L 302.212185 146.339338 
L 302.494108 144.241169 
L 302.776031 148.601656 
L 303.057953 145.996775 
L 303.339876 144.616944 
L 303.621798 148.369114 
L 303.903721 146.304215 
L 304.185644 145.163151 
L 304.467566 150.087672 
L 304.749489 146.478156 
L 305.031411 146.341392 
L 305.313334 147.690487 
L 305.595257 142.669036 
L 306.159102 150.428063 
L 306.441024 143.408644 
L 307.00487 146.574031 
L 307.286792 145.565513 
L 307.568715 151.672469 
L 307.850637 147.020141 
L 308.13256 146.971789 
L 308.414483 147.137885 
L 308.696405 144.059987 
L 308.978328 143.834704 
L 309.26025 145.059196 
L 309.542173 148.218046 
L 309.824096 147.161257 
L 310.106018 150.319992 
L 310.387941 146.072746 
L 310.669863 145.232812 
L 310.951786 149.160085 
L 311.233709 142.765351 
L 311.515631 143.219418 
L 311.797554 147.560522 
L 312.079476 147.586847 
L 312.361399 148.438523 
L 312.643322 147.131072 
L 312.925244 146.36431 
L 313.207167 149.258739 
L 313.489089 145.403942 
L 314.052935 144.331118 
L 314.334857 141.863778 
L 314.61678 151.999528 
L 314.898702 150.174774 
L 315.180625 144.286008 
L 315.462548 148.761344 
L 315.74447 144.659017 
L 316.026393 144.473474 
L 316.308315 149.605184 
L 316.590238 144.715552 
L 316.872161 143.514899 
L 317.154083 147.583532 
L 317.436006 145.994192 
L 317.717928 149.139138 
L 317.999851 148.800273 
L 318.281773 145.161556 
L 318.563696 147.346398 
L 318.845619 146.00991 
L 319.127541 148.150382 
L 319.691386 142.211892 
L 319.973309 146.694504 
L 320.255232 146.095375 
L 320.537154 148.75596 
L 320.819077 147.95784 
L 321.100999 148.375695 
L 321.382922 147.902718 
L 321.664845 142.928676 
L 321.946767 147.105581 
L 322.22869 146.197688 
L 322.510612 146.833991 
L 322.792535 147.123816 
L 323.074458 143.033821 
L 323.35638 146.749347 
L 323.638303 147.106304 
L 323.920225 146.322021 
L 324.202148 149.692246 
L 324.484071 149.600043 
L 324.765993 143.934796 
L 325.047916 144.735189 
L 325.329838 148.608959 
L 325.611761 144.997588 
L 325.893684 145.742809 
L 326.175606 147.776473 
L 326.457529 143.848911 
L 326.739451 145.300909 
L 327.303297 148.771813 
L 327.585219 149.372303 
L 327.867142 145.327476 
L 328.149064 147.001796 
L 328.71291 144.10666 
L 328.994832 146.893828 
L 329.276755 146.144714 
L 329.558677 146.625574 
L 329.8406 150.735542 
L 330.404445 142.587031 
L 330.686368 147.259505 
L 330.96829 144.150301 
L 331.532136 149.262019 
L 331.814058 144.790049 
L 332.095981 149.379193 
L 332.659826 143.267013 
L 333.223671 151.037251 
L 333.787516 139.930603 
L 334.069439 152.219036 
L 334.351362 148.157427 
L 334.633284 141.864098 
L 334.915207 149.515476 
L 335.197129 145.313063 
L 335.479052 145.650489 
L 335.760975 145.65306 
L 336.042897 145.430999 
L 336.32482 150.782707 
L 336.606742 147.384161 
L 336.888665 147.995648 
L 337.170588 144.358571 
L 337.45251 142.79274 
L 337.734433 147.185972 
L 338.016355 145.441058 
L 338.298278 149.652307 
L 338.580201 146.895695 
L 338.862123 146.952428 
L 339.144046 145.939698 
L 339.425968 146.130597 
L 339.707891 148.310952 
L 339.989814 145.724854 
L 340.271736 145.887823 
L 340.553659 144.050275 
L 340.835581 148.117859 
L 341.117504 144.111459 
L 341.399427 151.892323 
L 341.681349 145.487227 
L 341.963272 142.084422 
L 342.245194 151.735113 
L 342.527117 147.194863 
L 342.809039 146.511269 
L 343.090962 142.343192 
L 343.372885 148.77512 
L 343.654807 141.481 
L 343.93673 149.335582 
L 344.218652 148.948707 
L 344.500575 144.221867 
L 344.782498 150.779095 
L 345.06442 144.519236 
L 345.346343 148.360626 
L 345.628265 144.594504 
L 345.910188 147.932846 
L 346.192111 143.104723 
L 346.474033 146.236495 
L 346.755956 146.38546 
L 347.037878 148.502124 
L 347.319801 148.820042 
L 347.601724 143.297199 
L 347.883646 149.135589 
L 348.165569 144.214918 
L 348.447491 149.47417 
L 348.729414 144.66421 
L 349.011337 146.56913 
L 349.293259 145.693012 
L 349.575182 144.415918 
L 349.857104 145.843635 
L 350.139027 150.39534 
L 350.42095 147.879478 
L 350.702872 144.106653 
L 350.984795 153.665302 
L 351.266717 141.304218 
L 351.54864 146.57524 
L 351.830563 142.762776 
L 352.112485 148.122325 
L 352.394408 145.668329 
L 352.67633 144.578419 
L 352.958253 153.368932 
L 353.240176 141.461564 
L 353.522098 151.744826 
L 353.804021 145.642232 
L 354.085943 143.88847 
L 354.367866 145.029191 
L 354.649789 148.735368 
L 354.931711 146.198288 
L 355.213634 146.714608 
L 355.495556 148.475736 
L 355.777479 143.888389 
L 356.059402 148.274059 
L 356.341324 142.269843 
L 356.623247 150.209758 
L 356.905169 146.711871 
L 357.187092 148.626426 
L 357.750937 144.395915 
L 358.03286 144.287118 
L 358.314782 144.622206 
L 358.596705 150.672214 
L 358.878628 146.345642 
L 359.16055 149.389013 
L 359.442473 143.71319 
L 359.724395 149.980121 
L 360.006318 144.118839 
L 360.288241 142.643388 
L 360.570163 149.606482 
L 360.852086 148.676485 
L 361.134008 144.97196 
L 361.415931 143.610364 
L 361.697854 148.742396 
L 361.979776 144.274999 
L 362.261699 150.424696 
L 362.543621 147.069517 
L 362.825544 145.869385 
L 363.107467 148.263941 
L 363.389389 143.394572 
L 363.671312 144.392623 
L 363.953234 147.62976 
L 364.235157 146.105975 
L 364.51708 149.229907 
L 364.799002 148.698897 
L 365.080925 141.590981 
L 365.362847 147.265787 
L 365.64477 146.309296 
L 365.926692 150.391487 
L 366.490538 142.510809 
L 366.77246 153.75299 
L 367.054383 139.569602 
L 367.618228 151.714036 
L 367.900151 141.715735 
L 368.182073 147.986915 
L 368.463996 144.101511 
L 368.745918 149.457878 
L 369.027841 143.76339 
L 369.591686 150.003243 
L 369.873609 142.635415 
L 370.155531 153.683322 
L 370.437454 144.859274 
L 370.719377 140.60995 
L 371.001299 149.362475 
L 371.283222 144.533504 
L 371.565144 144.434829 
L 371.847067 148.50324 
L 372.12899 148.108484 
L 372.410912 149.121631 
L 372.692835 145.626701 
L 372.974757 147.56622 
L 373.25668 143.541977 
L 373.538603 145.042154 
L 373.820525 148.076547 
L 374.102448 144.056471 
L 374.38437 148.965306 
L 374.666293 145.434369 
L 374.948216 151.335183 
L 375.230138 141.834983 
L 375.793983 151.92999 
L 376.075906 141.108031 
L 376.357829 156.389886 
L 376.639751 137.683762 
L 376.921674 161.341737 
L 377.203596 114.948727 
L 377.485519 109.994626 
L 377.767442 215.399773 
L 378.049364 153.859815 
L 378.331287 136.888116 
L 378.613209 139.484385 
L 378.895132 135.353856 
L 379.177055 157.08922 
L 379.458977 119.201772 
L 379.7409 164.511156 
L 380.022822 169.206551 
L 380.304745 116.52735 
L 380.86859 172.388089 
L 381.150513 140.832605 
L 381.432435 154.359826 
L 381.714358 149.578604 
L 381.996281 120.086567 
L 382.278203 144.436808 
L 382.560126 147.955448 
L 382.842048 164.831975 
L 383.123971 142.63506 
L 383.405894 147.203303 
L 383.687816 157.073425 
L 383.969739 129.35197 
L 384.251661 146.569448 
L 384.533584 148.355681 
L 384.815507 146.501971 
L 385.379352 150.306816 
L 385.661274 140.956796 
L 385.943197 152.882348 
L 386.22512 153.817967 
L 386.507042 126.756227 
L 386.788965 147.195529 
L 387.070887 155.252008 
L 387.35281 135.555722 
L 387.634733 151.389074 
L 387.916655 173.729519 
L 388.198578 131.436631 
L 388.4805 129.53026 
L 388.762423 163.633709 
L 389.044345 135.768882 
L 389.326268 141.161984 
L 389.608191 161.488871 
L 389.890113 146.751728 
L 390.172036 141.554323 
L 390.453958 133.150479 
L 391.017804 158.310462 
L 391.299726 156.994739 
L 391.581649 144.275366 
L 391.863571 125.838585 
L 392.145494 168.894502 
L 392.427417 136.11471 
L 392.709339 135.798798 
L 392.991262 168.49279 
L 393.273184 180.929389 
L 393.555107 86.264963 
L 393.83703 67.678789 
L 394.118952 204.385704 
L 394.400875 152.744763 
L 394.682797 277.243892 
L 395.246643 30.152983 
L 395.528565 135.239909 
L 395.810488 106.761793 
L 396.09241 230.616772 
L 396.374333 87.572269 
L 396.656256 101.449896 
L 396.938178 228.131736 
L 397.220101 222.071838 
L 397.783946 53.955944 
L 398.065869 152.879621 
L 398.347791 140.607459 
L 398.629714 209.894687 
L 399.193559 49.911275 
L 399.475482 174.823765 
L 399.757404 183.250462 
L 400.039327 159.96756 
L 400.321249 126.0246 
L 400.603172 131.319013 
L 400.885095 199.804451 
L 401.44894 122.856604 
L 401.730862 121.554552 
L 402.012785 110.632407 
L 402.294708 157.309885 
L 402.57663 162.281457 
L 402.858553 165.084896 
L 403.140475 145.713848 
L 403.422398 145.431932 
L 403.704321 140.285966 
L 403.986243 129.244339 
L 404.268166 189.12342 
L 404.550088 134.213474 
L 404.832011 126.639633 
L 405.113934 162.601108 
L 405.395856 122.606899 
L 405.677779 150.853803 
L 405.959701 161.117956 
L 406.241624 144.672792 
L 406.523547 157.980421 
L 406.805469 126.145797 
L 407.087392 140.20151 
L 407.369314 169.471979 
L 407.93316 129.90891 
L 408.215082 129.742113 
L 408.497005 180.894652 
L 409.06085 119.724507 
L 409.342773 147.324822 
L 409.624695 152.819643 
L 409.906618 174.60266 
L 410.470463 128.390469 
L 410.752386 132.054939 
L 411.316231 153.275761 
L 411.598153 153.37344 
L 411.880076 149.996743 
L 412.161998 153.135171 
L 412.725844 136.665272 
L 413.007766 147.577627 
L 413.289689 138.606624 
L 413.571611 145.603694 
L 413.853534 163.362566 
L 414.135457 137.127219 
L 414.417379 137.286801 
L 414.699302 171.399867 
L 414.981224 150.407334 
L 415.54507 129.671424 
L 415.826992 133.821185 
L 416.108915 158.892618 
L 416.390837 150.539833 
L 416.67276 156.178699 
L 416.954683 145.645299 
L 417.518528 142.149218 
L 417.80045 144.591851 
L 418.082373 157.024554 
L 418.364296 146.803583 
L 418.646218 143.926133 
L 418.928141 143.052972 
L 419.210063 150.735359 
L 419.491986 136.242719 
L 419.773909 141.267667 
L 420.055831 153.438822 
L 420.337754 144.786698 
L 420.619676 151.090183 
L 420.901599 153.242528 
L 421.183522 151.429492 
L 421.465444 144.323128 
L 421.747367 143.917488 
L 422.029289 133.307688 
L 422.311212 149.740299 
L 422.593135 150.05087 
L 422.875057 145.949993 
L 423.15698 155.106678 
L 423.438902 136.705309 
L 423.720825 145.840809 
L 424.002748 144.227204 
L 424.28467 153.174992 
L 424.566593 148.359841 
L 424.848515 149.4454 
L 425.130438 149.859298 
L 425.412361 137.077534 
L 425.694283 146.92819 
L 425.976206 138.60289 
L 426.258128 153.340458 
L 426.540051 151.767667 
L 426.821974 144.280286 
L 427.103896 144.98458 
L 427.385819 144.707586 
L 427.667741 151.887444 
L 427.949664 141.046494 
L 428.513509 150.205421 
L 428.795432 147.232623 
L 429.077354 147.513112 
L 429.359277 144.755371 
L 429.6412 153.429916 
L 429.923122 141.674532 
L 430.205045 140.050187 
L 430.486967 147.181629 
L 430.76889 143.176921 
L 431.050813 152.232069 
L 431.332735 141.214055 
L 431.614658 157.665892 
L 431.89658 155.449024 
L 432.178503 138.81332 
L 432.460426 140.879943 
L 432.742348 137.183088 
L 433.024271 153.064607 
L 433.306193 147.484244 
L 433.588116 150.69765 
L 433.870039 144.14309 
L 434.151961 140.778231 
L 434.433884 157.282724 
L 434.997729 140.331554 
L 435.279652 141.267197 
L 435.561574 154.160819 
L 435.843497 148.051312 
L 436.125419 135.402905 
L 436.407342 148.667698 
L 436.689264 152.005004 
L 436.971187 151.523965 
L 437.535032 141.021013 
L 437.816955 145.671126 
L 438.098877 143.810707 
L 438.3808 145.75397 
L 438.662723 140.610725 
L 439.226568 162.48624 
L 439.50849 148.291102 
L 439.790413 150.288506 
L 440.072336 143.682689 
L 440.354258 121.658247 
L 440.918103 157.66112 
L 441.200026 147.498201 
L 441.481949 156.156686 
L 441.763871 136.303749 
L 442.045794 145.49582 
L 442.327716 162.53772 
L 442.609639 140.234735 
L 442.891562 150.250605 
L 443.173484 151.548019 
L 443.455407 139.642415 
L 443.737329 136.409055 
L 444.019252 129.263392 
L 444.301175 142.260442 
L 444.583097 175.846273 
L 444.86502 164.31526 
L 445.146942 135.351725 
L 445.428865 142.031308 
L 445.710788 142.648105 
L 445.99271 139.546339 
L 446.274633 146.145042 
L 446.556555 149.346805 
L 446.838478 148.720999 
L 447.120401 158.012023 
L 447.402323 128.280854 
L 447.684246 128.419724 
L 447.966168 182.907126 
L 448.530014 141.422478 
L 448.811936 131.545474 
L 449.093859 126.963692 
L 449.375781 153.711114 
L 449.657704 142.468759 
L 449.939627 162.697902 
L 450.221549 152.661978 
L 450.503472 137.586443 
L 450.785394 154.244097 
L 451.067317 145.243666 
L 451.34924 145.388838 
L 451.913085 138.764143 
L 452.195007 148.748483 
L 452.47693 149.551931 
L 452.758853 135.772004 
L 453.040775 165.720295 
L 453.322698 156.360388 
L 453.60462 142.756584 
L 453.886543 138.39778 
L 454.168466 136.214275 
L 454.450388 156.343266 
L 454.732311 130.943784 
L 455.014233 159.25301 
L 455.296156 135.811909 
L 455.578079 155.280049 
L 455.860001 159.021134 
L 456.141924 128.282038 
L 456.423846 163.288385 
L 456.705769 143.757216 
L 456.987692 159.168074 
L 457.269614 120.966685 
L 457.551537 143.93266 
L 457.833459 142.548997 
L 458.115382 146.557456 
L 458.397305 174.823872 
L 458.679227 131.457845 
L 458.96115 164.98748 
L 459.243072 129.42546 
L 459.524995 143.588898 
L 459.806917 138.78457 
L 460.08884 146.223961 
L 460.370763 157.355605 
L 460.652685 139.991527 
L 460.934608 168.062142 
L 461.21653 125.508381 
L 461.498453 160.510322 
L 461.780376 139.618379 
L 462.062298 143.597977 
L 462.344221 156.011733 
L 462.626143 126.199228 
L 462.908066 153.112933 
L 463.189989 140.026748 
L 463.471911 165.507469 
L 463.753834 143.156228 
L 464.035756 148.256834 
L 464.317679 150.592613 
L 464.599602 134.296646 
L 464.881524 152.385536 
L 465.163447 129.673058 
L 465.445369 159.129427 
L 466.009215 142.943767 
L 466.291137 150.922356 
L 466.57306 141.153159 
L 466.854982 154.148666 
L 467.136905 141.282275 
L 467.70075 143.532906 
L 467.982673 150.360643 
L 468.546518 143.467308 
L 468.828441 158.160945 
L 469.110363 149.121434 
L 469.392286 146.644489 
L 469.674208 137.587838 
L 469.956131 140.388661 
L 470.238054 147.129248 
L 470.519976 148.050084 
L 470.801899 153.472518 
L 471.083821 136.842756 
L 471.365744 143.929781 
L 471.647667 154.809481 
L 471.929589 154.57212 
L 472.211512 152.463372 
L 472.493434 137.768821 
L 472.775357 144.93301 
L 473.05728 143.724549 
L 473.339202 139.629197 
L 473.621125 147.339579 
L 473.903047 147.52532 
L 474.18497 152.646389 
L 474.466893 146.65944 
L 474.748815 150.555319 
L 475.31266 140.292342 
L 475.594583 149.24436 
L 475.876506 146.201424 
L 476.158428 152.252039 
L 476.440351 144.100364 
L 476.722273 144.853244 
L 477.004196 140.579082 
L 477.286119 145.751342 
L 477.568041 153.005619 
L 478.131886 148.176229 
L 478.413809 136.554461 
L 478.695732 152.393326 
L 478.977654 140.406853 
L 479.259577 150.390443 
L 479.541499 153.813312 
L 479.823422 136.973899 
L 480.105345 148.491878 
L 480.387267 144.818114 
L 480.66919 153.07083 
L 480.951112 145.073994 
L 481.233035 146.786673 
L 481.79688 139.522642 
L 482.078803 148.698668 
L 482.360725 150.453396 
L 482.642648 153.462915 
L 482.92457 139.886233 
L 483.206493 153.073025 
L 483.488416 152.058347 
L 483.770338 134.11495 
L 484.052261 145.520713 
L 484.334183 147.867506 
L 484.616106 142.750677 
L 484.898029 151.20962 
L 485.179951 143.369361 
L 485.461874 145.390834 
L 485.743796 150.835343 
L 486.025719 152.349466 
L 486.307642 151.218049 
L 486.589564 142.974571 
L 486.871487 139.533303 
L 487.153409 141.669183 
L 487.435332 147.311044 
L 487.717255 132.992233 
L 487.999177 180.847877 
L 488.2811 140.760111 
L 488.563022 117.540432 
L 488.844945 178.214716 
L 489.126868 133.599923 
L 489.40879 148.116062 
L 489.690713 152.429936 
L 489.972635 134.115358 
L 490.818403 159.11912 
L 491.100326 140.875748 
L 491.382248 139.697305 
L 491.946094 154.731293 
L 492.228016 145.295408 
L 492.509939 145.593232 
L 492.791861 147.708644 
L 493.073784 142.837705 
L 493.355707 151.502819 
L 493.637629 140.050862 
L 493.919552 136.106083 
L 494.201474 155.179152 
L 494.483397 154.89581 
L 495.329165 140.716582 
L 495.611087 146.230455 
L 495.89301 144.098702 
L 496.174933 150.871403 
L 496.456855 148.83718 
L 496.738778 141.907787 
L 497.0207 143.824619 
L 497.302623 149.410412 
L 497.584546 148.563343 
L 497.866468 146.431694 
L 498.148391 150.740254 
L 498.430313 150.394898 
L 498.712236 144.654032 
L 498.994159 134.23962 
L 499.276081 141.299522 
L 499.558004 154.016518 
L 499.839926 152.625969 
L 500.121849 144.496215 
L 500.403772 143.953346 
L 500.685694 150.663823 
L 500.967617 148.320318 
L 501.249539 147.074632 
L 501.531462 143.03949 
L 501.813385 145.651284 
L 502.095307 150.989582 
L 502.37723 142.202762 
L 502.659152 138.220087 
L 503.222998 154.806273 
L 503.50492 150.633683 
L 504.068765 145.895918 
L 504.350688 141.954501 
L 504.632611 146.22016 
L 504.914533 143.490282 
L 505.196456 145.048168 
L 505.478378 151.94333 
L 505.760301 148.793686 
L 506.042223 144.138126 
L 506.324146 142.839657 
L 506.606069 149.319334 
L 506.887991 150.101953 
L 507.169914 145.283867 
L 507.451836 143.560334 
L 507.733759 145.191941 
L 508.015682 148.072988 
L 508.297604 145.8841 
L 508.579527 150.106324 
L 508.861449 149.763826 
L 509.143372 142.286361 
L 509.425295 140.107093 
L 509.707217 148.47986 
L 509.98914 148.640126 
L 510.552985 151.538552 
L 510.834908 139.953547 
L 511.398753 146.622864 
L 511.680675 151.490329 
L 511.962598 143.094622 
L 512.244521 144.815878 
L 512.526443 152.210786 
L 512.808366 141.47247 
L 513.090288 147.664971 
L 513.372211 146.137579 
L 513.654134 148.886783 
L 513.936056 149.485881 
L 514.217979 144.399861 
L 514.499901 145.488333 
L 514.781824 143.530293 
L 515.063747 144.483301 
L 515.627592 156.923145 
L 515.909514 137.93608 
L 516.191437 138.592402 
L 516.47336 147.891732 
L 516.755282 151.176112 
L 517.037205 146.042634 
L 517.319127 143.539863 
L 517.60105 155.724224 
L 517.882973 136.510889 
L 518.164895 149.39242 
L 518.446818 153.979592 
L 518.72874 145.704267 
L 519.010663 143.498237 
L 519.292586 137.54988 
L 519.574508 155.656823 
L 519.856431 138.763849 
L 520.138353 151.931444 
L 520.420276 153.395455 
L 520.702199 134.590036 
L 520.984121 153.698989 
L 521.547966 141.981635 
L 522.111812 148.299545 
L 522.675657 146.442187 
L 522.957579 147.67138 
L 523.239502 147.612252 
L 523.521425 148.148615 
L 523.803347 143.484304 
L 524.08527 147.172011 
L 524.367192 143.291664 
L 524.649115 141.608484 
L 524.931038 150.216696 
L 525.21296 149.609336 
L 525.494883 152.992285 
L 525.776805 145.409328 
L 526.058728 143.009248 
L 526.340651 149.559793 
L 526.622573 140.845369 
L 526.904496 141.969197 
L 527.468341 149.513054 
L 527.750264 151.697933 
L 528.032186 149.950683 
L 528.314109 145.600324 
L 528.596031 143.148169 
L 528.877954 146.147344 
L 529.159877 147.310849 
L 529.723722 140.970522 
L 530.005644 154.366765 
L 530.287567 144.850275 
L 530.569489 144.31384 
L 530.851412 155.2343 
L 531.133335 140.334334 
L 531.415257 150.303812 
L 531.979102 140.090058 
L 532.261025 147.061689 
L 532.542948 144.474128 
L 532.82487 150.482527 
L 533.106793 149.750268 
L 533.388715 146.995248 
L 533.670638 146.150261 
L 533.952561 148.005281 
L 534.234483 143.356102 
L 534.516406 145.341022 
L 534.798328 149.605296 
L 535.080251 144.444173 
L 535.362174 143.610572 
L 535.644096 146.621056 
L 535.926019 148.060251 
L 536.207941 144.745791 
L 536.489864 152.434072 
L 536.771787 148.881692 
L 537.053709 142.965528 
L 537.335632 148.296885 
L 537.617554 142.176942 
L 537.899477 143.252517 
L 538.1814 151.618199 
L 538.745245 141.520604 
L 539.027167 150.393533 
L 539.30909 148.2367 
L 539.591013 145.09177 
L 539.872935 151.000686 
L 540.43678 141.412749 
L 540.718703 146.224246 
L 541.000626 145.523832 
L 541.564471 154.030137 
L 541.846393 136.617316 
L 542.410239 152.512878 
L 542.692161 139.975201 
L 542.974084 151.936878 
L 543.537929 144.85869 
L 543.819852 146.907664 
L 544.101774 143.041298 
L 544.383697 146.97136 
L 544.665619 147.166127 
L 544.947542 146.132683 
L 545.229465 145.969748 
L 545.511387 148.468363 
L 545.79331 144.469189 
L 546.357155 152.764615 
L 546.639078 141.31728 
L 546.921 144.330362 
L 547.202923 145.745632 
L 547.484845 145.469083 
L 547.766768 149.183432 
L 548.048691 144.490784 
L 548.330613 149.995503 
L 548.612536 150.135816 
L 548.894458 143.186633 
L 549.176381 142.939823 
L 549.458304 147.06488 
L 549.740226 147.955728 
L 550.022149 145.849738 
L 550.304071 147.190873 
L 550.585994 147.522881 
L 550.867917 147.631048 
L 551.149839 146.297439 
L 551.431762 145.514856 
L 551.713684 145.292674 
L 551.995607 149.734573 
L 552.27753 143.59067 
L 552.559452 143.68967 
L 552.841375 148.080702 
L 553.123297 146.484148 
L 553.40522 148.719514 
L 553.687142 146.099565 
L 553.969065 151.57625 
L 554.250988 145.261632 
L 554.53291 147.102151 
L 554.814833 145.263251 
L 555.096755 138.774957 
L 555.942523 153.153149 
L 556.224446 147.230671 
L 556.506368 150.823229 
L 556.788291 146.404952 
L 557.070214 146.278237 
L 557.352136 147.543842 
L 557.634059 141.299321 
L 557.915981 144.463042 
L 558.197904 143.410864 
L 558.761749 149.5157 
L 559.043672 148.894895 
L 559.325594 144.775573 
L 559.88944 148.864798 
L 560.171362 145.9093 
L 560.453285 145.814034 
L 560.735207 148.527253 
L 561.01713 149.618552 
L 561.299053 140.411637 
L 561.580975 142.765653 
L 561.862898 146.705871 
L 562.14482 148.828844 
L 562.426743 148.285644 
L 562.708666 147.387807 
L 562.990588 148.994794 
L 563.272511 144.616404 
L 563.554433 145.904128 
L 563.836356 142.770838 
L 564.118279 147.212835 
L 564.400201 148.556137 
L 564.682124 148.71123 
L 564.964046 149.523419 
L 565.245969 147.726057 
L 565.527892 143.444641 
L 565.809814 135.564355 
L 566.091737 149.009274 
L 566.373659 147.380392 
L 566.937505 150.725912 
L 567.219427 149.717435 
L 567.50135 151.889495 
L 567.783272 140.227507 
L 568.065195 144.164979 
L 568.347118 140.878123 
L 568.62904 148.16801 
L 568.910963 146.774099 
L 569.192885 136.027582 
L 569.474808 159.749065 
L 570.038653 142.40895 
L 570.320576 153.390172 
L 570.602498 139.997845 
L 571.166344 147.705909 
L 571.448266 146.31487 
L 571.730189 148.046969 
L 572.012111 145.975472 
L 572.294034 145.59097 
L 572.575957 142.042614 
L 572.857879 149.401847 
L 573.139802 151.392987 
L 573.421724 145.725048 
L 573.703647 143.808251 
L 573.98557 143.437493 
L 574.267492 151.64181 
L 574.549415 150.398391 
L 574.831337 144.527409 
L 575.11326 152.237834 
L 575.395183 142.301078 
L 575.677105 138.807279 
L 575.959028 143.46157 
L 576.24095 140.587003 
L 576.522873 151.25335 
L 576.804795 151.002597 
L 577.086718 152.237215 
L 577.368641 157.38765 
L 578.214408 133.65395 
L 578.496331 135.214383 
L 578.778254 152.318865 
L 579.060176 147.699243 
L 579.342099 145.376477 
L 579.624021 154.128694 
L 579.905944 151.636115 
L 580.187867 150.359737 
L 580.469789 143.752923 
L 580.751712 141.07959 
L 581.033634 144.560711 
L 581.315557 144.394868 
L 581.59748 145.638374 
L 581.879402 152.449722 
L 582.161325 146.540694 
L 582.443247 146.445938 
L 582.72517 147.023404 
L 583.007093 139.572999 
L 583.289015 142.308432 
L 583.85286 157.624043 
L 584.134783 149.259897 
L 584.416706 151.768151 
L 584.698628 137.977193 
L 584.980551 133.567494 
L 585.262473 141.723028 
L 585.544396 144.360053 
L 585.826319 156.704725 
L 586.108241 153.525957 
L 586.390164 155.577194 
L 586.672086 140.842999 
L 586.954009 139.594036 
L 587.235932 146.586881 
L 587.517854 145.386754 
L 587.799777 153.156454 
L 588.363622 144.765276 
L 588.645545 133.757143 
L 588.927467 139.286344 
L 589.20939 150.938039 
L 589.491312 150.646327 
L 589.773235 156.323435 
L 590.055158 154.423505 
L 590.33708 144.401911 
L 590.619003 141.051704 
L 590.900925 142.310728 
L 591.464771 147.593024 
L 592.028616 145.534698 
L 592.310538 147.335265 
L 592.592461 143.647388 
L 592.874384 145.676972 
L 593.156306 150.220187 
L 593.438229 148.341565 
L 593.720151 151.772729 
L 594.283997 141.879022 
L 594.565919 142.813894 
L 594.847842 144.459844 
L 595.129764 150.819358 
L 595.411687 150.381415 
L 596.257455 143.852894 
L 596.539377 142.278649 
L 596.8213 144.333782 
L 597.103223 145.169976 
L 597.385145 149.160796 
L 597.667068 151.281344 
L 597.94899 150.796692 
L 598.230913 150.591808 
L 598.512836 142.031916 
L 598.794758 137.019131 
L 599.358603 148.469764 
L 599.640526 151.897331 
L 599.922448 153.915933 
L 600.204371 145.891919 
L 600.486294 145.359888 
L 600.768216 143.331664 
L 601.050139 137.372515 
L 601.895907 155.303958 
L 602.177829 154.467589 
L 602.459752 147.593693 
L 603.023597 139.875977 
L 603.30552 136.049064 
L 603.869365 149.387468 
L 604.151287 154.099352 
L 604.43321 156.629425 
L 604.715133 145.137061 
L 604.997055 145.389378 
L 605.278978 144.558029 
L 605.5609 141.483895 
L 605.842823 143.078171 
L 606.124746 141.422346 
L 606.406668 150.141094 
L 606.688591 153.011087 
L 606.970513 153.930933 
L 607.534359 138.066384 
L 607.816281 147.494611 
L 608.380126 145.731158 
L 608.662049 147.03914 
L 608.943972 141.871575 
L 609.225894 144.1657 
L 609.507817 148.920151 
L 609.789739 149.377757 
L 610.071662 148.061465 
L 610.353585 154.014716 
L 610.91743 143.731163 
L 611.199352 144.603142 
L 611.481275 136.777315 
L 611.763198 145.406107 
L 612.04512 149.430548 
L 612.608965 147.432452 
L 612.890888 147.347977 
L 613.172811 148.163607 
L 613.454733 143.991446 
L 613.736656 147.688196 
L 614.018578 148.478427 
L 614.300501 147.778547 
L 614.582424 146.49082 
L 614.864346 146.342206 
L 615.146269 141.171802 
L 615.428191 149.659211 
L 615.710114 151.547727 
L 615.992037 138.704028 
L 616.273959 143.434437 
L 616.555882 143.214502 
L 616.837804 151.409579 
L 617.119727 152.968919 
L 617.683572 149.171634 
L 617.965495 141.70732 
L 618.247417 140.132659 
L 618.52934 141.123574 
L 618.811263 147.128561 
L 619.093185 148.044465 
L 619.375108 155.186264 
L 619.65703 150.595813 
L 619.938953 143.787001 
L 620.220876 145.183321 
L 620.502798 143.996624 
L 620.784721 145.910352 
L 621.066643 141.518913 
L 621.348566 144.616128 
L 621.630489 150.530739 
L 621.912411 150.419403 
L 622.194334 152.76122 
L 622.758179 136.991419 
L 623.040102 145.854205 
L 623.322024 150.586072 
L 623.603947 149.788052 
L 623.885869 143.485875 
L 624.167792 145.424337 
L 624.449714 150.078866 
L 624.731637 146.239739 
L 625.01356 146.549322 
L 625.295482 140.103004 
L 625.577405 149.514567 
L 625.859327 150.545971 
L 626.14125 145.386883 
L 626.423173 146.492677 
L 626.705095 140.064661 
L 626.987018 147.096254 
L 627.26894 149.104838 
L 627.550863 152.812854 
L 627.832786 150.473998 
L 628.114708 143.310186 
L 628.396631 147.13886 
L 628.678553 140.221551 
L 628.960476 137.497647 
L 629.242399 147.975298 
L 629.524321 150.282796 
L 629.806244 148.927788 
L 630.088166 153.400924 
L 630.370089 151.760837 
L 630.933934 140.255428 
L 631.215857 143.559606 
L 631.497779 145.242034 
L 631.779702 143.5691 
L 632.061625 147.671403 
L 632.343547 147.176154 
L 632.62547 149.132043 
L 632.907392 149.679099 
L 633.189315 145.962654 
L 633.75316 146.533931 
L 634.035083 145.949105 
L 634.317005 146.305448 
L 634.598928 147.571427 
L 634.880851 147.253647 
L 635.162773 142.200592 
L 635.444696 143.860056 
L 635.726618 151.674453 
L 636.290464 143.992095 
L 636.572386 148.810359 
L 636.854309 149.422385 
L 637.136231 144.964066 
L 637.418154 142.921548 
L 637.700077 144.602675 
L 637.981999 143.774102 
L 638.263922 150.162617 
L 638.545844 153.595076 
L 638.827767 144.56173 
L 639.10969 147.375995 
L 639.391612 146.035087 
L 639.673535 143.747031 
L 639.955457 149.279424 
L 640.23738 141.173527 
L 640.519303 144.12827 
L 640.801225 148.343776 
L 641.083148 146.358145 
L 641.36507 151.27759 
L 641.646993 147.084119 
L 641.928916 146.729325 
L 642.210838 149.620115 
L 642.492761 144.782612 
L 642.774683 144.176625 
L 643.056606 145.597002 
L 643.338529 143.825016 
L 643.620451 143.800904 
L 643.902374 146.847559 
L 644.184296 147.848689 
L 644.466219 149.539981 
L 644.748142 152.124703 
L 645.030064 147.576895 
L 645.311987 147.882179 
L 645.593909 146.288627 
L 645.875832 136.275585 
L 646.157755 140.072559 
L 646.439677 148.894622 
L 646.7216 152.919579 
L 647.003522 152.889942 
L 647.567367 142.79982 
L 647.84929 141.988505 
L 648.131213 147.170718 
L 648.413135 145.456757 
L 648.695058 145.590586 
L 648.97698 150.400818 
L 649.258903 147.621558 
L 649.540826 146.973582 
L 649.822748 144.719191 
L 650.104671 143.846153 
L 650.386593 150.334099 
L 650.668516 148.960217 
L 650.950439 144.025161 
L 651.232361 146.901616 
L 651.514284 145.142008 
L 651.796206 140.445406 
L 652.078129 147.545656 
L 652.360052 151.316807 
L 652.641974 148.154992 
L 652.923897 147.638258 
L 653.205819 145.910502 
L 653.487742 148.541735 
L 654.051587 143.391112 
L 654.33351 144.66381 
L 654.615432 144.365339 
L 654.897355 147.830108 
L 655.179278 147.727305 
L 655.4612 149.57531 
L 655.743123 146.423449 
L 656.025045 145.131611 
L 656.306968 146.909408 
L 656.588891 147.60477 
L 657.152736 145.315045 
L 657.434658 151.213266 
L 657.716581 144.476732 
L 657.998504 141.410343 
L 658.280426 143.284015 
L 658.844271 152.073337 
L 659.126194 145.387677 
L 659.408117 147.164025 
L 659.690039 149.885707 
L 660.253884 142.997506 
L 660.535807 142.999764 
L 660.81773 147.833853 
L 661.099652 148.795201 
L 661.381575 142.585793 
L 661.663497 151.458098 
L 661.94542 151.803489 
L 662.227343 134.775907 
L 662.791188 153.476103 
L 663.07311 147.699403 
L 663.636956 144.387091 
L 663.918878 145.168929 
L 664.200801 144.023848 
L 664.482723 148.476042 
L 664.764646 154.957731 
L 665.328491 140.069194 
L 665.610414 144.732251 
L 665.892336 142.650781 
L 666.174259 146.529128 
L 666.456182 148.741595 
L 666.738104 148.274122 
L 667.020027 150.216608 
L 667.301949 144.895825 
L 667.583872 150.921649 
L 667.865795 148.235968 
L 668.147717 140.357994 
L 668.42964 141.915542 
L 668.711562 148.44054 
L 668.993485 148.864547 
L 669.275408 144.655086 
L 669.55733 148.874761 
L 669.839253 142.641702 
L 670.403098 152.319817 
L 670.68502 144.975074 
L 670.966943 144.857406 
L 671.248866 148.993242 
L 671.530788 148.946102 
L 671.812711 139.406078 
L 672.094633 144.206241 
L 672.376556 146.4102 
L 672.658479 146.878159 
L 672.940401 152.248407 
L 673.222324 151.160333 
L 673.504246 146.103388 
L 673.786169 138.462525 
L 674.068092 147.21087 
L 674.350014 150.39532 
L 675.195782 141.365784 
L 675.477705 148.96462 
L 675.759627 147.836431 
L 676.04155 144.985222 
L 676.605395 148.655139 
L 676.887318 149.8963 
L 677.16924 146.066869 
L 677.733085 145.105126 
L 678.015008 142.020805 
L 678.296931 149.198706 
L 678.578853 146.276688 
L 678.860776 145.171587 
L 679.142698 150.174895 
L 679.424621 145.691011 
L 679.706544 147.35308 
L 679.988466 146.737731 
L 680.270389 147.244832 
L 680.552311 145.450466 
L 680.834234 145.109905 
L 681.116157 144.986533 
L 681.398079 145.465093 
L 681.680002 150.412418 
L 681.961924 146.134496 
L 682.243847 148.874648 
L 682.52577 145.322219 
L 682.807692 144.614498 
L 683.089615 148.818566 
L 683.371537 140.814537 
L 683.935383 153.51584 
L 684.217305 144.330778 
L 684.499228 144.842747 
L 685.063073 144.823049 
L 685.344996 149.029204 
L 685.626918 145.091637 
L 685.908841 146.171826 
L 686.190763 150.446166 
L 686.754609 144.507766 
L 687.036531 142.661677 
L 687.318454 145.781246 
L 687.600376 151.858617 
L 688.446144 145.053379 
L 688.728067 145.459434 
L 689.009989 143.52409 
L 689.291912 145.618188 
L 689.573835 150.839598 
L 689.855757 143.743476 
L 690.13768 145.822402 
L 690.419602 146.29645 
L 690.701525 147.948601 
L 690.983448 152.118764 
L 691.26537 144.923256 
L 691.547293 143.081521 
L 691.829215 145.500685 
L 692.111138 148.930064 
L 692.393061 144.490232 
L 692.674983 148.87125 
L 692.956906 146.923972 
L 693.238828 142.759549 
L 693.520751 149.66594 
L 693.802673 146.151902 
L 694.084596 144.248317 
L 694.366519 146.745596 
L 694.648441 152.607949 
L 694.930364 145.221988 
L 695.212286 143.527328 
L 695.494209 145.342609 
L 695.776132 141.899787 
L 696.058054 150.859162 
L 696.339977 149.721573 
L 696.621899 146.321451 
L 696.903822 148.373803 
L 697.185745 144.396935 
L 697.467667 142.412086 
L 697.74959 148.560051 
L 698.031512 148.043927 
L 698.313435 147.962528 
L 698.595358 147.18818 
L 698.87728 143.3447 
L 699.723048 149.55077 
L 700.004971 143.993605 
L 700.286893 145.431535 
L 700.568816 148.776296 
L 700.850738 146.188366 
L 701.132661 146.311028 
L 701.414584 149.156303 
L 701.696506 149.212304 
L 701.978429 139.912575 
L 702.542274 150.722249 
L 702.824197 144.564164 
L 703.106119 147.437156 
L 703.388042 148.96305 
L 703.669964 143.708158 
L 703.951887 144.302974 
L 704.23381 149.124525 
L 704.515732 147.296537 
L 704.797655 143.910484 
L 705.079577 147.831671 
L 705.3615 149.975182 
L 705.643423 146.65577 
L 705.925345 146.427599 
L 706.207268 144.70839 
L 706.771113 147.852092 
L 707.053036 141.100734 
L 707.334958 147.398595 
L 707.616881 147.576535 
L 707.898803 142.789483 
L 708.180726 152.144341 
L 708.462649 148.975679 
L 708.744571 149.783087 
L 709.308416 138.812015 
L 709.590339 149.988293 
L 709.872262 144.7804 
L 710.154184 146.051206 
L 710.436107 150.446078 
L 710.718029 144.941337 
L 711.281875 148.635602 
L 711.563797 146.443394 
L 711.84572 141.317947 
L 712.127642 146.526137 
L 712.409565 147.138319 
L 712.691488 144.545361 
L 712.97341 151.795744 
L 713.255333 148.018114 
L 713.537255 146.544492 
L 713.819178 148.324818 
L 714.101101 143.152396 
L 714.383023 145.02665 
L 714.664946 144.937073 
L 714.946868 144.545745 
L 715.228791 149.485482 
L 715.510714 146.987853 
L 715.792636 148.194372 
L 716.074559 147.133441 
L 716.356481 143.381367 
L 716.638404 151.041914 
L 716.920326 147.596277 
L 717.202249 142.039877 
L 717.484172 147.154285 
L 717.766094 146.212635 
L 718.048017 144.386607 
L 718.329939 148.446085 
L 718.611862 146.795167 
L 718.893785 146.552241 
L 719.175707 147.980093 
L 719.45763 143.000215 
L 719.739552 150.340183 
L 720.021475 150.199013 
L 720.303398 140.641672 
L 720.58532 147.808515 
L 720.867243 146.667683 
L 721.149165 139.708767 
L 721.431088 152.010842 
L 721.713011 149.537552 
L 721.994933 144.387043 
L 722.276856 151.751438 
L 722.558778 143.110091 
L 722.840701 143.426495 
L 723.122624 148.633997 
L 723.404546 144.965421 
L 723.686469 142.80437 
L 723.968391 151.211151 
L 724.250314 147.494591 
L 724.532237 145.792579 
L 724.814159 151.209797 
L 725.096082 138.114185 
L 725.378004 147.673078 
L 725.659927 151.777254 
L 725.94185 144.024289 
L 726.223772 148.991432 
L 726.787617 141.193776 
L 727.06954 149.507956 
L 727.633385 144.309179 
L 727.915308 149.556422 
L 728.19723 145.230852 
L 728.479153 149.587374 
L 728.761076 145.37085 
L 729.042998 145.969265 
L 729.324921 144.225338 
L 729.606843 144.636616 
L 729.888766 151.003556 
L 730.170689 144.401846 
L 730.452611 147.525779 
L 730.734534 147.406428 
L 731.016456 150.252866 
L 731.298379 143.099877 
L 731.580302 144.785538 
L 731.862224 148.102943 
L 732.144147 142.038122 
L 732.426069 147.952548 
L 732.707992 146.306127 
L 732.989915 149.453574 
L 733.55376 145.853145 
L 734.117605 149.715388 
L 734.68145 141.33822 
L 734.963373 146.864962 
L 735.245295 143.958421 
L 735.527218 147.350406 
L 736.091063 149.663462 
L 736.372986 148.461798 
L 736.654908 145.391314 
L 736.936831 145.537465 
L 737.218754 145.908971 
L 737.500676 143.910734 
L 738.064521 149.488583 
L 738.346444 142.958357 
L 738.628367 147.860379 
L 739.192212 148.565849 
L 739.474134 146.803394 
L 739.756057 143.312405 
L 740.03798 145.927266 
L 740.319902 146.281262 
L 740.601825 146.015882 
L 740.883747 146.575229 
L 741.16567 146.590358 
L 741.447592 147.424684 
L 741.729515 153.890185 
L 742.011438 142.309486 
L 742.29336 144.101292 
L 742.575283 148.671038 
L 742.857205 143.125907 
L 743.139128 145.926505 
L 743.421051 145.329798 
L 743.702973 148.924565 
L 743.984896 144.866211 
L 744.266818 150.555306 
L 744.548741 148.46561 
L 744.830664 143.992022 
L 745.112586 147.427875 
L 745.394509 144.949287 
L 745.676431 144.358648 
L 745.958354 146.425033 
L 746.240277 151.25616 
L 746.522199 145.700995 
L 746.804122 146.985848 
L 747.086044 143.942484 
L 747.367967 145.771112 
L 747.64989 143.791968 
L 748.213735 151.12043 
L 748.495657 142.552527 
L 748.77758 154.265673 
L 749.059503 141.173148 
L 749.341425 147.828765 
L 749.623348 147.154372 
L 749.90527 140.871246 
L 750.187193 149.381058 
L 750.469116 142.947788 
L 750.751038 150.118168 
L 751.032961 144.825698 
L 751.314883 150.972315 
L 751.596806 145.462293 
L 752.160651 148.984824 
L 752.442574 137.855229 
L 752.724496 150.991562 
L 753.288342 146.077685 
L 753.570264 148.157339 
L 753.852187 141.467071 
L 754.134109 142.992869 
L 754.416032 147.380823 
L 754.697955 147.703687 
L 754.979877 152.173227 
L 755.2618 143.899355 
L 755.543722 150.120399 
L 756.107568 145.184375 
L 756.38949 145.895821 
L 756.671413 138.348468 
L 756.953335 151.776463 
L 757.235258 142.930796 
L 757.517181 150.655408 
L 757.799103 146.946139 
L 758.081026 145.255232 
L 758.362948 149.573708 
L 758.644871 140.053324 
L 758.926794 154.486385 
L 759.208716 142.797089 
L 759.490639 147.722452 
L 759.772561 147.576837 
L 760.054484 141.290831 
L 760.336407 152.291489 
L 760.618329 143.326175 
L 760.900252 145.474466 
L 761.182174 146.453787 
L 761.464097 145.634678 
L 761.74602 150.738476 
L 762.027942 145.399938 
L 762.309865 145.987103 
L 762.591787 149.787994 
L 762.87371 146.103053 
L 763.155633 147.168237 
L 763.437555 139.74912 
L 763.719478 150.533679 
L 764.0014 139.730573 
L 764.283323 146.220418 
L 764.565245 168.108797 
L 764.847168 122.933045 
L 765.129091 151.105677 
L 765.411013 160.572716 
L 765.692936 135.419343 
L 765.974858 149.422711 
L 766.256781 142.748247 
L 766.538704 150.664486 
L 766.820626 143.084339 
L 767.384471 148.717842 
L 767.666394 144.733236 
L 767.948317 149.654419 
L 768.512162 144.383165 
L 768.794084 145.495233 
L 769.076007 148.905248 
L 769.35793 144.218868 
L 769.639852 147.596613 
L 769.921775 147.714941 
L 770.203697 145.689572 
L 770.48562 146.594611 
L 770.767543 148.097006 
L 771.049465 147.250999 
L 771.331388 142.572152 
L 771.61331 147.432897 
L 771.895233 145.679796 
L 772.177156 147.243604 
L 772.459078 151.418627 
L 772.741001 142.666392 
L 773.022923 144.008378 
L 773.304846 149.759349 
L 773.586769 149.356743 
L 773.868691 141.924999 
L 774.150614 144.215222 
L 774.432536 149.228693 
L 774.714459 147.437986 
L 774.996382 151.369912 
L 775.278304 140.52042 
L 775.560227 147.927586 
L 775.842149 149.627516 
L 776.124072 138.473348 
L 776.405995 152.994329 
L 776.687917 145.070263 
L 776.96984 145.514087 
L 777.251762 147.400445 
L 777.533685 142.931747 
L 777.815608 150.565918 
L 778.09753 143.408639 
L 778.379453 152.056998 
L 778.943298 144.144279 
L 779.225221 145.379975 
L 779.507143 142.895635 
L 779.789066 150.678794 
L 780.070988 144.661507 
L 780.352911 148.598314 
L 780.634834 142.385581 
L 780.916756 149.165455 
L 781.198679 148.025509 
L 781.480601 143.333003 
L 781.762524 151.757394 
L 782.044447 141.140047 
L 782.326369 152.698905 
L 782.608292 144.47455 
L 782.890214 143.241959 
L 783.172137 146.082506 
L 783.45406 145.755077 
L 783.735982 151.767565 
L 784.017905 142.22817 
L 784.299827 148.708074 
L 784.58175 146.036762 
L 784.863673 149.510887 
L 785.145595 144.610574 
L 785.427518 142.84675 
L 785.70944 152.349097 
L 786.273286 142.988077 
L 786.555208 146.967974 
L 786.837131 144.688988 
L 787.119053 143.919147 
L 787.400976 148.759747 
L 787.682898 149.185054 
L 787.964821 148.567379 
L 788.246744 145.052337 
L 788.528666 151.273593 
L 788.810589 142.779834 
L 789.092511 144.282852 
L 789.374434 143.33393 
L 789.656357 149.264644 
L 789.938279 149.6613 
L 790.220202 145.368504 
L 790.502124 145.909884 
L 790.784047 138.436422 
L 791.06597 158.280263 
L 791.347892 141.177399 
L 791.629815 150.788381 
L 791.911737 148.340072 
L 792.19366 141.580485 
L 792.475583 149.080033 
L 792.757505 136.385871 
L 793.039428 152.232412 
L 793.32135 146.215851 
L 793.603273 151.786131 
L 793.885196 150.697543 
L 794.449041 139.450496 
L 794.730963 145.860739 
L 795.012886 147.427652 
L 795.294809 145.437112 
L 795.576731 147.819978 
L 795.858654 142.435036 
L 796.140576 155.913436 
L 796.422499 141.943086 
L 796.704422 148.828147 
L 796.986344 147.033284 
L 797.268267 147.066513 
L 797.550189 145.274348 
L 797.832112 139.83948 
L 798.114035 151.097688 
L 798.395957 141.709073 
L 798.67788 152.860718 
L 798.959802 145.614957 
L 799.241725 150.093326 
L 799.523648 150.071504 
L 799.80557 136.32789 
L 800.087493 150.3255 
L 800.651338 142.477205 
L 801.215183 149.810863 
L 801.497106 146.688682 
L 801.779028 145.405393 
L 802.060951 149.923188 
L 802.342874 146.439729 
L 802.624796 146.702263 
L 802.906719 144.55292 
L 803.188641 145.162502 
L 803.470564 148.052465 
L 803.752487 143.330406 
L 804.034409 148.054425 
L 804.316332 145.093703 
L 804.598254 147.598251 
L 804.880177 152.770561 
L 805.1621 142.602985 
L 805.444022 146.839931 
L 805.725945 145.87572 
L 806.007867 145.389083 
L 806.28979 146.700351 
L 806.571713 147.472101 
L 806.853635 146.513536 
L 807.135558 141.657056 
L 807.41748 157.892513 
L 807.699403 140.726618 
L 807.981326 138.305774 
L 808.263248 156.549257 
L 808.545171 145.137535 
L 808.827093 145.819783 
L 809.109016 144.841478 
L 809.390939 148.680078 
L 809.672861 145.00678 
L 809.954784 148.274895 
L 810.236706 147.95298 
L 810.518629 141.7107 
L 810.800551 149.536542 
L 811.082474 143.968527 
L 811.646319 149.197667 
L 811.928242 147.563397 
L 812.210164 143.743307 
L 812.492087 144.013701 
L 812.77401 149.54905 
L 813.055932 147.258052 
L 813.337855 146.601811 
L 813.619777 147.123659 
L 814.183623 145.177589 
L 814.465545 146.143536 
L 814.747468 146.181755 
L 815.02939 149.939544 
L 815.311313 145.446791 
L 815.593236 146.498867 
L 815.875158 146.87235 
L 816.157081 141.911155 
L 816.439003 148.60962 
L 816.720926 147.46823 
L 817.002849 147.257534 
L 817.284771 147.288636 
L 817.566694 147.02618 
L 818.130539 144.974428 
L 818.412462 147.366585 
L 818.694384 145.484098 
L 818.976307 148.569311 
L 819.540152 144.130569 
L 820.103997 148.348161 
L 820.38592 149.5653 
L 820.667842 145.541947 
L 820.949765 145.40883 
L 821.231688 142.779172 
L 821.51361 144.504916 
L 821.795533 153.169243 
L 822.359378 144.026535 
L 822.641301 145.132101 
L 822.923223 143.802864 
L 823.487068 149.025305 
L 823.768991 146.61254 
L 824.332836 147.843034 
L 824.896681 145.91099 
L 825.178604 144.366099 
L 825.460527 145.118952 
L 826.024372 149.370105 
L 826.588217 144.523294 
L 827.152062 147.075808 
L 827.433985 150.370371 
L 827.715907 148.474264 
L 827.99783 141.901013 
L 828.279753 143.856512 
L 828.561675 150.415543 
L 828.843598 144.932236 
L 829.12552 145.657231 
L 829.407443 147.351935 
L 829.689366 142.154693 
L 829.971288 151.757629 
L 830.253211 152.181967 
L 830.535133 145.19867 
L 830.817056 145.690943 
L 831.098979 141.341707 
L 831.380901 146.996214 
L 831.662824 146.060144 
L 831.944746 141.845007 
L 832.226669 151.547938 
L 832.790514 146.726528 
L 833.072437 149.199416 
L 833.918205 141.659407 
L 834.200127 150.198949 
L 834.48205 146.730459 
L 834.763972 145.060151 
L 835.045895 148.848428 
L 835.327817 142.757581 
L 835.60974 152.063829 
L 835.891663 148.33597 
L 836.173585 141.651259 
L 836.455508 147.116462 
L 836.73743 146.078421 
L 837.019353 147.27709 
L 837.301276 144.645281 
L 837.583198 145.84186 
L 837.865121 143.658816 
L 838.147043 153.052979 
L 838.428966 156.455869 
L 838.710889 136.365479 
L 839.274734 150.302899 
L 839.556656 140.400678 
L 839.838579 146.667928 
L 840.120502 150.276348 
L 840.402424 148.191148 
L 840.684347 149.610205 
L 840.966269 146.917697 
L 841.248192 145.773244 
L 841.530115 141.055474 
L 842.09396 148.860313 
L 842.375882 147.501636 
L 842.657805 146.953613 
L 842.939728 142.829813 
L 843.22165 149.64182 
L 843.503573 146.194263 
L 843.785495 147.769483 
L 844.067418 147.967383 
L 844.349341 143.338234 
L 844.631263 146.634515 
L 844.913186 145.848598 
L 845.195108 149.970936 
L 845.477031 146.359626 
L 845.758954 146.330521 
L 846.040876 143.870056 
L 846.322799 145.570765 
L 846.604721 150.601305 
L 846.886644 141.778514 
L 847.450489 151.093247 
L 847.732412 144.668666 
L 848.296257 148.40801 
L 848.57818 143.996455 
L 848.860102 146.0842 
L 849.142025 147.123394 
L 849.423947 144.19329 
L 849.70587 148.018679 
L 849.987793 149.771122 
L 850.269715 148.635466 
L 850.551638 141.629134 
L 851.115483 148.517379 
L 851.115483 148.517379 
" clip-path="url(#p97acc6aed3)" style="fill: none; stroke: #000000; stroke-width: 1.5; stroke-linecap: square"/>
   </g>
   <g id="patch_3">
    <path d="M 52.160938 289.598437 
L 52.160938 17.798438 
" style="fill: none; stroke: #000000; stroke-width: 0.8; stroke-linejoin: miter; stroke-linecap: square"/>
   </g>
   <g id="patch_4">
    <path d="M 889.160938 289.598437 
L 889.160938 17.798438 
" style="fill: none; stroke: #000000; stroke-width: 0.8; stroke-linejoin: miter; stroke-linecap: square"/>
   </g>
   <g id="patch_5">
    <path d="M 52.160938 289.598437 
L 889.160938 289.598437 
" style="fill: none; stroke: #000000; stroke-width: 0.8; stroke-linejoin: miter; stroke-linecap: square"/>
   </g>
   <g id="patch_6">
    <path d="M 52.160938 17.798437 
L 889.160938 17.798437 
" style="fill: none; stroke: #000000; stroke-width: 0.8; stroke-linejoin: miter; stroke-linecap: square"/>
   </g>
  </g>
  <g id="axes_2">
   <g id="matplotlib.axis_3">
    <g id="ytick_7">
     <g id="line2d_14">
      <defs>
       <path id="m07d3ee3f0b" d="M 0 0 
L 3.5 0 
" style="stroke: #000000; stroke-width: 0.8"/>
      </defs>
      <g>
       <use xlink:href="#m07d3ee3f0b" x="889.160938" y="289.598437" style="stroke: #000000; stroke-width: 0.8"/>
      </g>
     </g>
     <g id="text_16">
      <text style="font: 10px 'sans-serif'; text-anchor: start" x="896.160938" y="293.397656" transform="rotate(-0, 896.160938, 293.397656)">−1.00</text>
     </g>
    </g>
    <g id="ytick_8">
     <g id="line2d_15">
      <g>
       <use xlink:href="#m07d3ee3f0b" x="889.160938" y="255.623437" style="stroke: #000000; stroke-width: 0.8"/>
      </g>
     </g>
     <g id="text_17">
      <text style="font: 10px 'sans-serif'; text-anchor: start" x="896.160938" y="259.422656" transform="rotate(-0, 896.160938, 259.422656)">−0.75</text>
     </g>
    </g>
    <g id="ytick_9">
     <g id="line2d_16">
      <g>
       <use xlink:href="#m07d3ee3f0b" x="889.160938" y="221.648437" style="stroke: #000000; stroke-width: 0.8"/>
      </g>
     </g>
     <g id="text_18">
      <text style="font: 10px 'sans-serif'; text-anchor: start" x="896.160938" y="225.447656" transform="rotate(-0, 896.160938, 225.447656)">−0.50</text>
     </g>
    </g>
    <g id="ytick_10">
     <g id="line2d_17">
      <g>
       <use xlink:href="#m07d3ee3f0b" x="889.160938" y="187.673437" style="stroke: #000000; stroke-width: 0.8"/>
      </g>
     </g>
     <g id="text_19">
      <text style="font: 10px 'sans-serif'; text-anchor: start" x="896.160938" y="191.472656" transform="rotate(-0, 896.160938, 191.472656)">−0.25</text>
     </g>
    </g>
    <g id="ytick_11">
     <g id="line2d_18">
      <g>
       <use xlink:href="#m07d3ee3f0b" x="889.160938" y="153.698437" style="stroke: #000000; stroke-width: 0.8"/>
      </g>
     </g>
     <g id="text_20">
      <text style="font: 10px 'sans-serif'; text-anchor: start" x="896.160938" y="157.497656" transform="rotate(-0, 896.160938, 157.497656)">0.00</text>
     </g>
    </g>
    <g id="ytick_12">
     <g id="line2d_19">
      <g>
       <use xlink:href="#m07d3ee3f0b" x="889.160938" y="119.723437" style="stroke: #000000; stroke-width: 0.8"/>
      </g>
     </g>
     <g id="text_21">
      <text style="font: 10px 'sans-serif'; text-anchor: start" x="896.160938" y="123.522656" transform="rotate(-0, 896.160938, 123.522656)">0.25</text>
     </g>
    </g>
    <g id="ytick_13">
     <g id="line2d_20">
      <g>
       <use xlink:href="#m07d3ee3f0b" x="889.160938" y="85.748437" style="stroke: #000000; stroke-width: 0.8"/>
      </g>
     </g>
     <g id="text_22">
      <text style="font: 10px 'sans-serif'; text-anchor: start" x="896.160938" y="89.547656" transform="rotate(-0, 896.160938, 89.547656)">0.50</text>
     </g>
    </g>
    <g id="ytick_14">
     <g id="line2d_21">
      <g>
       <use xlink:href="#m07d3ee3f0b" x="889.160938" y="51.773438" style="stroke: #000000; stroke-width: 0.8"/>
      </g>
     </g>
     <g id="text_23">
      <text style="font: 10px 'sans-serif'; text-anchor: start" x="896.160938" y="55.572656" transform="rotate(-0, 896.160938, 55.572656)">0.75</text>
     </g>
    </g>
    <g id="ytick_15">
     <g id="line2d_22">
      <g>
       <use xlink:href="#m07d3ee3f0b" x="889.160938" y="17.798438" style="stroke: #000000; stroke-width: 0.8"/>
      </g>
     </g>
     <g id="text_24">
      <text style="font: 10px 'sans-serif'; text-anchor: start" x="896.160938" y="21.597656" transform="rotate(-0, 896.160938, 21.597656)">1.00</text>
     </g>
    </g>
    <g id="text_25">
     <text style="font: 10px 'sans-serif'; text-anchor: middle" x="938.404688" y="153.698437" transform="rotate(-90, 938.404688, 153.698437)">Waveform Feature</text>
    </g>
   </g>
   <g id="line2d_23">
    <path d="M 90.206392 153.698413 
L 370.437454 153.623514 
L 370.719377 153.494864 
L 371.001299 153.091689 
L 371.565144 149.859305 
L 371.847067 146.045206 
L 372.12899 138.60989 
L 372.692835 121.286938 
L 373.538603 103.206446 
L 373.820525 96.900458 
L 374.948216 63.180061 
L 375.793983 43.310914 
L 376.639751 26.587928 
L 376.921674 24.255593 
L 377.203596 23.143604 
L 377.485519 23.215243 
L 377.767442 23.713134 
L 378.613209 31.0846 
L 379.177055 41.042425 
L 379.7409 54.904225 
L 380.022822 59.71905 
L 380.586668 74.097064 
L 380.86859 78.823289 
L 381.150513 88.142359 
L 381.432435 92.748866 
L 382.278203 112.017022 
L 382.560126 114.339353 
L 383.123971 125.705328 
L 383.969739 147.610256 
L 384.251661 151.009386 
L 384.533584 152.45332 
L 384.815507 153.307685 
L 385.379352 153.597752 
L 386.788965 153.687961 
L 391.299726 153.680687 
L 403.986243 153.698348 
L 851.115483 153.696181 
L 851.115483 153.696181 
" clip-path="url(#p97acc6aed3)" style="fill: none; stroke: #1f77b4; stroke-width: 1.5; stroke-linecap: square"/>
   </g>
   <g id="line2d_24">
    <path d="M 90.206392 153.698268 
L 385.661274 153.681258 
L 385.943197 153.622319 
L 386.507042 153.096481 
L 386.788965 151.480819 
L 387.35281 145.880627 
L 387.916655 134.516675 
L 388.4805 119.918498 
L 388.762423 115.153722 
L 391.863571 30.794675 
L 392.145494 27.087407 
L 392.427417 25.6702 
L 392.709339 24.927324 
L 392.991262 23.04794 
L 393.273184 22.899462 
L 393.555107 24.073232 
L 393.83703 26.560809 
L 394.118952 30.26277 
L 394.682797 42.019431 
L 394.96472 52.317662 
L 395.528565 61.997462 
L 395.810488 68.91976 
L 396.09241 80.574681 
L 397.220101 103.159059 
L 397.502023 106.102726 
L 398.347791 131.43697 
L 398.629714 138.413817 
L 399.475482 149.443187 
L 399.757404 151.335619 
L 400.321249 152.92605 
L 400.603172 153.398609 
L 400.885095 153.568684 
L 402.57663 153.688038 
L 408.497005 153.69842 
L 551.713684 153.595127 
L 558.761749 153.447215 
L 560.453285 153.541671 
L 562.990588 153.526447 
L 565.527892 153.570571 
L 567.783272 153.578289 
L 580.187867 153.692914 
L 735.245295 153.69833 
L 851.115483 153.697197 
L 851.115483 153.697197 
" clip-path="url(#p97acc6aed3)" style="fill: none; stroke: #ff7f0e; stroke-width: 1.5; stroke-linecap: square"/>
   </g>
   <g id="patch_7">
    <path d="M 52.160938 289.598437 
L 52.160938 17.798438 
" style="fill: none; stroke: #000000; stroke-width: 0.8; stroke-linejoin: miter; stroke-linecap: square"/>
   </g>
   <g id="patch_8">
    <path d="M 889.160938 289.598437 
L 889.160938 17.798438 
" style="fill: none; stroke: #000000; stroke-width: 0.8; stroke-linejoin: miter; stroke-linecap: square"/>
   </g>
   <g id="patch_9">
    <path d="M 52.160938 289.598437 
L 889.160938 289.598437 
" style="fill: none; stroke: #000000; stroke-width: 0.8; stroke-linejoin: miter; stroke-linecap: square"/>
   </g>
   <g id="patch_10">
    <path d="M 52.160938 17.798437 
L 889.160938 17.798437 
" style="fill: none; stroke: #000000; stroke-width: 0.8; stroke-linejoin: miter; stroke-linecap: square"/>
   </g>
   <g id="legend_1">
    <g id="patch_11">
     <path d="M 751.896875 284.598437 
L 882.160938 284.598437 
Q 884.160938 284.598437 884.160938 282.598437 
L 884.160938 254.242187 
Q 884.160938 252.242187 882.160938 252.242187 
L 751.896875 252.242187 
Q 749.896875 252.242187 749.896875 254.242187 
L 749.896875 282.598437 
Q 749.896875 284.598437 751.896875 284.598437 
z
" style="fill: #ffffff; opacity: 0.8; stroke: #cccccc; stroke-linejoin: miter"/>
    </g>
    <g id="line2d_25">
     <path d="M 753.896875 260.340625 
L 763.896875 260.340625 
L 773.896875 260.340625 
" style="fill: none; stroke: #1f77b4; stroke-width: 1.5; stroke-linecap: square"/>
    </g>
    <g id="text_26">
     <text style="font: 10px 'sans-serif'; text-anchor: start" x="781.896875" y="263.840625" transform="rotate(-0, 781.896875, 263.840625)">P-arrival probability</text>
    </g>
    <g id="line2d_26">
     <path d="M 753.896875 275.01875 
L 763.896875 275.01875 
L 773.896875 275.01875 
" style="fill: none; stroke: #ff7f0e; stroke-width: 1.5; stroke-linecap: square"/>
    </g>
    <g id="text_27">
     <text style="font: 10px 'sans-serif'; text-anchor: start" x="781.896875" y="278.51875" transform="rotate(-0, 781.896875, 278.51875)">S-arrival probability</text>
    </g>
   </g>
  </g>
 </g>
 <defs>
  <clipPath id="p97acc6aed3">
   <rect x="52.160938" y="17.798438" width="837" height="271.8"/>
  </clipPath>
 </defs>
</svg>
