<?xml version="1.0" encoding="utf-8" standalone="no"?>
<!DOCTYPE svg PUBLIC "-//W3C//DTD SVG 1.1//EN"
  "http://www.w3.org/Graphics/SVG/1.1/DTD/svg11.dtd">
<svg xmlns:xlink="http://www.w3.org/1999/xlink" width="886.820312pt" height="432.83625pt" viewBox="0 0 886.820312 432.83625" xmlns="http://www.w3.org/2000/svg" version="1.1">
 <metadata>
  <rdf:RDF xmlns:dc="http://purl.org/dc/elements/1.1/" xmlns:cc="http://creativecommons.org/ns#" xmlns:rdf="http://www.w3.org/1999/02/22-rdf-syntax-ns#">
   <cc:Work>
    <dc:type rdf:resource="http://purl.org/dc/dcmitype/StillImage"/>
    <dc:date>2023-07-07T16:37:44.478122</dc:date>
    <dc:format>image/svg+xml</dc:format>
    <dc:creator>
     <cc:Agent>
      <dc:title>Matplotlib v3.5.2, https://matplotlib.org/</dc:title>
     </cc:Agent>
    </dc:creator>
   </cc:Work>
  </rdf:RDF>
 </metadata>
 <defs>
  <style type="text/css">*{stroke-linejoin: round; stroke-linecap: butt}</style>
 </defs>
 <g id="figure_1">
  <g id="patch_1">
   <path d="M 0 432.83625 
L 886.820312 432.83625 
L 886.820312 0 
L 0 0 
z
" style="fill: #ffffff"/>
  </g>
  <g id="axes_1">
   <g id="patch_2">
    <path d="M 42.620313 395.28 
L 879.620312 395.28 
L 879.620312 7.2 
L 42.620313 7.2 
z
" style="fill: #ffffff"/>
   </g>
   <g id="matplotlib.axis_1">
    <g id="xtick_1">
     <g id="line2d_1">
      <defs>
       <path id="md57177ee08" d="M 0 0 
L 0 3.5 
" style="stroke: #000000; stroke-width: 0.8"/>
      </defs>
      <g>
       <use xlink:href="#md57177ee08" x="108.978663" y="395.28" style="stroke: #000000; stroke-width: 0.8"/>
      </g>
     </g>
     <g id="text_1">
      <!-- −100 -->
      <g transform="translate(95.24507 409.878437)scale(0.1 -0.1)">
       <defs>
        <path id="DejaVuSans-2212" d="M 678 2272 
L 4684 2272 
L 4684 1741 
L 678 1741 
L 678 2272 
z
" transform="scale(0.015625)"/>
        <path id="DejaVuSans-31" d="M 794 531 
L 1825 531 
L 1825 4091 
L 703 3866 
L 703 4441 
L 1819 4666 
L 2450 4666 
L 2450 531 
L 3481 531 
L 3481 0 
L 794 0 
L 794 531 
z
" transform="scale(0.015625)"/>
        <path id="DejaVuSans-30" d="M 2034 4250 
Q 1547 4250 1301 3770 
Q 1056 3291 1056 2328 
Q 1056 1369 1301 889 
Q 1547 409 2034 409 
Q 2525 409 2770 889 
Q 3016 1369 3016 2328 
Q 3016 3291 2770 3770 
Q 2525 4250 2034 4250 
z
M 2034 4750 
Q 2819 4750 3233 4129 
Q 3647 3509 3647 2328 
Q 3647 1150 3233 529 
Q 2819 -91 2034 -91 
Q 1250 -91 836 529 
Q 422 1150 422 2328 
Q 422 3509 836 4129 
Q 1250 4750 2034 4750 
z
" transform="scale(0.015625)"/>
       </defs>
       <use xlink:href="#DejaVuSans-2212"/>
       <use xlink:href="#DejaVuSans-31" x="83.789062"/>
       <use xlink:href="#DejaVuSans-30" x="147.412109"/>
       <use xlink:href="#DejaVuSans-30" x="211.035156"/>
      </g>
     </g>
    </g>
    <g id="xtick_2">
     <g id="line2d_2">
      <g>
       <use xlink:href="#md57177ee08" x="285.934266" y="395.28" style="stroke: #000000; stroke-width: 0.8"/>
      </g>
     </g>
     <g id="text_2">
      <!-- −50 -->
      <g transform="translate(275.381922 409.878437)scale(0.1 -0.1)">
       <defs>
        <path id="DejaVuSans-35" d="M 691 4666 
L 3169 4666 
L 3169 4134 
L 1269 4134 
L 1269 2991 
Q 1406 3038 1543 3061 
Q 1681 3084 1819 3084 
Q 2600 3084 3056 2656 
Q 3513 2228 3513 1497 
Q 3513 744 3044 326 
Q 2575 -91 1722 -91 
Q 1428 -91 1123 -41 
Q 819 9 494 109 
L 494 744 
Q 775 591 1075 516 
Q 1375 441 1709 441 
Q 2250 441 2565 725 
Q 2881 1009 2881 1497 
Q 2881 1984 2565 2268 
Q 2250 2553 1709 2553 
Q 1456 2553 1204 2497 
Q 953 2441 691 2322 
L 691 4666 
z
" transform="scale(0.015625)"/>
       </defs>
       <use xlink:href="#DejaVuSans-2212"/>
       <use xlink:href="#DejaVuSans-35" x="83.789062"/>
       <use xlink:href="#DejaVuSans-30" x="147.412109"/>
      </g>
     </g>
    </g>
    <g id="xtick_3">
     <g id="line2d_3">
      <g>
       <use xlink:href="#md57177ee08" x="462.889869" y="395.28" style="stroke: #000000; stroke-width: 0.8"/>
      </g>
     </g>
     <g id="text_3">
      <!-- 0 -->
      <g transform="translate(459.708619 409.878437)scale(0.1 -0.1)">
       <use xlink:href="#DejaVuSans-30"/>
      </g>
     </g>
    </g>
    <g id="xtick_4">
     <g id="line2d_4">
      <g>
       <use xlink:href="#md57177ee08" x="639.845471" y="395.28" style="stroke: #000000; stroke-width: 0.8"/>
      </g>
     </g>
     <g id="text_4">
      <!-- 50 -->
      <g transform="translate(633.482971 409.878437)scale(0.1 -0.1)">
       <use xlink:href="#DejaVuSans-35"/>
       <use xlink:href="#DejaVuSans-30" x="63.623047"/>
      </g>
     </g>
    </g>
    <g id="xtick_5">
     <g id="line2d_5">
      <g>
       <use xlink:href="#md57177ee08" x="816.801074" y="395.28" style="stroke: #000000; stroke-width: 0.8"/>
      </g>
     </g>
     <g id="text_5">
      <!-- 100 -->
      <g transform="translate(807.257324 409.878437)scale(0.1 -0.1)">
       <use xlink:href="#DejaVuSans-31"/>
       <use xlink:href="#DejaVuSans-30" x="63.623047"/>
       <use xlink:href="#DejaVuSans-30" x="127.246094"/>
      </g>
     </g>
    </g>
    <g id="text_6">
     <!-- Time to max (samples) -->
     <g transform="translate(403.521094 423.556562)scale(0.1 -0.1)">
      <defs>
       <path id="DejaVuSans-54" d="M -19 4666 
L 3928 4666 
L 3928 4134 
L 2272 4134 
L 2272 0 
L 1638 0 
L 1638 4134 
L -19 4134 
L -19 4666 
z
" transform="scale(0.015625)"/>
       <path id="DejaVuSans-69" d="M 603 3500 
L 1178 3500 
L 1178 0 
L 603 0 
L 603 3500 
z
M 603 4863 
L 1178 4863 
L 1178 4134 
L 603 4134 
L 603 4863 
z
" transform="scale(0.015625)"/>
       <path id="DejaVuSans-6d" d="M 3328 2828 
Q 3544 3216 3844 3400 
Q 4144 3584 4550 3584 
Q 5097 3584 5394 3201 
Q 5691 2819 5691 2113 
L 5691 0 
L 5113 0 
L 5113 2094 
Q 5113 2597 4934 2840 
Q 4756 3084 4391 3084 
Q 3944 3084 3684 2787 
Q 3425 2491 3425 1978 
L 3425 0 
L 2847 0 
L 2847 2094 
Q 2847 2600 2669 2842 
Q 2491 3084 2119 3084 
Q 1678 3084 1418 2786 
Q 1159 2488 1159 1978 
L 1159 0 
L 581 0 
L 581 3500 
L 1159 3500 
L 1159 2956 
Q 1356 3278 1631 3431 
Q 1906 3584 2284 3584 
Q 2666 3584 2933 3390 
Q 3200 3197 3328 2828 
z
" transform="scale(0.015625)"/>
       <path id="DejaVuSans-65" d="M 3597 1894 
L 3597 1613 
L 953 1613 
Q 991 1019 1311 708 
Q 1631 397 2203 397 
Q 2534 397 2845 478 
Q 3156 559 3463 722 
L 3463 178 
Q 3153 47 2828 -22 
Q 2503 -91 2169 -91 
Q 1331 -91 842 396 
Q 353 884 353 1716 
Q 353 2575 817 3079 
Q 1281 3584 2069 3584 
Q 2775 3584 3186 3129 
Q 3597 2675 3597 1894 
z
M 3022 2063 
Q 3016 2534 2758 2815 
Q 2500 3097 2075 3097 
Q 1594 3097 1305 2825 
Q 1016 2553 972 2059 
L 3022 2063 
z
" transform="scale(0.015625)"/>
       <path id="DejaVuSans-20" transform="scale(0.015625)"/>
       <path id="DejaVuSans-74" d="M 1172 4494 
L 1172 3500 
L 2356 3500 
L 2356 3053 
L 1172 3053 
L 1172 1153 
Q 1172 725 1289 603 
Q 1406 481 1766 481 
L 2356 481 
L 2356 0 
L 1766 0 
Q 1100 0 847 248 
Q 594 497 594 1153 
L 594 3053 
L 172 3053 
L 172 3500 
L 594 3500 
L 594 4494 
L 1172 4494 
z
" transform="scale(0.015625)"/>
       <path id="DejaVuSans-6f" d="M 1959 3097 
Q 1497 3097 1228 2736 
Q 959 2375 959 1747 
Q 959 1119 1226 758 
Q 1494 397 1959 397 
Q 2419 397 2687 759 
Q 2956 1122 2956 1747 
Q 2956 2369 2687 2733 
Q 2419 3097 1959 3097 
z
M 1959 3584 
Q 2709 3584 3137 3096 
Q 3566 2609 3566 1747 
Q 3566 888 3137 398 
Q 2709 -91 1959 -91 
Q 1206 -91 779 398 
Q 353 888 353 1747 
Q 353 2609 779 3096 
Q 1206 3584 1959 3584 
z
" transform="scale(0.015625)"/>
       <path id="DejaVuSans-61" d="M 2194 1759 
Q 1497 1759 1228 1600 
Q 959 1441 959 1056 
Q 959 750 1161 570 
Q 1363 391 1709 391 
Q 2188 391 2477 730 
Q 2766 1069 2766 1631 
L 2766 1759 
L 2194 1759 
z
M 3341 1997 
L 3341 0 
L 2766 0 
L 2766 531 
Q 2569 213 2275 61 
Q 1981 -91 1556 -91 
Q 1019 -91 701 211 
Q 384 513 384 1019 
Q 384 1609 779 1909 
Q 1175 2209 1959 2209 
L 2766 2209 
L 2766 2266 
Q 2766 2663 2505 2880 
Q 2244 3097 1772 3097 
Q 1472 3097 1187 3025 
Q 903 2953 641 2809 
L 641 3341 
Q 956 3463 1253 3523 
Q 1550 3584 1831 3584 
Q 2591 3584 2966 3190 
Q 3341 2797 3341 1997 
z
" transform="scale(0.015625)"/>
       <path id="DejaVuSans-78" d="M 3513 3500 
L 2247 1797 
L 3578 0 
L 2900 0 
L 1881 1375 
L 863 0 
L 184 0 
L 1544 1831 
L 300 3500 
L 978 3500 
L 1906 2253 
L 2834 3500 
L 3513 3500 
z
" transform="scale(0.015625)"/>
       <path id="DejaVuSans-28" d="M 1984 4856 
Q 1566 4138 1362 3434 
Q 1159 2731 1159 2009 
Q 1159 1288 1364 580 
Q 1569 -128 1984 -844 
L 1484 -844 
Q 1016 -109 783 600 
Q 550 1309 550 2009 
Q 550 2706 781 3412 
Q 1013 4119 1484 4856 
L 1984 4856 
z
" transform="scale(0.015625)"/>
       <path id="DejaVuSans-73" d="M 2834 3397 
L 2834 2853 
Q 2591 2978 2328 3040 
Q 2066 3103 1784 3103 
Q 1356 3103 1142 2972 
Q 928 2841 928 2578 
Q 928 2378 1081 2264 
Q 1234 2150 1697 2047 
L 1894 2003 
Q 2506 1872 2764 1633 
Q 3022 1394 3022 966 
Q 3022 478 2636 193 
Q 2250 -91 1575 -91 
Q 1294 -91 989 -36 
Q 684 19 347 128 
L 347 722 
Q 666 556 975 473 
Q 1284 391 1588 391 
Q 1994 391 2212 530 
Q 2431 669 2431 922 
Q 2431 1156 2273 1281 
Q 2116 1406 1581 1522 
L 1381 1569 
Q 847 1681 609 1914 
Q 372 2147 372 2553 
Q 372 3047 722 3315 
Q 1072 3584 1716 3584 
Q 2034 3584 2315 3537 
Q 2597 3491 2834 3397 
z
" transform="scale(0.015625)"/>
       <path id="DejaVuSans-70" d="M 1159 525 
L 1159 -1331 
L 581 -1331 
L 581 3500 
L 1159 3500 
L 1159 2969 
Q 1341 3281 1617 3432 
Q 1894 3584 2278 3584 
Q 2916 3584 3314 3078 
Q 3713 2572 3713 1747 
Q 3713 922 3314 415 
Q 2916 -91 2278 -91 
Q 1894 -91 1617 61 
Q 1341 213 1159 525 
z
M 3116 1747 
Q 3116 2381 2855 2742 
Q 2594 3103 2138 3103 
Q 1681 3103 1420 2742 
Q 1159 2381 1159 1747 
Q 1159 1113 1420 752 
Q 1681 391 2138 391 
Q 2594 391 2855 752 
Q 3116 1113 3116 1747 
z
" transform="scale(0.015625)"/>
       <path id="DejaVuSans-6c" d="M 603 4863 
L 1178 4863 
L 1178 0 
L 603 0 
L 603 4863 
z
" transform="scale(0.015625)"/>
       <path id="DejaVuSans-29" d="M 513 4856 
L 1013 4856 
Q 1481 4119 1714 3412 
Q 1947 2706 1947 2009 
Q 1947 1309 1714 600 
Q 1481 -109 1013 -844 
L 513 -844 
Q 928 -128 1133 580 
Q 1338 1288 1338 2009 
Q 1338 2731 1133 3434 
Q 928 4138 513 4856 
z
" transform="scale(0.015625)"/>
      </defs>
      <use xlink:href="#DejaVuSans-54"/>
      <use xlink:href="#DejaVuSans-69" x="57.958984"/>
      <use xlink:href="#DejaVuSans-6d" x="85.742188"/>
      <use xlink:href="#DejaVuSans-65" x="183.154297"/>
      <use xlink:href="#DejaVuSans-20" x="244.677734"/>
      <use xlink:href="#DejaVuSans-74" x="276.464844"/>
      <use xlink:href="#DejaVuSans-6f" x="315.673828"/>
      <use xlink:href="#DejaVuSans-20" x="376.855469"/>
      <use xlink:href="#DejaVuSans-6d" x="408.642578"/>
      <use xlink:href="#DejaVuSans-61" x="506.054688"/>
      <use xlink:href="#DejaVuSans-78" x="567.333984"/>
      <use xlink:href="#DejaVuSans-20" x="626.513672"/>
      <use xlink:href="#DejaVuSans-28" x="658.300781"/>
      <use xlink:href="#DejaVuSans-73" x="697.314453"/>
      <use xlink:href="#DejaVuSans-61" x="749.414062"/>
      <use xlink:href="#DejaVuSans-6d" x="810.693359"/>
      <use xlink:href="#DejaVuSans-70" x="908.105469"/>
      <use xlink:href="#DejaVuSans-6c" x="971.582031"/>
      <use xlink:href="#DejaVuSans-65" x="999.365234"/>
      <use xlink:href="#DejaVuSans-73" x="1060.888672"/>
      <use xlink:href="#DejaVuSans-29" x="1112.988281"/>
     </g>
    </g>
   </g>
   <g id="matplotlib.axis_2">
    <g id="ytick_1">
     <g id="line2d_6">
      <defs>
       <path id="med2b61ddd6" d="M 0 0 
L -3.5 0 
" style="stroke: #000000; stroke-width: 0.8"/>
      </defs>
      <g>
       <use xlink:href="#med2b61ddd6" x="42.620313" y="386.673013" style="stroke: #000000; stroke-width: 0.8"/>
      </g>
     </g>
     <g id="text_7">
      <!-- −6 -->
      <g transform="translate(20.878125 390.472232)scale(0.1 -0.1)">
       <defs>
        <path id="DejaVuSans-36" d="M 2113 2584 
Q 1688 2584 1439 2293 
Q 1191 2003 1191 1497 
Q 1191 994 1439 701 
Q 1688 409 2113 409 
Q 2538 409 2786 701 
Q 3034 994 3034 1497 
Q 3034 2003 2786 2293 
Q 2538 2584 2113 2584 
z
M 3366 4563 
L 3366 3988 
Q 3128 4100 2886 4159 
Q 2644 4219 2406 4219 
Q 1781 4219 1451 3797 
Q 1122 3375 1075 2522 
Q 1259 2794 1537 2939 
Q 1816 3084 2150 3084 
Q 2853 3084 3261 2657 
Q 3669 2231 3669 1497 
Q 3669 778 3244 343 
Q 2819 -91 2113 -91 
Q 1303 -91 875 529 
Q 447 1150 447 2328 
Q 447 3434 972 4092 
Q 1497 4750 2381 4750 
Q 2619 4750 2861 4703 
Q 3103 4656 3366 4563 
z
" transform="scale(0.015625)"/>
       </defs>
       <use xlink:href="#DejaVuSans-2212"/>
       <use xlink:href="#DejaVuSans-36" x="83.789062"/>
      </g>
     </g>
    </g>
    <g id="ytick_2">
     <g id="line2d_7">
      <g>
       <use xlink:href="#med2b61ddd6" x="42.620313" y="323.425263" style="stroke: #000000; stroke-width: 0.8"/>
      </g>
     </g>
     <g id="text_8">
      <!-- −4 -->
      <g transform="translate(20.878125 327.224482)scale(0.1 -0.1)">
       <defs>
        <path id="DejaVuSans-34" d="M 2419 4116 
L 825 1625 
L 2419 1625 
L 2419 4116 
z
M 2253 4666 
L 3047 4666 
L 3047 1625 
L 3713 1625 
L 3713 1100 
L 3047 1100 
L 3047 0 
L 2419 0 
L 2419 1100 
L 313 1100 
L 313 1709 
L 2253 4666 
z
" transform="scale(0.015625)"/>
       </defs>
       <use xlink:href="#DejaVuSans-2212"/>
       <use xlink:href="#DejaVuSans-34" x="83.789062"/>
      </g>
     </g>
    </g>
    <g id="ytick_3">
     <g id="line2d_8">
      <g>
       <use xlink:href="#med2b61ddd6" x="42.620313" y="260.177514" style="stroke: #000000; stroke-width: 0.8"/>
      </g>
     </g>
     <g id="text_9">
      <!-- −2 -->
      <g transform="translate(20.878125 263.976732)scale(0.1 -0.1)">
       <defs>
        <path id="DejaVuSans-32" d="M 1228 531 
L 3431 531 
L 3431 0 
L 469 0 
L 469 531 
Q 828 903 1448 1529 
Q 2069 2156 2228 2338 
Q 2531 2678 2651 2914 
Q 2772 3150 2772 3378 
Q 2772 3750 2511 3984 
Q 2250 4219 1831 4219 
Q 1534 4219 1204 4116 
Q 875 4013 500 3803 
L 500 4441 
Q 881 4594 1212 4672 
Q 1544 4750 1819 4750 
Q 2544 4750 2975 4387 
Q 3406 4025 3406 3419 
Q 3406 3131 3298 2873 
Q 3191 2616 2906 2266 
Q 2828 2175 2409 1742 
Q 1991 1309 1228 531 
z
" transform="scale(0.015625)"/>
       </defs>
       <use xlink:href="#DejaVuSans-2212"/>
       <use xlink:href="#DejaVuSans-32" x="83.789062"/>
      </g>
     </g>
    </g>
    <g id="ytick_4">
     <g id="line2d_9">
      <g>
       <use xlink:href="#med2b61ddd6" x="42.620313" y="196.929764" style="stroke: #000000; stroke-width: 0.8"/>
      </g>
     </g>
     <g id="text_10">
      <!-- 0 -->
      <g transform="translate(29.257813 200.728983)scale(0.1 -0.1)">
       <use xlink:href="#DejaVuSans-30"/>
      </g>
     </g>
    </g>
    <g id="ytick_5">
     <g id="line2d_10">
      <g>
       <use xlink:href="#med2b61ddd6" x="42.620313" y="133.682014" style="stroke: #000000; stroke-width: 0.8"/>
      </g>
     </g>
     <g id="text_11">
      <!-- 2 -->
      <g transform="translate(29.257813 137.481233)scale(0.1 -0.1)">
       <use xlink:href="#DejaVuSans-32"/>
      </g>
     </g>
    </g>
    <g id="ytick_6">
     <g id="line2d_11">
      <g>
       <use xlink:href="#med2b61ddd6" x="42.620313" y="70.434264" style="stroke: #000000; stroke-width: 0.8"/>
      </g>
     </g>
     <g id="text_12">
      <!-- 4 -->
      <g transform="translate(29.257813 74.233483)scale(0.1 -0.1)">
       <use xlink:href="#DejaVuSans-34"/>
      </g>
     </g>
    </g>
    <g id="text_13">
     <!-- Velocity (AU) -->
     <g transform="translate(14.798438 233.425937)rotate(-90)scale(0.1 -0.1)">
      <defs>
       <path id="DejaVuSans-56" d="M 1831 0 
L 50 4666 
L 709 4666 
L 2188 738 
L 3669 4666 
L 4325 4666 
L 2547 0 
L 1831 0 
z
" transform="scale(0.015625)"/>
       <path id="DejaVuSans-63" d="M 3122 3366 
L 3122 2828 
Q 2878 2963 2633 3030 
Q 2388 3097 2138 3097 
Q 1578 3097 1268 2742 
Q 959 2388 959 1747 
Q 959 1106 1268 751 
Q 1578 397 2138 397 
Q 2388 397 2633 464 
Q 2878 531 3122 666 
L 3122 134 
Q 2881 22 2623 -34 
Q 2366 -91 2075 -91 
Q 1284 -91 818 406 
Q 353 903 353 1747 
Q 353 2603 823 3093 
Q 1294 3584 2113 3584 
Q 2378 3584 2631 3529 
Q 2884 3475 3122 3366 
z
" transform="scale(0.015625)"/>
       <path id="DejaVuSans-79" d="M 2059 -325 
Q 1816 -950 1584 -1140 
Q 1353 -1331 966 -1331 
L 506 -1331 
L 506 -850 
L 844 -850 
Q 1081 -850 1212 -737 
Q 1344 -625 1503 -206 
L 1606 56 
L 191 3500 
L 800 3500 
L 1894 763 
L 2988 3500 
L 3597 3500 
L 2059 -325 
z
" transform="scale(0.015625)"/>
       <path id="DejaVuSans-41" d="M 2188 4044 
L 1331 1722 
L 3047 1722 
L 2188 4044 
z
M 1831 4666 
L 2547 4666 
L 4325 0 
L 3669 0 
L 3244 1197 
L 1141 1197 
L 716 0 
L 50 0 
L 1831 4666 
z
" transform="scale(0.015625)"/>
       <path id="DejaVuSans-55" d="M 556 4666 
L 1191 4666 
L 1191 1831 
Q 1191 1081 1462 751 
Q 1734 422 2344 422 
Q 2950 422 3222 751 
Q 3494 1081 3494 1831 
L 3494 4666 
L 4128 4666 
L 4128 1753 
Q 4128 841 3676 375 
Q 3225 -91 2344 -91 
Q 1459 -91 1007 375 
Q 556 841 556 1753 
L 556 4666 
z
" transform="scale(0.015625)"/>
      </defs>
      <use xlink:href="#DejaVuSans-56"/>
      <use xlink:href="#DejaVuSans-65" x="60.658203"/>
      <use xlink:href="#DejaVuSans-6c" x="122.181641"/>
      <use xlink:href="#DejaVuSans-6f" x="149.964844"/>
      <use xlink:href="#DejaVuSans-63" x="211.146484"/>
      <use xlink:href="#DejaVuSans-69" x="266.126953"/>
      <use xlink:href="#DejaVuSans-74" x="293.910156"/>
      <use xlink:href="#DejaVuSans-79" x="333.119141"/>
      <use xlink:href="#DejaVuSans-20" x="392.298828"/>
      <use xlink:href="#DejaVuSans-28" x="424.085938"/>
      <use xlink:href="#DejaVuSans-41" x="463.099609"/>
      <use xlink:href="#DejaVuSans-55" x="531.507812"/>
      <use xlink:href="#DejaVuSans-29" x="604.701172"/>
     </g>
    </g>
   </g>
   <g id="line2d_12">
    <path d="M 87.743991 197.686059 
L 94.822215 197.360232 
L 98.361327 195.506256 
L 101.900439 196.203224 
L 105.439551 197.780172 
L 108.978663 196.754612 
L 112.517776 196.955946 
L 116.056888 196.281893 
L 119.596 196.160925 
L 123.135112 198.487475 
L 126.674224 198.057107 
L 130.213336 196.225981 
L 133.752448 196.942114 
L 137.29156 196.960697 
L 140.830672 196.507743 
L 144.369784 197.386863 
L 147.908896 196.665113 
L 151.448008 195.760727 
L 154.98712 196.769058 
L 158.526232 197.177459 
L 162.065344 197.722591 
L 165.604456 196.785216 
L 169.143568 196.566592 
L 172.68268 198.23471 
L 176.221792 197.034467 
L 179.760904 197.082435 
L 183.300017 196.508749 
L 186.839129 195.628504 
L 190.378241 196.725589 
L 197.456465 197.965794 
L 200.995577 196.451104 
L 204.534689 196.209679 
L 211.612913 197.111933 
L 215.152025 198.69155 
L 218.691137 196.423447 
L 222.230249 195.785625 
L 225.769361 197.497064 
L 229.308473 197.422713 
L 232.847585 197.959002 
L 236.386697 195.356849 
L 239.925809 195.500791 
L 243.464921 197.746905 
L 247.004033 196.395135 
L 250.543145 197.873349 
L 254.082258 197.977926 
L 257.62137 196.658138 
L 261.160482 196.949776 
L 264.699594 196.433298 
L 268.238706 196.592717 
L 271.777818 197.095892 
L 275.31693 197.129845 
L 278.856042 196.921404 
L 282.395154 196.414363 
L 285.934266 197.527208 
L 289.473378 197.94257 
L 293.01249 194.482409 
L 296.551602 196.766651 
L 300.090714 198.008067 
L 303.629826 197.667037 
L 307.168938 197.057727 
L 310.70805 196.186854 
L 314.247162 198.939104 
L 317.786274 194.817591 
L 321.325386 200.076604 
L 324.864499 193.773754 
L 328.403611 194.123828 
L 331.942723 199.190776 
L 335.481835 190.942143 
L 339.020947 208.794063 
L 342.560059 200.087561 
L 346.099171 188.149543 
L 349.638283 189.156145 
L 353.177395 200.785297 
L 356.716507 209.109638 
L 360.255619 189.256863 
L 363.794731 202.330914 
L 367.333843 192.640812 
L 370.872955 192.244373 
L 374.412067 200.383238 
L 377.951179 190.582541 
L 381.490291 209.2556 
L 385.029403 190.232703 
L 388.568515 192.442247 
L 392.107628 202.719477 
L 395.64674 191.068793 
L 399.185852 209.558061 
L 402.724964 189.451665 
L 406.264076 187.145415 
L 409.803188 216.409913 
L 413.3423 205.637204 
L 416.881412 185.93991 
L 420.420524 186.937964 
L 423.959636 200.79872 
L 427.498748 188.854007 
L 431.03786 196.34129 
L 434.576972 172.245433 
L 438.116084 188.123155 
L 441.655196 244.644459 
L 445.194308 237.576685 
L 448.73342 205.193633 
L 452.272532 114.242192 
L 455.811644 266.134419 
L 459.350756 191.174267 
L 462.889869 24.84 
L 466.428981 333.413214 
L 469.968093 254.392702 
L 473.507205 106.395792 
L 477.046317 189.010386 
L 480.585429 281.033376 
L 484.124541 213.369586 
L 487.663653 66.801374 
L 491.202765 325.264523 
L 494.741877 162.117076 
L 498.280989 81.716508 
L 501.820101 315.585881 
L 505.359213 143.724421 
L 508.898325 220.158033 
L 512.437437 229.785266 
L 515.976549 155.898773 
L 519.515661 258.186387 
L 523.054773 185.047256 
L 526.593885 124.024514 
L 530.132997 140.083134 
L 533.67211 289.022653 
L 537.211222 267.568619 
L 540.750334 117.222189 
L 544.289446 183.769204 
L 547.828558 212.542426 
L 551.36767 236.541357 
L 554.906782 179.895205 
L 558.445894 135.944656 
L 561.985006 234.022337 
L 565.524118 224.458839 
L 569.06323 181.821156 
L 572.602342 181.396492 
L 576.141454 207.914666 
L 579.680566 209.33295 
L 583.219678 189.733552 
L 586.75879 180.894241 
L 590.297902 195.511027 
L 593.837014 212.9305 
L 597.376126 185.148633 
L 600.915239 205.426614 
L 604.454351 214.45215 
L 607.993463 177.297161 
L 611.532575 178.026366 
L 615.071687 219.49563 
L 618.610799 214.542715 
L 622.149911 176.744712 
L 625.689023 197.721323 
L 629.228135 192.644084 
L 632.767247 189.687951 
L 636.306359 201.27037 
L 639.845471 196.235401 
L 643.384583 202.516994 
L 646.923695 209.184358 
L 650.462807 210.487827 
L 654.001919 171.341402 
L 657.541031 185.452878 
L 661.080143 209.461152 
L 664.619255 192.417481 
L 668.158367 205.773166 
L 671.69748 189.471533 
L 675.236592 189.964865 
L 678.775704 213.634737 
L 682.314816 199.856866 
L 685.853928 188.344594 
L 689.39304 191.928153 
L 692.932152 197.64988 
L 696.471264 201.471358 
L 700.010376 197.287636 
L 703.549488 196.808607 
L 707.0886 199.587623 
L 710.627712 188.229309 
L 714.166824 199.226987 
L 717.705936 200.465845 
L 721.245048 189.303514 
L 724.78416 208.244963 
L 728.323272 196.884225 
L 731.862384 197.504589 
L 735.401496 203.237222 
L 738.940608 180.820595 
L 742.479721 187.810967 
L 746.018833 199.004687 
L 749.557945 205.887899 
L 753.097057 202.086164 
L 756.636169 199.663461 
L 760.175281 202.538941 
L 763.714393 191.000817 
L 767.253505 192.221704 
L 770.792617 190.643763 
L 774.331729 196.396523 
L 777.870841 208.235265 
L 781.409953 195.085155 
L 784.949065 193.04542 
L 788.488177 195.03523 
L 792.027289 194.269367 
L 795.566401 203.354882 
L 795.566401 203.354882 
" clip-path="url(#p9d9cf3c638)" style="fill: none; stroke: #000000; stroke-width: 1.5; stroke-linecap: square"/>
   </g>
   <g id="line2d_13">
    <path d="M 87.743991 201.86014 
L 91.283103 199.163707 
L 94.822215 190.129305 
L 98.361327 186.579632 
L 101.900439 196.765854 
L 105.439551 198.188239 
L 108.978663 193.893853 
L 112.517776 202.01596 
L 116.056888 199.506337 
L 119.596 202.534176 
L 123.135112 202.603247 
L 126.674224 193.881837 
L 130.213336 196.713332 
L 133.752448 190.749793 
L 137.29156 194.481154 
L 140.830672 194.442216 
L 144.369784 187.144746 
L 147.908896 200.742693 
L 151.448008 203.091601 
L 154.98712 205.807412 
L 158.526232 203.767375 
L 162.065344 192.011849 
L 165.604456 195.585147 
L 169.143568 190.939349 
L 172.68268 196.198675 
L 176.221792 196.144313 
L 179.760904 185.780636 
L 183.300017 204.945756 
L 186.839129 208.962768 
L 190.378241 195.435674 
L 193.917353 196.210651 
L 197.456465 193.564938 
L 200.995577 193.605112 
L 204.534689 196.945761 
L 208.073801 196.284175 
L 211.612913 198.679537 
L 215.152025 188.825107 
L 218.691137 195.691401 
L 222.230249 217.214564 
L 225.769361 204.391392 
L 229.308473 186.676046 
L 232.847585 186.017811 
L 236.386697 196.730618 
L 239.925809 197.072247 
L 243.464921 191.803463 
L 247.004033 203.430428 
L 250.543145 201.380764 
L 254.082258 196.764979 
L 257.62137 197.049101 
L 261.160482 197.914804 
L 264.699594 198.370326 
L 268.238706 187.061046 
L 271.777818 199.805846 
L 275.31693 201.276847 
L 278.856042 190.981179 
L 282.395154 201.970264 
L 285.934266 196.834672 
L 289.473378 198.511369 
L 293.01249 196.388823 
L 296.551602 194.040627 
L 300.090714 197.227862 
L 303.629826 198.521619 
L 307.168938 202.474586 
L 310.70805 186.675536 
L 314.247162 196.255446 
L 317.786274 199.845876 
L 321.325386 191.779723 
L 324.864499 199.774782 
L 328.403611 202.724864 
L 331.942723 204.120404 
L 335.481835 191.680669 
L 339.020947 197.529862 
L 342.560059 201.314947 
L 346.099171 190.763239 
L 349.638283 181.997565 
L 353.177395 186.910398 
L 356.716507 213.430495 
L 360.255619 210.716699 
L 363.794731 199.964912 
L 367.333843 196.910243 
L 374.412067 187.163419 
L 377.951179 189.150095 
L 381.490291 209.21719 
L 385.029403 200.755764 
L 388.568515 181.863279 
L 395.64674 211.667286 
L 399.185852 205.289342 
L 402.724964 184.974916 
L 406.264076 186.57098 
L 409.803188 209.097955 
L 413.3423 209.841808 
L 416.881412 187.736599 
L 420.420524 194.815683 
L 423.959636 203.556558 
L 427.498748 179.985875 
L 431.03786 190.458873 
L 434.576972 165.303432 
L 438.116084 199.597382 
L 441.655196 250.79503 
L 445.194308 242.367962 
L 448.73342 191.379583 
L 452.272532 112.834851 
L 455.811644 286.217309 
L 459.350756 141.908641 
L 462.889869 53.677767 
L 466.428981 377.64 
L 469.968093 205.702342 
L 473.507205 102.522479 
L 477.046317 225.19747 
L 480.585429 277.967657 
L 484.124541 149.947397 
L 487.663653 115.103241 
L 491.202765 339.515492 
L 494.741877 105.801532 
L 498.280989 150.838983 
L 501.820101 286.327666 
L 505.359213 123.181183 
L 508.898325 250.784043 
L 512.437437 201.805545 
L 515.976549 189.764159 
L 519.515661 253.107213 
L 523.054773 160.487444 
L 526.593885 124.429208 
L 530.132997 160.144233 
L 533.67211 298.555303 
L 537.211222 227.511236 
L 540.750334 128.692311 
L 544.289446 194.126342 
L 547.828558 205.976327 
L 551.36767 249.261003 
L 554.906782 179.430428 
L 558.445894 137.404663 
L 561.985006 245.889703 
L 565.524118 209.346641 
L 569.06323 154.45323 
L 572.602342 198.111445 
L 576.141454 206.096775 
L 579.680566 208.424136 
L 583.219678 212.278605 
L 586.75879 171.320726 
L 590.297902 196.963511 
L 593.837014 215.533044 
L 597.376126 174.137048 
L 600.915239 204.106806 
L 604.454351 217.817618 
L 607.993463 182.107493 
L 611.532575 172.857573 
L 615.071687 212.286739 
L 618.610799 217.116296 
L 622.149911 189.88827 
L 625.689023 199.379296 
L 629.228135 184.153836 
L 632.767247 190.521362 
L 636.306359 199.676651 
L 639.845471 196.950865 
L 643.384583 199.797188 
L 646.923695 207.648335 
L 650.462807 214.985724 
L 654.001919 165.117561 
L 657.541031 188.953217 
L 661.080143 221.986905 
L 664.619255 188.925693 
L 668.158367 195.321587 
L 671.69748 190.159259 
L 675.236592 194.914513 
L 678.775704 210.198577 
L 682.314816 200.971481 
L 685.853928 193.06274 
L 689.39304 191.377331 
L 692.932152 190.658959 
L 696.471264 194.691653 
L 700.010376 206.604009 
L 703.549488 202.893411 
L 707.0886 192.598334 
L 710.627712 186.321064 
L 714.166824 203.906619 
L 717.705936 205.866271 
L 721.245048 191.23226 
L 724.78416 202.949119 
L 728.323272 193.636325 
L 731.862384 192.869797 
L 735.401496 194.420817 
L 738.940608 183.848246 
L 742.479721 198.269652 
L 746.018833 207.471994 
L 749.557945 202.806314 
L 753.097057 201.503904 
L 756.636169 201.190307 
L 760.175281 192.608696 
L 763.714393 196.991095 
L 767.253505 193.207549 
L 770.792617 181.028842 
L 774.331729 204.147855 
L 777.870841 205.354034 
L 781.409953 187.115974 
L 784.949065 195.867514 
L 788.488177 197.799927 
L 792.027289 204.709031 
L 795.566401 201.560436 
L 795.566401 201.560436 
" clip-path="url(#p9d9cf3c638)" style="fill: none; stroke: #696969; stroke-width: 0.75; stroke-linecap: square"/>
   </g>
   <g id="line2d_14">
    <path d="M 133.752448 198.395518 
L 137.29156 198.555847 
L 140.830672 198.038244 
L 144.369784 195.700559 
L 147.908896 197.089846 
L 151.448008 196.53276 
L 154.98712 194.343989 
L 158.526232 196.787861 
L 162.065344 198.150479 
L 165.604456 196.630616 
L 169.143568 198.255542 
L 172.68268 197.508462 
L 176.221792 195.16889 
L 179.760904 198.420319 
L 183.300017 197.23234 
L 186.839129 195.315879 
L 190.378241 196.917318 
L 193.917353 197.591865 
L 197.456465 196.66558 
L 200.995577 196.379142 
L 204.534689 199.022233 
L 208.073801 196.739856 
L 211.612913 196.375753 
L 215.152025 196.244825 
L 218.691137 195.47941 
L 222.230249 198.934739 
L 225.769361 195.259389 
L 229.308473 195.621346 
L 232.847585 199.591556 
L 236.386697 197.16461 
L 239.925809 198.226741 
L 243.464921 197.382861 
L 247.004033 196.220917 
L 250.543145 196.709604 
L 254.082258 194.051186 
L 257.62137 195.85434 
L 261.160482 197.995438 
L 264.699594 199.499784 
L 268.238706 195.340708 
L 271.777818 195.976082 
L 275.31693 202.320122 
L 278.856042 193.636895 
L 282.395154 196.614559 
L 285.934266 198.317969 
L 289.473378 193.631203 
L 293.01249 199.483473 
L 296.551602 194.213672 
L 300.090714 198.453445 
L 303.629826 197.705494 
L 307.168938 194.84385 
L 310.70805 200.216968 
L 314.247162 195.366404 
L 317.786274 200.508618 
L 321.325386 193.710238 
L 324.864499 196.452154 
L 328.403611 195.9487 
L 331.942723 190.044791 
L 335.481835 208.259256 
L 339.020947 198.801347 
L 342.560059 190.889808 
L 346.099171 191.310939 
L 349.638283 203.360825 
L 353.177395 203.197881 
L 356.716507 189.404886 
L 360.255619 204.17028 
L 363.794731 188.472707 
L 367.333843 196.181619 
L 370.872955 203.214186 
L 374.412067 187.212223 
L 377.951179 206.898237 
L 381.490291 194.99904 
L 385.029403 192.226278 
L 388.568515 199.779539 
L 392.107628 193.51203 
L 395.64674 205.05101 
L 399.185852 186.618103 
L 402.724964 195.844517 
L 406.264076 217.569992 
L 409.803188 199.983336 
L 413.3423 187.596598 
L 416.881412 186.679221 
L 420.420524 206.257205 
L 423.959636 182.844385 
L 427.498748 190.879718 
L 431.03786 182.639006 
L 434.576972 185.60527 
L 438.116084 236.124598 
L 441.655196 229.593036 
L 445.194308 234.634043 
L 448.73342 122.072494 
L 452.272532 232.017849 
L 455.811644 196.712919 
L 459.350756 31.868298 
L 462.889869 328.901831 
L 466.428981 250.265578 
L 469.968093 114.814749 
L 473.507205 206.657449 
L 477.046317 261.899615 
L 480.585429 195.308648 
L 484.124541 98.480063 
L 487.663653 327.156526 
L 491.202765 118.55449 
L 494.741877 113.365841 
L 498.280989 332.308366 
L 501.820101 106.981929 
L 505.359213 250.172423 
L 508.898325 223.107918 
L 512.437437 128.506199 
L 515.976549 283.503699 
L 523.054773 104.553962 
L 526.593885 143.288844 
L 530.132997 308.953621 
L 533.67211 241.984485 
L 537.211222 123.394938 
L 540.750334 197.104337 
L 544.289446 197.813587 
L 547.828558 243.499795 
L 551.36767 174.364671 
L 554.906782 139.084889 
L 558.445894 240.84711 
L 565.524118 185.214351 
L 569.06323 194.922312 
L 572.602342 193.606707 
L 576.141454 203.451796 
L 579.680566 197.003821 
L 583.219678 183.239021 
L 586.75879 201.012078 
L 590.297902 204.572844 
L 593.837014 183.986739 
L 597.376126 207.175146 
L 600.915239 212.52879 
L 604.454351 186.068736 
L 607.993463 173.616466 
L 611.532575 209.740753 
L 615.071687 226.419302 
L 618.610799 178.108531 
L 622.149911 187.586817 
L 625.689023 198.966967 
L 629.228135 196.736141 
L 632.767247 189.367427 
L 636.306359 191.537464 
L 639.845471 211.246828 
L 643.384583 210.001249 
L 646.923695 211.625833 
L 650.462807 165.445474 
L 654.001919 192.332512 
L 657.541031 214.060973 
L 661.080143 182.25444 
L 664.619255 208.439193 
L 668.158367 184.769362 
L 671.69748 189.415354 
L 675.236592 219.016845 
L 678.775704 202.252354 
L 682.314816 187.494772 
L 685.853928 187.057728 
L 689.39304 201.858112 
L 692.932152 199.959617 
L 696.471264 197.297713 
L 700.010376 200.7954 
L 703.549488 193.652155 
L 707.0886 190.986888 
L 710.627712 200.541897 
L 714.166824 193.303081 
L 717.705936 194.971381 
L 721.245048 206.958367 
L 724.78416 196.504329 
L 728.323272 200.782305 
L 731.862384 197.948095 
L 735.401496 189.141187 
L 738.940608 184.650682 
L 742.479721 195.459321 
L 746.018833 208.719133 
L 749.557945 196.759571 
L 753.097057 205.580854 
L 756.636169 198.203011 
L 760.175281 192.204635 
L 763.714393 198.473306 
L 767.253505 184.356598 
L 770.792617 198.556255 
L 774.331729 205.139149 
L 777.870841 195.790001 
L 781.409953 197.677216 
L 784.949065 190.699754 
L 788.488177 195.782078 
L 792.027289 204.167674 
L 795.566401 197.300652 
L 799.105513 196.102048 
L 802.644625 197.496301 
L 806.183737 196.287196 
L 809.722849 192.690523 
L 813.261962 197.137276 
L 816.801074 202.721426 
L 820.340186 192.89935 
L 823.879298 198.133443 
L 827.41841 200.277419 
L 830.957522 190.590548 
L 834.496634 192.769334 
L 838.035746 203.922567 
L 841.574858 205.420522 
L 841.574858 205.420522 
" clip-path="url(#p9d9cf3c638)" style="fill: none; stroke: #696969; stroke-width: 0.75; stroke-linecap: square"/>
   </g>
   <g id="line2d_15">
    <path d="M 80.665767 190.674514 
L 84.204879 200.295588 
L 87.743991 200.304992 
L 91.283103 198.627704 
L 94.822215 198.025421 
L 98.361327 198.158108 
L 101.900439 197.823539 
L 105.439551 195.402773 
L 108.978663 187.669514 
L 112.517776 191.475476 
L 116.056888 205.628986 
L 119.596 204.555666 
L 126.674224 189.488279 
L 130.213336 198.790509 
L 133.752448 206.830923 
L 137.29156 191.482402 
L 140.830672 187.794326 
L 144.369784 192.570241 
L 147.908896 201.449708 
L 151.448008 203.611197 
L 154.98712 196.10729 
L 158.526232 204.027367 
L 165.604456 190.242082 
L 169.143568 195.003048 
L 172.68268 195.695709 
L 176.221792 200.211698 
L 179.760904 191.85197 
L 183.300017 189.824661 
L 186.839129 198.199339 
L 190.378241 205.085759 
L 193.917353 204.629568 
L 197.456465 195.242092 
L 200.995577 200.743313 
L 204.534689 201.975968 
L 211.612913 183.874148 
L 215.152025 181.165157 
L 218.691137 197.883309 
L 222.230249 209.239874 
L 225.769361 209.055117 
L 229.308473 203.467774 
L 232.847585 198.85197 
L 236.386697 191.140574 
L 239.925809 181.198215 
L 243.464921 193.491261 
L 247.004033 200.623198 
L 250.543145 200.786622 
L 254.082258 200.734397 
L 257.62137 195.69547 
L 261.160482 202.560227 
L 264.699594 198.724677 
L 268.238706 191.181012 
L 271.777818 193.244165 
L 278.856042 199.193808 
L 282.395154 198.377192 
L 285.934266 197.329284 
L 289.473378 194.662704 
L 293.01249 197.616619 
L 296.551602 195.976207 
L 300.090714 196.590759 
L 303.629826 199.652947 
L 307.168938 195.73524 
L 310.70805 200.576546 
L 314.247162 195.894584 
L 317.786274 197.36161 
L 321.325386 193.684784 
L 324.864499 189.744325 
L 328.403611 203.502221 
L 331.942723 198.027394 
L 335.481835 197.917976 
L 339.020947 197.205855 
L 342.560059 196.79966 
L 346.099171 198.244205 
L 349.638283 192.900315 
L 353.177395 196.548426 
L 356.716507 198.817346 
L 360.255619 201.405767 
L 363.794731 195.235455 
L 367.333843 195.247895 
L 370.872955 193.041999 
L 374.412067 187.869914 
L 377.951179 203.729929 
L 381.490291 208.480649 
L 385.029403 198.275642 
L 388.568515 194.25915 
L 392.107628 190.069587 
L 395.64674 198.016223 
L 399.185852 193.779863 
L 402.724964 181.824789 
L 406.264076 210.908289 
L 409.803188 219.197575 
L 413.3423 203.853667 
L 416.881412 183.506608 
L 420.420524 190.297948 
L 423.959636 186.824158 
L 427.498748 189.431254 
L 431.03786 198.099837 
L 434.576972 158.147723 
L 438.116084 220.352842 
L 441.655196 235.402816 
L 445.194308 253.374356 
L 448.73342 167.309305 
L 452.272532 158.287993 
L 455.811644 269.288125 
L 459.350756 32.853402 
L 462.889869 206.975746 
L 466.428981 348.122623 
L 469.968093 122.573966 
L 473.507205 167.770584 
L 477.046317 241.428837 
L 480.585429 246.105445 
L 484.124541 98.210429 
L 487.663653 260.050275 
L 491.202765 230.723531 
L 494.741877 41.207594 
L 498.280989 311.659902 
L 501.820101 177.76528 
L 505.359213 166.68303 
L 508.898325 278.439954 
L 512.437437 126.898535 
L 515.976549 244.703671 
L 519.515661 246.347679 
L 523.054773 127.0148 
L 526.593885 90.07661 
L 530.132997 245.212756 
L 533.67211 311.480695 
L 537.211222 147.420314 
L 540.750334 176.915623 
L 544.289446 192.086326 
L 547.828558 230.454725 
L 551.36767 221.017505 
L 554.906782 118.560788 
L 558.445894 198.681441 
L 561.985006 233.242751 
L 565.524118 201.597772 
L 569.06323 201.536508 
L 572.602342 181.93986 
L 579.680566 212.393685 
L 583.219678 178.477558 
L 586.75879 184.777864 
L 590.297902 209.842306 
L 593.837014 192.708638 
L 597.376126 207.558451 
L 600.915239 216.25157 
L 604.454351 187.627681 
L 607.993463 165.571837 
L 611.532575 189.30616 
L 615.071687 231.739274 
L 618.610799 203.778986 
L 622.149911 192.071948 
L 625.689023 193.019596 
L 629.228135 187.279418 
L 632.767247 195.167164 
L 636.306359 182.646071 
L 639.845471 199.789669 
L 643.384583 209.683075 
L 646.923695 223.264876 
L 650.462807 193.544915 
L 654.001919 172.705812 
L 657.541031 202.375274 
L 661.080143 184.713273 
L 664.619255 209.898356 
L 668.158367 204.559256 
L 671.69748 176.555592 
L 675.236592 206.902646 
L 678.775704 202.893023 
L 682.314816 190.895952 
L 685.853928 195.860804 
L 689.39304 194.118424 
L 692.932152 196.267967 
L 696.471264 203.425632 
L 700.010376 203.202841 
L 703.549488 205.142418 
L 707.0886 191.593106 
L 710.627712 182.373702 
L 714.166824 193.211401 
L 717.705936 193.210559 
L 721.245048 205.051667 
L 724.78416 200.240784 
L 728.323272 200.61797 
L 731.862384 208.652831 
L 735.401496 191.567784 
L 738.940608 185.743055 
L 742.479721 182.99966 
L 746.018833 201.949807 
L 749.557945 206.819607 
L 753.097057 197.295261 
L 756.636169 205.743501 
L 760.175281 198.013271 
L 763.714393 196.774458 
L 767.253505 188.824252 
L 770.792617 187.223103 
L 774.331729 201.107411 
L 777.870841 200.467054 
L 781.409953 199.670341 
L 784.949065 194.70373 
L 788.488177 192.926669 
L 788.488177 192.926669 
" clip-path="url(#p9d9cf3c638)" style="fill: none; stroke: #696969; stroke-width: 0.75; stroke-linecap: square"/>
   </g>
   <g id="line2d_16">
    <path d="M 87.743991 203.17297 
L 91.283103 211.016412 
L 94.822215 205.305407 
L 98.361327 206.042302 
L 101.900439 180.609749 
L 105.439551 184.331837 
L 108.978663 191.763029 
L 112.517776 210.580174 
L 116.056888 203.327617 
L 119.596 173.757995 
L 123.135112 201.906264 
L 126.674224 207.036215 
L 130.213336 203.96491 
L 133.752448 188.785624 
L 137.29156 170.348937 
L 140.830672 215.298758 
L 144.369784 223.803416 
L 147.908896 214.776185 
L 151.448008 193.785704 
L 154.98712 166.630097 
L 158.526232 174.352516 
L 162.065344 170.539876 
L 165.604456 199.193474 
L 169.143568 224.727242 
L 172.68268 230.377743 
L 176.221792 234.845092 
L 179.760904 188.801213 
L 183.300017 157.913522 
L 186.839129 169.918004 
L 190.378241 179.291871 
L 193.917353 207.394745 
L 197.456465 226.846321 
L 200.995577 211.469705 
L 204.534689 189.059832 
L 208.073801 179.710176 
L 211.612913 187.318962 
L 215.152025 201.340579 
L 218.691137 219.968765 
L 222.230249 198.709398 
L 225.769361 191.200997 
L 229.308473 209.147333 
L 232.847585 178.983647 
L 236.386697 180.106027 
L 239.925809 202.221805 
L 243.464921 201.172196 
L 247.004033 204.916345 
L 250.543145 199.40942 
L 254.082258 194.23797 
L 257.62137 191.036125 
L 261.160482 188.281236 
L 264.699594 193.897354 
L 268.238706 213.107581 
L 271.777818 213.239469 
L 275.31693 207.756196 
L 278.856042 199.693202 
L 282.395154 160.936514 
L 285.934266 179.914143 
L 289.473378 194.764735 
L 293.01249 199.066388 
L 296.551602 220.598309 
L 300.090714 201.008082 
L 303.629826 208.125075 
L 307.168938 185.837174 
L 310.70805 187.287545 
L 314.247162 210.580724 
L 317.786274 189.516353 
L 321.325386 205.175516 
L 324.864499 193.609503 
L 328.403611 188.369071 
L 331.942723 194.04156 
L 335.481835 183.737728 
L 339.020947 197.842686 
L 342.560059 202.241334 
L 346.099171 213.861107 
L 349.638283 204.251187 
L 353.177395 191.052956 
L 356.716507 203.712021 
L 360.255619 192.830188 
L 363.794731 184.594251 
L 367.333843 189.397318 
L 370.872955 198.990925 
L 374.412067 217.249525 
L 377.951179 193.428703 
L 381.490291 172.470535 
L 385.029403 202.808453 
L 388.568515 203.716711 
L 392.107628 201.734534 
L 395.64674 201.805174 
L 399.185852 183.957824 
L 402.724964 208.809891 
L 406.264076 206.631126 
L 409.803188 189.367158 
L 413.3423 179.953202 
L 416.881412 198.34652 
L 420.420524 236.305007 
L 423.959636 169.957524 
L 427.498748 174.723855 
L 431.03786 183.692381 
L 434.576972 175.398227 
L 438.116084 243.332013 
L 441.655196 252.295631 
L 445.194308 217.809069 
L 448.73342 114.958251 
L 452.272532 231.805649 
L 455.811644 210.004739 
L 459.350756 34.842334 
L 462.889869 285.048217 
L 466.428981 311.483895 
L 469.968093 101.450861 
L 473.507205 178.488625 
L 477.046317 309.59099 
L 480.585429 144.308103 
L 484.124541 123.172702 
L 487.663653 308.963694 
L 491.202765 119.666134 
L 494.741877 141.218145 
L 498.280989 278.292261 
L 501.820101 172.454954 
L 505.359213 233.137076 
L 508.898325 198.66028 
L 512.437437 142.171463 
L 515.976549 266.775552 
L 519.515661 226.957667 
L 523.054773 84.447875 
L 526.593885 169.704372 
L 530.132997 282.341758 
L 533.67211 233.373488 
L 537.211222 158.357435 
L 540.750334 147.83014 
L 544.289446 215.587554 
L 547.828558 219.019177 
L 551.36767 205.521545 
L 554.906782 188.015083 
L 558.445894 177.053841 
L 561.985006 230.523791 
L 565.524118 213.442896 
L 569.06323 171.719169 
L 572.602342 164.337686 
L 576.141454 203.16889 
L 579.680566 214.305846 
L 583.219678 190.030011 
L 586.75879 211.093437 
L 590.297902 200.852676 
L 593.837014 194.681462 
L 597.376126 203.372965 
L 600.915239 179.740374 
L 604.454351 170.941599 
L 607.993463 202.067455 
L 611.532575 231.201923 
L 615.071687 217.110171 
L 618.610799 189.941573 
L 622.149911 182.48214 
L 625.689023 173.442943 
L 629.228135 175.77273 
L 632.767247 217.596813 
L 636.306359 221.333903 
L 639.845471 192.86991 
L 643.384583 200.275024 
L 646.923695 202.269863 
L 650.462807 186.930502 
L 654.001919 179.35495 
L 657.541031 192.471116 
L 661.080143 213.698402 
L 664.619255 210.240028 
L 668.158367 194.217485 
L 671.69748 202.000031 
L 675.236592 198.191831 
L 678.775704 166.351493 
L 682.314816 175.059085 
L 685.853928 213.863294 
L 689.39304 224.163538 
L 696.471264 195.781398 
L 700.010376 188.111979 
L 703.549488 191.19559 
L 707.0886 177.189806 
L 710.627712 176.062157 
L 714.166824 224.042229 
L 717.705936 225.475455 
L 721.245048 187.754242 
L 724.78416 189.014041 
L 728.323272 200.790756 
L 731.862384 198.922863 
L 735.401496 185.985201 
L 738.940608 179.003372 
L 742.479721 214.856389 
L 746.018833 218.74259 
L 749.557945 171.335724 
L 756.636169 208.775238 
L 760.175281 197.484321 
L 763.714393 200.74282 
L 767.253505 182.461911 
L 770.792617 205.660885 
L 774.331729 222.472646 
L 777.870841 188.134799 
L 781.409953 185.736858 
L 784.949065 185.800713 
L 788.488177 199.577532 
L 792.027289 205.272291 
L 795.566401 183.032568 
L 795.566401 183.032568 
" clip-path="url(#p9d9cf3c638)" style="fill: none; stroke: #696969; stroke-width: 0.75; stroke-linecap: square"/>
   </g>
   <g id="patch_3">
    <path d="M 42.620313 395.28 
L 42.620313 7.2 
" style="fill: none; stroke: #000000; stroke-width: 0.8; stroke-linejoin: miter; stroke-linecap: square"/>
   </g>
   <g id="patch_4">
    <path d="M 879.620312 395.28 
L 879.620312 7.2 
" style="fill: none; stroke: #000000; stroke-width: 0.8; stroke-linejoin: miter; stroke-linecap: square"/>
   </g>
   <g id="patch_5">
    <path d="M 42.620313 395.28 
L 879.620312 395.28 
" style="fill: none; stroke: #000000; stroke-width: 0.8; stroke-linejoin: miter; stroke-linecap: square"/>
   </g>
   <g id="patch_6">
    <path d="M 42.620313 7.2 
L 879.620312 7.2 
" style="fill: none; stroke: #000000; stroke-width: 0.8; stroke-linejoin: miter; stroke-linecap: square"/>
   </g>
  </g>
 </g>
 <defs>
  <clipPath id="p9d9cf3c638">
   <rect x="42.620313" y="7.2" width="837" height="388.08"/>
  </clipPath>
 </defs>
</svg>
