<?xml version="1.0" encoding="utf-8" standalone="no"?>
<!DOCTYPE svg PUBLIC "-//W3C//DTD SVG 1.1//EN"
  "http://www.w3.org/Graphics/SVG/1.1/DTD/svg11.dtd">
<svg xmlns:xlink="http://www.w3.org/1999/xlink" width="375.2875pt" height="248.518125pt" viewBox="0 0 375.2875 248.518125" xmlns="http://www.w3.org/2000/svg" version="1.1">
 <metadata>
  <rdf:RDF xmlns:dc="http://purl.org/dc/elements/1.1/" xmlns:cc="http://creativecommons.org/ns#" xmlns:rdf="http://www.w3.org/1999/02/22-rdf-syntax-ns#">
   <cc:Work>
    <dc:type rdf:resource="http://purl.org/dc/dcmitype/StillImage"/>
    <dc:date>2022-12-07T12:00:42.709216</dc:date>
    <dc:format>image/svg+xml</dc:format>
    <dc:creator>
     <cc:Agent>
      <dc:title>Matplotlib v3.5.1, https://matplotlib.org/</dc:title>
     </cc:Agent>
    </dc:creator>
   </cc:Work>
  </rdf:RDF>
 </metadata>
 <defs>
  <style type="text/css">*{stroke-linejoin: round; stroke-linecap: butt}</style>
 </defs>
 <g id="figure_1">
  <g id="patch_1">
   <path d="M 0 248.518125 
L 375.2875 248.518125 
L 375.2875 0 
L 0 0 
L 0 248.518125 
z
" style="fill: none"/>
  </g>
  <g id="axes_1">
   <g id="patch_2">
    <path d="M 33.2875 224.64 
L 368.0875 224.64 
L 368.0875 7.2 
L 33.2875 7.2 
z
" style="fill: #ffffff"/>
   </g>
   <g id="matplotlib.axis_1">
    <g id="xtick_1">
     <g id="line2d_1">
      <defs>
       <path id="m410af9f5eb" d="M 0 0 
L 0 3.5 
" style="stroke: #000000; stroke-width: 0.8"/>
      </defs>
      <g>
       <use xlink:href="#m410af9f5eb" x="48.505682" y="224.64" style="stroke: #000000; stroke-width: 0.8"/>
      </g>
     </g>
     <g id="text_1">
      <!-- 0 -->
      <g transform="translate(45.324432 239.238437)scale(0.1 -0.1)">
       <defs>
        <path id="DejaVuSans-30" d="M 2034 4250 
Q 1547 4250 1301 3770 
Q 1056 3291 1056 2328 
Q 1056 1369 1301 889 
Q 1547 409 2034 409 
Q 2525 409 2770 889 
Q 3016 1369 3016 2328 
Q 3016 3291 2770 3770 
Q 2525 4250 2034 4250 
z
M 2034 4750 
Q 2819 4750 3233 4129 
Q 3647 3509 3647 2328 
Q 3647 1150 3233 529 
Q 2819 -91 2034 -91 
Q 1250 -91 836 529 
Q 422 1150 422 2328 
Q 422 3509 836 4129 
Q 1250 4750 2034 4750 
z
" transform="scale(0.015625)"/>
       </defs>
       <use xlink:href="#DejaVuSans-30"/>
      </g>
     </g>
    </g>
    <g id="xtick_2">
     <g id="line2d_2">
      <g>
       <use xlink:href="#m410af9f5eb" x="89.114573" y="224.64" style="stroke: #000000; stroke-width: 0.8"/>
      </g>
     </g>
     <g id="text_2">
      <!-- 200 -->
      <g transform="translate(79.570823 239.238437)scale(0.1 -0.1)">
       <defs>
        <path id="DejaVuSans-32" d="M 1228 531 
L 3431 531 
L 3431 0 
L 469 0 
L 469 531 
Q 828 903 1448 1529 
Q 2069 2156 2228 2338 
Q 2531 2678 2651 2914 
Q 2772 3150 2772 3378 
Q 2772 3750 2511 3984 
Q 2250 4219 1831 4219 
Q 1534 4219 1204 4116 
Q 875 4013 500 3803 
L 500 4441 
Q 881 4594 1212 4672 
Q 1544 4750 1819 4750 
Q 2544 4750 2975 4387 
Q 3406 4025 3406 3419 
Q 3406 3131 3298 2873 
Q 3191 2616 2906 2266 
Q 2828 2175 2409 1742 
Q 1991 1309 1228 531 
z
" transform="scale(0.015625)"/>
       </defs>
       <use xlink:href="#DejaVuSans-32"/>
       <use xlink:href="#DejaVuSans-30" x="63.623047"/>
       <use xlink:href="#DejaVuSans-30" x="127.246094"/>
      </g>
     </g>
    </g>
    <g id="xtick_3">
     <g id="line2d_3">
      <g>
       <use xlink:href="#m410af9f5eb" x="129.723463" y="224.64" style="stroke: #000000; stroke-width: 0.8"/>
      </g>
     </g>
     <g id="text_3">
      <!-- 400 -->
      <g transform="translate(120.179713 239.238437)scale(0.1 -0.1)">
       <defs>
        <path id="DejaVuSans-34" d="M 2419 4116 
L 825 1625 
L 2419 1625 
L 2419 4116 
z
M 2253 4666 
L 3047 4666 
L 3047 1625 
L 3713 1625 
L 3713 1100 
L 3047 1100 
L 3047 0 
L 2419 0 
L 2419 1100 
L 313 1100 
L 313 1709 
L 2253 4666 
z
" transform="scale(0.015625)"/>
       </defs>
       <use xlink:href="#DejaVuSans-34"/>
       <use xlink:href="#DejaVuSans-30" x="63.623047"/>
       <use xlink:href="#DejaVuSans-30" x="127.246094"/>
      </g>
     </g>
    </g>
    <g id="xtick_4">
     <g id="line2d_4">
      <g>
       <use xlink:href="#m410af9f5eb" x="170.332354" y="224.64" style="stroke: #000000; stroke-width: 0.8"/>
      </g>
     </g>
     <g id="text_4">
      <!-- 600 -->
      <g transform="translate(160.788604 239.238437)scale(0.1 -0.1)">
       <defs>
        <path id="DejaVuSans-36" d="M 2113 2584 
Q 1688 2584 1439 2293 
Q 1191 2003 1191 1497 
Q 1191 994 1439 701 
Q 1688 409 2113 409 
Q 2538 409 2786 701 
Q 3034 994 3034 1497 
Q 3034 2003 2786 2293 
Q 2538 2584 2113 2584 
z
M 3366 4563 
L 3366 3988 
Q 3128 4100 2886 4159 
Q 2644 4219 2406 4219 
Q 1781 4219 1451 3797 
Q 1122 3375 1075 2522 
Q 1259 2794 1537 2939 
Q 1816 3084 2150 3084 
Q 2853 3084 3261 2657 
Q 3669 2231 3669 1497 
Q 3669 778 3244 343 
Q 2819 -91 2113 -91 
Q 1303 -91 875 529 
Q 447 1150 447 2328 
Q 447 3434 972 4092 
Q 1497 4750 2381 4750 
Q 2619 4750 2861 4703 
Q 3103 4656 3366 4563 
z
" transform="scale(0.015625)"/>
       </defs>
       <use xlink:href="#DejaVuSans-36"/>
       <use xlink:href="#DejaVuSans-30" x="63.623047"/>
       <use xlink:href="#DejaVuSans-30" x="127.246094"/>
      </g>
     </g>
    </g>
    <g id="xtick_5">
     <g id="line2d_5">
      <g>
       <use xlink:href="#m410af9f5eb" x="210.941245" y="224.64" style="stroke: #000000; stroke-width: 0.8"/>
      </g>
     </g>
     <g id="text_5">
      <!-- 800 -->
      <g transform="translate(201.397495 239.238437)scale(0.1 -0.1)">
       <defs>
        <path id="DejaVuSans-38" d="M 2034 2216 
Q 1584 2216 1326 1975 
Q 1069 1734 1069 1313 
Q 1069 891 1326 650 
Q 1584 409 2034 409 
Q 2484 409 2743 651 
Q 3003 894 3003 1313 
Q 3003 1734 2745 1975 
Q 2488 2216 2034 2216 
z
M 1403 2484 
Q 997 2584 770 2862 
Q 544 3141 544 3541 
Q 544 4100 942 4425 
Q 1341 4750 2034 4750 
Q 2731 4750 3128 4425 
Q 3525 4100 3525 3541 
Q 3525 3141 3298 2862 
Q 3072 2584 2669 2484 
Q 3125 2378 3379 2068 
Q 3634 1759 3634 1313 
Q 3634 634 3220 271 
Q 2806 -91 2034 -91 
Q 1263 -91 848 271 
Q 434 634 434 1313 
Q 434 1759 690 2068 
Q 947 2378 1403 2484 
z
M 1172 3481 
Q 1172 3119 1398 2916 
Q 1625 2713 2034 2713 
Q 2441 2713 2670 2916 
Q 2900 3119 2900 3481 
Q 2900 3844 2670 4047 
Q 2441 4250 2034 4250 
Q 1625 4250 1398 4047 
Q 1172 3844 1172 3481 
z
" transform="scale(0.015625)"/>
       </defs>
       <use xlink:href="#DejaVuSans-38"/>
       <use xlink:href="#DejaVuSans-30" x="63.623047"/>
       <use xlink:href="#DejaVuSans-30" x="127.246094"/>
      </g>
     </g>
    </g>
    <g id="xtick_6">
     <g id="line2d_6">
      <g>
       <use xlink:href="#m410af9f5eb" x="251.550136" y="224.64" style="stroke: #000000; stroke-width: 0.8"/>
      </g>
     </g>
     <g id="text_6">
      <!-- 1000 -->
      <g transform="translate(238.825136 239.238437)scale(0.1 -0.1)">
       <defs>
        <path id="DejaVuSans-31" d="M 794 531 
L 1825 531 
L 1825 4091 
L 703 3866 
L 703 4441 
L 1819 4666 
L 2450 4666 
L 2450 531 
L 3481 531 
L 3481 0 
L 794 0 
L 794 531 
z
" transform="scale(0.015625)"/>
       </defs>
       <use xlink:href="#DejaVuSans-31"/>
       <use xlink:href="#DejaVuSans-30" x="63.623047"/>
       <use xlink:href="#DejaVuSans-30" x="127.246094"/>
       <use xlink:href="#DejaVuSans-30" x="190.869141"/>
      </g>
     </g>
    </g>
    <g id="xtick_7">
     <g id="line2d_7">
      <g>
       <use xlink:href="#m410af9f5eb" x="292.159026" y="224.64" style="stroke: #000000; stroke-width: 0.8"/>
      </g>
     </g>
     <g id="text_7">
      <!-- 1200 -->
      <g transform="translate(279.434026 239.238437)scale(0.1 -0.1)">
       <use xlink:href="#DejaVuSans-31"/>
       <use xlink:href="#DejaVuSans-32" x="63.623047"/>
       <use xlink:href="#DejaVuSans-30" x="127.246094"/>
       <use xlink:href="#DejaVuSans-30" x="190.869141"/>
      </g>
     </g>
    </g>
    <g id="xtick_8">
     <g id="line2d_8">
      <g>
       <use xlink:href="#m410af9f5eb" x="332.767917" y="224.64" style="stroke: #000000; stroke-width: 0.8"/>
      </g>
     </g>
     <g id="text_8">
      <!-- 1400 -->
      <g transform="translate(320.042917 239.238437)scale(0.1 -0.1)">
       <use xlink:href="#DejaVuSans-31"/>
       <use xlink:href="#DejaVuSans-34" x="63.623047"/>
       <use xlink:href="#DejaVuSans-30" x="127.246094"/>
       <use xlink:href="#DejaVuSans-30" x="190.869141"/>
      </g>
     </g>
    </g>
   </g>
   <g id="matplotlib.axis_2">
    <g id="ytick_1">
     <g id="line2d_9">
      <defs>
       <path id="m624af4d4aa" d="M 0 0 
L -3.5 0 
" style="stroke: #000000; stroke-width: 0.8"/>
      </defs>
      <g>
       <use xlink:href="#m624af4d4aa" x="33.2875" y="214.756364" style="stroke: #000000; stroke-width: 0.8"/>
      </g>
     </g>
     <g id="text_9">
      <!-- 0 -->
      <g transform="translate(19.925 218.555582)scale(0.1 -0.1)">
       <use xlink:href="#DejaVuSans-30"/>
      </g>
     </g>
    </g>
    <g id="ytick_2">
     <g id="line2d_10">
      <g>
       <use xlink:href="#m624af4d4aa" x="33.2875" y="171.314171" style="stroke: #000000; stroke-width: 0.8"/>
      </g>
     </g>
     <g id="text_10">
      <!-- 50 -->
      <g transform="translate(13.5625 175.11339)scale(0.1 -0.1)">
       <defs>
        <path id="DejaVuSans-35" d="M 691 4666 
L 3169 4666 
L 3169 4134 
L 1269 4134 
L 1269 2991 
Q 1406 3038 1543 3061 
Q 1681 3084 1819 3084 
Q 2600 3084 3056 2656 
Q 3513 2228 3513 1497 
Q 3513 744 3044 326 
Q 2575 -91 1722 -91 
Q 1428 -91 1123 -41 
Q 819 9 494 109 
L 494 744 
Q 775 591 1075 516 
Q 1375 441 1709 441 
Q 2250 441 2565 725 
Q 2881 1009 2881 1497 
Q 2881 1984 2565 2268 
Q 2250 2553 1709 2553 
Q 1456 2553 1204 2497 
Q 953 2441 691 2322 
L 691 4666 
z
" transform="scale(0.015625)"/>
       </defs>
       <use xlink:href="#DejaVuSans-35"/>
       <use xlink:href="#DejaVuSans-30" x="63.623047"/>
      </g>
     </g>
    </g>
    <g id="ytick_3">
     <g id="line2d_11">
      <g>
       <use xlink:href="#m624af4d4aa" x="33.2875" y="127.871979" style="stroke: #000000; stroke-width: 0.8"/>
      </g>
     </g>
     <g id="text_11">
      <!-- 100 -->
      <g transform="translate(7.2 131.671198)scale(0.1 -0.1)">
       <use xlink:href="#DejaVuSans-31"/>
       <use xlink:href="#DejaVuSans-30" x="63.623047"/>
       <use xlink:href="#DejaVuSans-30" x="127.246094"/>
      </g>
     </g>
    </g>
    <g id="ytick_4">
     <g id="line2d_12">
      <g>
       <use xlink:href="#m624af4d4aa" x="33.2875" y="84.429786" style="stroke: #000000; stroke-width: 0.8"/>
      </g>
     </g>
     <g id="text_12">
      <!-- 150 -->
      <g transform="translate(7.2 88.229005)scale(0.1 -0.1)">
       <use xlink:href="#DejaVuSans-31"/>
       <use xlink:href="#DejaVuSans-35" x="63.623047"/>
       <use xlink:href="#DejaVuSans-30" x="127.246094"/>
      </g>
     </g>
    </g>
    <g id="ytick_5">
     <g id="line2d_13">
      <g>
       <use xlink:href="#m624af4d4aa" x="33.2875" y="40.987594" style="stroke: #000000; stroke-width: 0.8"/>
      </g>
     </g>
     <g id="text_13">
      <!-- 200 -->
      <g transform="translate(7.2 44.786813)scale(0.1 -0.1)">
       <use xlink:href="#DejaVuSans-32"/>
       <use xlink:href="#DejaVuSans-30" x="63.623047"/>
       <use xlink:href="#DejaVuSans-30" x="127.246094"/>
      </g>
     </g>
    </g>
   </g>
   <g id="line2d_14">
    <path d="M 48.505682 208.355423 
L 48.911771 208.357027 
L 49.114815 208.191712 
L 49.31786 208.46717 
L 49.723949 208.256261 
L 50.130037 208.37825 
L 50.333082 208.151621 
L 50.536126 208.379654 
L 51.348304 208.066864 
L 51.551349 208.388542 
L 51.754393 208.437869 
L 51.957438 208.160084 
L 52.160482 208.561746 
L 52.363526 208.351136 
L 52.566571 208.462886 
L 52.769615 208.163153 
L 52.97266 208.174565 
L 53.175704 207.934836 
L 53.378749 208.254477 
L 53.784838 208.157895 
L 54.597015 208.574642 
L 55.003104 208.374103 
L 55.815282 208.137081 
L 56.62746 208.325868 
L 56.830504 208.167689 
L 57.236593 208.295596 
L 57.439638 208.192857 
L 57.642682 207.702627 
L 57.845727 207.972186 
L 58.048771 207.798048 
L 58.251816 208.14936 
L 58.45486 208.239286 
L 58.657905 208.191407 
L 58.860949 207.856294 
L 59.063993 208.076754 
L 59.470082 208.065834 
L 59.876171 207.582073 
L 60.28226 207.972274 
L 60.485305 207.764572 
L 60.891394 207.031143 
L 61.094438 207.172213 
L 61.297482 206.995168 
L 61.500527 206.635486 
L 61.703571 206.906742 
L 62.10966 206.737742 
L 62.312705 206.250711 
L 62.515749 206.270221 
L 62.718794 206.688633 
L 62.921838 206.481543 
L 63.124882 206.713297 
L 63.327927 205.969205 
L 63.530971 205.784215 
L 63.734016 206.010784 
L 63.93706 205.639359 
L 64.140105 205.60968 
L 64.343149 206.057242 
L 64.749238 205.57016 
L 65.155327 206.008493 
L 65.358371 205.68934 
L 65.561416 206.198588 
L 65.76446 205.919459 
L 65.967505 205.977422 
L 66.170549 205.726365 
L 66.373594 205.813399 
L 66.779683 205.514589 
L 67.185772 205.400469 
L 67.388816 205.37814 
L 67.59186 205.644199 
L 67.794905 205.674476 
L 67.997949 205.371645 
L 68.200994 205.575067 
L 68.404038 205.398635 
L 69.419261 205.388067 
L 69.622305 205.158284 
L 70.434483 205.549107 
L 70.637527 205.575598 
L 71.043616 205.382383 
L 71.65275 205.500833 
L 71.855794 205.324419 
L 72.058838 205.785829 
L 72.464927 205.592668 
L 73.48015 205.711911 
L 74.089283 205.340205 
L 74.292327 205.385899 
L 74.495372 205.14826 
L 74.698416 205.447784 
L 74.901461 205.411003 
L 75.104505 205.134565 
L 75.30755 205.087688 
L 75.713639 205.524819 
L 76.119728 205.45639 
L 76.931905 205.20058 
L 77.337994 205.338658 
L 77.744083 205.670979 
L 78.150172 205.578983 
L 78.96235 205.531796 
L 79.571483 205.374519 
L 79.774528 205.304886 
L 80.586706 205.602042 
L 81.195839 205.9094 
L 81.398883 205.870315 
L 81.601928 205.983274 
L 81.804972 205.93769 
L 82.211061 206.124962 
L 83.023239 205.890885 
L 83.226283 205.639389 
L 83.429328 205.757452 
L 84.038461 205.485943 
L 84.241506 205.550295 
L 84.44455 205.200853 
L 84.647595 205.566959 
L 84.850639 205.697398 
L 85.053684 205.428004 
L 85.256728 204.634529 
L 85.662817 205.535501 
L 85.865861 205.398696 
L 86.068906 204.899074 
L 86.474995 205.239451 
L 86.678039 204.718192 
L 86.881084 205.047879 
L 87.084128 205.13215 
L 87.287173 204.413235 
L 87.490217 204.266869 
L 87.693261 204.285696 
L 87.896306 204.185976 
L 88.302395 204.581858 
L 88.505439 204.737488 
L 88.708484 204.328186 
L 88.911528 204.384394 
L 89.114573 204.260182 
L 89.317617 204.5082 
L 89.520662 204.472662 
L 89.723706 204.292164 
L 89.92675 204.28884 
L 90.535884 204.717873 
L 90.738928 204.594235 
L 91.145017 204.690294 
L 91.348062 204.415603 
L 91.551106 204.376258 
L 91.75415 204.794432 
L 91.957195 204.756232 
L 92.160239 205.021433 
L 92.566328 204.601733 
L 92.972417 204.852064 
L 93.175462 205.190012 
L 93.378506 205.302013 
L 93.784595 204.731376 
L 93.987639 204.727955 
L 94.393728 205.106692 
L 94.596773 205.303192 
L 94.799817 205.196214 
L 95.205906 205.399843 
L 95.408951 205.314566 
L 95.611995 205.59518 
L 95.81504 205.495852 
L 96.221128 205.653718 
L 96.627217 205.317147 
L 97.439395 205.367597 
L 97.64244 205.489043 
L 98.251573 205.316636 
L 98.454617 205.480891 
L 98.657662 205.320054 
L 99.46984 205.630533 
L 99.672884 205.427334 
L 99.875929 205.461111 
L 100.078973 205.723454 
L 100.688106 205.661423 
L 100.891151 205.149665 
L 101.29724 205.335234 
L 101.500284 205.462906 
L 101.906373 205.031897 
L 102.109418 205.292649 
L 102.312462 205.036897 
L 102.718551 205.051693 
L 102.921595 205.349522 
L 103.12464 204.899391 
L 103.327684 205.207638 
L 103.530729 205.159345 
L 103.733773 205.426624 
L 104.545951 205.175208 
L 104.748996 204.851131 
L 104.95204 205.152719 
L 105.155084 204.996137 
L 105.358129 205.363211 
L 105.764218 204.922021 
L 105.967262 204.669649 
L 106.170307 205.073777 
L 106.373351 205.001485 
L 106.77944 205.115316 
L 106.982485 204.711754 
L 107.388573 205.112262 
L 107.591618 204.847587 
L 107.794662 205.351866 
L 107.997707 205.374768 
L 108.403796 205.150478 
L 108.60684 205.131264 
L 108.809885 204.849718 
L 109.012929 204.888126 
L 109.215974 205.364801 
L 109.419018 205.492607 
L 109.622062 205.136949 
L 110.028151 205.395814 
L 110.231196 205.374543 
L 110.637285 205.77957 
L 110.840329 205.685116 
L 111.043374 205.438516 
L 111.449463 205.804711 
L 111.652507 205.748133 
L 112.058596 206.181728 
L 112.464685 205.354648 
L 112.870774 205.925674 
L 113.073818 205.843789 
L 113.479907 206.359192 
L 113.885996 205.803499 
L 114.08904 206.469383 
L 114.495129 206.414049 
L 114.698174 206.586664 
L 114.901218 206.552346 
L 115.104263 206.790669 
L 115.510352 206.347001 
L 115.916441 206.668092 
L 116.119485 206.235997 
L 116.322529 206.54663 
L 116.931663 206.687975 
L 117.134707 206.315407 
L 117.337752 206.295051 
L 117.743841 206.620012 
L 117.946885 206.461458 
L 118.149929 205.996248 
L 118.556018 205.837718 
L 118.962107 206.236015 
L 119.368196 206.017306 
L 119.571241 206.108922 
L 119.774285 205.915175 
L 119.97733 205.995889 
L 120.180374 205.739978 
L 120.383418 205.858803 
L 120.586463 205.652433 
L 120.789507 205.869583 
L 120.992552 205.787567 
L 121.195596 205.499234 
L 121.601685 205.730861 
L 121.80473 205.455301 
L 122.007774 205.584548 
L 122.210819 205.893199 
L 122.413863 205.972657 
L 122.616907 205.866068 
L 122.819952 205.930761 
L 123.226041 205.650755 
L 123.429085 205.690155 
L 123.63213 206.199232 
L 123.835174 206.080176 
L 124.038219 206.205102 
L 124.241263 206.020067 
L 124.444308 206.151886 
L 125.053441 205.87646 
L 125.256485 205.962864 
L 125.45953 205.788942 
L 125.865619 205.912492 
L 126.068663 205.626312 
L 126.271708 206.035192 
L 126.474752 205.756023 
L 126.677797 205.720985 
L 126.880841 205.880597 
L 127.083885 205.633297 
L 127.28693 203.892643 
L 127.489974 204.534771 
L 127.693019 203.077716 
L 128.099108 188.189857 
L 128.302152 187.90227 
L 128.505197 189.278964 
L 128.708241 188.420187 
L 128.911286 188.349404 
L 129.11433 187.638283 
L 129.317374 187.541465 
L 129.520419 188.383506 
L 129.723463 187.231392 
L 129.926508 187.228782 
L 130.129552 187.419082 
L 130.332597 187.834534 
L 130.535641 187.534193 
L 130.738686 187.946827 
L 130.94173 187.004887 
L 131.144775 188.087618 
L 131.347819 188.067475 
L 131.550863 188.324745 
L 131.753908 187.401792 
L 132.159997 187.733021 
L 132.363041 187.007493 
L 132.566086 186.887285 
L 132.76913 182.493059 
L 132.972175 183.424604 
L 133.175219 182.416357 
L 133.378264 183.122094 
L 133.581308 182.849211 
L 133.784352 176.910764 
L 133.987397 179.53056 
L 134.190441 179.40236 
L 134.59653 177.195416 
L 134.799575 178.872076 
L 135.002619 175.667681 
L 135.205664 178.155949 
L 135.408708 176.379519 
L 135.611753 177.57003 
L 135.814797 175.137818 
L 136.017841 176.236288 
L 136.220886 173.494587 
L 136.42393 175.787253 
L 136.626975 173.608237 
L 136.830019 173.077161 
L 137.033064 171.047546 
L 137.236108 156.278696 
L 137.439153 151.389686 
L 137.642197 155.65851 
L 137.845242 150.688284 
L 138.048286 155.428565 
L 138.25133 150.496256 
L 138.454375 156.511431 
L 138.860464 149.321952 
L 139.063508 153.329338 
L 139.469597 149.769539 
L 139.672642 146.500351 
L 139.875686 151.521585 
L 140.078731 153.287053 
L 140.281775 143.942282 
L 140.484819 144.824814 
L 140.687864 143.467922 
L 140.890908 147.554124 
L 141.296997 143.442004 
L 141.500042 144.708805 
L 141.703086 143.151366 
L 141.906131 138.544476 
L 142.109175 143.360178 
L 142.31222 143.640754 
L 142.515264 142.887349 
L 142.718308 143.026553 
L 142.921353 142.741596 
L 143.124397 143.16406 
L 143.327442 142.921196 
L 143.530486 137.321444 
L 143.733531 143.174732 
L 143.936575 131.562238 
L 144.13962 131.438142 
L 144.342664 122.993986 
L 144.545709 129.276386 
L 144.748753 131.181205 
L 144.951797 128.039149 
L 145.154842 127.953121 
L 145.357886 134.886392 
L 145.560931 133.083113 
L 145.763975 124.452298 
L 145.96702 128.964755 
L 146.170064 122.716712 
L 146.373109 132.288737 
L 146.576153 126.768298 
L 146.779197 126.030491 
L 146.982242 118.255502 
L 147.185286 126.329541 
L 147.388331 123.138692 
L 147.591375 123.004585 
L 147.997464 116.395978 
L 148.200509 114.107421 
L 148.403553 115.060808 
L 148.606598 114.819209 
L 148.809642 117.00752 
L 149.012686 110.063086 
L 149.215731 115.575186 
L 149.418775 114.238173 
L 149.62182 116.794498 
L 149.824864 115.751053 
L 150.027909 107.057166 
L 150.230953 112.205035 
L 150.637042 98.681989 
L 150.840087 99.536581 
L 151.043131 74.118298 
L 151.44922 58.581244 
L 151.652264 71.536505 
L 151.855309 77.395805 
L 152.058353 72.354188 
L 152.261398 70.164061 
L 152.464442 87.75811 
L 153.073576 58.16008 
L 153.479664 89.249128 
L 153.885753 58.488747 
L 154.291842 77.134181 
L 154.494887 64.267587 
L 154.900976 72.824591 
L 155.10402 72.958147 
L 155.307065 71.155391 
L 155.510109 73.631787 
L 155.713153 74.521896 
L 155.916198 74.429438 
L 156.119242 70.769306 
L 156.322287 73.103171 
L 156.525331 72.056769 
L 156.728376 76.665157 
L 156.93142 73.673734 
L 157.134465 67.162112 
L 157.337509 73.807635 
L 157.540554 68.440016 
L 157.743598 67.822017 
L 157.946642 72.458074 
L 158.352731 69.107491 
L 158.555776 70.826062 
L 158.961865 62.574166 
L 159.164909 65.688977 
L 159.367954 58.623311 
L 159.570998 60.389184 
L 159.774043 54.177486 
L 159.977087 54.610012 
L 160.180131 55.370767 
L 160.383176 45.560015 
L 160.58622 48.715924 
L 160.789265 62.07762 
L 160.992309 59.443658 
L 161.398398 51.466352 
L 161.601443 61.276787 
L 161.804487 56.141466 
L 162.007532 54.960381 
L 162.210576 55.152284 
L 162.41362 56.287882 
L 162.616665 54.964769 
L 162.819709 52.142499 
L 163.022754 60.902554 
L 163.225798 62.512956 
L 163.428843 56.424036 
L 163.834932 53.403128 
L 164.037976 45.271465 
L 164.241021 47.350892 
L 164.444065 58.256953 
L 164.850154 53.596568 
L 165.053198 48.366549 
L 165.256243 17.083636 
L 165.459287 26.975167 
L 165.662332 43.015091 
L 166.068421 55.384091 
L 166.271465 64.63547 
L 166.47451 61.689281 
L 166.677554 65.250697 
L 166.880598 73.503746 
L 167.083643 71.265946 
L 167.286687 70.817259 
L 167.489732 75.303081 
L 167.692776 67.305889 
L 167.895821 73.194634 
L 168.098865 74.718306 
L 168.30191 72.792335 
L 168.504954 64.28518 
L 168.707999 74.255553 
L 168.911043 78.575909 
L 169.317132 66.867344 
L 169.520176 61.052417 
L 169.723221 75.064115 
L 169.926265 78.150091 
L 170.12931 74.813959 
L 170.332354 76.468575 
L 170.535399 73.318353 
L 170.738443 85.234464 
L 170.941488 80.273108 
L 171.347576 87.655152 
L 171.550621 88.517248 
L 171.753665 77.17695 
L 171.95671 78.37218 
L 172.159754 72.486273 
L 172.565843 89.590748 
L 172.768888 92.908306 
L 173.174976 88.027051 
L 173.378021 77.814769 
L 173.581065 87.455441 
L 173.78411 87.453187 
L 173.987154 81.132168 
L 174.190199 90.161934 
L 174.393243 93.539297 
L 174.596288 91.510302 
L 174.799332 90.617289 
L 175.002377 88.564935 
L 175.205421 93.120837 
L 175.408465 94.413669 
L 175.61151 91.748963 
L 175.814554 97.772325 
L 176.017599 99.641395 
L 176.220643 99.448816 
L 176.423688 97.725725 
L 176.626732 101.625606 
L 176.829777 101.405054 
L 177.032821 104.419108 
L 177.235866 104.897107 
L 177.43891 102.593974 
L 177.641954 105.359834 
L 178.048043 103.370333 
L 178.251088 105.901562 
L 178.454132 99.191939 
L 179.063266 117.036859 
L 179.26631 113.135811 
L 179.469355 114.032867 
L 179.672399 105.795237 
L 179.875443 104.130015 
L 180.281532 113.893584 
L 180.484577 112.213858 
L 180.687621 120.091547 
L 181.09371 120.82942 
L 181.296755 123.999077 
L 181.499799 123.281568 
L 181.702844 126.722845 
L 181.905888 126.032076 
L 182.311977 130.526642 
L 182.515021 129.915424 
L 182.718066 131.717981 
L 182.92111 136.562645 
L 183.124155 137.679019 
L 183.327199 137.974807 
L 183.530244 140.309679 
L 183.733288 139.167572 
L 183.936333 142.238932 
L 184.139377 141.339788 
L 184.342421 145.042576 
L 184.545466 145.267343 
L 184.74851 142.321897 
L 184.951555 146.415291 
L 185.154599 140.011797 
L 185.357644 143.152122 
L 185.763733 154.410083 
L 185.966777 153.108137 
L 186.169822 153.382839 
L 186.372866 152.329139 
L 186.57591 155.524112 
L 186.778955 147.162908 
L 186.981999 147.181893 
L 187.388088 149.098815 
L 187.591133 147.964079 
L 187.997222 162.444811 
L 188.403311 167.754697 
L 188.606355 165.974194 
L 188.809399 165.208321 
L 189.621577 174.547637 
L 189.824622 174.023107 
L 190.230711 177.002957 
L 190.6368 175.737041 
L 190.839844 176.472451 
L 191.042888 175.859507 
L 191.245933 180.539446 
L 191.448977 180.258722 
L 191.652022 178.89417 
L 191.855066 180.453468 
L 192.058111 180.597113 
L 192.261155 182.864859 
L 192.4642 182.232237 
L 192.667244 182.365266 
L 192.870289 181.760131 
L 193.073333 183.030057 
L 193.276377 182.697807 
L 193.479422 183.225937 
L 193.682466 184.659769 
L 193.885511 183.789845 
L 194.088555 184.100614 
L 194.2916 185.168211 
L 194.494644 183.148722 
L 194.697689 184.440013 
L 194.900733 184.751236 
L 195.103778 184.196598 
L 195.306822 184.420822 
L 195.509866 183.82917 
L 195.712911 184.487392 
L 195.915955 182.158217 
L 196.322044 183.584098 
L 196.525089 182.3704 
L 196.931178 183.842464 
L 197.134222 183.626681 
L 197.337267 182.047524 
L 197.743355 184.512883 
L 198.352489 186.253235 
L 198.555533 186.055585 
L 198.758578 185.126612 
L 198.961622 183.427149 
L 199.164667 184.670504 
L 199.367711 184.193638 
L 199.570756 185.848155 
L 199.7738 185.769525 
L 199.976844 184.918579 
L 200.382933 185.782299 
L 200.789022 183.56048 
L 201.195111 185.591092 
L 201.398156 186.307389 
L 201.6012 187.633533 
L 201.804244 187.492858 
L 202.007289 187.857211 
L 202.210333 187.378186 
L 202.616422 188.303487 
L 202.819467 187.787882 
L 203.4286 188.709738 
L 203.834689 189.949658 
L 204.037733 189.827372 
L 204.443822 188.787457 
L 204.646867 189.29454 
L 204.849911 189.473014 
L 205.256 189.256903 
L 205.459045 189.276526 
L 205.662089 190.179997 
L 206.068178 190.508493 
L 206.677311 191.555919 
L 206.880356 191.656767 
L 207.0834 191.285318 
L 207.286445 191.484734 
L 207.489489 191.186482 
L 207.895578 192.41418 
L 208.098623 191.867919 
L 208.504711 194.10515 
L 208.9108 192.97716 
L 209.113845 193.699115 
L 209.519934 192.600993 
L 209.722978 193.439325 
L 209.926023 193.43293 
L 210.332112 193.974424 
L 210.7382 192.696546 
L 210.941245 191.645399 
L 211.144289 193.677648 
L 211.550378 194.891207 
L 211.753423 194.090798 
L 211.956467 193.76327 
L 212.159512 194.709047 
L 212.362556 194.434703 
L 212.565601 195.05425 
L 212.768645 194.942756 
L 212.971689 194.62294 
L 213.174734 194.730844 
L 213.783867 196.079855 
L 213.986912 195.503155 
L 214.189956 195.334309 
L 214.393001 195.611767 
L 214.596045 194.555471 
L 214.79909 194.640001 
L 215.002134 194.533266 
L 215.205178 193.929223 
L 215.408223 194.041457 
L 215.814312 196.375831 
L 216.017356 196.996408 
L 216.220401 196.776028 
L 216.423445 197.542642 
L 216.62649 196.995589 
L 216.829534 197.185045 
L 217.032579 196.946256 
L 217.235623 197.030218 
L 217.438667 197.612176 
L 217.641712 196.923044 
L 217.844756 198.129142 
L 218.047801 198.264057 
L 218.250845 198.888494 
L 218.45389 198.695405 
L 218.656934 199.491997 
L 218.859979 199.621356 
L 219.063023 199.52996 
L 219.266068 199.101095 
L 219.469112 199.578327 
L 219.672156 198.80465 
L 220.28129 199.477767 
L 220.484334 200.604852 
L 220.687379 200.874684 
L 220.890423 200.443081 
L 221.093468 200.366795 
L 221.296512 201.223388 
L 221.499557 201.342201 
L 221.702601 201.039205 
L 221.905645 201.071662 
L 222.311734 200.9181 
L 222.514779 201.004036 
L 222.920868 201.555146 
L 223.123912 201.799253 
L 223.326957 201.477734 
L 223.733046 201.87047 
L 223.93609 201.82422 
L 224.342179 202.079936 
L 224.545223 201.539422 
L 224.748268 202.259972 
L 224.951312 201.966812 
L 225.357401 202.021021 
L 225.560446 201.765069 
L 225.966535 202.850385 
L 226.169579 202.818393 
L 226.372623 203.257463 
L 226.575668 203.059334 
L 226.778712 202.614319 
L 226.981757 202.805002 
L 227.184801 203.237306 
L 227.387846 203.081084 
L 227.59089 203.086168 
L 227.793935 202.921398 
L 227.996979 203.46801 
L 228.200024 203.264874 
L 228.606112 203.50879 
L 228.809157 203.651904 
L 229.215246 203.253623 
L 229.41829 203.557714 
L 229.621335 203.462565 
L 230.027424 203.763657 
L 230.230468 203.958961 
L 230.433512 203.898085 
L 231.042646 204.279249 
L 231.448735 203.747515 
L 231.651779 204.534116 
L 231.854824 204.752682 
L 232.463957 204.14876 
L 232.667001 204.673876 
L 232.870046 204.579026 
L 233.07309 204.870416 
L 233.276135 204.956967 
L 233.682224 204.577317 
L 233.885268 204.679244 
L 234.291357 205.053978 
L 234.494402 205.16038 
L 234.697446 204.524742 
L 235.509624 204.777282 
L 235.712668 205.08716 
L 235.915713 205.103892 
L 236.118757 204.953334 
L 236.321802 205.239853 
L 236.524846 205.234733 
L 236.727891 205.422735 
L 236.930935 205.306699 
L 237.133979 205.419736 
L 237.337024 205.241369 
L 237.743113 205.402877 
L 237.946157 205.011784 
L 238.555291 205.337254 
L 238.758335 205.678103 
L 238.96138 205.455842 
L 239.164424 205.416486 
L 239.367468 205.886029 
L 239.570513 205.763112 
L 239.773557 205.47829 
L 239.976602 205.500882 
L 240.179646 205.898636 
L 240.382691 205.721273 
L 240.585735 205.006229 
L 240.78878 205.469512 
L 240.991824 205.354925 
L 241.194869 205.529996 
L 241.397913 205.524224 
L 241.804002 205.13657 
L 242.007046 204.585557 
L 242.210091 204.522371 
L 242.413135 204.977608 
L 242.61618 204.944293 
L 243.022269 205.230574 
L 243.428358 205.152131 
L 243.631402 205.073409 
L 243.834446 205.270849 
L 244.037491 204.912897 
L 244.240535 205.137323 
L 244.849669 205.082652 
L 245.052713 204.552267 
L 245.458802 205.588946 
L 245.661847 204.961487 
L 245.864891 204.948451 
L 246.27098 205.387417 
L 246.474024 204.865535 
L 246.677069 205.284855 
L 246.880113 205.132268 
L 247.083158 205.250327 
L 247.286202 204.980261 
L 247.489247 205.438366 
L 247.895336 204.1682 
L 248.09838 204.641094 
L 248.301424 204.525822 
L 248.504469 203.884982 
L 248.707513 202.747728 
L 248.910558 202.484214 
L 249.113602 203.142003 
L 249.316647 203.292417 
L 249.519691 202.978753 
L 249.722736 202.451395 
L 249.92578 202.599996 
L 250.128825 202.944019 
L 250.331869 202.914202 
L 250.534913 201.980592 
L 250.737958 202.507504 
L 250.941002 202.549024 
L 251.144047 202.933012 
L 251.347091 202.406349 
L 251.75318 203.32276 
L 251.956225 203.210349 
L 252.159269 202.545186 
L 252.565358 203.268221 
L 252.768402 203.056983 
L 253.174491 203.290649 
L 253.377536 203.19386 
L 253.783625 202.757971 
L 253.986669 203.293776 
L 254.189714 202.756952 
L 254.595803 202.677466 
L 254.798847 202.137773 
L 255.001891 202.590269 
L 255.204936 202.04455 
L 255.40798 202.098697 
L 255.611025 202.33725 
L 255.814069 202.013806 
L 256.017114 202.19538 
L 256.220158 201.872823 
L 256.423203 202.142151 
L 256.626247 201.571695 
L 256.829291 202.387097 
L 257.438425 201.936475 
L 257.641469 202.032857 
L 257.844514 201.958383 
L 258.047558 202.129811 
L 258.250603 202.588463 
L 258.453647 202.638756 
L 259.06278 202.418115 
L 259.265825 201.909196 
L 259.468869 202.624036 
L 259.671914 202.75768 
L 259.874958 202.324137 
L 260.078003 202.514645 
L 260.687136 202.051844 
L 260.890181 202.198112 
L 261.093225 202.549256 
L 261.296269 202.361225 
L 261.499314 202.423628 
L 261.905403 202.05037 
L 262.108447 201.933639 
L 262.311492 202.491605 
L 262.920625 201.410988 
L 263.326714 201.817646 
L 263.529758 201.64629 
L 263.732803 201.301598 
L 263.935847 201.616865 
L 264.138892 201.382326 
L 264.341936 201.68009 
L 264.544981 201.717077 
L 264.748025 202.055661 
L 264.95107 201.349578 
L 265.154114 201.652888 
L 265.763247 201.718043 
L 265.966292 201.572686 
L 266.169336 201.750902 
L 266.575425 201.845645 
L 266.981514 201.378015 
L 267.184559 201.944719 
L 267.387603 201.627881 
L 267.590648 201.579187 
L 267.793692 201.897665 
L 267.996736 201.764723 
L 268.199781 201.923361 
L 268.402825 201.369014 
L 268.60587 201.631265 
L 268.808914 201.575337 
L 269.011959 201.641423 
L 269.418048 201.199848 
L 269.824137 201.745217 
L 270.43327 201.886248 
L 270.636314 201.421114 
L 271.042403 201.90824 
L 271.245448 201.788944 
L 271.651537 201.83039 
L 271.854581 201.716601 
L 272.26067 201.841516 
L 272.666759 202.220017 
L 273.681981 202.878695 
L 274.08807 203.540402 
L 274.697203 203.274346 
L 275.103292 203.620942 
L 275.509381 203.422505 
L 275.91547 203.582025 
L 276.321559 203.337822 
L 276.524604 203.639449 
L 276.930692 203.149788 
L 277.336781 203.402958 
L 277.539826 203.50472 
L 278.352004 203.258853 
L 278.555048 203.109949 
L 278.758093 203.148141 
L 278.961137 202.878835 
L 279.164181 202.82252 
L 279.367226 203.336767 
L 279.976359 202.340022 
L 280.382448 203.086471 
L 280.991582 202.66895 
L 281.39767 203.059608 
L 281.600715 202.838446 
L 281.803759 202.940916 
L 282.006804 203.319612 
L 282.209848 202.960997 
L 282.615937 202.740315 
L 282.818982 203.205146 
L 283.225071 205.540697 
L 283.631159 205.136793 
L 283.834204 205.457472 
L 284.240293 207.105033 
L 284.849426 208.212497 
L 285.052471 208.752087 
L 285.255515 208.491909 
L 285.458559 208.631863 
L 285.661604 208.56521 
L 286.067693 208.884712 
L 286.270737 208.779558 
L 286.473782 208.842548 
L 286.676826 208.777205 
L 286.879871 208.52158 
L 287.28596 208.736577 
L 287.895093 208.571517 
L 288.098137 208.802109 
L 288.301182 208.506982 
L 288.504226 208.828038 
L 288.707271 208.675471 
L 288.910315 208.838484 
L 289.11336 208.625082 
L 289.316404 208.776744 
L 289.519449 208.507483 
L 289.722493 208.784728 
L 289.925537 208.642917 
L 290.534671 208.832747 
L 290.737715 208.60873 
L 290.94076 208.809688 
L 291.143804 208.711218 
L 291.346849 208.791011 
L 291.752938 208.631338 
L 292.159026 208.627896 
L 292.362071 208.607145 
L 292.565115 208.754206 
L 292.971204 208.659851 
L 293.174249 208.739294 
L 293.580338 208.089652 
L 293.986427 208.715517 
L 294.392515 208.801394 
L 295.407738 208.423893 
L 295.610782 208.605378 
L 296.219916 208.386068 
L 296.42296 208.628882 
L 296.626004 208.398284 
L 297.032093 208.471725 
L 297.235138 208.521653 
L 297.641227 208.102346 
L 297.844271 208.330562 
L 298.047316 208.150197 
L 298.25036 208.393176 
L 298.453405 208.246584 
L 298.656449 208.476949 
L 298.859493 208.267244 
L 299.062538 208.243289 
L 299.265582 208.337928 
L 299.468627 208.259738 
L 299.671671 207.825416 
L 300.07776 208.418824 
L 300.483849 207.954053 
L 300.686894 208.143875 
L 300.889938 207.792345 
L 301.092982 208.154847 
L 301.296027 207.960701 
L 301.702116 207.899124 
L 301.90516 207.741867 
L 302.108205 208.034101 
L 302.311249 208.065419 
L 302.920383 207.743666 
L 303.529516 207.775073 
L 304.341694 207.804059 
L 304.544738 207.982627 
L 304.747783 207.89172 
L 305.356916 207.926267 
L 305.966049 207.815293 
L 306.169094 208.070718 
L 306.372138 208.008983 
L 306.575183 208.255491 
L 307.184316 208.030716 
L 310.026938 207.913654 
L 310.433027 207.876119 
L 310.636072 207.684427 
L 311.042161 207.917423 
L 311.245205 207.354668 
L 311.44825 207.775468 
L 311.651294 207.708165 
L 312.057383 207.979513 
L 312.463472 207.510497 
L 312.869561 207.488386 
L 313.072605 207.825615 
L 313.681739 207.414459 
L 314.087827 207.801838 
L 314.290872 207.60536 
L 314.696961 207.647434 
L 314.900005 207.567809 
L 315.306094 207.605309 
L 315.509139 207.418505 
L 315.712183 207.432439 
L 315.915228 207.656288 
L 316.321316 207.493747 
L 316.524361 207.458699 
L 316.727405 207.173124 
L 316.93045 207.572949 
L 317.133494 207.162279 
L 317.539583 207.26159 
L 317.742628 207.046925 
L 317.945672 207.219538 
L 318.148717 207.039322 
L 318.351761 207.291361 
L 318.75785 207.27117 
L 318.960894 206.731341 
L 319.366983 207.236423 
L 319.570028 207.191123 
L 319.773072 207.351756 
L 319.976117 207.125123 
L 320.179161 207.708855 
L 320.58525 207.145726 
L 320.788294 207.546803 
L 320.991339 207.604668 
L 321.194383 207.989052 
L 322.006561 207.83708 
L 322.41265 208.084715 
L 322.615695 208.017837 
L 323.224828 208.532636 
L 323.427872 208.447504 
L 323.630917 208.549171 
L 323.833961 208.361844 
L 324.24005 208.394406 
L 324.443095 208.323744 
L 324.646139 208.380747 
L 324.849184 208.209573 
L 325.255272 208.761961 
L 325.458317 208.637177 
L 325.661361 208.643332 
L 326.06745 208.32343 
L 326.473539 208.715129 
L 326.676584 208.63828 
L 326.879628 208.725695 
L 327.082673 208.413656 
L 327.488761 208.798054 
L 327.89485 209.034717 
L 328.097895 208.986384 
L 328.300939 209.174546 
L 329.113117 209.148402 
L 329.316162 209.342036 
L 329.519206 209.340135 
L 329.72225 209.491269 
L 330.128339 209.117114 
L 330.534428 209.339846 
L 330.737473 209.39608 
L 331.143562 209.104282 
L 331.346606 209.521151 
L 331.549651 209.449953 
L 331.752695 209.537459 
L 331.955739 209.408379 
L 332.158784 209.551169 
L 332.361828 209.528228 
L 332.564873 209.83725 
L 332.767917 209.650028 
L 333.174006 209.876378 
L 333.377051 209.668922 
L 333.580095 209.830742 
L 334.189228 209.932589 
L 334.392273 210.085196 
L 334.798362 209.874541 
L 335.001406 210.128449 
L 335.204451 210.157773 
L 336.016629 209.710141 
L 336.219673 209.688689 
L 336.625762 210.030093 
L 336.828806 209.865181 
L 337.031851 209.919394 
L 337.234895 210.241559 
L 337.43794 210.007905 
L 337.640984 209.956706 
L 338.250118 210.080408 
L 338.453162 210.006374 
L 338.859251 210.360988 
L 339.062295 210.293789 
L 339.468384 211.031765 
L 339.671429 211.065849 
L 340.077518 211.492132 
L 340.280562 211.270819 
L 340.483606 211.450686 
L 340.686651 214.756364 
L 352.869318 214.756364 
L 352.869318 214.756364 
" clip-path="url(#pd7538a2a7c)" style="fill: none; stroke: #1f77b4; stroke-width: 1.5; stroke-linecap: square"/>
   </g>
   <g id="patch_3">
    <path d="M 33.2875 224.64 
L 33.2875 7.2 
" style="fill: none; stroke: #000000; stroke-width: 0.8; stroke-linejoin: miter; stroke-linecap: square"/>
   </g>
   <g id="patch_4">
    <path d="M 368.0875 224.64 
L 368.0875 7.2 
" style="fill: none; stroke: #000000; stroke-width: 0.8; stroke-linejoin: miter; stroke-linecap: square"/>
   </g>
   <g id="patch_5">
    <path d="M 33.2875 224.64 
L 368.0875 224.64 
" style="fill: none; stroke: #000000; stroke-width: 0.8; stroke-linejoin: miter; stroke-linecap: square"/>
   </g>
   <g id="patch_6">
    <path d="M 33.2875 7.2 
L 368.0875 7.2 
" style="fill: none; stroke: #000000; stroke-width: 0.8; stroke-linejoin: miter; stroke-linecap: square"/>
   </g>
  </g>
 </g>
 <defs>
  <clipPath id="pd7538a2a7c">
   <rect x="33.2875" y="7.2" width="334.8" height="217.44"/>
  </clipPath>
 </defs>
</svg>
