<?xml version="1.0" encoding="utf-8" standalone="no"?>
<!DOCTYPE svg PUBLIC "-//W3C//DTD SVG 1.1//EN"
  "http://www.w3.org/Graphics/SVG/1.1/DTD/svg11.dtd">
<svg xmlns:xlink="http://www.w3.org/1999/xlink" width="947.684375pt" height="332.554687pt" viewBox="0 0 947.684375 332.554687" xmlns="http://www.w3.org/2000/svg" version="1.1">
 <metadata>
  <rdf:RDF xmlns:dc="http://purl.org/dc/elements/1.1/" xmlns:cc="http://creativecommons.org/ns#" xmlns:rdf="http://www.w3.org/1999/02/22-rdf-syntax-ns#">
   <cc:Work>
    <dc:type rdf:resource="http://purl.org/dc/dcmitype/StillImage"/>
    <dc:date>2024-04-13T16:39:13.608596</dc:date>
    <dc:format>image/svg+xml</dc:format>
    <dc:creator>
     <cc:Agent>
      <dc:title>Matplotlib v3.5.2, https://matplotlib.org/</dc:title>
     </cc:Agent>
    </dc:creator>
   </cc:Work>
  </rdf:RDF>
 </metadata>
 <defs>
  <style type="text/css">*{stroke-linejoin: round; stroke-linecap: butt}</style>
 </defs>
 <g id="figure_1">
  <g id="patch_1">
   <path d="M 0 332.554687 
L 947.684375 332.554687 
L 947.684375 0 
L 0 0 
z
" style="fill: #ffffff"/>
  </g>
  <g id="axes_1">
   <g id="patch_2">
    <path d="M 52.160938 294.998437 
L 889.160938 294.998437 
L 889.160938 17.798437 
L 52.160938 17.798437 
z
" style="fill: #ffffff"/>
   </g>
   <g id="matplotlib.axis_1">
    <g id="xtick_1">
     <g id="line2d_1">
      <defs>
       <path id="me1843f12b9" d="M 0 0 
L 0 3.5 
" style="stroke: #000000; stroke-width: 0.8"/>
      </defs>
      <g>
       <use xlink:href="#me1843f12b9" x="90.206392" y="294.998437" style="stroke: #000000; stroke-width: 0.8"/>
      </g>
     </g>
     <g id="text_1">
      <text style="font: 10px 'sans-serif'; text-anchor: middle" x="90.206392" y="309.596875" transform="rotate(-0, 90.206392, 309.596875)">0</text>
     </g>
    </g>
    <g id="xtick_2">
     <g id="line2d_2">
      <g>
       <use xlink:href="#me1843f12b9" x="231.167691" y="294.998437" style="stroke: #000000; stroke-width: 0.8"/>
      </g>
     </g>
     <g id="text_2">
      <text style="font: 10px 'sans-serif'; text-anchor: middle" x="231.167691" y="309.596875" transform="rotate(-0, 231.167691, 309.596875)">500</text>
     </g>
    </g>
    <g id="xtick_3">
     <g id="line2d_3">
      <g>
       <use xlink:href="#me1843f12b9" x="372.12899" y="294.998437" style="stroke: #000000; stroke-width: 0.8"/>
      </g>
     </g>
     <g id="text_3">
      <text style="font: 10px 'sans-serif'; text-anchor: middle" x="372.12899" y="309.596875" transform="rotate(-0, 372.12899, 309.596875)">1000</text>
     </g>
    </g>
    <g id="xtick_4">
     <g id="line2d_4">
      <g>
       <use xlink:href="#me1843f12b9" x="513.090288" y="294.998437" style="stroke: #000000; stroke-width: 0.8"/>
      </g>
     </g>
     <g id="text_4">
      <text style="font: 10px 'sans-serif'; text-anchor: middle" x="513.090288" y="309.596875" transform="rotate(-0, 513.090288, 309.596875)">1500</text>
     </g>
    </g>
    <g id="xtick_5">
     <g id="line2d_5">
      <g>
       <use xlink:href="#me1843f12b9" x="654.051587" y="294.998437" style="stroke: #000000; stroke-width: 0.8"/>
      </g>
     </g>
     <g id="text_5">
      <text style="font: 10px 'sans-serif'; text-anchor: middle" x="654.051587" y="309.596875" transform="rotate(-0, 654.051587, 309.596875)">2000</text>
     </g>
    </g>
    <g id="xtick_6">
     <g id="line2d_6">
      <g>
       <use xlink:href="#me1843f12b9" x="795.012886" y="294.998437" style="stroke: #000000; stroke-width: 0.8"/>
      </g>
     </g>
     <g id="text_6">
      <text style="font: 10px 'sans-serif'; text-anchor: middle" x="795.012886" y="309.596875" transform="rotate(-0, 795.012886, 309.596875)">2500</text>
     </g>
    </g>
    <g id="text_7">
     <text style="font: 10px 'sans-serif'; text-anchor: middle" x="470.660938" y="323.275" transform="rotate(-0, 470.660938, 323.275)">Time (samples)</text>
    </g>
   </g>
   <g id="matplotlib.axis_2">
    <g id="ytick_1">
     <g id="line2d_7">
      <defs>
       <path id="ma564cc27ec" d="M 0 0 
L -3.5 0 
" style="stroke: #000000; stroke-width: 0.8"/>
      </defs>
      <g>
       <use xlink:href="#ma564cc27ec" x="52.160938" y="289.496791" style="stroke: #000000; stroke-width: 0.8"/>
      </g>
     </g>
     <g id="text_8">
      <text style="font: 10px 'sans-serif'; text-anchor: end" x="45.160938" y="293.29601" transform="rotate(-0, 45.160938, 293.29601)">−1.5</text>
     </g>
    </g>
    <g id="ytick_2">
     <g id="line2d_8">
      <g>
       <use xlink:href="#ma564cc27ec" x="52.160938" y="242.699475" style="stroke: #000000; stroke-width: 0.8"/>
      </g>
     </g>
     <g id="text_9">
      <text style="font: 10px 'sans-serif'; text-anchor: end" x="45.160938" y="246.498694" transform="rotate(-0, 45.160938, 246.498694)">−1.0</text>
     </g>
    </g>
    <g id="ytick_3">
     <g id="line2d_9">
      <g>
       <use xlink:href="#ma564cc27ec" x="52.160938" y="195.902158" style="stroke: #000000; stroke-width: 0.8"/>
      </g>
     </g>
     <g id="text_10">
      <text style="font: 10px 'sans-serif'; text-anchor: end" x="45.160938" y="199.701377" transform="rotate(-0, 45.160938, 199.701377)">−0.5</text>
     </g>
    </g>
    <g id="ytick_4">
     <g id="line2d_10">
      <g>
       <use xlink:href="#ma564cc27ec" x="52.160938" y="149.104842" style="stroke: #000000; stroke-width: 0.8"/>
      </g>
     </g>
     <g id="text_11">
      <text style="font: 10px 'sans-serif'; text-anchor: end" x="45.160938" y="152.904061" transform="rotate(-0, 45.160938, 152.904061)">0.0</text>
     </g>
    </g>
    <g id="ytick_5">
     <g id="line2d_11">
      <g>
       <use xlink:href="#ma564cc27ec" x="52.160938" y="102.307526" style="stroke: #000000; stroke-width: 0.8"/>
      </g>
     </g>
     <g id="text_12">
      <text style="font: 10px 'sans-serif'; text-anchor: end" x="45.160938" y="106.106745" transform="rotate(-0, 45.160938, 106.106745)">0.5</text>
     </g>
    </g>
    <g id="ytick_6">
     <g id="line2d_12">
      <g>
       <use xlink:href="#ma564cc27ec" x="52.160938" y="55.51021" style="stroke: #000000; stroke-width: 0.8"/>
      </g>
     </g>
     <g id="text_13">
      <text style="font: 10px 'sans-serif'; text-anchor: end" x="45.160938" y="59.309428" transform="rotate(-0, 45.160938, 59.309428)">1.0</text>
     </g>
    </g>
    <g id="text_14">
     <text style="font: 10px 'sans-serif'; text-anchor: middle" x="14.798438" y="156.398437" transform="rotate(-90, 14.798438, 156.398437)">Velocity [m/s]</text>
    </g>
    <g id="text_15">
     <text style="font: 10px 'sans-serif'; text-anchor: start" x="52.160938" y="14.798437" transform="rotate(-0, 52.160938, 14.798437)">1e−6</text>
    </g>
   </g>
   <g id="line2d_13">
    <path d="M 90.206392 149.887256 
L 90.488315 150.656865 
L 90.770237 148.654856 
L 91.05216 148.101601 
L 91.334082 150.666436 
L 91.897928 148.093204 
L 92.17985 148.13107 
L 92.461773 147.491969 
L 92.743695 150.14587 
L 93.025618 150.569543 
L 93.307541 145.121412 
L 93.871386 153.978847 
L 94.153308 149.04647 
L 94.435231 150.461611 
L 94.717154 146.008924 
L 94.999076 146.339427 
L 95.280999 151.828094 
L 95.562921 147.057175 
L 95.844844 146.900432 
L 96.126767 150.426599 
L 96.408689 150.991824 
L 96.690612 150.65085 
L 96.972534 147.424475 
L 97.53638 152.893067 
L 97.818302 145.166957 
L 98.100225 146.945228 
L 98.382147 150.327529 
L 98.66407 144.622583 
L 98.945993 152.184134 
L 99.227915 151.59824 
L 99.509838 147.492325 
L 99.79176 153.317234 
L 100.073683 148.021694 
L 100.355606 147.409678 
L 100.637528 149.601323 
L 100.919451 147.796781 
L 101.201373 147.58363 
L 101.483296 148.848525 
L 101.765219 149.181613 
L 102.047141 150.669492 
L 102.329064 150.518831 
L 102.610986 146.557897 
L 102.892909 150.971161 
L 103.174832 149.809861 
L 103.456754 149.26256 
L 103.738677 150.55533 
L 104.020599 146.272806 
L 104.302522 148.361406 
L 104.584445 149.416054 
L 104.866367 148.594481 
L 105.14829 149.168603 
L 105.430212 148.813951 
L 105.712135 146.873332 
L 105.994058 151.564773 
L 106.27598 153.245903 
L 106.557903 149.303957 
L 106.839825 149.957428 
L 107.121748 147.449328 
L 107.40367 146.161136 
L 107.967516 147.253139 
L 108.531361 151.859292 
L 108.813283 151.494031 
L 109.095206 150.654499 
L 109.377129 147.87207 
L 109.659051 147.34724 
L 109.940974 151.13317 
L 110.222896 150.64927 
L 110.504819 144.615103 
L 110.786742 147.739425 
L 111.068664 153.494061 
L 111.350587 143.550092 
L 111.914432 155.389402 
L 112.196355 146.264239 
L 112.478277 151.038075 
L 112.7602 149.775443 
L 113.042122 144.493815 
L 113.324045 155.618358 
L 113.605968 150.977967 
L 113.88789 140.409339 
L 114.169813 144.730507 
L 114.451735 154.983788 
L 114.733658 154.305256 
L 115.015581 141.521634 
L 115.297503 158.14203 
L 115.579426 150.479376 
L 115.861348 134.642279 
L 116.143271 153.717502 
L 116.425194 153.350527 
L 116.707116 150.648943 
L 116.989039 146.347087 
L 117.270961 148.987613 
L 117.552884 153.804678 
L 117.834807 144.988393 
L 118.116729 145.720708 
L 118.398652 150.779151 
L 118.680574 149.240789 
L 118.962497 151.541067 
L 119.24442 147.644627 
L 119.526342 147.170695 
L 119.808265 155.51276 
L 120.090187 144.79472 
L 120.37211 150.173021 
L 120.654033 150.957686 
L 120.935955 144.909681 
L 121.217878 148.44332 
L 121.4998 147.224062 
L 121.781723 154.199383 
L 122.063646 148.98873 
L 122.345568 150.222429 
L 122.627491 149.082098 
L 122.909413 146.845734 
L 123.191336 148.106263 
L 123.473259 146.84023 
L 123.755181 155.416607 
L 124.037104 144.772034 
L 124.319026 149.647969 
L 124.600949 151.839288 
L 124.882872 144.17274 
L 125.164794 158.170418 
L 125.446717 142.788911 
L 125.728639 143.6603 
L 126.010562 160.067439 
L 126.292485 144.491146 
L 126.574407 146.096672 
L 126.85633 153.117431 
L 127.138252 147.118377 
L 127.702098 150.684672 
L 127.98402 147.227963 
L 128.265943 148.274566 
L 128.547865 153.844899 
L 129.111711 144.942099 
L 129.393633 149.953378 
L 129.675556 149.318974 
L 129.957478 150.56758 
L 130.239401 152.455351 
L 130.521324 147.165621 
L 130.803246 145.154529 
L 131.085169 151.509054 
L 131.649014 147.333733 
L 131.930936 148.428627 
L 132.212859 148.214739 
L 132.494782 153.016088 
L 132.776704 149.101686 
L 133.058627 149.439745 
L 133.340549 149.090329 
L 133.622472 147.047274 
L 133.904395 151.176759 
L 134.186317 150.328922 
L 134.46824 145.046458 
L 135.032085 152.990464 
L 135.314008 140.947845 
L 135.877853 159.911728 
L 136.159775 143.641846 
L 136.723621 150.197984 
L 137.005543 145.998394 
L 137.287466 152.627645 
L 137.569388 147.684637 
L 137.851311 147.136995 
L 138.133234 156.193269 
L 138.697079 141.851768 
L 138.979001 152.681576 
L 139.260924 145.869399 
L 139.542847 143.671155 
L 139.824769 159.333986 
L 140.106692 145.462121 
L 140.388614 148.746921 
L 140.670537 155.928968 
L 140.95246 145.739859 
L 141.234382 148.440553 
L 141.516305 148.254975 
L 141.798227 149.772773 
L 142.08015 147.339138 
L 142.643995 149.625523 
L 142.925918 145.495185 
L 143.20784 151.03815 
L 143.489763 152.182598 
L 143.771686 148.690654 
L 144.053608 149.874522 
L 144.335531 152.076162 
L 144.899376 144.811809 
L 145.181299 151.146162 
L 145.745144 145.360053 
L 146.027066 153.5101 
L 146.308989 147.13629 
L 146.590912 151.487492 
L 146.872834 153.16015 
L 147.154757 143.46362 
L 147.436679 150.644068 
L 147.718602 148.488999 
L 148.000525 147.491986 
L 148.282447 150.861058 
L 148.56437 148.693192 
L 148.846292 151.648757 
L 149.128215 147.570413 
L 149.410138 147.769482 
L 149.69206 151.406568 
L 149.973983 146.95115 
L 150.255905 148.994974 
L 150.537828 149.854946 
L 150.819751 148.29737 
L 151.101673 149.676771 
L 151.383596 148.411323 
L 151.665518 149.94993 
L 151.947441 150.254866 
L 152.229364 148.592992 
L 152.511286 149.774141 
L 152.793209 149.727562 
L 153.075131 146.114965 
L 153.357054 147.999438 
L 153.638977 151.585433 
L 153.920899 148.804057 
L 154.202822 148.920415 
L 154.484744 149.819641 
L 154.766667 147.886105 
L 155.048589 150.364133 
L 155.330512 150.928527 
L 155.612435 146.670727 
L 155.894357 148.527891 
L 156.17628 148.382104 
L 156.458202 149.90567 
L 156.740125 150.278075 
L 157.022048 146.393602 
L 157.30397 152.365369 
L 157.867815 147.809291 
L 158.149738 149.263338 
L 158.431661 147.336697 
L 158.713583 148.510637 
L 158.995506 148.486345 
L 159.277428 151.072611 
L 159.559351 147.691031 
L 159.841274 148.643383 
L 160.123196 151.667249 
L 160.405119 149.662046 
L 160.687041 150.968238 
L 160.968964 148.098914 
L 161.250887 147.943314 
L 161.532809 146.267711 
L 161.814732 148.0985 
L 162.096654 148.751268 
L 162.378577 148.552835 
L 162.6605 153.148149 
L 162.942422 150.763203 
L 163.224345 150.532575 
L 163.506267 149.216825 
L 164.070113 144.91082 
L 164.352035 149.758974 
L 164.633958 152.070065 
L 164.91588 146.530621 
L 165.197803 148.865356 
L 165.479726 148.498671 
L 165.761648 152.103045 
L 166.043571 148.853674 
L 166.325493 147.386345 
L 166.607416 152.757677 
L 166.889339 146.210372 
L 167.171261 152.237957 
L 167.453184 149.668282 
L 167.735106 141.966205 
L 168.017029 152.735528 
L 168.580874 146.758384 
L 168.862797 151.410724 
L 169.144719 149.43101 
L 169.708565 149.733508 
L 169.990487 148.401511 
L 170.27241 149.071907 
L 170.554332 148.401364 
L 170.836255 146.443111 
L 171.118178 153.442875 
L 171.4001 149.932238 
L 171.682023 143.678823 
L 171.963945 152.893491 
L 172.245868 150.830698 
L 172.527791 144.299458 
L 172.809713 149.201717 
L 173.091636 150.863238 
L 173.373558 148.777985 
L 173.655481 151.934491 
L 173.937404 149.775544 
L 174.219326 146.523828 
L 174.501249 151.395598 
L 175.065094 144.904364 
L 175.347017 148.67236 
L 175.628939 149.076379 
L 175.910862 150.072274 
L 176.192784 152.310655 
L 176.474707 149.785833 
L 176.75663 148.299701 
L 177.038552 149.362855 
L 177.320475 146.891175 
L 177.602397 147.659789 
L 177.88432 151.222845 
L 178.166242 150.699241 
L 179.01201 147.21562 
L 180.139701 150.853457 
L 180.421623 147.718182 
L 180.703546 148.028345 
L 180.985468 148.048554 
L 181.267391 147.75448 
L 181.549314 151.983928 
L 181.831236 152.146483 
L 182.113159 149.061282 
L 182.677004 147.839951 
L 182.958927 146.499349 
L 183.240849 149.90772 
L 183.522772 151.126354 
L 184.36854 146.877432 
L 184.650462 149.634056 
L 184.932385 150.247134 
L 185.214307 150.38994 
L 185.49623 147.917887 
L 185.778153 149.860304 
L 186.060075 149.60396 
L 186.341998 147.198326 
L 186.62392 150.006893 
L 186.905843 148.020406 
L 187.187766 151.482912 
L 187.751611 148.012528 
L 188.033533 148.598984 
L 188.315456 147.223458 
L 188.597379 150.151879 
L 188.879301 148.690125 
L 189.161224 148.454058 
L 189.443146 147.903657 
L 189.725069 152.17381 
L 190.006992 151.933248 
L 190.288914 148.293478 
L 190.570837 149.787146 
L 190.852759 144.160455 
L 191.134682 146.969741 
L 191.416605 151.633026 
L 191.698527 149.113115 
L 191.98045 149.710394 
L 192.262372 151.292831 
L 192.544295 150.960241 
L 192.826218 148.337792 
L 193.10814 148.096818 
L 193.390063 145.784074 
L 193.671985 146.664248 
L 193.953908 152.220047 
L 194.235831 150.784431 
L 194.517753 150.284745 
L 194.799676 149.302427 
L 195.081598 147.629727 
L 195.363521 148.448257 
L 195.645444 148.588008 
L 195.927366 149.79525 
L 196.209289 148.609693 
L 196.491211 150.613094 
L 196.773134 149.945322 
L 197.055057 145.177734 
L 197.336979 147.528045 
L 197.618902 150.89495 
L 197.900824 152.047401 
L 198.182747 149.183946 
L 198.746592 152.839602 
L 199.028515 143.771263 
L 199.310437 145.259176 
L 199.59236 149.513053 
L 199.874283 146.231534 
L 200.156205 151.352388 
L 200.438128 150.282025 
L 200.72005 149.966786 
L 201.001973 157.171295 
L 201.283895 147.552853 
L 201.565818 143.432596 
L 201.847741 148.475758 
L 202.129663 145.556748 
L 202.693508 153.125718 
L 202.975431 149.357737 
L 203.257354 147.827738 
L 203.539276 150.383687 
L 204.103121 148.415953 
L 204.385044 150.52745 
L 204.666967 149.666373 
L 205.230812 146.252776 
L 205.512734 148.787062 
L 205.794657 153.018229 
L 206.07658 146.830701 
L 206.358502 147.126535 
L 206.640425 152.173893 
L 206.922347 149.079403 
L 207.20427 149.289495 
L 207.486193 147.815446 
L 207.768115 150.951435 
L 208.050038 148.358681 
L 208.33196 147.033734 
L 208.613883 152.48716 
L 208.895806 145.278418 
L 209.459651 151.728412 
L 209.741573 152.868707 
L 210.023496 149.531129 
L 210.305419 143.640195 
L 210.587341 151.135126 
L 210.869264 148.978794 
L 211.151186 145.75741 
L 211.433109 148.398121 
L 211.715032 152.844296 
L 212.278877 147.851754 
L 212.560799 152.480186 
L 212.842722 148.143692 
L 213.124645 147.00939 
L 213.68849 150.384457 
L 213.970412 147.850104 
L 214.534258 147.957719 
L 214.81618 150.847963 
L 215.098103 151.975926 
L 215.380025 146.462733 
L 215.661948 151.426076 
L 215.943871 150.673557 
L 216.225793 148.079074 
L 216.507716 147.665644 
L 216.789638 148.228925 
L 217.071561 149.429162 
L 217.353484 146.650622 
L 217.635406 146.914935 
L 218.199251 152.962198 
L 218.481174 150.994096 
L 218.763097 150.262164 
L 219.326942 147.365106 
L 219.608864 147.782406 
L 219.890787 147.336777 
L 220.17271 150.892675 
L 220.454632 149.493035 
L 220.736555 144.599949 
L 221.018477 151.369728 
L 221.3004 151.455346 
L 221.582323 150.802076 
L 222.146168 145.752283 
L 222.42809 151.907935 
L 222.710013 145.333171 
L 222.991936 153.318363 
L 223.555781 148.190128 
L 223.837703 150.959545 
L 224.119626 142.616693 
L 224.401549 150.721402 
L 224.683471 149.154765 
L 224.965394 148.51671 
L 225.247316 148.557072 
L 225.529239 149.991709 
L 225.811161 152.529305 
L 226.093084 152.527615 
L 226.656929 141.725529 
L 226.938852 151.060306 
L 227.502697 146.846928 
L 228.066542 153.240907 
L 228.348465 150.037989 
L 228.630387 149.063076 
L 228.91231 148.815834 
L 229.194233 144.162323 
L 229.476155 150.56292 
L 229.758078 148.87475 
L 230.321923 151.356078 
L 230.603846 147.527714 
L 230.885768 146.819883 
L 231.167691 150.786913 
L 231.449613 151.268057 
L 231.731536 146.146355 
L 232.013459 151.182388 
L 232.295381 147.478716 
L 232.577304 146.273879 
L 232.859226 151.887446 
L 233.141149 151.747227 
L 233.423072 147.425222 
L 233.704994 151.669438 
L 233.986917 148.927144 
L 234.268839 144.663417 
L 234.550762 151.281068 
L 234.832685 143.887354 
L 235.114607 150.060779 
L 235.39653 152.208188 
L 235.678452 149.75591 
L 235.960375 153.567918 
L 236.52422 145.106255 
L 236.806143 148.769676 
L 237.088065 150.76393 
L 237.369988 144.276359 
L 237.651911 152.89761 
L 238.215756 146.398617 
L 238.497678 152.714101 
L 238.779601 145.04631 
L 239.061524 153.860234 
L 239.343446 148.618559 
L 239.625369 145.835893 
L 239.907291 153.211938 
L 240.189214 143.591354 
L 240.471137 150.825038 
L 241.034982 149.594661 
L 241.316904 149.512538 
L 241.598827 148.253088 
L 241.88075 151.163636 
L 242.162672 147.014457 
L 242.444595 149.0686 
L 242.726517 147.464198 
L 243.00844 152.494872 
L 243.572285 146.428945 
L 243.854208 149.02412 
L 244.13613 148.222289 
L 244.418053 148.886946 
L 244.699976 151.672555 
L 244.981898 148.135125 
L 245.263821 147.621186 
L 245.545743 154.994857 
L 245.827666 146.912965 
L 246.391511 150.317839 
L 246.673434 146.936521 
L 246.955356 146.616947 
L 247.237279 146.952153 
L 247.519202 149.884586 
L 247.801124 149.905957 
L 248.083047 152.968177 
L 248.364969 151.332212 
L 248.646892 146.026786 
L 248.928814 151.430063 
L 249.49266 144.479392 
L 249.774582 151.852704 
L 250.056505 148.220691 
L 250.338427 151.498946 
L 250.62035 148.833613 
L 250.902273 152.077149 
L 251.184195 146.072469 
L 251.466118 144.485243 
L 251.74804 154.70139 
L 252.029963 145.177239 
L 252.311886 149.310816 
L 252.593808 151.760032 
L 252.875731 149.224447 
L 253.157653 148.76546 
L 253.439576 151.598752 
L 253.721499 147.214288 
L 254.285344 149.812998 
L 254.567266 145.441534 
L 254.849189 152.187636 
L 255.131112 144.047352 
L 255.694957 156.899657 
L 255.976879 147.533735 
L 256.258802 150.372368 
L 256.540725 145.377476 
L 256.822647 143.315991 
L 257.10457 145.763371 
L 257.386492 153.420809 
L 257.668415 154.657446 
L 257.950338 148.285967 
L 258.23226 152.037445 
L 258.514183 146.762486 
L 258.796105 147.237967 
L 259.078028 151.840777 
L 259.359951 149.024365 
L 259.641873 141.476138 
L 259.923796 152.463082 
L 260.205718 154.315246 
L 260.487641 140.811207 
L 260.769564 153.300407 
L 261.051486 150.13513 
L 261.615331 148.613008 
L 261.897254 150.275131 
L 262.179177 150.100888 
L 262.461099 144.2339 
L 262.743022 153.614847 
L 263.024944 148.019172 
L 263.306867 147.662465 
L 263.58879 148.728213 
L 263.870712 148.492587 
L 264.434557 150.687478 
L 264.71648 150.10421 
L 264.998403 149.16901 
L 265.280325 149.707802 
L 265.562248 147.033583 
L 265.84417 148.764955 
L 266.126093 146.969319 
L 266.408016 150.611873 
L 266.689938 149.960182 
L 266.971861 148.996643 
L 267.253783 148.86619 
L 267.817629 151.780162 
L 268.099551 146.383818 
L 268.381474 149.764082 
L 268.663396 147.65581 
L 268.945319 146.704928 
L 269.227242 148.511691 
L 269.509164 151.710819 
L 269.791087 151.05148 
L 270.073009 147.387547 
L 270.354932 154.667945 
L 270.636855 145.758846 
L 270.918777 145.295193 
L 271.2007 149.342742 
L 271.482622 145.913385 
L 271.764545 152.436631 
L 272.046467 151.39368 
L 272.32839 151.618015 
L 272.610313 147.695815 
L 272.892235 149.763477 
L 273.174158 144.250095 
L 273.738003 155.434415 
L 274.019926 135.759599 
L 274.301848 158.046963 
L 274.865693 139.37633 
L 275.147616 162.635503 
L 275.429539 146.509062 
L 275.711461 146.261232 
L 275.993384 152.324679 
L 276.275306 146.536665 
L 276.557229 150.200362 
L 277.121074 144.634417 
L 277.402997 152.790036 
L 277.684919 151.283202 
L 277.966842 146.78079 
L 278.248765 152.37208 
L 278.81261 147.14807 
L 279.094532 149.430376 
L 279.376455 149.101261 
L 279.658378 144.865962 
L 279.9403 149.454097 
L 280.222223 151.13158 
L 280.504145 147.414075 
L 280.786068 150.395692 
L 281.067991 149.706691 
L 281.349913 150.410148 
L 281.631836 149.521364 
L 281.913758 150.62755 
L 282.195681 149.807911 
L 282.477604 146.147481 
L 282.759526 147.806745 
L 283.041449 146.705323 
L 283.323371 148.926513 
L 283.887217 151.061376 
L 284.169139 151.346171 
L 284.451062 147.40625 
L 285.014907 151.446106 
L 285.29683 146.524824 
L 285.578752 147.648636 
L 285.860675 150.371142 
L 286.142597 146.253246 
L 286.706443 151.55966 
L 286.988365 146.948523 
L 287.270288 151.694553 
L 287.55221 152.579921 
L 287.834133 147.0238 
L 288.116056 148.132991 
L 288.397978 146.413925 
L 288.679901 148.939351 
L 288.961823 149.956729 
L 289.243746 148.904891 
L 289.525669 151.190492 
L 289.807591 148.205559 
L 290.371436 151.226653 
L 290.935282 146.167661 
L 291.217204 146.949409 
L 291.499127 150.445461 
L 291.781049 152.493936 
L 292.062972 149.083804 
L 292.344895 148.748506 
L 292.626817 149.695632 
L 292.90874 147.417749 
L 293.190662 148.665574 
L 293.472585 147.989869 
L 294.03643 151.415585 
L 294.318353 148.161878 
L 294.600275 149.87157 
L 294.882198 149.722086 
L 295.16412 146.784847 
L 296.009888 150.935714 
L 296.291811 148.194076 
L 296.573733 150.057019 
L 296.855656 150.192752 
L 297.137579 145.695758 
L 297.419501 150.227324 
L 297.701424 148.500784 
L 297.983346 148.740788 
L 298.265269 149.893656 
L 298.547192 149.893368 
L 298.829114 149.449361 
L 299.111037 146.368476 
L 299.392959 154.017594 
L 299.674882 150.401739 
L 299.956805 145.145544 
L 300.238727 145.696295 
L 300.802572 151.490025 
L 301.084495 150.86183 
L 301.366418 150.987127 
L 301.64834 146.150506 
L 301.930263 150.346384 
L 302.212185 148.89313 
L 302.494108 146.753276 
L 302.776031 151.200395 
L 303.057953 148.543762 
L 303.339876 147.136517 
L 303.621798 150.963234 
L 303.903721 148.85731 
L 304.185644 147.693576 
L 304.467566 152.715935 
L 304.749489 149.034707 
L 305.031411 148.895226 
L 305.313334 150.271123 
L 305.595257 145.149909 
L 306.159102 153.063088 
L 306.441024 145.904211 
L 307.00487 149.132486 
L 307.286792 148.103932 
L 307.568715 154.332218 
L 307.850637 149.58746 
L 308.13256 149.538147 
L 308.414483 149.707543 
L 308.696405 146.568495 
L 308.978328 146.338735 
L 309.26025 147.587556 
L 309.542173 150.809164 
L 309.824096 149.731379 
L 310.106018 152.952871 
L 310.387941 148.621243 
L 310.669863 147.764621 
L 310.951786 151.769919 
L 311.233709 145.248137 
L 311.515631 145.711226 
L 311.797554 150.138576 
L 312.079476 150.165425 
L 312.361399 151.034021 
L 312.643322 149.700595 
L 312.925244 148.918599 
L 313.207167 151.870533 
L 313.489089 147.93915 
L 314.052935 146.845012 
L 314.334857 144.328652 
L 314.61678 154.665775 
L 314.898702 152.804768 
L 315.180625 146.799006 
L 315.462548 151.363256 
L 315.74447 147.179425 
L 316.026393 146.990197 
L 316.308315 152.223861 
L 316.590238 147.237084 
L 316.872161 146.012577 
L 317.154083 150.162044 
L 317.436006 148.541128 
L 317.717928 151.748556 
L 317.999851 151.402959 
L 318.281773 147.691949 
L 318.563696 149.920199 
L 318.845619 148.557157 
L 319.127541 150.740155 
L 319.691386 144.683683 
L 319.973309 149.255353 
L 320.255232 148.644321 
L 320.537154 151.357765 
L 320.819077 150.543789 
L 321.100999 150.969945 
L 321.382922 150.487571 
L 321.664845 145.414707 
L 321.946767 149.674597 
L 322.22869 148.748666 
L 322.510612 149.397612 
L 322.792535 149.693195 
L 323.074458 145.521942 
L 323.35638 149.311286 
L 323.638303 149.675335 
L 323.920225 148.87547 
L 324.202148 152.312653 
L 324.484071 152.218618 
L 324.765993 146.440816 
L 325.047916 147.257111 
L 325.329838 151.207844 
L 325.611761 147.524723 
L 325.893684 148.28475 
L 326.175606 150.358818 
L 326.457529 146.353225 
L 326.739451 147.834071 
L 327.303297 151.373933 
L 327.585219 151.986353 
L 327.867142 147.861165 
L 328.149064 149.568751 
L 328.71291 146.616095 
L 328.994832 149.458638 
L 329.276755 148.69464 
L 329.558677 149.185054 
L 329.8406 153.376677 
L 330.404445 145.066274 
L 330.686368 149.831579 
L 330.96829 146.660603 
L 331.532136 151.873878 
L 331.814058 147.313061 
L 332.095981 151.99338 
L 332.659826 145.759767 
L 333.223671 153.68438 
L 333.787516 142.35707 
L 334.069439 154.889644 
L 334.351362 150.747341 
L 334.633284 144.328978 
L 334.915207 152.132371 
L 335.197129 147.846466 
L 335.479052 148.190596 
L 335.760975 148.193218 
L 336.042897 147.966745 
L 336.32482 153.424779 
L 336.606742 149.958712 
L 336.888665 150.582348 
L 337.170588 146.873011 
L 337.45251 145.276071 
L 337.734433 149.756585 
L 338.016355 147.977004 
L 338.298278 152.271921 
L 338.580201 149.460541 
L 338.862123 149.518401 
L 339.144046 148.485551 
L 339.425968 148.680242 
L 339.707891 150.903915 
L 339.989814 148.266438 
L 340.271736 148.432645 
L 340.553659 146.558589 
L 340.835581 150.706986 
L 341.117504 146.620989 
L 341.399427 154.556439 
L 341.681349 148.02409 
L 341.963272 144.55368 
L 342.245194 154.396107 
L 342.527117 149.765652 
L 342.809039 149.068477 
L 343.090962 144.817591 
L 343.372885 151.377306 
L 343.654807 143.93827 
L 343.93673 151.948903 
L 344.218652 151.554342 
L 344.500575 146.733591 
L 344.782498 153.421095 
L 345.06442 147.036868 
L 345.346343 150.954576 
L 345.628265 147.113632 
L 345.910188 150.518298 
L 346.192111 145.594252 
L 346.474033 148.788244 
L 346.755956 148.940169 
L 347.037878 151.098886 
L 347.319801 151.42312 
L 347.601724 145.790552 
L 347.883646 151.744937 
L 348.165569 146.726504 
L 348.447491 152.090244 
L 348.729414 147.184722 
L 349.011337 149.127488 
L 349.293259 148.233963 
L 349.575182 146.931497 
L 349.857104 148.387579 
L 350.139027 153.029715 
L 350.42095 150.463869 
L 350.702872 146.616088 
L 350.984795 156.364644 
L 351.266717 143.757975 
L 351.54864 149.13372 
L 351.830563 145.245512 
L 352.112485 150.711542 
L 352.394408 148.208791 
L 352.67633 147.097226 
L 352.958253 156.062385 
L 353.240176 143.918447 
L 353.522098 154.406012 
L 353.804021 148.182174 
L 354.085943 146.39357 
L 354.367866 147.556954 
L 354.649789 151.336764 
L 354.931711 148.749279 
L 355.213634 149.275857 
L 355.495556 151.071973 
L 355.777479 146.393488 
L 356.059402 150.86629 
L 356.341324 144.742785 
L 356.623247 152.840447 
L 356.905169 149.273065 
L 357.187092 151.225657 
L 357.750937 146.911097 
L 358.03286 146.800138 
L 358.314782 147.141884 
L 358.596705 153.31209 
L 358.878628 148.89956 
L 359.16055 152.003396 
L 359.442473 146.214807 
L 359.724395 152.606247 
L 360.006318 146.628516 
L 360.288241 145.123751 
L 360.570163 152.225185 
L 360.852086 151.276711 
L 361.134008 147.498586 
L 361.415931 146.109939 
L 361.697854 151.343932 
L 361.979776 146.787779 
L 362.261699 153.059655 
L 362.543621 149.637816 
L 362.825544 148.413841 
L 363.107467 150.855971 
L 363.389389 145.889859 
L 363.671312 146.907739 
L 363.953234 150.20919 
L 364.235157 148.655131 
L 364.51708 151.841129 
L 364.799002 151.299568 
L 365.080925 144.050435 
L 365.362847 149.837986 
L 365.64477 148.862492 
L 365.926692 153.025786 
L 366.490538 144.988538 
L 366.77246 156.454074 
L 367.054383 141.988897 
L 367.618228 154.374611 
L 367.900151 144.177669 
L 368.182073 150.573441 
L 368.463996 146.610843 
L 368.745918 152.073629 
L 369.027841 146.266005 
L 369.591686 152.629829 
L 369.873609 145.11562 
L 370.155531 156.383022 
L 370.437454 147.383661 
L 370.719377 143.049914 
L 371.001299 151.97633 
L 371.283222 147.05142 
L 371.565144 146.950784 
L 371.847067 151.100025 
L 372.12899 150.697425 
L 372.410912 151.730701 
L 372.692835 148.166336 
L 372.974757 150.144388 
L 373.25668 146.040193 
L 373.538603 147.570175 
L 373.820525 150.664854 
L 374.102448 146.564909 
L 374.38437 151.571271 
L 374.666293 147.970182 
L 374.948216 153.988231 
L 375.230138 144.299285 
L 375.793983 154.594855 
L 376.075906 143.55789 
L 376.357829 159.143358 
L 376.639751 140.06559 
L 376.921674 164.19359 
L 377.203596 116.878865 
L 377.485519 111.826338 
L 377.767442 219.325627 
L 378.049364 156.563021 
L 378.331287 139.254136 
L 378.613209 141.901987 
L 378.895132 137.689394 
L 379.177055 159.856587 
L 379.458977 121.216408 
L 379.7409 167.425979 
L 380.022822 172.214659 
L 380.304745 118.488852 
L 380.86859 175.459406 
L 381.150513 143.276992 
L 381.432435 157.072967 
L 381.714358 152.196753 
L 381.996281 122.118782 
L 382.278203 146.952802 
L 382.560126 150.541348 
L 382.842048 167.753171 
L 383.123971 145.115258 
L 383.405894 149.77426 
L 383.687816 159.840478 
L 383.969739 131.568265 
L 384.251661 149.127812 
L 384.533584 150.949533 
L 384.815507 149.058995 
L 385.379352 152.939433 
L 385.661274 143.403651 
L 385.943197 155.566135 
L 386.22512 156.520342 
L 386.507042 128.920952 
L 386.788965 149.766332 
L 387.070887 157.982874 
L 387.35281 137.89527 
L 387.634733 154.043192 
L 387.916655 176.827487 
L 388.198578 133.694343 
L 388.4805 131.750098 
L 388.762423 166.531099 
L 389.044345 138.112665 
L 389.326268 143.612916 
L 389.608191 164.343648 
L 389.890113 149.313714 
L 390.172036 144.013049 
L 390.453958 135.442241 
L 391.017804 161.102091 
L 391.299726 159.760229 
L 391.581649 146.788153 
L 391.863571 127.985078 
L 392.145494 171.89641 
L 392.427417 138.465364 
L 392.709339 138.143176 
L 392.991262 171.486717 
L 393.273184 184.170401 
L 393.555107 87.625225 
L 393.83703 68.669789 
L 394.118952 208.092736 
L 394.400875 155.425815 
L 394.682797 282.398437 
L 395.246643 30.398437 
L 395.528565 137.573183 
L 395.810488 108.529277 
L 396.09241 234.84495 
L 396.374333 88.958504 
L 396.656256 103.111845 
L 396.938178 232.310543 
L 397.220101 226.13025 
L 397.783946 54.674305 
L 398.065869 155.563353 
L 398.347791 143.047374 
L 398.629714 213.711169 
L 399.193559 50.549279 
L 399.475482 177.943474 
L 399.757404 186.537588 
L 400.039327 162.792112 
L 400.321249 128.174788 
L 400.603172 133.574389 
L 400.885095 203.420465 
L 401.44894 124.943852 
L 401.730862 123.615931 
L 402.012785 112.47679 
L 402.294708 160.081636 
L 402.57663 165.151981 
L 402.858553 168.011117 
L 403.140475 148.255214 
L 403.422398 147.967697 
L 403.704321 142.719493 
L 403.986243 131.458496 
L 404.268166 192.527228 
L 404.550088 136.526356 
L 404.832011 128.80204 
L 405.113934 165.477982 
L 405.395856 124.689186 
L 405.677779 153.497287 
L 405.959701 163.965364 
L 406.241624 147.193475 
L 406.523547 160.765493 
L 406.805469 128.298393 
L 407.087392 142.633359 
L 407.369314 172.485361 
L 407.93316 132.13627 
L 408.215082 131.966159 
L 408.497005 184.134974 
L 409.06085 121.749528 
L 409.342773 149.898194 
L 409.624695 155.502183 
L 409.906618 177.717975 
L 410.470463 130.587662 
L 410.752386 134.324935 
L 411.316231 155.967364 
L 411.598153 156.066983 
L 411.880076 152.623199 
L 412.161998 155.823981 
L 412.725844 139.026865 
L 413.007766 150.156021 
L 413.289689 141.006786 
L 413.571611 148.142871 
L 413.853534 166.254568 
L 414.135457 139.497989 
L 414.417379 139.660742 
L 414.699302 174.451551 
L 414.981224 153.041948 
L 415.54507 131.894066 
L 415.826992 136.126272 
L 416.108915 161.695814 
L 416.390837 153.177079 
L 416.67276 158.927976 
L 416.954683 148.185303 
L 417.518528 144.619764 
L 417.80045 147.110926 
L 418.082373 159.790636 
L 418.364296 149.3666 
L 418.646218 146.431982 
L 418.928141 145.541473 
L 419.210063 153.37649 
L 419.491986 138.595917 
L 419.773909 143.720698 
L 420.055831 156.133665 
L 420.337754 147.309643 
L 420.619676 153.738363 
L 420.901599 155.93347 
L 421.183522 154.084413 
L 421.465444 146.836863 
L 421.747367 146.423164 
L 422.029289 135.602573 
L 422.311212 152.361661 
L 422.593135 152.678402 
L 422.875057 148.496051 
L 423.15698 157.834656 
L 423.438902 139.067697 
L 423.720825 148.384697 
L 424.002748 146.739034 
L 424.28467 155.864592 
L 424.566593 150.953776 
L 424.848515 152.060903 
L 425.130438 152.483024 
L 425.412361 139.447317 
L 425.694283 149.493682 
L 425.976206 141.002978 
L 426.258128 156.033346 
L 426.540051 154.429307 
L 426.821974 146.793171 
L 427.103896 147.511457 
L 427.385819 147.22896 
L 427.667741 154.551464 
L 427.949664 143.49513 
L 428.513509 152.836024 
L 428.795432 149.804164 
L 429.077354 150.090224 
L 429.359277 147.277694 
L 429.6412 156.124581 
L 429.923122 144.135646 
L 430.205045 142.47903 
L 430.486967 149.752156 
L 430.76889 145.667884 
L 431.050813 154.902936 
L 431.332735 143.66602 
L 431.614658 160.444716 
L 431.89658 158.183804 
L 432.178503 141.217589 
L 432.460426 143.325271 
L 432.742348 139.554968 
L 433.024271 155.752015 
L 433.306193 150.060783 
L 433.588116 153.338032 
L 433.870039 146.653249 
L 434.151961 143.221538 
L 434.433884 160.053935 
L 434.997729 142.765987 
L 435.279652 143.720219 
L 435.561574 156.870006 
L 435.843497 150.639118 
L 436.125419 137.739418 
L 436.407342 151.267749 
L 436.689264 154.671359 
L 436.971187 154.180764 
L 437.535032 143.469144 
L 437.816955 148.211643 
L 438.098877 146.314262 
L 438.3808 148.296133 
L 438.662723 143.050704 
L 439.226568 165.360832 
L 439.50849 150.883671 
L 439.790413 152.920759 
L 440.072336 146.183701 
L 440.354258 123.721687 
L 440.918103 160.439849 
L 441.200026 150.075017 
L 441.481949 158.905525 
L 441.763871 138.658159 
L 442.045794 148.032854 
L 442.327716 165.413335 
L 442.609639 142.667245 
L 442.891562 152.882105 
L 443.173484 154.205295 
L 443.455407 142.063156 
L 443.737329 138.765557 
L 444.019252 131.477928 
L 444.301175 144.733197 
L 444.583097 178.986296 
L 444.86502 167.22619 
L 445.146942 137.687221 
L 445.428865 144.49951 
L 445.710788 145.128562 
L 445.99271 141.965171 
L 446.274633 148.694974 
L 446.556555 151.960348 
L 446.838478 151.32211 
L 447.120401 160.797723 
L 447.402323 130.475869 
L 447.684246 130.617497 
L 447.966168 186.187431 
L 448.530014 143.878585 
L 448.811936 133.805349 
L 449.093859 129.132538 
L 449.375781 156.411366 
L 449.657704 144.945653 
L 449.939627 165.5767 
L 450.221549 155.341386 
L 450.503472 139.966337 
L 450.785394 156.954938 
L 451.067317 147.77569 
L 451.34924 147.923747 
L 451.913085 141.167435 
L 452.195007 151.350139 
L 452.47693 152.169551 
L 452.758853 138.115849 
L 453.040775 168.65914 
L 453.322698 159.113274 
L 453.60462 145.239196 
L 453.886543 140.793794 
L 454.168466 138.566908 
L 454.450388 159.095812 
L 454.732311 133.191704 
L 455.014233 162.063365 
L 455.296156 138.156548 
L 455.578079 158.011471 
L 455.860001 161.826883 
L 456.141924 130.477076 
L 456.423846 166.178913 
L 456.705769 146.259709 
L 456.987692 161.976743 
L 457.269614 123.016386 
L 457.551537 146.438638 
L 457.833459 145.027485 
L 458.115382 149.115582 
L 458.397305 177.943583 
L 458.679227 133.715979 
L 458.96115 167.911766 
L 459.243072 131.643216 
L 459.524995 146.088046 
L 459.806917 141.188268 
L 460.08884 148.775462 
L 460.370763 160.128264 
L 460.652685 142.419204 
L 460.934608 171.047513 
L 461.21653 127.648313 
L 461.498453 163.345657 
L 461.780376 142.038643 
L 462.062298 146.097306 
L 462.344221 158.757692 
L 462.626143 128.352886 
L 462.908066 155.801301 
L 463.189989 142.455125 
L 463.471911 168.442086 
L 463.753834 145.64678 
L 464.035756 150.848723 
L 464.317679 153.230908 
L 464.599602 136.61118 
L 464.881524 155.059452 
L 465.163447 131.895733 
L 465.445369 161.937328 
L 466.009215 145.430098 
L 466.291137 153.567203 
L 466.57306 143.603915 
L 466.854982 156.857611 
L 467.136905 143.735597 
L 467.70075 146.030942 
L 467.982673 152.994329 
L 468.546518 145.96404 
L 468.828441 160.949604 
L 469.110363 151.7305 
L 469.392286 149.204345 
L 469.674208 139.96776 
L 469.956131 142.824228 
L 470.238054 149.698735 
L 470.519976 150.637865 
L 470.801899 156.16803 
L 471.083821 139.207875 
L 471.365744 146.435701 
L 471.647667 157.531555 
L 471.929589 157.289478 
L 472.211512 155.138834 
L 472.493434 140.152339 
L 472.775357 147.458862 
L 473.05728 146.226392 
L 473.339202 142.049676 
L 473.621125 149.913244 
L 473.903047 150.102675 
L 474.18497 155.325488 
L 474.466893 149.219592 
L 474.748815 153.192873 
L 475.31266 142.725995 
L 475.594583 151.855869 
L 475.876506 148.752476 
L 476.158428 154.923302 
L 476.440351 146.609674 
L 476.722273 147.377511 
L 477.004196 143.018432 
L 477.286119 148.293453 
L 477.568041 155.691855 
L 478.131886 150.766516 
L 478.413809 138.913852 
L 478.695732 155.067396 
L 478.977654 142.842781 
L 479.259577 153.024722 
L 479.541499 156.515594 
L 479.823422 139.341623 
L 480.105345 151.088436 
L 480.387267 147.341684 
L 480.66919 155.758361 
L 480.951112 147.602648 
L 481.233035 149.349353 
L 481.79688 141.941004 
L 482.078803 151.299334 
L 482.360725 153.088925 
L 482.642648 156.158236 
L 482.92457 142.311819 
L 483.206493 155.7606 
L 483.488416 154.725762 
L 483.770338 136.425874 
L 484.052261 148.058241 
L 484.334183 150.45166 
L 484.616106 145.233172 
L 484.898029 153.860173 
L 485.179951 145.864147 
L 485.461874 147.925782 
L 485.743796 153.478461 
L 486.025719 155.022666 
L 486.307642 153.86877 
L 486.589564 145.461514 
L 486.871487 141.951877 
L 487.153409 144.130191 
L 487.435332 149.884142 
L 487.717255 135.280852 
L 487.999177 184.08727 
L 488.2811 143.203058 
L 488.563022 119.522061 
L 488.844945 181.401794 
L 489.126868 135.900614 
L 489.40879 150.705154 
L 489.690713 155.104734 
L 489.972635 136.42629 
L 490.818403 161.926816 
L 491.100326 143.320993 
L 491.382248 142.119137 
L 491.946094 157.451814 
L 492.228016 147.828461 
L 492.509939 148.132201 
L 492.791861 150.289641 
L 493.073784 145.321929 
L 493.355707 154.159198 
L 493.637629 142.479718 
L 493.919552 138.456566 
L 494.201474 157.90857 
L 494.483397 157.619599 
L 495.329165 143.158665 
L 495.611087 148.782084 
L 495.89301 146.607979 
L 496.174933 153.515237 
L 496.456855 151.440598 
L 496.738778 144.373536 
L 497.0207 146.32845 
L 497.302623 152.025219 
L 497.584546 151.161321 
L 497.866468 148.987321 
L 498.148391 153.381483 
L 498.430313 153.029265 
L 498.712236 147.174342 
L 498.994159 136.553021 
L 499.276081 143.753186 
L 499.558004 156.722837 
L 499.839926 155.304662 
L 500.121849 147.013389 
L 500.403772 146.459735 
L 500.685694 153.303532 
L 500.967617 150.913468 
L 501.249539 149.643033 
L 501.531462 145.527722 
L 501.813385 148.191406 
L 502.095307 153.635764 
L 502.37723 144.674371 
L 502.659152 140.61257 
L 503.222998 157.528283 
L 503.50492 153.272794 
L 504.068765 148.440901 
L 504.350688 144.421178 
L 504.632611 148.771585 
L 504.914533 145.987471 
L 505.196456 147.576308 
L 505.478378 154.60846 
L 505.760301 151.39624 
L 506.042223 146.648186 
L 506.324146 145.32392 
L 506.606069 151.932332 
L 506.887991 152.730499 
L 507.169914 147.81669 
L 507.451836 146.058915 
L 507.733759 147.722938 
L 508.015682 150.661224 
L 508.297604 148.428849 
L 508.579527 152.734957 
L 508.861449 152.385655 
L 509.143372 144.759631 
L 509.425295 142.537066 
L 509.707217 151.076179 
L 509.98914 151.239629 
L 510.552985 154.19564 
L 510.834908 142.380469 
L 511.398753 149.18229 
L 511.680675 154.14646 
L 511.962598 145.583951 
L 512.244521 147.339403 
L 512.526443 154.88123 
L 512.808366 143.92957 
L 513.090288 150.245101 
L 513.372211 148.687364 
L 513.654134 151.491187 
L 513.936056 152.102188 
L 514.217979 146.915121 
L 514.499901 148.025218 
L 514.781824 146.028277 
L 515.063747 147.000219 
L 515.627592 159.687212 
L 515.909514 140.322921 
L 516.191437 140.992283 
L 516.47336 150.476367 
L 516.755282 153.825999 
L 517.037205 148.590532 
L 517.319127 146.038037 
L 517.60105 158.464472 
L 517.882973 138.869415 
L 518.164895 152.00687 
L 518.446818 156.685178 
L 518.72874 148.245442 
L 519.010663 145.995585 
L 519.292586 139.929048 
L 519.574508 158.395731 
L 519.856431 141.167136 
L 520.138353 154.596338 
L 520.420276 156.089435 
L 520.702199 136.910398 
L 520.984121 156.399 
L 521.547966 144.448851 
L 522.111812 150.892282 
L 522.675657 148.998023 
L 522.957579 150.251638 
L 523.239502 150.191334 
L 523.521425 150.738353 
L 523.803347 145.981374 
L 524.08527 149.742347 
L 524.367192 145.784907 
L 524.649115 144.068287 
L 524.931038 152.847523 
L 525.21296 152.228096 
L 525.494883 155.678255 
L 525.776805 147.944644 
L 526.058728 145.49688 
L 526.340651 152.177568 
L 526.622573 143.29001 
L 526.904496 144.436166 
L 527.468341 152.129901 
L 527.750264 154.358188 
L 528.032186 152.576224 
L 528.314109 148.139434 
L 528.596031 145.638561 
L 528.877954 148.697323 
L 529.159877 149.883943 
L 529.723722 143.417649 
L 530.005644 157.080043 
L 530.287567 147.374484 
L 530.569489 146.827391 
L 530.851412 157.964814 
L 531.133335 142.768822 
L 531.415257 152.93637 
L 531.979102 142.519693 
L 532.261025 149.629834 
L 532.542948 146.990863 
L 532.82487 153.118635 
L 533.106793 152.371827 
L 533.388715 149.562072 
L 533.670638 148.700297 
L 533.952561 150.592172 
L 534.234483 145.850626 
L 534.516406 147.874981 
L 534.798328 152.223975 
L 535.080251 146.960313 
L 535.362174 146.110151 
L 535.644096 149.180446 
L 535.926019 150.648234 
L 536.207941 147.267924 
L 536.489864 155.108952 
L 536.771787 151.485995 
L 537.053709 145.452292 
L 537.335632 150.88957 
L 537.617554 144.648038 
L 537.899477 145.744982 
L 538.1814 154.27687 
L 538.745245 143.97866 
L 539.027167 153.027873 
L 539.30909 150.828189 
L 539.591013 147.620777 
L 539.872935 153.647089 
L 540.43678 143.868662 
L 540.718703 148.775752 
L 541.000626 148.061422 
L 541.564471 156.736728 
L 541.846393 138.977956 
L 542.410239 155.189324 
L 542.692161 142.402554 
L 542.974084 154.601881 
L 543.537929 147.383066 
L 543.819852 149.472748 
L 544.101774 145.529566 
L 544.383697 149.537709 
L 544.665619 149.736346 
L 544.947542 148.68237 
L 545.229465 148.516198 
L 545.511387 151.064455 
L 545.79331 146.985827 
L 546.357155 155.446062 
L 546.639078 143.771296 
L 546.921 146.844241 
L 547.202923 148.287629 
L 547.484845 148.005586 
L 547.766768 151.79373 
L 548.048691 147.007851 
L 548.330613 152.621935 
L 548.612536 152.765035 
L 548.894458 145.677789 
L 549.176381 145.426076 
L 549.458304 149.633088 
L 549.740226 150.541634 
L 550.022149 148.393804 
L 550.304071 149.761584 
L 550.585994 150.100188 
L 550.867917 150.210504 
L 551.149839 148.850399 
L 551.431762 148.052268 
L 551.713684 147.825672 
L 551.995607 152.35582 
L 552.27753 146.089853 
L 552.559452 146.19082 
L 552.841375 150.669091 
L 553.123297 149.040817 
L 553.40522 151.320595 
L 553.687142 148.648594 
L 553.969065 154.234088 
L 554.250988 147.794013 
L 554.53291 149.671099 
L 554.814833 147.795665 
L 555.096755 141.178464 
L 555.942523 155.842316 
L 556.224446 149.802172 
L 556.506368 153.466106 
L 556.788291 148.960048 
L 557.070214 148.830816 
L 557.352136 150.121566 
L 557.634059 143.75298 
L 557.915981 146.979557 
L 558.197904 145.906475 
L 558.761749 152.132599 
L 559.043672 151.49946 
L 559.325594 147.298298 
L 559.88944 151.468766 
L 560.171362 148.454549 
L 560.453285 148.357391 
L 560.735207 151.124514 
L 561.01713 152.237494 
L 561.299053 142.847661 
L 561.580975 145.248445 
L 561.862898 149.266946 
L 562.14482 151.432097 
L 562.426743 150.878105 
L 562.708666 149.96243 
L 562.990588 151.601344 
L 563.272511 147.135966 
L 563.554433 148.449274 
L 563.836356 145.253733 
L 564.118279 149.783982 
L 564.400201 151.153972 
L 564.682124 151.312147 
L 564.964046 152.140472 
L 565.245969 150.3074 
L 565.527892 145.940923 
L 565.809814 137.904075 
L 566.091737 151.616111 
L 566.373659 149.954868 
L 566.937505 153.366856 
L 567.219427 152.338343 
L 567.50135 154.553556 
L 567.783272 142.659872 
L 568.065195 146.675572 
L 568.347118 143.323414 
L 568.62904 150.758134 
L 568.910963 149.336529 
L 569.192885 138.376505 
L 569.474808 162.569276 
L 570.038653 144.884655 
L 570.320576 156.084047 
L 570.602498 142.425648 
L 571.166344 150.286852 
L 571.448266 148.868176 
L 571.730189 150.634688 
L 572.012111 148.522035 
L 572.294034 148.129894 
L 572.575957 144.511041 
L 572.857879 152.016484 
L 573.139802 154.047183 
L 573.421724 148.266636 
L 573.703647 146.311757 
L 573.98557 145.933633 
L 574.267492 154.30095 
L 574.549415 153.032827 
L 574.831337 147.045203 
L 575.11326 154.908815 
L 575.395183 144.77464 
L 575.677105 141.211428 
L 575.959028 145.958189 
L 576.24095 143.026511 
L 576.522873 153.904772 
L 576.804795 153.649037 
L 577.086718 154.908184 
L 577.368641 160.160946 
L 578.214408 135.955715 
L 578.496331 137.54715 
L 578.778254 154.991456 
L 579.060176 150.280054 
L 579.342099 147.91114 
L 579.624021 156.837242 
L 579.905944 154.295142 
L 580.187867 152.993405 
L 580.469789 146.25533 
L 580.751712 143.528884 
L 581.033634 147.079166 
L 581.315557 146.910029 
L 581.59748 148.17824 
L 581.879402 155.124913 
L 582.161325 149.098488 
L 582.443247 149.001849 
L 582.72517 149.590787 
L 583.007093 141.992361 
L 583.289015 144.78214 
L 583.85286 160.402036 
L 584.134783 151.871715 
L 584.416706 154.429801 
L 584.698628 140.364851 
L 584.980551 135.867541 
L 585.262473 144.185106 
L 585.544396 146.874522 
L 585.826319 159.464453 
L 586.108241 156.22253 
L 586.390164 158.31452 
L 586.672086 143.287593 
L 586.954009 142.013816 
L 587.235932 149.145592 
L 587.517854 147.921622 
L 587.799777 155.845686 
L 588.363622 147.287796 
L 588.645545 136.060958 
L 588.927467 141.700011 
L 589.20939 153.583197 
L 589.491312 153.285689 
L 589.773235 159.075588 
L 590.055158 157.13791 
L 590.33708 146.917211 
L 590.619003 143.500445 
L 590.900925 144.784482 
L 591.464771 150.171724 
L 592.028616 148.072504 
L 592.310538 149.908844 
L 592.592461 146.147699 
L 592.874384 148.217605 
L 593.156306 152.851082 
L 593.438229 150.935137 
L 593.720151 154.43447 
L 594.283997 144.344199 
L 594.565919 145.297645 
L 594.847842 146.976296 
L 595.129764 153.462158 
L 595.411687 153.015514 
L 596.257455 146.357287 
L 596.539377 144.751766 
L 596.8213 146.847729 
L 597.103223 147.700536 
L 597.385145 151.770644 
L 597.667068 153.933322 
L 597.94899 153.439041 
L 598.230913 153.230087 
L 598.512836 144.500131 
L 598.794758 139.387754 
L 599.358603 151.065883 
L 599.640526 154.561548 
L 599.922448 156.620254 
L 600.204371 148.436822 
L 600.486294 147.894221 
L 600.768216 145.825702 
L 601.050139 139.748159 
L 601.895907 158.035855 
L 602.177829 157.18287 
L 602.459752 150.172407 
L 603.023597 142.301359 
L 603.30552 138.398414 
L 603.869365 152.00182 
L 604.151287 156.807317 
L 604.43321 159.387657 
L 604.715133 147.666968 
L 604.997055 147.924297 
L 605.278978 147.076432 
L 605.5609 143.941221 
L 605.842823 145.567173 
L 606.124746 143.87845 
L 606.406668 152.770418 
L 606.688591 155.697431 
L 606.970513 156.635552 
L 607.534359 140.455814 
L 607.816281 150.071356 
L 608.380126 148.272868 
L 608.662049 149.606836 
L 608.943972 144.336604 
L 609.225894 146.676308 
L 609.507817 151.525218 
L 609.789739 151.991915 
L 610.071662 150.649472 
L 610.353585 156.721 
L 610.91743 146.233138 
L 611.199352 147.122441 
L 611.481275 139.141134 
L 611.763198 147.941358 
L 612.04512 152.045756 
L 612.608965 150.007963 
L 612.890888 149.921808 
L 613.172811 150.753643 
L 613.454733 146.498592 
L 613.736656 150.268787 
L 614.018578 151.074719 
L 614.300501 150.360933 
L 614.582424 149.047623 
L 614.864346 148.896056 
L 615.146269 143.622929 
L 615.428191 152.278961 
L 615.710114 154.204997 
L 615.992037 141.106126 
L 616.273959 145.930517 
L 616.555882 145.706212 
L 616.837804 154.064105 
L 617.119727 155.654425 
L 617.683572 151.781698 
L 617.965495 144.169086 
L 618.247417 142.56314 
L 618.52934 143.573742 
L 618.811263 149.698033 
L 619.093185 150.632135 
L 619.375108 157.915824 
L 619.65703 153.234171 
L 619.938953 146.290085 
L 620.220876 147.714146 
L 620.502798 146.503873 
L 620.784721 148.455622 
L 621.066643 143.976936 
L 621.348566 147.135685 
L 621.630489 153.167805 
L 621.912411 153.054257 
L 622.194334 155.442599 
L 622.758179 139.359491 
L 623.040102 148.39836 
L 623.322024 153.224237 
L 623.603947 152.410362 
L 623.885869 145.982976 
L 624.167792 147.95995 
L 624.449714 152.706954 
L 624.731637 148.791553 
L 625.01356 149.107286 
L 625.295482 142.532896 
L 625.577405 152.131443 
L 625.859327 153.183339 
L 626.14125 147.921753 
L 626.423173 149.049516 
L 626.705095 142.493792 
L 626.987018 149.665085 
L 627.26894 151.713575 
L 627.550863 155.49526 
L 627.832786 153.109936 
L 628.114708 145.803797 
L 628.396631 149.708538 
L 628.678553 142.653798 
L 628.960476 139.875777 
L 629.242399 150.561593 
L 629.524321 152.914936 
L 629.806244 151.533007 
L 630.088166 156.095013 
L 630.370089 154.422341 
L 630.933934 142.688348 
L 631.215857 146.058172 
L 631.497779 147.774026 
L 631.779702 146.067855 
L 632.061625 150.251661 
L 632.343547 149.746572 
L 632.62547 151.74132 
L 632.907392 152.299245 
L 633.189315 148.508963 
L 633.75316 149.09159 
L 634.035083 148.495145 
L 634.317005 148.858567 
L 634.598928 150.149698 
L 634.880851 149.825605 
L 635.162773 144.672158 
L 635.444696 146.364591 
L 635.726618 154.334242 
L 636.290464 146.499253 
L 636.572386 151.413245 
L 636.854309 152.03743 
L 637.136231 147.490535 
L 637.418154 145.407438 
L 637.700077 147.121965 
L 637.981999 146.27693 
L 638.263922 152.792369 
L 638.545844 156.293022 
L 638.827767 147.080206 
L 639.10969 149.950383 
L 639.391612 148.582835 
L 639.673535 146.249321 
L 639.955457 151.891629 
L 640.23738 143.624688 
L 640.519303 146.638134 
L 640.801225 150.937392 
L 641.083148 148.912311 
L 641.36507 153.929494 
L 641.646993 149.652709 
L 641.928916 149.290865 
L 642.210838 152.239089 
L 642.492761 147.305477 
L 642.774683 146.68745 
L 643.056606 148.136046 
L 643.338529 146.328855 
L 643.620451 146.304264 
L 643.902374 149.411448 
L 644.184296 150.432469 
L 644.466219 152.157363 
L 644.748142 154.793436 
L 645.030064 150.155275 
L 645.311987 150.466624 
L 645.593909 148.841412 
L 645.875832 138.629435 
L 646.157755 142.501846 
L 646.439677 151.499182 
L 646.7216 155.604105 
L 647.003522 155.57388 
L 647.567367 145.283291 
L 647.84929 144.455857 
L 648.131213 149.741029 
L 648.413135 147.993015 
L 648.695058 148.129503 
L 648.97698 153.035302 
L 649.258903 150.200826 
L 649.540826 149.539976 
L 649.822748 147.240795 
L 650.104671 146.350412 
L 650.386593 152.967257 
L 650.668516 151.56608 
L 650.950439 146.532976 
L 651.232361 149.46658 
L 651.514284 147.672013 
L 651.796206 142.882101 
L 652.078129 150.123416 
L 652.360052 153.969489 
L 652.641974 150.744857 
L 652.923897 150.217857 
L 653.205819 148.455775 
L 653.487742 151.139284 
L 654.051587 145.88633 
L 654.33351 147.184314 
L 654.615432 146.879913 
L 654.897355 150.413519 
L 655.179278 150.308673 
L 655.4612 152.193394 
L 655.743123 148.978913 
L 656.025045 147.661409 
L 656.306968 149.474526 
L 656.588891 150.183703 
L 657.152736 147.848488 
L 657.434658 153.863891 
L 657.716581 146.99352 
L 657.998504 143.866209 
L 658.280426 145.777106 
L 658.844271 154.741051 
L 659.126194 147.922563 
L 659.408117 149.734203 
L 659.690039 152.509957 
L 660.253884 145.484905 
L 660.535807 145.487207 
L 660.81773 150.417338 
L 661.099652 151.397786 
L 661.381575 145.065012 
L 661.663497 154.113588 
L 661.94542 154.465841 
L 662.227343 137.099963 
L 662.791188 156.171686 
L 663.07311 150.280216 
L 663.636956 146.902098 
L 663.918878 147.699468 
L 664.200801 146.531637 
L 664.482723 151.072286 
L 664.764646 157.68275 
L 665.328491 142.498414 
L 665.610414 147.254115 
L 665.892336 145.131291 
L 666.174259 149.086692 
L 666.456182 151.343114 
L 666.738104 150.866354 
L 667.020027 152.847433 
L 667.301949 147.420939 
L 667.583872 153.566481 
L 667.865795 150.827442 
L 668.147717 142.792952 
L 668.42964 144.381445 
L 668.711562 151.036079 
L 668.993485 151.468509 
L 669.275408 147.175417 
L 669.55733 151.478927 
L 669.839253 145.122032 
L 670.403098 154.992427 
L 670.68502 147.501762 
L 670.966943 147.381757 
L 671.248866 151.599761 
L 671.530788 151.551684 
L 671.812711 141.822124 
L 672.094633 146.717654 
L 672.376556 148.965401 
L 672.658479 149.442657 
L 672.940401 154.919598 
L 673.222324 153.809907 
L 673.504246 148.652493 
L 673.786169 140.859825 
L 674.068092 149.781978 
L 674.350014 153.029695 
L 675.195782 143.820765 
L 675.477705 151.57057 
L 675.759627 150.419967 
L 676.04155 147.512112 
L 676.605395 151.254941 
L 676.887318 152.520761 
L 677.16924 148.615248 
L 677.733085 147.634397 
L 678.015008 144.488799 
L 678.296931 151.809308 
L 678.578853 148.829236 
L 678.860776 147.70218 
L 679.142698 152.804891 
L 679.424621 148.231923 
L 679.706544 149.927013 
L 679.988466 149.299439 
L 680.270389 149.816615 
L 680.552311 147.986599 
L 680.834234 147.639272 
L 681.116157 147.513448 
L 681.398079 148.001517 
L 681.680002 153.047133 
L 681.961924 148.684219 
L 682.243847 151.478811 
L 682.52577 147.855804 
L 682.807692 147.134022 
L 683.089615 151.421615 
L 683.371537 143.258565 
L 683.935383 156.212213 
L 684.217305 146.844666 
L 684.499228 147.366806 
L 685.063073 147.346716 
L 685.344996 151.636438 
L 685.626918 147.620641 
L 685.908841 148.722291 
L 686.190763 153.081551 
L 686.754609 147.02517 
L 687.036531 145.142403 
L 687.318454 148.323951 
L 687.600376 154.522065 
L 688.446144 147.581622 
L 688.728067 147.995745 
L 689.009989 146.02195 
L 689.291912 148.157653 
L 689.573835 153.4828 
L 689.855757 146.245695 
L 690.13768 148.365924 
L 690.419602 148.849391 
L 690.701525 150.534365 
L 690.983448 154.787379 
L 691.26537 147.448915 
L 691.547293 145.570589 
L 691.829215 148.037815 
L 692.111138 151.535328 
L 692.393061 147.007287 
L 692.674983 151.475346 
L 692.956906 149.48938 
L 693.238828 145.24222 
L 693.520751 152.285824 
L 693.802673 148.701971 
L 694.084596 146.760567 
L 694.366519 149.30746 
L 694.648441 155.286284 
L 694.930364 147.753581 
L 695.212286 146.025253 
L 695.494209 147.876599 
L 695.776132 144.365377 
L 696.058054 153.502752 
L 696.339977 152.342562 
L 696.621899 148.874888 
L 696.903822 150.968015 
L 697.185745 146.912137 
L 697.467667 144.887854 
L 697.74959 151.157964 
L 698.031512 150.631586 
L 698.313435 150.548569 
L 698.595358 149.758838 
L 698.87728 145.838997 
L 699.723048 152.168366 
L 700.004971 146.500794 
L 700.286893 147.967292 
L 700.568816 151.378505 
L 700.850738 148.739159 
L 701.132661 148.864258 
L 701.414584 151.766062 
L 701.696506 151.823176 
L 701.978429 142.338684 
L 702.542274 153.363119 
L 702.824197 147.082689 
L 703.106119 150.01276 
L 703.388042 151.568969 
L 703.669964 146.209676 
L 703.951887 146.81631 
L 704.23381 151.733653 
L 704.515732 149.869347 
L 704.797655 146.416022 
L 705.079577 150.415113 
L 705.3615 152.60121 
L 705.643423 149.21585 
L 705.925345 148.983146 
L 706.207268 147.229779 
L 706.771113 150.43594 
L 707.053036 143.550449 
L 707.334958 149.973433 
L 707.616881 150.154908 
L 707.898803 145.272749 
L 708.180726 154.813465 
L 708.462649 151.581849 
L 708.744571 152.405298 
L 709.308416 141.216259 
L 709.590339 152.614582 
L 709.872262 147.30322 
L 710.154184 148.599274 
L 710.436107 153.081462 
L 710.718029 147.467354 
L 711.281875 151.235015 
L 711.563797 148.999254 
L 711.84572 143.771977 
L 712.127642 149.083641 
L 712.409565 149.707985 
L 712.691488 147.063512 
L 712.97341 154.457943 
L 713.255333 150.60526 
L 713.537255 149.102361 
L 713.819178 150.918057 
L 714.101101 145.642872 
L 714.383023 147.554363 
L 714.664946 147.463006 
L 714.946868 147.063904 
L 715.228791 152.101781 
L 715.510714 149.55453 
L 715.792636 150.785019 
L 716.074559 149.703011 
L 716.356481 145.876392 
L 716.638404 153.689136 
L 716.920326 150.175042 
L 717.202249 144.50825 
L 717.484172 149.724269 
L 717.766094 148.76391 
L 718.048017 146.901604 
L 718.329939 151.041734 
L 718.611862 149.358016 
L 718.893785 149.110264 
L 719.175707 150.566483 
L 719.45763 145.487668 
L 719.739552 152.973462 
L 720.021475 152.829488 
L 720.303398 143.082266 
L 720.58532 150.391497 
L 720.867243 149.227999 
L 721.149165 142.130827 
L 721.431088 154.677314 
L 721.713011 152.154885 
L 721.994933 146.902048 
L 722.276856 154.412755 
L 722.558778 145.599726 
L 722.840701 145.922417 
L 723.122624 151.233379 
L 723.404546 147.491917 
L 723.686469 145.287931 
L 723.968391 153.861735 
L 724.250314 150.071336 
L 724.532237 148.335509 
L 724.814159 153.860353 
L 725.096082 140.504564 
L 725.378004 150.253369 
L 725.659927 154.439085 
L 725.94185 146.532087 
L 726.223772 151.597915 
L 726.787617 143.645339 
L 727.06954 152.124701 
L 727.633385 146.822637 
L 727.915308 152.17413 
L 728.19723 147.762621 
L 728.479153 152.205697 
L 728.761076 147.905402 
L 729.042998 148.515706 
L 729.324921 146.737131 
L 729.606843 147.15658 
L 729.888766 153.650015 
L 730.170689 146.917146 
L 730.452611 150.103143 
L 730.734534 149.981422 
L 731.016456 152.884411 
L 731.298379 145.58931 
L 731.580302 147.308461 
L 731.862224 150.691774 
L 732.144147 144.506461 
L 732.426069 150.538392 
L 732.707992 148.85926 
L 732.989915 152.069239 
L 733.55376 148.397278 
L 734.117605 152.336255 
L 734.68145 143.792652 
L 734.963373 149.429198 
L 735.245295 146.464911 
L 735.527218 149.924286 
L 736.091063 152.283297 
L 736.372986 151.057759 
L 736.654908 147.926272 
L 736.936831 148.075326 
L 737.218754 148.454214 
L 737.500676 146.416276 
L 738.064521 152.104943 
L 738.346444 145.444978 
L 738.628367 150.444392 
L 739.192212 151.163877 
L 739.474134 149.366407 
L 739.756057 145.80606 
L 740.03798 148.472872 
L 740.319902 148.8339 
L 740.601825 148.563248 
L 740.883747 149.133708 
L 741.16567 149.149138 
L 741.447592 150.00004 
L 741.729515 156.593994 
L 742.011438 144.783216 
L 742.29336 146.61062 
L 742.575283 151.271156 
L 742.857205 145.615857 
L 743.139128 148.472096 
L 743.421051 147.863534 
L 743.702973 151.52972 
L 743.984896 147.390737 
L 744.266818 153.192859 
L 744.548741 151.061647 
L 744.830664 146.49918 
L 745.112586 150.003294 
L 745.394509 147.475462 
L 745.676431 146.87309 
L 745.958354 148.980528 
L 746.240277 153.907638 
L 746.522199 148.242106 
L 746.804122 149.552485 
L 747.086044 146.448658 
L 747.367967 148.313616 
L 747.64989 146.295151 
L 748.213735 153.769212 
L 748.495657 145.031085 
L 748.77758 156.976943 
L 749.059503 143.624301 
L 749.341425 150.412149 
L 749.623348 149.724357 
L 749.90527 143.316401 
L 750.187193 151.995282 
L 750.469116 145.434199 
L 750.751038 152.747037 
L 751.032961 147.349418 
L 751.314883 153.618154 
L 751.596806 147.998661 
L 752.160651 151.591176 
L 752.442574 140.240464 
L 752.724496 153.637783 
L 753.288342 148.62628 
L 753.570264 150.747251 
L 753.852187 143.924064 
L 754.134109 145.480176 
L 754.416032 149.955308 
L 754.697955 150.284586 
L 754.979877 154.842925 
L 755.2618 146.404671 
L 755.543722 152.749312 
L 756.107568 147.715221 
L 756.38949 148.440802 
L 756.671413 140.743502 
L 756.953335 154.438278 
L 757.235258 145.416869 
L 757.517181 153.29495 
L 757.799103 149.511988 
L 758.081026 147.787486 
L 758.362948 152.19176 
L 758.644871 142.482229 
L 758.926794 157.20204 
L 759.208716 145.280506 
L 759.490639 150.303724 
L 759.772561 150.155216 
L 760.054484 143.744323 
L 760.336407 154.963536 
L 760.618329 145.820103 
L 760.900252 148.011076 
L 761.182174 149.009854 
L 761.464097 148.174471 
L 761.74602 153.379669 
L 762.027942 147.935067 
L 762.309865 148.533897 
L 762.591787 152.410303 
L 762.87371 148.652152 
L 763.155633 149.738497 
L 763.437555 142.171982 
L 763.719478 153.170803 
L 764.0014 142.153066 
L 764.283323 148.771848 
L 764.565245 171.095096 
L 764.847168 125.021813 
L 765.129091 153.754165 
L 765.411013 163.409291 
L 765.692936 137.756182 
L 765.974858 152.037763 
L 766.256781 145.230694 
L 766.538704 153.304209 
L 766.820626 145.573462 
L 767.384471 151.31889 
L 767.666394 147.25512 
L 767.948317 152.274074 
L 768.512162 146.898094 
L 768.794084 148.032256 
L 769.076007 151.510019 
L 769.35793 146.730532 
L 769.639852 150.175384 
L 769.921775 150.296064 
L 770.203697 148.230456 
L 770.48562 149.153476 
L 770.767543 150.685719 
L 771.049465 149.822904 
L 771.331388 145.0511 
L 771.61331 150.008416 
L 771.895233 148.220486 
L 772.177156 149.815363 
L 772.459078 154.073333 
L 772.741001 145.147213 
L 773.022923 146.51586 
L 773.304846 152.381089 
L 773.586769 151.970484 
L 773.868691 144.391089 
L 774.150614 146.726813 
L 774.432536 151.83989 
L 774.714459 150.013606 
L 774.996382 154.02365 
L 775.278304 142.958605 
L 775.560227 150.512934 
L 775.842149 152.246637 
L 776.124072 140.870863 
L 776.405995 155.68034 
L 776.687917 147.598843 
L 776.96984 148.051484 
L 777.251762 149.975319 
L 777.533685 145.417839 
L 777.815608 153.203683 
L 778.09753 145.904206 
L 778.379453 154.724386 
L 778.943298 146.654461 
L 779.225221 147.914708 
L 779.507143 145.38101 
L 779.789066 153.318801 
L 780.070988 147.181966 
L 780.352911 151.196987 
L 780.634834 144.860822 
L 780.916756 151.775396 
L 781.198679 150.612802 
L 781.480601 145.827067 
L 781.762524 154.41883 
L 782.044447 143.590543 
L 782.326369 155.379047 
L 782.608292 146.991294 
L 782.890214 145.734215 
L 783.172137 148.631196 
L 783.45406 148.297262 
L 783.735982 154.429203 
L 784.017905 144.700284 
L 784.299827 151.308928 
L 784.58175 148.584544 
L 784.863673 152.127691 
L 785.145595 147.13002 
L 785.427518 145.331153 
L 785.70944 155.022289 
L 786.273286 145.475289 
L 786.555208 149.534257 
L 786.837131 147.209992 
L 787.119053 146.424856 
L 787.400976 151.361627 
L 787.682898 151.795384 
L 787.964821 151.165438 
L 788.246744 147.58056 
L 788.528666 153.925417 
L 788.810589 145.262908 
L 789.092511 146.795788 
L 789.374434 145.828012 
L 789.656357 151.876556 
L 789.938279 152.281092 
L 790.220202 147.903008 
L 790.502124 148.455144 
L 790.784047 140.833203 
L 791.06597 161.071292 
L 791.347892 143.628636 
L 791.629815 153.430566 
L 791.911737 150.933614 
L 792.19366 144.039731 
L 792.475583 151.688276 
L 792.757505 138.741913 
L 793.039428 154.903286 
L 793.32135 148.76719 
L 793.603273 154.448138 
L 793.885196 153.337923 
L 794.449041 141.867425 
L 794.730963 148.405023 
L 795.012886 150.003066 
L 795.294809 147.97298 
L 795.576731 150.403187 
L 795.858654 144.91126 
L 796.140576 158.657443 
L 796.422499 144.409536 
L 796.704422 151.431386 
L 796.986344 149.600864 
L 797.268267 149.634753 
L 797.550189 147.806982 
L 797.832112 142.264137 
L 798.114035 153.746017 
L 798.395957 144.170874 
L 798.67788 155.544075 
L 798.959802 148.154358 
L 799.241725 152.721701 
L 799.523648 152.699446 
L 799.80557 138.68278 
L 800.087493 152.958488 
L 800.651338 144.954266 
L 801.215183 152.433627 
L 801.497106 149.249416 
L 801.779028 147.94063 
L 802.060951 152.548183 
L 802.342874 148.995517 
L 802.624796 149.263266 
L 802.906719 147.071221 
L 803.188641 147.692914 
L 803.470564 150.640294 
L 803.752487 145.824418 
L 804.034409 150.642292 
L 804.316332 147.622748 
L 804.598254 150.177055 
L 804.880177 155.452126 
L 805.1621 145.082545 
L 805.444022 149.403669 
L 805.725945 148.420301 
L 806.007867 147.923996 
L 806.28979 149.261316 
L 806.571713 150.048399 
L 806.853635 149.07079 
L 807.135558 144.117823 
L 807.41748 160.675839 
L 807.699403 143.1689 
L 807.981326 140.699959 
L 808.263248 159.305896 
L 808.545171 147.667451 
L 808.827093 148.363253 
L 809.109016 147.365512 
L 809.390939 151.280376 
L 809.672861 147.534098 
L 809.954784 150.867143 
L 810.236706 150.538832 
L 810.518629 144.172533 
L 810.800551 152.153855 
L 811.082474 146.475217 
L 811.646319 151.808248 
L 811.928242 150.141508 
L 812.210164 146.245523 
L 812.492087 146.521289 
L 812.77401 152.166612 
L 813.055932 149.830098 
L 813.337855 149.160818 
L 813.619777 149.693035 
L 814.183623 147.708301 
L 814.465545 148.693439 
L 814.747468 148.732417 
L 815.02939 152.564864 
L 815.311313 147.982851 
L 815.593236 149.055829 
L 815.875158 149.436733 
L 816.157081 144.376971 
L 816.439003 151.208517 
L 816.720926 150.044451 
L 817.002849 149.829569 
L 817.284771 149.861289 
L 817.566694 149.593619 
L 818.130539 147.501103 
L 818.412462 149.940786 
L 818.694384 148.0209 
L 818.976307 151.167408 
L 819.540152 146.640479 
L 820.103997 150.941864 
L 820.38592 152.183185 
L 820.667842 148.079898 
L 820.949765 147.944136 
L 821.231688 145.262233 
L 821.51361 147.022263 
L 821.795533 155.858729 
L 822.359378 146.534378 
L 822.641301 147.661909 
L 822.923223 146.306264 
L 823.487068 151.632461 
L 823.768991 149.17176 
L 824.332836 150.426701 
L 824.896681 148.456273 
L 825.178604 146.880688 
L 825.460527 147.648499 
L 826.024372 151.984112 
L 826.588217 147.041006 
L 827.152062 149.644233 
L 827.433985 153.00425 
L 827.715907 151.070472 
L 827.99783 144.366627 
L 828.279753 146.360977 
L 828.561675 153.05032 
L 828.843598 147.458073 
L 829.12552 148.197472 
L 829.407443 149.925845 
L 829.689366 144.625347 
L 829.971288 154.41907 
L 830.253211 154.851838 
L 830.535133 147.7298 
L 830.817056 148.231854 
L 831.098979 143.796209 
L 831.380901 149.563057 
L 831.662824 148.60839 
L 831.944746 144.309509 
L 832.226669 154.205213 
L 832.790514 149.288014 
L 833.072437 151.810032 
L 833.918205 144.120221 
L 834.200127 152.829423 
L 834.48205 149.292023 
L 834.763972 147.58853 
L 835.045895 151.452071 
L 835.327817 145.240213 
L 835.60974 154.731353 
L 835.891663 150.929431 
L 836.173585 144.111911 
L 836.455508 149.685695 
L 836.73743 148.62703 
L 837.019353 149.849513 
L 837.301276 147.165417 
L 837.583198 148.385769 
L 837.865121 146.159353 
L 838.147043 155.740156 
L 838.428966 159.210653 
L 838.710889 138.721115 
L 839.274734 152.935438 
L 839.556656 142.836484 
L 839.838579 149.228249 
L 840.120502 152.908359 
L 840.402424 150.781732 
L 840.684347 152.228982 
L 840.966269 149.48298 
L 841.248192 148.315789 
L 841.530115 143.504289 
L 842.09396 151.464192 
L 842.375882 150.078521 
L 842.657805 149.51961 
L 842.939728 145.31388 
L 843.22165 152.261225 
L 843.503573 148.745173 
L 843.785495 150.35169 
L 844.067418 150.553521 
L 844.349341 145.832402 
L 844.631263 149.194172 
L 844.913186 148.392641 
L 845.195108 152.59688 
L 845.477031 148.913822 
L 845.758954 148.884138 
L 846.040876 146.37479 
L 846.322799 148.109288 
L 846.604721 153.239772 
L 846.886644 144.241695 
L 847.450489 153.741488 
L 847.732412 147.189267 
L 848.296257 151.002902 
L 848.57818 146.5037 
L 848.860102 148.632924 
L 849.142025 149.692764 
L 849.423947 146.704446 
L 849.70587 150.605837 
L 849.987793 152.393096 
L 850.269715 151.234878 
L 850.551638 144.089347 
L 851.115483 151.114444 
L 851.115483 151.114444 
" clip-path="url(#p9331a6a8d2)" style="fill: none; stroke: #000000; stroke-width: 1.5; stroke-linecap: square"/>
   </g>
   <g id="patch_3">
    <path d="M 52.160938 294.998437 
L 52.160938 17.798437 
" style="fill: none; stroke: #000000; stroke-width: 0.8; stroke-linejoin: miter; stroke-linecap: square"/>
   </g>
   <g id="patch_4">
    <path d="M 889.160938 294.998437 
L 889.160938 17.798437 
" style="fill: none; stroke: #000000; stroke-width: 0.8; stroke-linejoin: miter; stroke-linecap: square"/>
   </g>
   <g id="patch_5">
    <path d="M 52.160938 294.998437 
L 889.160938 294.998437 
" style="fill: none; stroke: #000000; stroke-width: 0.8; stroke-linejoin: miter; stroke-linecap: square"/>
   </g>
   <g id="patch_6">
    <path d="M 52.160938 17.798437 
L 889.160938 17.798437 
" style="fill: none; stroke: #000000; stroke-width: 0.8; stroke-linejoin: miter; stroke-linecap: square"/>
   </g>
  </g>
  <g id="axes_2">
   <g id="matplotlib.axis_3">
    <g id="ytick_7">
     <g id="line2d_14">
      <defs>
       <path id="m9dc084f797" d="M 0 0 
L 3.5 0 
" style="stroke: #000000; stroke-width: 0.8"/>
      </defs>
      <g>
       <use xlink:href="#m9dc084f797" x="889.160938" y="294.998437" style="stroke: #000000; stroke-width: 0.8"/>
      </g>
     </g>
     <g id="text_16">
      <text style="font: 10px 'sans-serif'; text-anchor: start" x="896.160938" y="298.797656" transform="rotate(-0, 896.160938, 298.797656)">−1.00</text>
     </g>
    </g>
    <g id="ytick_8">
     <g id="line2d_15">
      <g>
       <use xlink:href="#m9dc084f797" x="889.160938" y="260.348437" style="stroke: #000000; stroke-width: 0.8"/>
      </g>
     </g>
     <g id="text_17">
      <text style="font: 10px 'sans-serif'; text-anchor: start" x="896.160938" y="264.147656" transform="rotate(-0, 896.160938, 264.147656)">−0.75</text>
     </g>
    </g>
    <g id="ytick_9">
     <g id="line2d_16">
      <g>
       <use xlink:href="#m9dc084f797" x="889.160938" y="225.698437" style="stroke: #000000; stroke-width: 0.8"/>
      </g>
     </g>
     <g id="text_18">
      <text style="font: 10px 'sans-serif'; text-anchor: start" x="896.160938" y="229.497656" transform="rotate(-0, 896.160938, 229.497656)">−0.50</text>
     </g>
    </g>
    <g id="ytick_10">
     <g id="line2d_17">
      <g>
       <use xlink:href="#m9dc084f797" x="889.160938" y="191.048437" style="stroke: #000000; stroke-width: 0.8"/>
      </g>
     </g>
     <g id="text_19">
      <text style="font: 10px 'sans-serif'; text-anchor: start" x="896.160938" y="194.847656" transform="rotate(-0, 896.160938, 194.847656)">−0.25</text>
     </g>
    </g>
    <g id="ytick_11">
     <g id="line2d_18">
      <g>
       <use xlink:href="#m9dc084f797" x="889.160938" y="156.398437" style="stroke: #000000; stroke-width: 0.8"/>
      </g>
     </g>
     <g id="text_20">
      <text style="font: 10px 'sans-serif'; text-anchor: start" x="896.160938" y="160.197656" transform="rotate(-0, 896.160938, 160.197656)">0.00</text>
     </g>
    </g>
    <g id="ytick_12">
     <g id="line2d_19">
      <g>
       <use xlink:href="#m9dc084f797" x="889.160938" y="121.748437" style="stroke: #000000; stroke-width: 0.8"/>
      </g>
     </g>
     <g id="text_21">
      <text style="font: 10px 'sans-serif'; text-anchor: start" x="896.160938" y="125.547656" transform="rotate(-0, 896.160938, 125.547656)">0.25</text>
     </g>
    </g>
    <g id="ytick_13">
     <g id="line2d_20">
      <g>
       <use xlink:href="#m9dc084f797" x="889.160938" y="87.098437" style="stroke: #000000; stroke-width: 0.8"/>
      </g>
     </g>
     <g id="text_22">
      <text style="font: 10px 'sans-serif'; text-anchor: start" x="896.160938" y="90.897656" transform="rotate(-0, 896.160938, 90.897656)">0.50</text>
     </g>
    </g>
    <g id="ytick_14">
     <g id="line2d_21">
      <g>
       <use xlink:href="#m9dc084f797" x="889.160938" y="52.448437" style="stroke: #000000; stroke-width: 0.8"/>
      </g>
     </g>
     <g id="text_23">
      <text style="font: 10px 'sans-serif'; text-anchor: start" x="896.160938" y="56.247656" transform="rotate(-0, 896.160938, 56.247656)">0.75</text>
     </g>
    </g>
    <g id="ytick_15">
     <g id="line2d_22">
      <g>
       <use xlink:href="#m9dc084f797" x="889.160938" y="17.798437" style="stroke: #000000; stroke-width: 0.8"/>
      </g>
     </g>
     <g id="text_24">
      <text style="font: 10px 'sans-serif'; text-anchor: start" x="896.160938" y="21.597656" transform="rotate(-0, 896.160938, 21.597656)">1.00</text>
     </g>
    </g>
    <g id="text_25">
     <text style="font: 10px 'sans-serif'; text-anchor: middle" x="938.404688" y="156.398437" transform="rotate(-90, 938.404688, 156.398437)">Waveform Feature</text>
    </g>
   </g>
   <g id="line2d_23">
    <path d="M 90.206392 156.398413 
L 370.437454 156.322025 
L 370.719377 156.19082 
L 371.001299 155.779633 
L 371.565144 152.48303 
L 371.847067 148.593153 
L 372.12899 141.010124 
L 372.692835 123.343034 
L 373.538603 104.903306 
L 373.820525 98.472013 
L 374.948216 64.081683 
L 375.793983 43.817784 
L 376.639751 26.762554 
L 376.921674 24.383881 
L 377.203596 23.249799 
L 377.485519 23.322861 
L 377.767442 23.830645 
L 378.613209 31.348563 
L 379.177055 41.504234 
L 379.7409 55.641426 
L 380.022822 60.55191 
L 380.586668 75.21558 
L 380.86859 80.035703 
L 381.150513 89.539921 
L 381.432435 94.237972 
L 382.278203 113.888927 
L 382.560126 116.257397 
L 383.123971 127.849173 
L 383.969739 150.189305 
L 384.251661 153.655963 
L 384.533584 155.128584 
L 384.815507 155.999922 
L 385.379352 156.295752 
L 386.788965 156.387753 
L 391.299726 156.380334 
L 403.704321 156.398359 
L 851.115483 156.396136 
L 851.115483 156.396136 
" clip-path="url(#p9331a6a8d2)" style="fill: none; stroke: #1f77b4; stroke-width: 1.5; stroke-linecap: square"/>
   </g>
   <g id="line2d_24">
    <path d="M 90.206392 156.398265 
L 385.661274 156.380916 
L 385.943197 156.320806 
L 386.507042 155.784522 
L 386.788965 154.136761 
L 387.35281 148.425319 
L 387.916655 136.835593 
L 388.4805 121.947394 
L 388.762423 117.087954 
L 391.863571 31.052878 
L 392.145494 27.27194 
L 392.427417 25.826593 
L 392.709339 25.068958 
L 392.991262 23.152235 
L 393.273184 23.000807 
L 393.555107 24.197896 
L 393.83703 26.734896 
L 394.118952 30.510406 
L 394.682797 42.500643 
L 394.96472 53.003483 
L 395.528565 62.875588 
L 395.810488 69.935415 
L 396.09241 81.821883 
L 397.220101 104.854953 
L 397.502023 107.857116 
L 398.347791 133.69469 
L 398.629714 140.810155 
L 399.475482 152.058647 
L 399.757404 153.988678 
L 400.321249 155.610705 
L 400.603172 156.092653 
L 400.885095 156.266106 
L 402.294708 156.383118 
L 409.624695 156.398429 
L 551.713684 156.293075 
L 558.761749 156.142225 
L 560.453285 156.238557 
L 562.990588 156.22303 
L 565.527892 156.268031 
L 567.783272 156.275902 
L 580.187867 156.392804 
L 732.144147 156.398333 
L 851.115483 156.397173 
L 851.115483 156.397173 
" clip-path="url(#p9331a6a8d2)" style="fill: none; stroke: #ff7f0e; stroke-width: 1.5; stroke-linecap: square"/>
   </g>
   <g id="patch_7">
    <path d="M 52.160938 294.998437 
L 52.160938 17.798437 
" style="fill: none; stroke: #000000; stroke-width: 0.8; stroke-linejoin: miter; stroke-linecap: square"/>
   </g>
   <g id="patch_8">
    <path d="M 889.160938 294.998437 
L 889.160938 17.798437 
" style="fill: none; stroke: #000000; stroke-width: 0.8; stroke-linejoin: miter; stroke-linecap: square"/>
   </g>
   <g id="patch_9">
    <path d="M 52.160938 294.998437 
L 889.160938 294.998437 
" style="fill: none; stroke: #000000; stroke-width: 0.8; stroke-linejoin: miter; stroke-linecap: square"/>
   </g>
   <g id="patch_10">
    <path d="M 52.160938 17.798437 
L 889.160938 17.798437 
" style="fill: none; stroke: #000000; stroke-width: 0.8; stroke-linejoin: miter; stroke-linecap: square"/>
   </g>
   <g id="legend_1">
    <g id="patch_11">
     <path d="M 751.896875 289.998437 
L 882.160938 289.998437 
Q 884.160938 289.998437 884.160938 287.998437 
L 884.160938 259.642187 
Q 884.160938 257.642187 882.160938 257.642187 
L 751.896875 257.642187 
Q 749.896875 257.642187 749.896875 259.642187 
L 749.896875 287.998437 
Q 749.896875 289.998437 751.896875 289.998437 
z
" style="fill: #ffffff; opacity: 0.8; stroke: #cccccc; stroke-linejoin: miter"/>
    </g>
    <g id="line2d_25">
     <path d="M 753.896875 265.740625 
L 763.896875 265.740625 
L 773.896875 265.740625 
" style="fill: none; stroke: #1f77b4; stroke-width: 1.5; stroke-linecap: square"/>
    </g>
    <g id="text_26">
     <text style="font: 10px 'sans-serif'; text-anchor: start" x="781.896875" y="269.240625" transform="rotate(-0, 781.896875, 269.240625)">P-arrival probability</text>
    </g>
    <g id="line2d_26">
     <path d="M 753.896875 280.41875 
L 763.896875 280.41875 
L 773.896875 280.41875 
" style="fill: none; stroke: #ff7f0e; stroke-width: 1.5; stroke-linecap: square"/>
    </g>
    <g id="text_27">
     <text style="font: 10px 'sans-serif'; text-anchor: start" x="781.896875" y="283.91875" transform="rotate(-0, 781.896875, 283.91875)">S-arrival probability</text>
    </g>
   </g>
  </g>
 </g>
 <defs>
  <clipPath id="p9331a6a8d2">
   <rect x="52.160938" y="17.798437" width="837" height="277.2"/>
  </clipPath>
 </defs>
</svg>
