<?xml version="1.0" encoding="utf-8" standalone="no"?>
<!DOCTYPE svg PUBLIC "-//W3C//DTD SVG 1.1//EN"
  "http://www.w3.org/Graphics/SVG/1.1/DTD/svg11.dtd">
<svg xmlns:xlink="http://www.w3.org/1999/xlink" width="886.820312pt" height="432.83625pt" viewBox="0 0 886.820312 432.83625" xmlns="http://www.w3.org/2000/svg" version="1.1">
 <metadata>
  <rdf:RDF xmlns:dc="http://purl.org/dc/elements/1.1/" xmlns:cc="http://creativecommons.org/ns#" xmlns:rdf="http://www.w3.org/1999/02/22-rdf-syntax-ns#">
   <cc:Work>
    <dc:type rdf:resource="http://purl.org/dc/dcmitype/StillImage"/>
    <dc:date>2023-11-03T14:55:36.331559</dc:date>
    <dc:format>image/svg+xml</dc:format>
    <dc:creator>
     <cc:Agent>
      <dc:title>Matplotlib v3.5.2, https://matplotlib.org/</dc:title>
     </cc:Agent>
    </dc:creator>
   </cc:Work>
  </rdf:RDF>
 </metadata>
 <defs>
  <style type="text/css">*{stroke-linejoin: round; stroke-linecap: butt}</style>
 </defs>
 <g id="figure_1">
  <g id="patch_1">
   <path d="M 0 432.83625 
L 886.820312 432.83625 
L 886.820312 0 
L 0 0 
z
" style="fill: #ffffff"/>
  </g>
  <g id="axes_1">
   <g id="patch_2">
    <path d="M 42.620313 395.28 
L 879.620312 395.28 
L 879.620312 7.2 
L 42.620313 7.2 
z
" style="fill: #ffffff"/>
   </g>
   <g id="matplotlib.axis_1">
    <g id="xtick_1">
     <g id="line2d_1">
      <defs>
       <path id="m9cc7037079" d="M 0 0 
L 0 3.5 
" style="stroke: #000000; stroke-width: 0.8"/>
      </defs>
      <g>
       <use xlink:href="#m9cc7037079" x="80.665767" y="395.28" style="stroke: #000000; stroke-width: 0.8"/>
      </g>
     </g>
     <g id="text_1">
      <!-- −150 -->
      <g transform="translate(66.932173 409.878437)scale(0.1 -0.1)">
       <defs>
        <path id="DejaVuSans-2212" d="M 678 2272 
L 4684 2272 
L 4684 1741 
L 678 1741 
L 678 2272 
z
" transform="scale(0.015625)"/>
        <path id="DejaVuSans-31" d="M 794 531 
L 1825 531 
L 1825 4091 
L 703 3866 
L 703 4441 
L 1819 4666 
L 2450 4666 
L 2450 531 
L 3481 531 
L 3481 0 
L 794 0 
L 794 531 
z
" transform="scale(0.015625)"/>
        <path id="DejaVuSans-35" d="M 691 4666 
L 3169 4666 
L 3169 4134 
L 1269 4134 
L 1269 2991 
Q 1406 3038 1543 3061 
Q 1681 3084 1819 3084 
Q 2600 3084 3056 2656 
Q 3513 2228 3513 1497 
Q 3513 744 3044 326 
Q 2575 -91 1722 -91 
Q 1428 -91 1123 -41 
Q 819 9 494 109 
L 494 744 
Q 775 591 1075 516 
Q 1375 441 1709 441 
Q 2250 441 2565 725 
Q 2881 1009 2881 1497 
Q 2881 1984 2565 2268 
Q 2250 2553 1709 2553 
Q 1456 2553 1204 2497 
Q 953 2441 691 2322 
L 691 4666 
z
" transform="scale(0.015625)"/>
        <path id="DejaVuSans-30" d="M 2034 4250 
Q 1547 4250 1301 3770 
Q 1056 3291 1056 2328 
Q 1056 1369 1301 889 
Q 1547 409 2034 409 
Q 2525 409 2770 889 
Q 3016 1369 3016 2328 
Q 3016 3291 2770 3770 
Q 2525 4250 2034 4250 
z
M 2034 4750 
Q 2819 4750 3233 4129 
Q 3647 3509 3647 2328 
Q 3647 1150 3233 529 
Q 2819 -91 2034 -91 
Q 1250 -91 836 529 
Q 422 1150 422 2328 
Q 422 3509 836 4129 
Q 1250 4750 2034 4750 
z
" transform="scale(0.015625)"/>
       </defs>
       <use xlink:href="#DejaVuSans-2212"/>
       <use xlink:href="#DejaVuSans-31" x="83.789062"/>
       <use xlink:href="#DejaVuSans-35" x="147.412109"/>
       <use xlink:href="#DejaVuSans-30" x="211.035156"/>
      </g>
     </g>
    </g>
    <g id="xtick_2">
     <g id="line2d_2">
      <g>
       <use xlink:href="#m9cc7037079" x="234.695947" y="395.28" style="stroke: #000000; stroke-width: 0.8"/>
      </g>
     </g>
     <g id="text_2">
      <!-- −100 -->
      <g transform="translate(220.962354 409.878437)scale(0.1 -0.1)">
       <use xlink:href="#DejaVuSans-2212"/>
       <use xlink:href="#DejaVuSans-31" x="83.789062"/>
       <use xlink:href="#DejaVuSans-30" x="147.412109"/>
       <use xlink:href="#DejaVuSans-30" x="211.035156"/>
      </g>
     </g>
    </g>
    <g id="xtick_3">
     <g id="line2d_3">
      <g>
       <use xlink:href="#m9cc7037079" x="388.726128" y="395.28" style="stroke: #000000; stroke-width: 0.8"/>
      </g>
     </g>
     <g id="text_3">
      <!-- −50 -->
      <g transform="translate(378.173784 409.878437)scale(0.1 -0.1)">
       <use xlink:href="#DejaVuSans-2212"/>
       <use xlink:href="#DejaVuSans-35" x="83.789062"/>
       <use xlink:href="#DejaVuSans-30" x="147.412109"/>
      </g>
     </g>
    </g>
    <g id="xtick_4">
     <g id="line2d_4">
      <g>
       <use xlink:href="#m9cc7037079" x="542.756308" y="395.28" style="stroke: #000000; stroke-width: 0.8"/>
      </g>
     </g>
     <g id="text_4">
      <!-- 0 -->
      <g transform="translate(539.575058 409.878437)scale(0.1 -0.1)">
       <use xlink:href="#DejaVuSans-30"/>
      </g>
     </g>
    </g>
    <g id="xtick_5">
     <g id="line2d_5">
      <g>
       <use xlink:href="#m9cc7037079" x="696.786488" y="395.28" style="stroke: #000000; stroke-width: 0.8"/>
      </g>
     </g>
     <g id="text_5">
      <!-- 50 -->
      <g transform="translate(690.423988 409.878437)scale(0.1 -0.1)">
       <use xlink:href="#DejaVuSans-35"/>
       <use xlink:href="#DejaVuSans-30" x="63.623047"/>
      </g>
     </g>
    </g>
    <g id="xtick_6">
     <g id="line2d_6">
      <g>
       <use xlink:href="#m9cc7037079" x="850.816669" y="395.28" style="stroke: #000000; stroke-width: 0.8"/>
      </g>
     </g>
     <g id="text_6">
      <!-- 100 -->
      <g transform="translate(841.272919 409.878437)scale(0.1 -0.1)">
       <use xlink:href="#DejaVuSans-31"/>
       <use xlink:href="#DejaVuSans-30" x="63.623047"/>
       <use xlink:href="#DejaVuSans-30" x="127.246094"/>
      </g>
     </g>
    </g>
    <g id="text_7">
     <!-- Time to max (samples) -->
     <g transform="translate(403.521094 423.556562)scale(0.1 -0.1)">
      <defs>
       <path id="DejaVuSans-54" d="M -19 4666 
L 3928 4666 
L 3928 4134 
L 2272 4134 
L 2272 0 
L 1638 0 
L 1638 4134 
L -19 4134 
L -19 4666 
z
" transform="scale(0.015625)"/>
       <path id="DejaVuSans-69" d="M 603 3500 
L 1178 3500 
L 1178 0 
L 603 0 
L 603 3500 
z
M 603 4863 
L 1178 4863 
L 1178 4134 
L 603 4134 
L 603 4863 
z
" transform="scale(0.015625)"/>
       <path id="DejaVuSans-6d" d="M 3328 2828 
Q 3544 3216 3844 3400 
Q 4144 3584 4550 3584 
Q 5097 3584 5394 3201 
Q 5691 2819 5691 2113 
L 5691 0 
L 5113 0 
L 5113 2094 
Q 5113 2597 4934 2840 
Q 4756 3084 4391 3084 
Q 3944 3084 3684 2787 
Q 3425 2491 3425 1978 
L 3425 0 
L 2847 0 
L 2847 2094 
Q 2847 2600 2669 2842 
Q 2491 3084 2119 3084 
Q 1678 3084 1418 2786 
Q 1159 2488 1159 1978 
L 1159 0 
L 581 0 
L 581 3500 
L 1159 3500 
L 1159 2956 
Q 1356 3278 1631 3431 
Q 1906 3584 2284 3584 
Q 2666 3584 2933 3390 
Q 3200 3197 3328 2828 
z
" transform="scale(0.015625)"/>
       <path id="DejaVuSans-65" d="M 3597 1894 
L 3597 1613 
L 953 1613 
Q 991 1019 1311 708 
Q 1631 397 2203 397 
Q 2534 397 2845 478 
Q 3156 559 3463 722 
L 3463 178 
Q 3153 47 2828 -22 
Q 2503 -91 2169 -91 
Q 1331 -91 842 396 
Q 353 884 353 1716 
Q 353 2575 817 3079 
Q 1281 3584 2069 3584 
Q 2775 3584 3186 3129 
Q 3597 2675 3597 1894 
z
M 3022 2063 
Q 3016 2534 2758 2815 
Q 2500 3097 2075 3097 
Q 1594 3097 1305 2825 
Q 1016 2553 972 2059 
L 3022 2063 
z
" transform="scale(0.015625)"/>
       <path id="DejaVuSans-20" transform="scale(0.015625)"/>
       <path id="DejaVuSans-74" d="M 1172 4494 
L 1172 3500 
L 2356 3500 
L 2356 3053 
L 1172 3053 
L 1172 1153 
Q 1172 725 1289 603 
Q 1406 481 1766 481 
L 2356 481 
L 2356 0 
L 1766 0 
Q 1100 0 847 248 
Q 594 497 594 1153 
L 594 3053 
L 172 3053 
L 172 3500 
L 594 3500 
L 594 4494 
L 1172 4494 
z
" transform="scale(0.015625)"/>
       <path id="DejaVuSans-6f" d="M 1959 3097 
Q 1497 3097 1228 2736 
Q 959 2375 959 1747 
Q 959 1119 1226 758 
Q 1494 397 1959 397 
Q 2419 397 2687 759 
Q 2956 1122 2956 1747 
Q 2956 2369 2687 2733 
Q 2419 3097 1959 3097 
z
M 1959 3584 
Q 2709 3584 3137 3096 
Q 3566 2609 3566 1747 
Q 3566 888 3137 398 
Q 2709 -91 1959 -91 
Q 1206 -91 779 398 
Q 353 888 353 1747 
Q 353 2609 779 3096 
Q 1206 3584 1959 3584 
z
" transform="scale(0.015625)"/>
       <path id="DejaVuSans-61" d="M 2194 1759 
Q 1497 1759 1228 1600 
Q 959 1441 959 1056 
Q 959 750 1161 570 
Q 1363 391 1709 391 
Q 2188 391 2477 730 
Q 2766 1069 2766 1631 
L 2766 1759 
L 2194 1759 
z
M 3341 1997 
L 3341 0 
L 2766 0 
L 2766 531 
Q 2569 213 2275 61 
Q 1981 -91 1556 -91 
Q 1019 -91 701 211 
Q 384 513 384 1019 
Q 384 1609 779 1909 
Q 1175 2209 1959 2209 
L 2766 2209 
L 2766 2266 
Q 2766 2663 2505 2880 
Q 2244 3097 1772 3097 
Q 1472 3097 1187 3025 
Q 903 2953 641 2809 
L 641 3341 
Q 956 3463 1253 3523 
Q 1550 3584 1831 3584 
Q 2591 3584 2966 3190 
Q 3341 2797 3341 1997 
z
" transform="scale(0.015625)"/>
       <path id="DejaVuSans-78" d="M 3513 3500 
L 2247 1797 
L 3578 0 
L 2900 0 
L 1881 1375 
L 863 0 
L 184 0 
L 1544 1831 
L 300 3500 
L 978 3500 
L 1906 2253 
L 2834 3500 
L 3513 3500 
z
" transform="scale(0.015625)"/>
       <path id="DejaVuSans-28" d="M 1984 4856 
Q 1566 4138 1362 3434 
Q 1159 2731 1159 2009 
Q 1159 1288 1364 580 
Q 1569 -128 1984 -844 
L 1484 -844 
Q 1016 -109 783 600 
Q 550 1309 550 2009 
Q 550 2706 781 3412 
Q 1013 4119 1484 4856 
L 1984 4856 
z
" transform="scale(0.015625)"/>
       <path id="DejaVuSans-73" d="M 2834 3397 
L 2834 2853 
Q 2591 2978 2328 3040 
Q 2066 3103 1784 3103 
Q 1356 3103 1142 2972 
Q 928 2841 928 2578 
Q 928 2378 1081 2264 
Q 1234 2150 1697 2047 
L 1894 2003 
Q 2506 1872 2764 1633 
Q 3022 1394 3022 966 
Q 3022 478 2636 193 
Q 2250 -91 1575 -91 
Q 1294 -91 989 -36 
Q 684 19 347 128 
L 347 722 
Q 666 556 975 473 
Q 1284 391 1588 391 
Q 1994 391 2212 530 
Q 2431 669 2431 922 
Q 2431 1156 2273 1281 
Q 2116 1406 1581 1522 
L 1381 1569 
Q 847 1681 609 1914 
Q 372 2147 372 2553 
Q 372 3047 722 3315 
Q 1072 3584 1716 3584 
Q 2034 3584 2315 3537 
Q 2597 3491 2834 3397 
z
" transform="scale(0.015625)"/>
       <path id="DejaVuSans-70" d="M 1159 525 
L 1159 -1331 
L 581 -1331 
L 581 3500 
L 1159 3500 
L 1159 2969 
Q 1341 3281 1617 3432 
Q 1894 3584 2278 3584 
Q 2916 3584 3314 3078 
Q 3713 2572 3713 1747 
Q 3713 922 3314 415 
Q 2916 -91 2278 -91 
Q 1894 -91 1617 61 
Q 1341 213 1159 525 
z
M 3116 1747 
Q 3116 2381 2855 2742 
Q 2594 3103 2138 3103 
Q 1681 3103 1420 2742 
Q 1159 2381 1159 1747 
Q 1159 1113 1420 752 
Q 1681 391 2138 391 
Q 2594 391 2855 752 
Q 3116 1113 3116 1747 
z
" transform="scale(0.015625)"/>
       <path id="DejaVuSans-6c" d="M 603 4863 
L 1178 4863 
L 1178 0 
L 603 0 
L 603 4863 
z
" transform="scale(0.015625)"/>
       <path id="DejaVuSans-29" d="M 513 4856 
L 1013 4856 
Q 1481 4119 1714 3412 
Q 1947 2706 1947 2009 
Q 1947 1309 1714 600 
Q 1481 -109 1013 -844 
L 513 -844 
Q 928 -128 1133 580 
Q 1338 1288 1338 2009 
Q 1338 2731 1133 3434 
Q 928 4138 513 4856 
z
" transform="scale(0.015625)"/>
      </defs>
      <use xlink:href="#DejaVuSans-54"/>
      <use xlink:href="#DejaVuSans-69" x="57.958984"/>
      <use xlink:href="#DejaVuSans-6d" x="85.742188"/>
      <use xlink:href="#DejaVuSans-65" x="183.154297"/>
      <use xlink:href="#DejaVuSans-20" x="244.677734"/>
      <use xlink:href="#DejaVuSans-74" x="276.464844"/>
      <use xlink:href="#DejaVuSans-6f" x="315.673828"/>
      <use xlink:href="#DejaVuSans-20" x="376.855469"/>
      <use xlink:href="#DejaVuSans-6d" x="408.642578"/>
      <use xlink:href="#DejaVuSans-61" x="506.054688"/>
      <use xlink:href="#DejaVuSans-78" x="567.333984"/>
      <use xlink:href="#DejaVuSans-20" x="626.513672"/>
      <use xlink:href="#DejaVuSans-28" x="658.300781"/>
      <use xlink:href="#DejaVuSans-73" x="697.314453"/>
      <use xlink:href="#DejaVuSans-61" x="749.414062"/>
      <use xlink:href="#DejaVuSans-6d" x="810.693359"/>
      <use xlink:href="#DejaVuSans-70" x="908.105469"/>
      <use xlink:href="#DejaVuSans-6c" x="971.582031"/>
      <use xlink:href="#DejaVuSans-65" x="999.365234"/>
      <use xlink:href="#DejaVuSans-73" x="1060.888672"/>
      <use xlink:href="#DejaVuSans-29" x="1112.988281"/>
     </g>
    </g>
   </g>
   <g id="matplotlib.axis_2">
    <g id="ytick_1">
     <g id="line2d_7">
      <defs>
       <path id="m631ed92e3c" d="M 0 0 
L -3.5 0 
" style="stroke: #000000; stroke-width: 0.8"/>
      </defs>
      <g>
       <use xlink:href="#m631ed92e3c" x="42.620313" y="386.666525" style="stroke: #000000; stroke-width: 0.8"/>
      </g>
     </g>
     <g id="text_8">
      <!-- −6 -->
      <g transform="translate(20.878125 390.465744)scale(0.1 -0.1)">
       <defs>
        <path id="DejaVuSans-36" d="M 2113 2584 
Q 1688 2584 1439 2293 
Q 1191 2003 1191 1497 
Q 1191 994 1439 701 
Q 1688 409 2113 409 
Q 2538 409 2786 701 
Q 3034 994 3034 1497 
Q 3034 2003 2786 2293 
Q 2538 2584 2113 2584 
z
M 3366 4563 
L 3366 3988 
Q 3128 4100 2886 4159 
Q 2644 4219 2406 4219 
Q 1781 4219 1451 3797 
Q 1122 3375 1075 2522 
Q 1259 2794 1537 2939 
Q 1816 3084 2150 3084 
Q 2853 3084 3261 2657 
Q 3669 2231 3669 1497 
Q 3669 778 3244 343 
Q 2819 -91 2113 -91 
Q 1303 -91 875 529 
Q 447 1150 447 2328 
Q 447 3434 972 4092 
Q 1497 4750 2381 4750 
Q 2619 4750 2861 4703 
Q 3103 4656 3366 4563 
z
" transform="scale(0.015625)"/>
       </defs>
       <use xlink:href="#DejaVuSans-2212"/>
       <use xlink:href="#DejaVuSans-36" x="83.789062"/>
      </g>
     </g>
    </g>
    <g id="ytick_2">
     <g id="line2d_8">
      <g>
       <use xlink:href="#m631ed92e3c" x="42.620313" y="323.419672" style="stroke: #000000; stroke-width: 0.8"/>
      </g>
     </g>
     <g id="text_9">
      <!-- −4 -->
      <g transform="translate(20.878125 327.21889)scale(0.1 -0.1)">
       <defs>
        <path id="DejaVuSans-34" d="M 2419 4116 
L 825 1625 
L 2419 1625 
L 2419 4116 
z
M 2253 4666 
L 3047 4666 
L 3047 1625 
L 3713 1625 
L 3713 1100 
L 3047 1100 
L 3047 0 
L 2419 0 
L 2419 1100 
L 313 1100 
L 313 1709 
L 2253 4666 
z
" transform="scale(0.015625)"/>
       </defs>
       <use xlink:href="#DejaVuSans-2212"/>
       <use xlink:href="#DejaVuSans-34" x="83.789062"/>
      </g>
     </g>
    </g>
    <g id="ytick_3">
     <g id="line2d_9">
      <g>
       <use xlink:href="#m631ed92e3c" x="42.620313" y="260.172818" style="stroke: #000000; stroke-width: 0.8"/>
      </g>
     </g>
     <g id="text_10">
      <!-- −2 -->
      <g transform="translate(20.878125 263.972037)scale(0.1 -0.1)">
       <defs>
        <path id="DejaVuSans-32" d="M 1228 531 
L 3431 531 
L 3431 0 
L 469 0 
L 469 531 
Q 828 903 1448 1529 
Q 2069 2156 2228 2338 
Q 2531 2678 2651 2914 
Q 2772 3150 2772 3378 
Q 2772 3750 2511 3984 
Q 2250 4219 1831 4219 
Q 1534 4219 1204 4116 
Q 875 4013 500 3803 
L 500 4441 
Q 881 4594 1212 4672 
Q 1544 4750 1819 4750 
Q 2544 4750 2975 4387 
Q 3406 4025 3406 3419 
Q 3406 3131 3298 2873 
Q 3191 2616 2906 2266 
Q 2828 2175 2409 1742 
Q 1991 1309 1228 531 
z
" transform="scale(0.015625)"/>
       </defs>
       <use xlink:href="#DejaVuSans-2212"/>
       <use xlink:href="#DejaVuSans-32" x="83.789062"/>
      </g>
     </g>
    </g>
    <g id="ytick_4">
     <g id="line2d_10">
      <g>
       <use xlink:href="#m631ed92e3c" x="42.620313" y="196.925964" style="stroke: #000000; stroke-width: 0.8"/>
      </g>
     </g>
     <g id="text_11">
      <!-- 0 -->
      <g transform="translate(29.257813 200.725183)scale(0.1 -0.1)">
       <use xlink:href="#DejaVuSans-30"/>
      </g>
     </g>
    </g>
    <g id="ytick_5">
     <g id="line2d_11">
      <g>
       <use xlink:href="#m631ed92e3c" x="42.620313" y="133.67911" style="stroke: #000000; stroke-width: 0.8"/>
      </g>
     </g>
     <g id="text_12">
      <!-- 2 -->
      <g transform="translate(29.257813 137.478329)scale(0.1 -0.1)">
       <use xlink:href="#DejaVuSans-32"/>
      </g>
     </g>
    </g>
    <g id="ytick_6">
     <g id="line2d_12">
      <g>
       <use xlink:href="#m631ed92e3c" x="42.620313" y="70.432257" style="stroke: #000000; stroke-width: 0.8"/>
      </g>
     </g>
     <g id="text_13">
      <!-- 4 -->
      <g transform="translate(29.257813 74.231475)scale(0.1 -0.1)">
       <use xlink:href="#DejaVuSans-34"/>
      </g>
     </g>
    </g>
    <g id="text_14">
     <!-- Velocity (AU) -->
     <g transform="translate(14.798438 233.425937)rotate(-90)scale(0.1 -0.1)">
      <defs>
       <path id="DejaVuSans-56" d="M 1831 0 
L 50 4666 
L 709 4666 
L 2188 738 
L 3669 4666 
L 4325 4666 
L 2547 0 
L 1831 0 
z
" transform="scale(0.015625)"/>
       <path id="DejaVuSans-63" d="M 3122 3366 
L 3122 2828 
Q 2878 2963 2633 3030 
Q 2388 3097 2138 3097 
Q 1578 3097 1268 2742 
Q 959 2388 959 1747 
Q 959 1106 1268 751 
Q 1578 397 2138 397 
Q 2388 397 2633 464 
Q 2878 531 3122 666 
L 3122 134 
Q 2881 22 2623 -34 
Q 2366 -91 2075 -91 
Q 1284 -91 818 406 
Q 353 903 353 1747 
Q 353 2603 823 3093 
Q 1294 3584 2113 3584 
Q 2378 3584 2631 3529 
Q 2884 3475 3122 3366 
z
" transform="scale(0.015625)"/>
       <path id="DejaVuSans-79" d="M 2059 -325 
Q 1816 -950 1584 -1140 
Q 1353 -1331 966 -1331 
L 506 -1331 
L 506 -850 
L 844 -850 
Q 1081 -850 1212 -737 
Q 1344 -625 1503 -206 
L 1606 56 
L 191 3500 
L 800 3500 
L 1894 763 
L 2988 3500 
L 3597 3500 
L 2059 -325 
z
" transform="scale(0.015625)"/>
       <path id="DejaVuSans-41" d="M 2188 4044 
L 1331 1722 
L 3047 1722 
L 2188 4044 
z
M 1831 4666 
L 2547 4666 
L 4325 0 
L 3669 0 
L 3244 1197 
L 1141 1197 
L 716 0 
L 50 0 
L 1831 4666 
z
" transform="scale(0.015625)"/>
       <path id="DejaVuSans-55" d="M 556 4666 
L 1191 4666 
L 1191 1831 
Q 1191 1081 1462 751 
Q 1734 422 2344 422 
Q 2950 422 3222 751 
Q 3494 1081 3494 1831 
L 3494 4666 
L 4128 4666 
L 4128 1753 
Q 4128 841 3676 375 
Q 3225 -91 2344 -91 
Q 1459 -91 1007 375 
Q 556 841 556 1753 
L 556 4666 
z
" transform="scale(0.015625)"/>
      </defs>
      <use xlink:href="#DejaVuSans-56"/>
      <use xlink:href="#DejaVuSans-65" x="60.658203"/>
      <use xlink:href="#DejaVuSans-6c" x="122.181641"/>
      <use xlink:href="#DejaVuSans-6f" x="149.964844"/>
      <use xlink:href="#DejaVuSans-63" x="211.146484"/>
      <use xlink:href="#DejaVuSans-69" x="266.126953"/>
      <use xlink:href="#DejaVuSans-74" x="293.910156"/>
      <use xlink:href="#DejaVuSans-79" x="333.119141"/>
      <use xlink:href="#DejaVuSans-20" x="392.298828"/>
      <use xlink:href="#DejaVuSans-28" x="424.085938"/>
      <use xlink:href="#DejaVuSans-41" x="463.099609"/>
      <use xlink:href="#DejaVuSans-55" x="531.507812"/>
      <use xlink:href="#DejaVuSans-29" x="604.701172"/>
     </g>
    </g>
   </g>
   <g id="line2d_13">
    <path d="M 225.454137 195.502488 
L 228.53474 196.19944 
L 231.615344 197.776353 
L 234.695947 196.750816 
L 237.776551 196.952146 
L 240.857155 196.278107 
L 243.937758 196.157142 
L 247.018362 198.483641 
L 250.098965 198.053282 
L 253.179569 196.222196 
L 256.260173 196.938314 
L 259.340776 196.956897 
L 262.42138 196.503953 
L 265.501983 197.383053 
L 268.582587 196.661319 
L 271.663191 195.756953 
L 274.743794 196.765262 
L 277.824398 197.173654 
L 280.905001 197.718774 
L 283.985605 196.781419 
L 287.066209 196.5628 
L 290.146812 198.230881 
L 293.227416 197.030665 
L 296.30802 197.078632 
L 299.388623 196.504959 
L 302.469227 195.624733 
L 305.54983 196.721794 
L 311.711038 197.961972 
L 314.791641 196.447315 
L 317.872245 196.205895 
L 324.033452 197.10813 
L 327.114056 198.687711 
L 330.194659 196.419658 
L 333.275263 195.78185 
L 336.355866 197.493252 
L 339.43647 197.418902 
L 342.517074 197.955179 
L 345.597677 195.353084 
L 348.678281 195.497023 
L 351.758884 197.743088 
L 354.839488 196.391347 
L 357.920092 197.869529 
L 361.000695 197.974103 
L 364.081299 196.654344 
L 367.161902 196.945976 
L 370.242506 196.429509 
L 373.32311 196.588924 
L 376.403713 197.092088 
L 379.484317 197.126041 
L 382.564921 196.917605 
L 385.645524 196.410575 
L 388.726128 197.523395 
L 391.806731 197.938747 
L 394.887335 194.478663 
L 397.967939 196.762854 
L 401.048542 198.004243 
L 404.129146 197.663221 
L 407.209749 197.053924 
L 410.290353 196.183071 
L 413.370957 198.935259 
L 416.45156 194.813838 
L 419.532164 200.072734 
L 422.612767 193.770024 
L 425.693371 194.12009 
L 428.773975 199.186926 
L 431.854578 190.938475 
L 434.935182 208.790001 
L 438.015785 200.083692 
L 441.096389 188.145937 
L 444.176993 189.152516 
L 447.257596 200.781412 
L 450.3382 209.105569 
L 453.418803 189.253232 
L 456.499407 202.326995 
L 459.580011 192.637107 
L 462.660614 192.240677 
L 465.741218 200.379362 
L 468.821822 190.578881 
L 471.902425 209.251528 
L 474.983029 190.229051 
L 478.063632 192.438547 
L 481.144236 202.715549 
L 484.22484 191.065122 
L 487.305443 209.553982 
L 490.386047 189.448031 
L 493.46665 187.141831 
L 496.547254 216.405683 
L 499.627858 205.633212 
L 502.708461 185.936352 
L 505.789065 186.934385 
L 508.869668 200.794835 
L 511.950272 188.850386 
L 515.030876 196.337503 
L 518.111479 172.242178 
L 521.192083 188.11955 
L 524.272686 244.639606 
L 527.35329 237.571987 
L 530.433894 205.18965 
L 533.514497 114.240218 
L 536.595101 266.129091 
L 539.675704 191.170594 
L 542.756308 24.84 
L 545.836912 333.406401 
L 548.917515 254.387633 
L 551.998119 106.393991 
L 555.078723 189.006761 
L 558.159326 281.027719 
L 561.23993 213.365423 
L 564.320533 66.800448 
L 567.401137 325.25789 
L 570.481741 162.114044 
L 573.562344 81.715252 
L 576.642948 315.579461 
L 579.723551 143.721796 
L 582.804155 220.15372 
L 585.884759 229.78074 
L 588.965362 155.89588 
L 592.045966 258.181235 
L 595.126569 185.043719 
L 598.207173 124.022324 
L 601.287777 140.080589 
L 604.36838 289.01682 
L 607.448984 267.563259 
L 610.529587 117.22015 
L 613.610191 183.765694 
L 616.690795 212.538282 
L 619.771398 236.536683 
L 622.852002 179.891782 
L 625.932605 135.942203 
L 629.013209 234.017719 
L 632.093813 224.454432 
L 635.174416 181.81769 
L 638.25502 181.393035 
L 641.335624 207.910623 
L 644.416227 209.328877 
L 647.496831 189.729911 
L 650.577434 180.890795 
L 653.658038 195.507258 
L 656.738642 212.926347 
L 659.819245 185.145093 
L 662.899849 205.422627 
L 665.980452 214.447963 
L 669.061056 177.293795 
L 672.14166 178.022984 
L 675.222263 219.491332 
L 678.302867 214.538527 
L 681.38347 176.741357 
L 684.464074 197.717506 
L 687.544678 192.640379 
L 690.625281 189.684311 
L 693.705885 201.266474 
L 696.786488 196.231617 
L 699.867092 202.513071 
L 702.947696 209.180288 
L 706.028299 210.483728 
L 709.108903 171.338167 
L 712.189506 185.449332 
L 715.27011 209.457076 
L 718.350714 192.413781 
L 721.431317 205.769171 
L 724.511921 189.467898 
L 727.592524 189.961219 
L 730.673128 213.630568 
L 733.753732 199.853002 
L 736.834335 188.340984 
L 739.914939 191.924463 
L 742.995543 197.646064 
L 746.076146 201.467458 
L 749.15675 197.283829 
L 752.237353 196.80481 
L 755.317957 199.583764 
L 758.398561 188.225701 
L 761.479164 199.223136 
L 764.559768 200.461967 
L 767.640371 189.299882 
L 770.720975 208.240913 
L 773.801579 196.880426 
L 776.882182 197.500776 
L 779.962786 203.233283 
L 783.043389 180.81715 
L 786.123993 187.807368 
L 789.204597 199.000841 
L 792.2852 205.883901 
L 795.365804 202.082251 
L 798.446407 199.659601 
L 801.527011 202.535018 
L 804.607615 190.997148 
L 807.688218 192.218008 
L 810.768822 190.640102 
L 813.849425 196.392735 
L 816.930029 208.231216 
L 820.010633 195.081396 
L 823.091236 193.041706 
L 826.17184 195.031472 
L 829.252444 194.265626 
L 832.333047 203.350941 
L 835.413651 198.848679 
L 838.494254 197.051053 
L 841.574858 196.183433 
L 841.574858 196.183433 
" clip-path="url(#pdf0fb139b0)" style="fill: none; stroke: #000000; stroke-width: 1.5; stroke-linecap: square"/>
   </g>
   <g id="line2d_14">
    <path d="M 219.292929 199.159954 
L 222.373533 190.125363 
L 225.454137 186.575614 
L 228.53474 196.762051 
L 231.615344 198.184466 
L 234.695947 193.889989 
L 237.776551 202.012267 
L 240.857155 199.502591 
L 243.937758 202.530494 
L 247.018362 202.599567 
L 250.098965 193.877973 
L 253.179569 196.709528 
L 256.260173 190.745863 
L 259.340776 194.477303 
L 262.42138 194.438364 
L 265.501983 187.140741 
L 268.582587 200.738974 
L 271.663191 203.087931 
L 274.743794 205.803798 
L 277.824398 203.763719 
L 280.905001 192.007946 
L 283.985605 195.581319 
L 287.066209 190.935424 
L 290.146812 196.19486 
L 293.227416 196.140496 
L 296.30802 185.776602 
L 299.388623 204.942124 
L 302.469227 208.959221 
L 305.54983 195.431842 
L 308.630434 196.206837 
L 311.711038 193.561068 
L 314.791641 193.601242 
L 317.872245 196.941961 
L 320.952848 196.280361 
L 324.033452 198.675774 
L 327.114056 188.821137 
L 330.194659 195.687575 
L 333.275263 217.21119 
L 336.355866 204.387749 
L 339.43647 186.67203 
L 342.517074 186.013782 
L 345.597677 196.726814 
L 348.678281 197.06845 
L 351.758884 191.799555 
L 354.839488 203.426765 
L 357.920092 201.377058 
L 361.000695 196.761176 
L 364.081299 197.045304 
L 367.161902 197.911025 
L 370.242506 198.366557 
L 373.32311 187.057039 
L 376.403713 199.802107 
L 379.484317 201.273138 
L 382.564921 190.977254 
L 385.645524 201.96657 
L 388.726128 196.83087 
L 391.806731 198.507602 
L 394.887335 196.385012 
L 397.967939 194.036766 
L 401.048542 197.224069 
L 404.129146 198.517853 
L 407.209749 202.470903 
L 410.290353 186.67152 
L 413.370957 196.251632 
L 416.45156 199.842137 
L 419.532164 191.775815 
L 422.612767 199.771042 
L 425.693371 202.721186 
L 428.773975 204.116755 
L 431.854578 191.676759 
L 434.935182 197.526075 
L 438.015785 201.31124 
L 441.096389 190.75931 
L 444.176993 181.993451 
L 447.257596 186.906387 
L 450.3382 213.427042 
L 453.418803 210.713189 
L 456.499407 199.961176 
L 459.580011 196.906443 
L 465.741218 187.159414 
L 468.821822 189.146132 
L 471.902425 209.213649 
L 474.983029 200.752045 
L 478.063632 181.859162 
L 484.22484 211.663796 
L 487.305443 205.285718 
L 490.386047 184.970864 
L 493.46665 186.566962 
L 496.547254 209.094411 
L 499.627858 209.838279 
L 502.708461 187.732606 
L 505.789065 194.811839 
L 508.869668 203.552898 
L 511.950272 179.981719 
L 515.030876 190.454938 
L 518.111479 165.298967 
L 521.192083 199.593638 
L 524.272686 250.792362 
L 527.35329 242.365117 
L 530.433894 191.375667 
L 533.514497 112.829282 
L 536.595101 286.215386 
L 539.675704 141.903684 
L 542.756308 53.670955 
L 545.836912 377.64 
L 548.917515 205.698727 
L 551.998119 102.516694 
L 555.078723 225.194264 
L 558.159326 277.965561 
L 561.23993 149.942609 
L 564.320533 115.097721 
L 567.401137 339.51469 
L 570.481741 105.795816 
L 573.562344 150.834214 
L 576.642948 286.325746 
L 579.723551 123.175832 
L 582.804155 250.781375 
L 585.884759 201.801848 
L 588.965362 189.760209 
L 592.045966 253.104594 
L 595.126569 160.482878 
L 598.207173 124.423883 
L 601.287777 160.13966 
L 604.36838 298.55364 
L 607.448984 227.508079 
L 610.529587 128.687077 
L 613.610191 194.122483 
L 616.690795 205.972717 
L 619.771398 249.258303 
L 622.852002 179.42626 
L 625.932605 137.399612 
L 629.013209 245.886933 
L 632.093813 209.343103 
L 635.174416 154.448537 
L 638.25502 198.10767 
L 641.335624 206.093168 
L 644.416227 208.420578 
L 647.496831 212.275128 
L 650.577434 171.316388 
L 653.658038 196.959712 
L 656.738642 215.529635 
L 659.819245 174.132769 
L 662.899849 204.103157 
L 665.980452 217.814258 
L 669.061056 182.103382 
L 672.14166 172.853267 
L 675.222263 212.283262 
L 678.302867 217.112921 
L 681.38347 189.884323 
L 684.464074 199.375548 
L 687.544678 184.149767 
L 690.625281 190.517427 
L 693.705885 199.672909 
L 696.786488 196.947066 
L 699.867092 199.793449 
L 702.947696 207.64476 
L 706.028299 214.982304 
L 709.108903 165.113092 
L 712.189506 188.949249 
L 715.27011 221.983632 
L 718.350714 188.921725 
L 721.431317 195.317754 
L 724.511921 190.155316 
L 727.592524 194.910671 
L 730.673128 210.195056 
L 733.753732 200.967766 
L 736.834335 193.058859 
L 739.914939 191.373415 
L 742.995543 190.655027 
L 746.076146 194.687807 
L 749.15675 206.600413 
L 752.237353 202.889736 
L 755.317957 192.594443 
L 758.398561 186.317041 
L 761.479164 203.902966 
L 764.559768 205.862659 
L 767.640371 191.22834 
L 770.720975 202.945445 
L 773.801579 193.632456 
L 776.882182 192.865912 
L 779.962786 194.416965 
L 783.043389 183.844171 
L 786.123993 198.265881 
L 789.204597 207.468415 
L 792.2852 202.802638 
L 795.365804 201.5002 
L 798.446407 201.186597 
L 801.527011 192.604805 
L 804.607615 196.987296 
L 807.688218 193.203671 
L 810.768822 181.024708 
L 813.849425 204.144207 
L 816.930029 205.350411 
L 820.010633 187.111968 
L 823.091236 195.863692 
L 826.17184 197.796146 
L 829.252444 204.705395 
L 832.333047 201.556733 
L 835.413651 193.717421 
L 835.413651 193.717421 
" clip-path="url(#pdf0fb139b0)" style="fill: none; stroke: #696969; stroke-width: 0.75; stroke-linecap: square"/>
   </g>
   <g id="line2d_15">
    <path d="M 219.292929 193.248127 
L 222.373533 200.921953 
L 225.454137 196.312172 
L 228.53474 195.412798 
L 231.615344 199.511925 
L 234.695947 195.733134 
L 237.776551 199.251099 
L 240.857155 195.864976 
L 243.937758 194.585496 
L 247.018362 197.038415 
L 250.098965 195.322089 
L 253.179569 197.605248 
L 256.260173 198.392441 
L 259.340776 198.55285 
L 262.42138 198.034991 
L 265.501983 195.696153 
L 268.582587 197.086125 
L 271.663191 196.528765 
L 274.743794 194.338914 
L 277.824398 196.783991 
L 280.905001 198.147282 
L 283.985605 196.626668 
L 287.066209 198.252396 
L 290.146812 197.504948 
L 293.227416 195.164222 
L 296.30802 198.417255 
L 299.388623 197.22869 
L 302.469227 195.311283 
L 305.54983 196.913512 
L 308.630434 197.588392 
L 311.711038 196.66165 
L 314.791641 196.37507 
L 317.872245 199.019465 
L 320.952848 196.735962 
L 324.033452 196.37168 
L 327.114056 196.240687 
L 330.194659 195.474894 
L 333.275263 198.931929 
L 336.355866 195.254765 
L 339.43647 195.616901 
L 342.517074 199.589069 
L 345.597677 197.160926 
L 348.678281 198.223581 
L 351.758884 197.379284 
L 354.839488 196.216768 
L 357.920092 196.705696 
L 361.000695 194.045966 
L 364.081299 195.85001 
L 367.161902 197.992164 
L 370.242506 199.497252 
L 373.32311 195.336124 
L 376.403713 195.971811 
L 379.484317 202.318982 
L 382.564921 193.631471 
L 385.645524 196.610604 
L 388.726128 198.314853 
L 391.806731 193.625775 
L 394.887335 199.480933 
L 397.967939 194.208532 
L 401.048542 198.450397 
L 404.129146 197.702077 
L 407.209749 194.839021 
L 410.290353 200.21479 
L 413.370957 195.361833 
L 416.45156 200.506584 
L 419.532164 193.70485 
L 422.612767 196.448118 
L 425.693371 195.944416 
L 428.773975 190.037595 
L 431.854578 208.261045 
L 434.935182 198.798471 
L 438.015785 190.883029 
L 441.096389 191.304367 
L 444.176993 203.360198 
L 447.257596 203.197173 
L 450.3382 189.397375 
L 453.418803 204.170052 
L 456.499407 188.464735 
L 459.580011 196.17745 
L 462.660614 203.213486 
L 465.741218 187.203629 
L 468.821822 206.899355 
L 471.902425 194.994288 
L 474.983029 192.220158 
L 478.063632 199.777145 
L 481.144236 193.506544 
L 484.22484 205.051216 
L 487.305443 186.609217 
L 490.386047 195.840182 
L 493.46665 217.576374 
L 496.547254 199.981043 
L 499.627858 187.588194 
L 502.708461 186.670364 
L 505.789065 206.258006 
L 508.869668 182.833637 
L 511.950272 190.872933 
L 515.030876 182.628156 
L 518.111479 185.595884 
L 521.192083 236.140133 
L 524.272686 229.605349 
L 527.35329 234.648842 
L 530.433894 122.031767 
L 533.514497 232.031358 
L 536.595101 196.709012 
L 539.675704 31.783073 
L 542.756308 328.963133 
L 545.836912 250.288089 
L 548.917515 114.770442 
L 551.998119 206.658448 
L 555.078723 261.927865 
L 558.159326 195.304048 
L 561.23993 98.427697 
L 564.320533 327.216968 
L 567.401137 118.512028 
L 570.481741 113.320819 
L 573.562344 332.371349 
L 576.642948 106.933758 
L 579.723551 250.194888 
L 582.804155 223.117031 
L 585.884759 128.468646 
L 588.965362 283.542606 
L 595.126569 104.504593 
L 598.207173 143.258583 
L 601.287777 309.005082 
L 604.36838 242.00291 
L 607.448984 123.354864 
L 610.529587 197.100624 
L 613.610191 197.810223 
L 616.690795 243.518968 
L 619.771398 174.349739 
L 622.852002 139.052554 
L 625.932605 240.864975 
L 632.093813 185.204772 
L 635.174416 194.917522 
L 638.25502 193.601268 
L 641.335624 203.451213 
L 644.416227 197.000058 
L 647.496831 183.228468 
L 650.577434 201.010292 
L 653.658038 204.572815 
L 656.738642 183.976555 
L 659.819245 207.1764 
L 662.899849 212.532686 
L 665.980452 186.059578 
L 669.061056 173.601166 
L 672.14166 209.743273 
L 675.222263 226.43005 
L 678.302867 178.095446 
L 681.38347 187.578408 
L 684.464074 198.964172 
L 687.544678 196.732246 
L 690.625281 189.359897 
L 693.705885 191.531004 
L 696.786488 211.250091 
L 699.867092 210.003897 
L 702.947696 211.629283 
L 706.028299 165.426143 
L 709.108903 192.326444 
L 712.189506 214.065624 
L 715.27011 182.2434 
L 718.350714 208.441071 
L 721.431317 184.759563 
L 724.511921 189.407848 
L 727.592524 219.02394 
L 730.673128 202.25118 
L 733.753732 187.486318 
L 736.834335 187.049059 
L 739.914939 201.856744 
L 742.995543 199.957312 
L 746.076146 197.294094 
L 749.15675 200.793508 
L 752.237353 193.646738 
L 755.317957 190.980156 
L 758.398561 200.53988 
L 761.479164 193.297492 
L 764.559768 194.966615 
L 767.640371 206.959514 
L 770.720975 196.50032 
L 773.801579 200.780406 
L 776.882182 197.944798 
L 779.962786 189.133545 
L 783.043389 184.640825 
L 786.123993 195.454796 
L 789.204597 208.721149 
L 792.2852 196.755688 
L 795.365804 205.581322 
L 798.446407 198.19984 
L 801.527011 192.198504 
L 804.607615 198.470267 
L 807.688218 184.346595 
L 810.768822 198.553257 
L 813.849425 205.139398 
L 816.930029 195.785639 
L 820.010633 197.673785 
L 823.091236 190.69288 
L 826.17184 195.777712 
L 829.252444 204.167445 
L 832.333047 197.297035 
L 835.413651 196.097839 
L 835.413651 196.097839 
" clip-path="url(#pdf0fb139b0)" style="fill: none; stroke: #696969; stroke-width: 0.75; stroke-linecap: square"/>
   </g>
   <g id="line2d_16">
    <path d="M 222.373533 198.021659 
L 225.454137 198.15435 
L 228.53474 197.819769 
L 231.615344 195.398921 
L 234.695947 187.665397 
L 237.776551 191.47149 
L 240.857155 205.625484 
L 243.937758 204.552126 
L 250.098965 189.484225 
L 253.179569 198.786772 
L 256.260173 206.827462 
L 259.340776 191.478416 
L 262.42138 187.790214 
L 265.501983 192.566292 
L 268.582587 201.446063 
L 271.663191 203.607626 
L 274.743794 196.103462 
L 277.824398 204.02381 
L 283.985605 190.238053 
L 287.066209 194.999182 
L 290.146812 195.691867 
L 293.227416 200.208011 
L 296.30802 191.847996 
L 299.388623 189.820618 
L 302.469227 198.195583 
L 305.54983 205.082238 
L 308.630434 204.626031 
L 311.711038 195.238235 
L 314.791641 200.739644 
L 317.872245 201.97234 
L 324.033452 183.869902 
L 327.114056 181.160818 
L 330.194659 197.879542 
L 333.275263 209.236495 
L 336.355866 209.051731 
L 339.43647 203.464198 
L 342.517074 198.848236 
L 345.597677 191.136577 
L 348.678281 181.193878 
L 351.758884 193.487344 
L 354.839488 200.619524 
L 357.920092 200.782954 
L 361.000695 200.730727 
L 364.081299 195.691628 
L 367.161902 202.55662 
L 370.242506 198.720939 
L 373.32311 191.177016 
L 376.403713 193.240239 
L 382.564921 199.190086 
L 385.645524 198.373442 
L 388.726128 197.325498 
L 391.806731 194.658827 
L 394.887335 197.612843 
L 397.967939 195.972375 
L 401.048542 196.586947 
L 404.129146 199.64924 
L 407.209749 195.7314 
L 410.290353 200.572871 
L 413.370957 195.890749 
L 416.45156 197.357825 
L 419.532164 193.680873 
L 422.612767 189.740279 
L 425.693371 203.498645 
L 428.773975 198.023632 
L 431.854578 197.91421 
L 434.935182 197.202064 
L 438.015785 196.795856 
L 441.096389 198.24045 
L 444.176993 192.896377 
L 447.257596 196.544613 
L 450.3382 198.81361 
L 453.418803 201.40212 
L 456.499407 195.231597 
L 459.580011 195.244038 
L 462.660614 193.038066 
L 465.741218 187.865805 
L 468.821822 203.726362 
L 471.902425 208.477244 
L 474.983029 198.271888 
L 481.144236 190.065553 
L 484.22484 198.012461 
L 487.305443 193.775956 
L 490.386047 181.820473 
L 493.46665 210.904967 
L 496.547254 219.194537 
L 499.627858 203.850104 
L 502.708461 183.502349 
L 505.789065 190.293922 
L 508.869668 186.820013 
L 511.950272 189.427198 
L 515.030876 198.096077 
L 518.111479 158.142598 
L 521.192083 220.349843 
L 524.272686 235.400331 
L 527.35329 253.372485 
L 530.433894 167.304493 
L 533.514497 158.282872 
L 536.595101 269.286798 
L 539.675704 32.843994 
L 542.756308 206.97229 
L 545.836912 348.123991 
L 548.917515 122.567625 
L 551.998119 167.765788 
L 555.078723 241.426558 
L 558.159326 246.103327 
L 561.23993 98.203255 
L 564.320533 260.048633 
L 567.401137 230.720887 
L 570.481741 41.198471 
L 573.562344 311.660023 
L 576.642948 177.760825 
L 579.723551 166.678196 
L 582.804155 278.43894 
L 585.884759 126.892341 
L 588.965362 244.701504 
L 592.045966 246.345568 
L 595.126569 127.00861 
L 598.207173 90.069157 
L 601.287777 245.210606 
L 604.36838 311.480811 
L 607.448984 147.414822 
L 610.529587 176.911139 
L 613.610191 192.082361 
L 616.690795 230.452071 
L 619.771398 221.014528 
L 622.852002 118.554309 
L 625.932605 198.677701 
L 629.013209 233.240193 
L 632.093813 201.594131 
L 635.174416 201.532865 
L 638.25502 181.935548 
L 644.416227 212.390413 
L 647.496831 178.473127 
L 650.577434 184.773649 
L 653.658038 209.838948 
L 656.738642 192.704694 
L 659.819245 207.555014 
L 662.899849 216.248431 
L 665.980452 187.623563 
L 669.061056 165.566966 
L 672.14166 189.3021 
L 675.222263 231.736664 
L 678.302867 203.77542 
L 681.38347 192.067982 
L 684.464074 193.015662 
L 687.544678 187.275289 
L 690.625281 195.163304 
L 693.705885 182.641783 
L 696.786488 199.785967 
L 699.867092 209.679711 
L 702.947696 223.261976 
L 706.028299 193.540999 
L 709.108903 172.701184 
L 712.189506 202.371661 
L 715.27011 184.709055 
L 718.350714 209.894999 
L 721.431317 204.555717 
L 724.511921 176.551095 
L 727.592524 206.899187 
L 730.673128 202.889427 
L 733.753732 190.891946 
L 736.834335 195.856967 
L 739.914939 194.114528 
L 742.995543 196.264144 
L 746.076146 203.422054 
L 749.15675 203.199256 
L 752.237353 205.138899 
L 755.317957 191.589124 
L 758.398561 182.369405 
L 761.479164 193.207474 
L 764.559768 193.206632 
L 767.640371 205.048145 
L 770.720975 200.237098 
L 773.801579 200.614296 
L 776.882182 208.649432 
L 779.962786 191.563801 
L 783.043389 185.738873 
L 786.123993 182.995384 
L 789.204597 201.946179 
L 792.2852 206.816145 
L 795.365804 197.291473 
L 798.446407 205.740002 
L 801.527011 198.009508 
L 804.607615 196.770653 
L 807.688218 188.820175 
L 810.768822 187.218972 
L 813.849425 201.103754 
L 816.930029 200.463375 
L 820.010633 199.666635 
L 823.091236 194.699854 
L 826.17184 192.922733 
L 829.252444 197.297439 
L 832.333047 201.119074 
L 835.413651 202.091098 
L 838.494254 197.893786 
L 838.494254 197.893786 
" clip-path="url(#pdf0fb139b0)" style="fill: none; stroke: #696969; stroke-width: 0.75; stroke-linecap: square"/>
   </g>
   <g id="line2d_17">
    <path d="M 80.665767 171.164168 
L 83.746371 212.457199 
L 86.826974 214.375398 
L 89.907578 171.715537 
L 92.988181 207.809431 
L 96.068785 202.206089 
L 99.149389 196.994914 
L 102.229992 190.068311 
L 105.310596 184.099607 
L 108.3912 200.446947 
L 111.471803 191.652249 
L 114.552407 215.374522 
L 120.713614 182.949335 
L 123.794218 218.680574 
L 126.874821 186.946893 
L 129.955425 184.493686 
L 133.036028 211.850101 
L 136.116632 190.91646 
L 139.197236 187.921323 
L 142.277839 186.257143 
L 145.358443 198.20165 
L 148.439046 220.165706 
L 151.51965 209.903284 
L 154.600254 189.569274 
L 157.680857 177.755979 
L 163.842064 212.556651 
L 166.922668 205.07696 
L 170.003272 183.798031 
L 173.083875 184.004769 
L 176.164479 199.861202 
L 179.245082 193.375745 
L 182.325686 193.581931 
L 185.40629 208.979028 
L 188.486893 207.926337 
L 191.567497 203.182321 
L 194.648101 207.382239 
L 197.728704 185.628775 
L 200.809308 178.327187 
L 203.889911 184.157351 
L 206.970515 200.003947 
L 210.051119 209.642378 
L 213.131722 183.876096 
L 216.212326 203.212791 
L 219.292929 211.111036 
L 222.373533 205.360129 
L 225.454137 206.102172 
L 228.53474 180.49192 
L 231.615344 184.240014 
L 234.695947 191.723129 
L 237.776551 210.671751 
L 240.857155 203.36852 
L 243.937758 173.592293 
L 247.018362 201.937235 
L 250.098965 207.103029 
L 253.179569 204.010265 
L 256.260173 188.724921 
L 259.340776 170.159416 
L 262.42138 215.423304 
L 265.501983 223.987383 
L 268.582587 214.897079 
L 271.663191 193.759937 
L 274.743794 166.414592 
L 277.824398 174.190968 
L 280.905001 170.351689 
L 283.985605 199.205491 
L 287.066209 224.917665 
L 290.146812 230.607646 
L 293.227416 235.106209 
L 296.30802 188.740619 
L 299.388623 157.637114 
L 302.469227 169.725472 
L 305.54983 179.164834 
L 308.630434 207.464065 
L 311.711038 227.051549 
L 314.791641 211.567496 
L 317.872245 189.001045 
L 320.952848 179.586062 
L 324.033452 187.248011 
L 327.114056 201.367598 
L 330.194659 220.125939 
L 333.275263 198.718032 
L 336.355866 191.15717 
L 339.43647 209.228898 
L 342.517074 178.854456 
L 345.597677 179.984679 
L 348.678281 202.254981 
L 351.758884 201.198038 
L 354.839488 204.968348 
L 357.920092 199.422946 
L 361.000695 194.215362 
L 364.081299 190.991146 
L 367.161902 188.217009 
L 370.242506 193.872367 
L 373.32311 213.216816 
L 376.403713 213.349626 
L 379.484317 207.828041 
L 382.564921 199.70871 
L 385.645524 160.681228 
L 388.726128 179.791455 
L 391.806731 194.745808 
L 394.887335 199.077517 
L 397.967939 220.759882 
L 401.048542 201.032777 
L 404.129146 208.199497 
L 407.209749 185.75587 
L 410.290353 187.216375 
L 413.370957 210.672304 
L 416.45156 189.460756 
L 419.532164 205.22933 
L 422.612767 193.582504 
L 425.693371 188.305458 
L 428.773975 194.01758 
L 431.854578 183.641755 
L 434.935182 197.845265 
L 438.015785 202.274646 
L 441.096389 213.975607 
L 444.176993 204.298543 
L 447.257596 191.008095 
L 450.3382 203.755609 
L 453.418803 192.797744 
L 456.499407 184.504262 
L 459.580011 189.340889 
L 462.660614 199.001527 
L 465.741218 217.3877 
L 468.821822 193.400441 
L 471.902425 172.295837 
L 474.983029 202.845727 
L 478.063632 203.760332 
L 481.144236 201.764305 
L 484.22484 201.835439 
L 487.305443 183.863388 
L 490.386047 208.889098 
L 493.46665 206.69511 
L 496.547254 189.310518 
L 499.627858 179.830786 
L 502.708461 198.352619 
L 505.789065 236.576324 
L 508.869668 169.765267 
L 511.950272 174.564901 
L 515.030876 183.596091 
L 518.111479 175.243985 
L 521.192083 243.652428 
L 524.272686 252.678675 
L 527.35329 217.951153 
L 530.433894 114.381713 
L 533.514497 232.045529 
L 536.595101 210.092295 
L 539.675704 33.706022 
L 542.756308 285.660105 
L 545.836912 312.28049 
L 548.917515 100.779945 
L 551.998119 178.355976 
L 555.078723 310.37436 
L 558.159326 143.936633 
L 561.23993 122.653558 
L 564.320533 309.742681 
L 567.401137 119.122489 
L 570.481741 140.825085 
L 573.562344 278.856945 
L 576.642948 172.280147 
L 579.723551 233.386258 
L 582.804155 198.668571 
L 585.884759 141.785065 
L 588.965362 267.259768 
L 592.045966 227.163673 
L 595.126569 83.658159 
L 598.207173 169.510347 
L 601.287777 282.934736 
L 604.36838 233.624322 
L 607.448984 158.084129 
L 610.529587 147.483278 
L 613.610191 215.714117 
L 616.690795 219.169717 
L 619.771398 205.577776 
L 622.852002 187.948996 
L 625.932605 176.911167 
L 629.013209 230.754714 
L 632.093813 213.554474 
L 635.174416 171.539222 
L 638.25502 164.106164 
L 641.335624 203.208683 
L 644.416227 214.423454 
L 647.496831 189.978003 
L 650.577434 211.188599 
L 653.658038 200.876285 
L 656.738642 194.661953 
L 659.819245 203.414184 
L 662.899849 179.616472 
L 665.980452 170.756219 
L 669.061056 202.099552 
L 672.14166 231.437585 
L 675.222263 217.247372 
L 678.302867 189.888946 
L 681.38347 182.377394 
L 684.464074 173.27504 
L 687.544678 175.621105 
L 690.625281 217.737415 
L 693.705885 221.500616 
L 696.786488 192.837744 
L 696.786488 192.837744 
" clip-path="url(#pdf0fb139b0)" style="fill: none; stroke: #696969; stroke-width: 0.75; stroke-linecap: square"/>
   </g>
   <g id="patch_3">
    <path d="M 42.620313 395.28 
L 42.620313 7.2 
" style="fill: none; stroke: #000000; stroke-width: 0.8; stroke-linejoin: miter; stroke-linecap: square"/>
   </g>
   <g id="patch_4">
    <path d="M 879.620312 395.28 
L 879.620312 7.2 
" style="fill: none; stroke: #000000; stroke-width: 0.8; stroke-linejoin: miter; stroke-linecap: square"/>
   </g>
   <g id="patch_5">
    <path d="M 42.620313 395.28 
L 879.620312 395.28 
" style="fill: none; stroke: #000000; stroke-width: 0.8; stroke-linejoin: miter; stroke-linecap: square"/>
   </g>
   <g id="patch_6">
    <path d="M 42.620313 7.2 
L 879.620312 7.2 
" style="fill: none; stroke: #000000; stroke-width: 0.8; stroke-linejoin: miter; stroke-linecap: square"/>
   </g>
  </g>
 </g>
 <defs>
  <clipPath id="pdf0fb139b0">
   <rect x="42.620313" y="7.2" width="837" height="388.08"/>
  </clipPath>
 </defs>
</svg>
