<?xml version="1.0" encoding="utf-8" standalone="no"?>
<!DOCTYPE svg PUBLIC "-//W3C//DTD SVG 1.1//EN"
  "http://www.w3.org/Graphics/SVG/1.1/DTD/svg11.dtd">
<svg xmlns:xlink="http://www.w3.org/1999/xlink" width="973.134375pt" height="325.755469pt" viewBox="0 0 973.134375 325.755469" xmlns="http://www.w3.org/2000/svg" version="1.1">
 <metadata>
  <rdf:RDF xmlns:dc="http://purl.org/dc/elements/1.1/" xmlns:cc="http://creativecommons.org/ns#" xmlns:rdf="http://www.w3.org/1999/02/22-rdf-syntax-ns#">
   <cc:Work>
    <dc:type rdf:resource="http://purl.org/dc/dcmitype/StillImage"/>
    <dc:date>2023-11-03T14:46:09.966224</dc:date>
    <dc:format>image/svg+xml</dc:format>
    <dc:creator>
     <cc:Agent>
      <dc:title>Matplotlib v3.5.2, https://matplotlib.org/</dc:title>
     </cc:Agent>
    </dc:creator>
   </cc:Work>
  </rdf:RDF>
 </metadata>
 <defs>
  <style type="text/css">*{stroke-linejoin: round; stroke-linecap: butt}</style>
 </defs>
 <g id="figure_1">
  <g id="patch_1">
   <path d="M 0 325.755469 
L 973.134375 325.755469 
L 973.134375 0 
L 0 0 
z
" style="fill: #ffffff"/>
  </g>
  <g id="axes_1">
   <g id="patch_2">
    <path d="M 77.610938 288.199219 
L 914.610937 288.199219 
L 914.610937 10.999219 
L 77.610938 10.999219 
z
" style="fill: #ffffff"/>
   </g>
   <g id="matplotlib.axis_1">
    <g id="xtick_1">
     <g id="line2d_1">
      <defs>
       <path id="m78cad2b8bc" d="M 0 0 
L 0 3.5 
" style="stroke: #000000; stroke-width: 0.8"/>
      </defs>
      <g>
       <use xlink:href="#m78cad2b8bc" x="115.656392" y="288.199219" style="stroke: #000000; stroke-width: 0.8"/>
      </g>
     </g>
     <g id="text_1">
      <text style="font: 10px 'sans-serif'; text-anchor: middle" x="115.656392" y="302.797656" transform="rotate(-0, 115.656392, 302.797656)">0</text>
     </g>
    </g>
    <g id="xtick_2">
     <g id="line2d_2">
      <g>
       <use xlink:href="#m78cad2b8bc" x="256.617691" y="288.199219" style="stroke: #000000; stroke-width: 0.8"/>
      </g>
     </g>
     <g id="text_2">
      <text style="font: 10px 'sans-serif'; text-anchor: middle" x="256.617691" y="302.797656" transform="rotate(-0, 256.617691, 302.797656)">500</text>
     </g>
    </g>
    <g id="xtick_3">
     <g id="line2d_3">
      <g>
       <use xlink:href="#m78cad2b8bc" x="397.57899" y="288.199219" style="stroke: #000000; stroke-width: 0.8"/>
      </g>
     </g>
     <g id="text_3">
      <text style="font: 10px 'sans-serif'; text-anchor: middle" x="397.57899" y="302.797656" transform="rotate(-0, 397.57899, 302.797656)">1000</text>
     </g>
    </g>
    <g id="xtick_4">
     <g id="line2d_4">
      <g>
       <use xlink:href="#m78cad2b8bc" x="538.540288" y="288.199219" style="stroke: #000000; stroke-width: 0.8"/>
      </g>
     </g>
     <g id="text_4">
      <text style="font: 10px 'sans-serif'; text-anchor: middle" x="538.540288" y="302.797656" transform="rotate(-0, 538.540288, 302.797656)">1500</text>
     </g>
    </g>
    <g id="xtick_5">
     <g id="line2d_5">
      <g>
       <use xlink:href="#m78cad2b8bc" x="679.501587" y="288.199219" style="stroke: #000000; stroke-width: 0.8"/>
      </g>
     </g>
     <g id="text_5">
      <text style="font: 10px 'sans-serif'; text-anchor: middle" x="679.501587" y="302.797656" transform="rotate(-0, 679.501587, 302.797656)">2000</text>
     </g>
    </g>
    <g id="xtick_6">
     <g id="line2d_6">
      <g>
       <use xlink:href="#m78cad2b8bc" x="820.462886" y="288.199219" style="stroke: #000000; stroke-width: 0.8"/>
      </g>
     </g>
     <g id="text_6">
      <text style="font: 10px 'sans-serif'; text-anchor: middle" x="820.462886" y="302.797656" transform="rotate(-0, 820.462886, 302.797656)">2500</text>
     </g>
    </g>
    <g id="text_7">
     <text style="font: 10px 'sans-serif'; text-anchor: middle" x="496.110937" y="316.475781" transform="rotate(-0, 496.110937, 316.475781)">Time (samples)</text>
    </g>
   </g>
   <g id="matplotlib.axis_2">
    <g id="ytick_1">
     <g id="line2d_7">
      <defs>
       <path id="mb573e11ad3" d="M 0 0 
L -3.5 0 
" style="stroke: #000000; stroke-width: 0.8"/>
      </defs>
      <g>
       <use xlink:href="#mb573e11ad3" x="77.610938" y="245.574542" style="stroke: #000000; stroke-width: 0.8"/>
      </g>
     </g>
     <g id="text_8">
      <text style="font: 10px 'sans-serif'; text-anchor: end" x="70.610938" y="249.373761" transform="rotate(-0, 70.610938, 249.373761)">−0.00010</text>
     </g>
    </g>
    <g id="ytick_2">
     <g id="line2d_8">
      <g>
       <use xlink:href="#mb573e11ad3" x="77.610938" y="187.198086" style="stroke: #000000; stroke-width: 0.8"/>
      </g>
     </g>
     <g id="text_9">
      <text style="font: 10px 'sans-serif'; text-anchor: end" x="70.610938" y="190.997305" transform="rotate(-0, 70.610938, 190.997305)">−0.00005</text>
     </g>
    </g>
    <g id="ytick_3">
     <g id="line2d_9">
      <g>
       <use xlink:href="#mb573e11ad3" x="77.610938" y="128.821629" style="stroke: #000000; stroke-width: 0.8"/>
      </g>
     </g>
     <g id="text_10">
      <text style="font: 10px 'sans-serif'; text-anchor: end" x="70.610938" y="132.620848" transform="rotate(-0, 70.610938, 132.620848)">0.00000</text>
     </g>
    </g>
    <g id="ytick_4">
     <g id="line2d_10">
      <g>
       <use xlink:href="#mb573e11ad3" x="77.610938" y="70.445173" style="stroke: #000000; stroke-width: 0.8"/>
      </g>
     </g>
     <g id="text_11">
      <text style="font: 10px 'sans-serif'; text-anchor: end" x="70.610938" y="74.244391" transform="rotate(-0, 70.610938, 74.244391)">0.00005</text>
     </g>
    </g>
    <g id="ytick_5">
     <g id="line2d_11">
      <g>
       <use xlink:href="#mb573e11ad3" x="77.610938" y="12.068716" style="stroke: #000000; stroke-width: 0.8"/>
      </g>
     </g>
     <g id="text_12">
      <text style="font: 10px 'sans-serif'; text-anchor: end" x="70.610938" y="15.867935" transform="rotate(-0, 70.610938, 15.867935)">0.00010</text>
     </g>
    </g>
    <g id="text_13">
     <text style="font: 10px 'sans-serif'; text-anchor: middle" x="14.798438" y="149.599219" transform="rotate(-90, 14.798438, 149.599219)">Velocity [m/s]</text>
    </g>
   </g>
   <g id="line2d_12">
    <path d="M 115.656392 124.526285 
L 115.938315 117.08143 
L 116.50216 127.03413 
L 117.066005 140.087607 
L 117.347928 130.622488 
L 117.911773 120.708815 
L 118.193695 122.131917 
L 118.475618 129.590054 
L 118.757541 148.973551 
L 119.039463 125.302071 
L 119.321386 123.66861 
L 119.603308 130.157503 
L 119.885231 107.784438 
L 120.167154 138.48102 
L 120.449076 125.890181 
L 121.012921 142.83432 
L 121.294844 123.939637 
L 121.576767 138.360942 
L 121.858689 112.564447 
L 122.140612 129.056634 
L 122.422534 132.94611 
L 122.704457 101.712864 
L 123.268302 148.915792 
L 123.550225 146.022827 
L 123.832147 139.996309 
L 124.11407 119.569949 
L 124.395993 114.163084 
L 124.677915 116.045255 
L 124.959838 122.520054 
L 125.24176 141.577722 
L 125.523683 134.40535 
L 125.805606 136.154635 
L 126.087528 135.247912 
L 126.369451 117.248591 
L 126.933296 130.681854 
L 127.215219 125.477983 
L 127.497141 125.060079 
L 127.779064 130.107711 
L 128.060986 137.991007 
L 128.342909 133.602228 
L 128.624832 123.050711 
L 128.906754 123.355634 
L 129.188677 131.024683 
L 129.470599 133.037082 
L 130.316367 125.435738 
L 130.59829 127.40003 
L 130.880212 123.463624 
L 131.162135 125.382875 
L 131.444058 136.205406 
L 131.72598 141.039431 
L 132.007903 134.322772 
L 132.289825 121.09797 
L 132.571748 122.28826 
L 132.85367 132.793025 
L 133.135593 128.027432 
L 133.417516 118.96222 
L 133.699438 121.692053 
L 134.545206 142.540703 
L 134.827129 145.190842 
L 135.390974 115.987449 
L 135.672896 116.875606 
L 135.954819 113.996287 
L 136.236742 121.057342 
L 136.518664 140.64874 
L 136.800587 145.756371 
L 137.364432 128.842276 
L 137.646355 125.900324 
L 137.928277 129.608503 
L 138.492122 116.611776 
L 139.33789 134.809622 
L 139.619813 132.224663 
L 139.901735 139.313522 
L 140.183658 137.744973 
L 140.465581 123.976411 
L 140.747503 119.98183 
L 141.029426 117.815863 
L 141.593271 133.690344 
L 141.875194 127.260644 
L 142.157116 133.882717 
L 142.439039 134.63012 
L 142.720961 129.035636 
L 143.002884 129.550976 
L 143.284807 125.908614 
L 143.566729 134.134612 
L 143.848652 128.330932 
L 144.130574 114.768866 
L 144.412497 118.635107 
L 144.69442 126.994972 
L 144.976342 146.660538 
L 145.258265 146.937327 
L 145.82211 119.861645 
L 146.104033 110.834533 
L 146.9498 137.530876 
L 147.231723 131.968077 
L 147.513646 132.916254 
L 147.795568 127.142441 
L 148.077491 128.204767 
L 148.359413 126.754819 
L 148.641336 128.521127 
L 148.923259 143.883925 
L 149.205181 116.214709 
L 149.487104 119.337613 
L 149.769026 133.67557 
L 150.050949 122.975291 
L 150.332872 125.40642 
L 150.614794 129.028337 
L 150.896717 144.510629 
L 151.460562 132.65001 
L 151.742485 129.245239 
L 152.024407 112.02996 
L 152.30633 114.195947 
L 152.588252 126.138236 
L 152.870175 133.332746 
L 153.43402 135.692353 
L 153.715943 132.818626 
L 153.997865 131.59909 
L 154.279788 130.935281 
L 154.561711 128.973187 
L 154.843633 123.004255 
L 155.125556 114.154844 
L 155.407478 124.321269 
L 155.689401 139.136119 
L 155.971324 139.193121 
L 156.253246 127.964283 
L 156.535169 124.587437 
L 156.817091 128.201718 
L 157.099014 126.148082 
L 157.380936 128.36524 
L 157.662859 128.573733 
L 157.944782 135.350239 
L 158.226704 137.742908 
L 158.790549 115.80102 
L 159.072472 113.601613 
L 159.354395 136.216072 
L 159.636317 145.101671 
L 159.91824 129.234277 
L 160.200162 127.232511 
L 160.482085 131.505358 
L 160.764008 125.876932 
L 161.04593 125.520581 
L 161.327853 124.642195 
L 161.609775 122.589628 
L 161.891698 131.401847 
L 162.173621 132.696059 
L 162.455543 136.74753 
L 162.737466 134.255572 
L 163.019388 125.157932 
L 163.301311 130.056769 
L 163.583234 125.957674 
L 163.865156 117.861856 
L 164.147079 118.477575 
L 164.429001 129.692259 
L 164.710924 145.469303 
L 165.274769 131.308779 
L 165.556692 129.887233 
L 165.838614 114.127559 
L 166.40246 133.961023 
L 166.684382 122.653368 
L 166.966305 127.027887 
L 167.248227 135.234272 
L 167.812073 127.101178 
L 168.093995 135.262006 
L 168.375918 147.834732 
L 168.65784 129.651068 
L 168.939763 96.752121 
L 169.221686 104.774659 
L 169.785531 155.191277 
L 170.067453 151.377786 
L 170.631299 117.54304 
L 170.913221 108.049687 
L 171.758989 142.929949 
L 172.040912 147.548877 
L 172.322834 121.953359 
L 172.604757 119.520076 
L 172.886679 129.929259 
L 173.168602 111.733629 
L 173.732447 143.055605 
L 174.01437 134.583515 
L 174.296292 130.443445 
L 174.578215 129.343837 
L 174.860138 130.789331 
L 175.14206 122.024284 
L 175.423983 128.351214 
L 175.705905 114.228559 
L 176.269751 158.055521 
L 176.551673 117.52922 
L 177.115518 110.029986 
L 177.679364 167.107116 
L 178.243209 87.02655 
L 178.807054 189.672226 
L 179.088977 147.370756 
L 179.370899 70.787493 
L 179.652822 64.96088 
L 180.216667 190.045118 
L 180.498589 166.815567 
L 181.062435 90.001249 
L 181.344357 118.165645 
L 181.62628 119.15292 
L 181.908202 96.68321 
L 182.472048 186.862387 
L 182.75397 164.867917 
L 183.035893 99.491802 
L 183.317815 101.240746 
L 183.599738 124.585785 
L 183.881661 111.710343 
L 184.163583 121.555995 
L 184.445506 109.700958 
L 184.727428 163.635652 
L 185.009351 190.941299 
L 185.291274 121.653553 
L 185.573196 87.632147 
L 185.855119 94.54965 
L 186.137041 147.534646 
L 186.418964 139.815058 
L 186.700887 128.990319 
L 186.982809 143.032475 
L 187.264732 125.981987 
L 187.546654 131.334368 
L 187.828577 106.306414 
L 188.1105 112.222677 
L 188.392422 154.073387 
L 188.674345 128.443694 
L 188.956267 125.830431 
L 189.23819 148.539961 
L 189.520113 134.280061 
L 189.802035 138.466212 
L 190.083958 89.780335 
L 190.36588 97.237205 
L 190.647803 150.817299 
L 190.929726 137.112019 
L 191.211648 157.531478 
L 191.493571 130.978095 
L 191.775493 117.743932 
L 192.057416 126.797232 
L 192.339339 113.401456 
L 192.621261 138.149726 
L 192.903184 134.692339 
L 193.185106 104.615571 
L 193.467029 115.146666 
L 193.748952 149.687292 
L 194.030874 146.707542 
L 194.312797 149.455131 
L 194.594719 120.032356 
L 194.876642 107.354936 
L 195.158565 143.54638 
L 195.72241 106.620574 
L 196.004332 93.714944 
L 196.286255 136.117228 
L 196.568178 197.603979 
L 197.132023 110.57838 
L 197.413945 109.674668 
L 197.695868 106.59689 
L 198.259713 120.397999 
L 198.823558 165.621843 
L 199.105481 154.085306 
L 199.387404 119.894182 
L 199.669326 101.324367 
L 199.951249 109.36631 
L 200.233171 133.171187 
L 200.515094 133.927173 
L 200.797017 123.444672 
L 201.360862 144.772502 
L 201.924707 122.667154 
L 202.20663 126.52113 
L 202.488552 126.156539 
L 202.770475 123.644434 
L 203.33432 129.926159 
L 203.616242 129.914711 
L 203.898165 130.948211 
L 204.180088 131.543541 
L 204.46201 127.987736 
L 204.743933 126.257998 
L 205.025855 136.73666 
L 205.307778 136.310825 
L 205.589701 117.861698 
L 205.871623 114.210441 
L 206.435468 137.457847 
L 206.717391 141.060328 
L 207.281236 124.928362 
L 207.563159 127.714732 
L 207.845081 127.23318 
L 208.408927 124.064398 
L 208.690849 124.453886 
L 209.254694 136.634045 
L 209.536617 132.535151 
L 209.81854 130.273622 
L 210.382385 132.157297 
L 210.94623 116.412674 
L 211.228153 122.181585 
L 211.510075 120.314321 
L 211.791998 129.466441 
L 212.07392 145.159063 
L 212.355843 150.979341 
L 212.637766 147.793283 
L 212.919688 114.302761 
L 213.201611 99.005988 
L 213.765456 124.784437 
L 214.047379 133.822974 
L 214.329301 137.811053 
L 214.611224 145.52015 
L 214.893146 159.701651 
L 215.456992 89.884593 
L 216.020837 130.174702 
L 216.302759 121.824457 
L 216.866605 150.505462 
L 217.148527 152.265969 
L 217.712372 94.206448 
L 218.276218 150.800397 
L 219.121985 116.251971 
L 219.403908 114.323777 
L 219.685831 140.135094 
L 219.967753 136.276722 
L 220.249676 130.029843 
L 220.531598 127.895284 
L 220.813521 127.975634 
L 221.095444 132.499467 
L 221.377366 122.801214 
L 221.659289 129.167137 
L 221.941211 124.675465 
L 222.223134 133.399216 
L 222.505057 133.415923 
L 222.786979 114.32632 
L 223.068902 131.163444 
L 223.350824 138.96379 
L 223.632747 137.507881 
L 223.91467 131.00331 
L 224.196592 110.216536 
L 224.478515 116.641328 
L 224.760437 141.1109 
L 225.04236 139.207482 
L 225.324283 134.864724 
L 225.606205 117.299204 
L 225.888128 116.342718 
L 226.17005 140.353966 
L 226.733895 127.909512 
L 227.015818 132.376964 
L 227.297741 133.058038 
L 227.579663 103.217977 
L 227.861586 115.074489 
L 228.143508 132.090227 
L 228.425431 166.174508 
L 228.707354 167.384856 
L 228.989276 87.129975 
L 229.271199 114.405145 
L 229.553121 102.602364 
L 229.835044 108.596996 
L 230.116967 189.723276 
L 230.398889 164.504302 
L 230.962734 75.425487 
L 231.244657 94.899799 
L 231.52658 163.763872 
L 232.090425 137.390058 
L 232.372347 132.60999 
L 232.65427 104.785535 
L 232.936193 108.574773 
L 233.500038 165.196381 
L 233.78196 150.917656 
L 234.063883 89.264797 
L 234.345806 70.873134 
L 234.909651 196.474808 
L 235.191573 172.589133 
L 235.473496 105.111851 
L 235.755419 94.279075 
L 236.037341 127.7419 
L 236.319264 126.300684 
L 236.601186 88.429295 
L 236.883109 108.695713 
L 237.446954 211.038027 
L 238.010799 100.327596 
L 238.292722 57.956527 
L 238.574645 55.150906 
L 238.856567 187.139487 
L 239.13849 163.471353 
L 239.420412 164.935668 
L 239.702335 161.237383 
L 239.984258 57.463921 
L 240.26618 111.28824 
L 240.548103 141.2643 
L 241.111948 123.43622 
L 241.393871 115.704639 
L 241.675793 165.148839 
L 241.957716 159.24106 
L 242.239638 119.246925 
L 242.521561 98.162762 
L 242.803484 95.840876 
L 243.085406 135.545801 
L 243.367329 155.682496 
L 243.931174 122.999296 
L 244.213097 119.489386 
L 244.495019 135.523746 
L 244.776942 139.455676 
L 245.058864 118.899892 
L 245.340787 115.76881 
L 245.62271 137.096292 
L 245.904632 139.012418 
L 246.186555 123.516157 
L 246.468477 116.37672 
L 246.7504 124.651756 
L 247.032323 140.711825 
L 247.314245 138.179277 
L 247.87809 126.110271 
L 248.160013 121.204151 
L 248.723858 134.782691 
L 249.005781 126.309176 
L 249.287703 114.025943 
L 249.851549 142.937516 
L 250.133471 139.853592 
L 250.697316 122.709975 
L 250.979239 128.434509 
L 251.261161 120.855171 
L 251.543084 118.01722 
L 252.106929 143.1903 
L 252.388852 134.213692 
L 252.670774 120.399679 
L 253.23462 128.608175 
L 253.516542 128.619456 
L 253.798465 124.719965 
L 254.080387 130.132313 
L 254.36231 141.366599 
L 254.926155 124.792252 
L 255.208078 114.949397 
L 255.49 120.839711 
L 255.771923 132.623503 
L 256.053846 132.416047 
L 256.335768 134.732673 
L 256.617691 142.900484 
L 256.899613 129.958515 
L 257.181536 110.707233 
L 258.027304 140.049291 
L 258.309226 133.282239 
L 258.591149 118.974729 
L 259.154994 136.234526 
L 259.436917 133.295361 
L 259.718839 123.022691 
L 260.000762 121.891965 
L 260.564607 130.948275 
L 260.84653 133.649473 
L 261.128452 128.998113 
L 261.410375 131.672658 
L 261.692298 136.819827 
L 262.256143 114.388379 
L 262.538065 120.539544 
L 263.101911 140.63218 
L 263.383833 142.636619 
L 263.665756 122.936628 
L 263.947678 118.809774 
L 264.511524 133.60124 
L 264.793446 134.670654 
L 265.075369 125.920532 
L 265.357291 124.665338 
L 265.639214 122.550792 
L 265.921137 125.698601 
L 266.203059 138.192771 
L 266.484982 138.742935 
L 267.048827 122.304174 
L 267.33075 122.830306 
L 267.612672 125.443298 
L 268.176517 134.160297 
L 268.45844 131.135528 
L 268.740363 126.525633 
L 269.022285 124.76687 
L 269.304208 128.591696 
L 269.58613 129.665507 
L 269.868053 135.116743 
L 270.149976 137.73372 
L 270.431898 127.076092 
L 270.713821 107.30691 
L 270.995743 112.427199 
L 271.277666 151.927219 
L 271.559589 156.471018 
L 272.123434 101.873796 
L 272.405356 110.773429 
L 272.687279 142.571987 
L 272.969202 149.326645 
L 273.533047 117.278569 
L 273.814969 120.72531 
L 274.096892 139.014855 
L 274.378814 137.548295 
L 274.660737 113.976377 
L 274.94266 116.960712 
L 275.224582 139.033303 
L 275.506505 145.298033 
L 276.07035 108.920638 
L 276.352273 122.106795 
L 276.634195 140.746444 
L 276.916118 136.825704 
L 277.761886 119.855625 
L 278.325731 136.646578 
L 278.889576 123.437897 
L 279.171499 118.318873 
L 279.735344 138.201264 
L 280.017266 140.257391 
L 280.299189 139.311181 
L 280.863034 118.355827 
L 281.144957 112.703558 
L 281.426879 118.49883 
L 281.708802 129.699244 
L 281.990725 136.436285 
L 282.272647 148.50991 
L 282.55457 144.406603 
L 283.118415 109.077639 
L 283.400338 113.335826 
L 283.68226 131.312801 
L 283.964183 138.615184 
L 284.246105 136.525273 
L 284.528028 133.064652 
L 284.809951 131.575323 
L 285.091873 122.344622 
L 285.373796 116.829732 
L 285.655718 120.814105 
L 286.219564 138.500405 
L 286.501486 135.00476 
L 286.783409 137.255089 
L 287.065331 137.847621 
L 287.911099 109.166697 
L 288.193022 112.950129 
L 288.474944 135.037156 
L 288.756867 144.629162 
L 289.03879 143.756925 
L 289.320712 134.061213 
L 289.602635 128.500064 
L 289.884557 125.900356 
L 290.16648 107.450361 
L 290.448403 113.559932 
L 290.730325 141.20593 
L 291.012248 150.903493 
L 291.576093 115.360271 
L 291.858016 126.31535 
L 292.139938 127.447512 
L 292.421861 123.393124 
L 292.703783 138.916427 
L 292.985706 142.366464 
L 293.267629 124.074876 
L 293.549551 115.006629 
L 293.831474 117.518135 
L 294.395319 143.216085 
L 294.959164 128.746302 
L 295.241087 128.954766 
L 295.523009 128.570413 
L 295.804932 127.357128 
L 296.086855 118.226412 
L 296.368777 122.825305 
L 296.6507 134.659809 
L 296.932622 133.45197 
L 297.214545 127.946307 
L 297.77839 138.316981 
L 298.342235 116.328027 
L 298.624158 120.611351 
L 299.188003 137.868131 
L 299.469926 139.621766 
L 299.751848 134.365831 
L 300.033771 116.997911 
L 300.315693 112.356133 
L 300.879539 135.317289 
L 301.161461 140.796914 
L 301.443384 136.634505 
L 301.725306 126.11851 
L 302.007229 122.42366 
L 302.289152 122.223584 
L 302.852997 129.332146 
L 303.134919 131.690224 
L 303.416842 132.844596 
L 303.698765 132.988415 
L 303.980687 131.844808 
L 304.26261 125.6841 
L 304.544532 122.961457 
L 305.108378 126.096992 
L 305.3903 128.630991 
L 305.672223 134.900821 
L 305.954145 136.336021 
L 306.236068 130.375211 
L 306.799913 125.31969 
L 307.081836 125.459539 
L 307.363758 129.165296 
L 307.927604 126.391225 
L 308.209526 128.260201 
L 308.491449 133.970899 
L 308.773371 136.197685 
L 309.055294 127.082259 
L 309.337217 125.384137 
L 309.619139 119.782945 
L 309.901062 124.146553 
L 310.182984 143.038558 
L 310.464907 137.295062 
L 310.74683 123.740805 
L 311.028752 119.801794 
L 311.310675 124.436834 
L 311.592597 134.704989 
L 311.87452 134.411806 
L 312.156443 124.084278 
L 312.438365 125.747685 
L 312.720288 134.474371 
L 313.00221 131.215729 
L 313.284133 126.237305 
L 313.566056 125.059452 
L 314.129901 130.478939 
L 314.411823 128.553561 
L 314.693746 130.278628 
L 314.975669 134.527349 
L 315.257591 131.542557 
L 315.821436 118.788779 
L 316.385282 137.468457 
L 316.949127 124.987754 
L 317.512972 134.235227 
L 318.076817 124.532063 
L 318.640662 125.855107 
L 319.204508 131.268042 
L 319.48643 136.59304 
L 319.768353 137.221505 
L 320.332198 118.063098 
L 320.61412 121.205071 
L 321.177966 136.418654 
L 321.459888 133.649478 
L 321.741811 126.698327 
L 322.305656 129.14173 
L 322.587579 130.907536 
L 322.869501 128.532782 
L 323.433346 127.45936 
L 323.715269 125.727918 
L 323.997192 131.637923 
L 324.279114 131.35152 
L 324.561037 128.774228 
L 325.124882 122.066526 
L 325.406805 131.210645 
L 325.688727 135.574184 
L 326.252572 130.287329 
L 326.534495 125.885482 
L 326.816418 127.176485 
L 327.380263 125.837017 
L 327.662185 129.77888 
L 327.944108 130.435278 
L 328.226031 129.4463 
L 328.507953 126.55212 
L 329.071798 129.537031 
L 329.353721 129.66862 
L 329.635644 134.494527 
L 329.917566 134.6448 
L 330.199489 128.108093 
L 330.481411 124.417914 
L 330.763334 123.779917 
L 331.045257 121.209881 
L 331.327179 123.801251 
L 331.891024 137.040334 
L 332.172947 139.381992 
L 332.45487 134.778934 
L 333.018715 118.6763 
L 333.300637 118.889959 
L 333.58256 126.920836 
L 333.864483 131.753728 
L 334.146405 134.54661 
L 334.428328 135.807136 
L 334.71025 133.588662 
L 335.274096 119.95289 
L 335.556018 122.291039 
L 335.837941 127.343531 
L 336.119863 134.680778 
L 336.401786 135.878654 
L 337.247554 127.120531 
L 337.529476 125.10495 
L 337.811399 121.641825 
L 338.093322 124.927192 
L 338.375244 130.308416 
L 338.939089 136.472036 
L 339.221012 134.655853 
L 339.784857 121.692644 
L 340.06678 121.435127 
L 340.348702 123.766452 
L 340.630625 133.216311 
L 340.912548 138.90618 
L 341.476393 127.123703 
L 341.758315 131.269534 
L 342.040238 126.864122 
L 342.322161 118.377625 
L 342.604083 122.004304 
L 343.167928 138.379197 
L 343.731773 130.37999 
L 344.013696 130.935838 
L 344.295619 125.140894 
L 344.577541 121.716744 
L 344.859464 122.097328 
L 345.423309 135.323857 
L 345.705232 134.703321 
L 345.987154 131.826662 
L 346.550999 121.133821 
L 347.114845 135.496429 
L 347.67869 121.547356 
L 348.242535 134.473003 
L 348.524458 132.311222 
L 348.80638 135.912839 
L 349.370225 116.852235 
L 349.934071 130.666834 
L 350.215993 132.250517 
L 350.779838 133.977152 
L 351.343684 124.332692 
L 351.625606 125.251042 
L 351.907529 128.030142 
L 352.189451 129.080195 
L 352.471374 132.515256 
L 352.753297 130.10363 
L 353.035219 130.509983 
L 353.317142 128.689045 
L 353.599064 124.536811 
L 353.880987 130.53591 
L 354.16291 124.56851 
L 354.444832 124.370424 
L 354.726755 133.477088 
L 355.008677 133.519709 
L 355.2906 132.877836 
L 355.572523 130.343634 
L 355.854445 124.223588 
L 356.136368 124.253018 
L 356.41829 124.92736 
L 356.982136 134.54877 
L 357.827903 125.627385 
L 358.109826 126.883367 
L 358.391749 124.681821 
L 358.673671 126.923639 
L 358.955594 135.935903 
L 359.237516 133.488004 
L 359.519439 128.038406 
L 359.801362 126.191963 
L 360.083284 126.076991 
L 360.365207 131.681305 
L 360.647129 130.989487 
L 360.929052 124.450894 
L 361.210975 124.496707 
L 361.492897 126.191485 
L 361.77482 134.502611 
L 362.056742 134.296117 
L 362.338665 126.667396 
L 362.620588 128.98053 
L 362.90251 129.347936 
L 363.184433 128.65398 
L 363.466355 129.203379 
L 363.748278 128.520926 
L 364.030201 127.059765 
L 364.312123 126.276704 
L 364.594046 125.073647 
L 364.875968 128.11632 
L 365.157891 133.750348 
L 365.439814 129.865669 
L 365.721736 132.55253 
L 366.003659 136.661617 
L 366.567504 121.400196 
L 366.849427 120.724444 
L 367.413272 132.183043 
L 367.695194 125.952234 
L 367.977117 127.801207 
L 368.259039 147.287087 
L 368.540962 139.140612 
L 368.822885 115.57859 
L 369.104807 118.342787 
L 369.668652 129.981137 
L 369.950575 132.113092 
L 370.232498 128.450207 
L 370.51442 134.335344 
L 370.796343 136.869789 
L 371.360188 118.474322 
L 371.924033 133.484321 
L 372.205956 128.171886 
L 372.487878 129.397158 
L 372.769801 129.745762 
L 373.051724 127.238314 
L 373.615569 132.656146 
L 373.897491 131.404045 
L 374.179414 120.372779 
L 374.461337 126.99527 
L 374.743259 137.95732 
L 375.025182 125.569295 
L 375.307104 119.033482 
L 375.87095 141.320284 
L 376.152872 125.287108 
L 376.434795 120.088696 
L 376.716717 132.822894 
L 376.99864 129.797565 
L 377.562485 131.534176 
L 377.844408 125.907582 
L 378.12633 127.442186 
L 378.690176 125.333963 
L 379.254021 134.308223 
L 379.817866 126.490095 
L 380.099789 129.689538 
L 380.381711 130.687738 
L 380.945556 125.765717 
L 381.227479 124.691276 
L 381.509402 130.066268 
L 381.791324 131.652597 
L 382.073247 126.015492 
L 382.355169 132.834875 
L 382.637092 136.827309 
L 383.200937 121.66041 
L 383.48286 123.752128 
L 383.764782 127.512126 
L 384.046705 126.577349 
L 384.61055 140.38364 
L 385.174395 122.92245 
L 385.456318 121.680078 
L 385.738241 123.720493 
L 386.020163 133.346218 
L 386.302086 133.327469 
L 386.584008 127.832926 
L 387.147854 129.068467 
L 387.429776 132.352298 
L 387.711699 126.579792 
L 387.993621 125.781583 
L 388.275544 132.010952 
L 388.557467 129.844124 
L 389.121312 122.469919 
L 389.403234 130.729649 
L 389.685157 134.010356 
L 389.96708 131.260209 
L 390.249002 130.984314 
L 390.530925 128.55519 
L 390.812847 130.135894 
L 391.09477 122.615844 
L 391.376692 118.57947 
L 391.940538 137.275749 
L 392.22246 137.607215 
L 392.786305 124.521194 
L 393.068228 123.226734 
L 393.632073 131.801429 
L 393.913996 124.491601 
L 394.195918 126.643585 
L 394.477841 133.722567 
L 394.759764 135.237732 
L 395.041686 133.29563 
L 395.605531 121.02672 
L 395.887454 121.666581 
L 396.451299 132.452746 
L 396.733222 130.809999 
L 397.015144 131.683469 
L 397.297067 138.342235 
L 397.860912 121.539176 
L 398.142835 120.165001 
L 398.424757 122.014961 
L 398.70668 136.644832 
L 398.988603 139.981901 
L 399.552448 121.247442 
L 399.83437 116.305171 
L 400.680138 143.243556 
L 401.243983 119.25938 
L 401.525906 131.354673 
L 402.089751 125.355998 
L 402.371674 125.96135 
L 402.653596 120.741628 
L 403.499364 138.669272 
L 403.781287 140.296475 
L 404.345132 121.46159 
L 404.627055 121.304091 
L 404.908977 121.548179 
L 405.472822 128.396569 
L 406.036668 142.524718 
L 406.31859 134.913545 
L 406.600513 123.562858 
L 406.882435 106.081713 
L 407.164358 120.799209 
L 407.446281 148.277524 
L 407.728203 143.096881 
L 408.292048 121.186722 
L 408.573971 114.794946 
L 408.855894 115.322753 
L 409.419739 146.549173 
L 409.701661 144.483644 
L 409.983584 118.580029 
L 410.265507 110.700768 
L 410.547429 128.414229 
L 410.829352 139.100654 
L 411.111274 139.950958 
L 411.393197 107.853227 
L 411.67512 141.88859 
L 411.957042 138.819042 
L 412.238965 104.695147 
L 412.520887 129.518872 
L 412.80281 137.756263 
L 413.084733 135.923967 
L 413.648578 122.913212 
L 413.9305 98.286842 
L 414.212423 149.387371 
L 414.494345 166.94813 
L 414.776268 152.032768 
L 415.058191 116.519524 
L 415.340113 23.599219 
L 415.903958 203.176752 
L 416.185881 192.102063 
L 416.467804 154.531937 
L 417.031649 34.785837 
L 417.313571 65.479094 
L 417.595494 223.976046 
L 417.877417 256.211869 
L 418.159339 106.86397 
L 418.441262 47.55897 
L 418.723184 57.10237 
L 419.005107 122.742068 
L 419.28703 214.634451 
L 419.568952 146.809445 
L 419.850875 144.800986 
L 420.132797 137.076657 
L 420.41472 62.237982 
L 420.696643 117.777963 
L 420.978565 80.244245 
L 421.54241 239.89443 
L 421.824333 125.660414 
L 422.106256 139.548769 
L 422.388178 47.143578 
L 422.670101 26.398762 
L 422.952023 171.343922 
L 423.233946 192.643187 
L 423.515869 223.713885 
L 424.079714 36.097992 
L 424.361636 72.406734 
L 424.643559 88.717229 
L 424.925482 183.804247 
L 425.207404 223.427369 
L 425.489327 148.604458 
L 426.053172 55.646532 
L 426.335095 94.859448 
L 426.617017 168.259414 
L 427.180862 127.397521 
L 427.744708 130.426859 
L 428.02663 156.886756 
L 428.590475 93.795637 
L 428.872398 116.690189 
L 429.154321 128.703234 
L 429.436243 157.074138 
L 429.718166 129.631797 
L 430.000088 120.962552 
L 430.282011 146.697737 
L 430.563934 120.464687 
L 430.845856 115.276262 
L 431.127779 121.186124 
L 431.691624 141.603619 
L 431.973547 125.966895 
L 432.255469 123.082099 
L 432.537392 144.4927 
L 433.665082 111.543258 
L 433.947005 117.181363 
L 434.228927 119.064608 
L 434.51085 148.727794 
L 434.792773 159.129055 
L 435.074695 148.441675 
L 435.63854 91.707087 
L 436.202386 142.468506 
L 436.766231 122.622616 
L 437.048153 125.71683 
L 437.611998 146.41077 
L 437.893921 131.118892 
L 438.175844 122.19092 
L 438.457766 120.786135 
L 438.739689 120.147745 
L 439.303534 130.953773 
L 439.585457 133.334138 
L 439.867379 128.54906 
L 440.149302 130.262475 
L 440.431224 129.933796 
L 440.713147 136.035483 
L 440.99507 138.097027 
L 441.276992 119.311036 
L 441.558915 114.949827 
L 442.12276 133.099028 
L 442.404683 133.796602 
L 442.686605 130.128035 
L 442.968528 132.959099 
L 443.25045 134.179245 
L 443.814296 119.138298 
L 444.096218 122.520465 
L 444.378141 133.021905 
L 444.660063 138.509281 
L 444.941986 129.2859 
L 445.223909 126.339068 
L 445.505831 128.217022 
L 445.787754 120.136679 
L 446.351599 136.436229 
L 446.633522 136.864967 
L 446.915444 133.206835 
L 447.197367 121.961021 
L 447.479289 124.092326 
L 447.761212 129.673606 
L 448.043135 123.016439 
L 448.325057 119.297271 
L 449.170825 145.304292 
L 449.452748 135.45147 
L 449.73467 120.767477 
L 450.016593 113.691205 
L 450.298515 114.500133 
L 450.862361 141.557656 
L 451.144283 140.416885 
L 451.426206 130.303952 
L 451.708128 127.999238 
L 451.990051 127.027984 
L 452.271974 127.07981 
L 452.553896 128.340884 
L 452.835819 122.60442 
L 453.117741 122.593643 
L 453.399664 127.414126 
L 453.963509 141.372259 
L 454.245432 134.399009 
L 454.527354 124.259613 
L 454.809277 119.874916 
L 455.0912 126.194527 
L 455.373122 129.154973 
L 455.655045 127.41563 
L 455.936967 130.342958 
L 456.21889 130.470329 
L 456.500813 129.724626 
L 456.782735 129.615572 
L 457.064658 129.114501 
L 457.34658 127.694337 
L 457.628503 132.305789 
L 457.910426 133.946048 
L 458.192348 126.185317 
L 458.474271 114.719833 
L 458.756193 120.412229 
L 459.038116 141.853276 
L 459.320039 142.515239 
L 459.601961 127.745277 
L 459.883884 124.383769 
L 460.165806 130.056705 
L 460.447729 117.413737 
L 460.729652 119.311961 
L 461.011574 132.967254 
L 461.293497 137.897532 
L 461.575419 150.962377 
L 462.139264 105.951578 
L 462.70311 128.798228 
L 462.985032 137.532738 
L 463.266955 142.06553 
L 463.8308 120.023519 
L 464.394645 126.430505 
L 464.676568 124.385973 
L 464.95849 137.196957 
L 465.240413 136.525577 
L 465.522336 120.888552 
L 465.804258 132.202854 
L 466.086181 132.884713 
L 466.368103 123.768957 
L 466.650026 132.712803 
L 466.931949 129.065502 
L 467.213871 123.808977 
L 467.495794 125.922853 
L 467.777716 119.939571 
L 468.059639 127.176537 
L 468.341562 141.812823 
L 468.623484 144.929737 
L 468.905407 132.903159 
L 469.187329 108.478052 
L 469.469252 115.560693 
L 469.751175 137.759693 
L 470.033097 134.025737 
L 470.31502 128.651556 
L 470.596942 127.920576 
L 470.878865 135.024249 
L 471.160788 137.384324 
L 471.44271 116.627506 
L 471.724633 112.773101 
L 472.006555 133.189084 
L 472.288478 142.302481 
L 472.852323 127.316683 
L 473.134246 126.770525 
L 473.416168 121.791786 
L 473.698091 120.805539 
L 473.980014 126.284468 
L 474.261936 135.675917 
L 474.543859 139.304141 
L 475.107704 133.447197 
L 475.389627 131.101572 
L 475.953472 102.422273 
L 476.517317 143.85189 
L 476.79924 145.022527 
L 477.081162 135.947271 
L 477.92693 119.944641 
L 478.208853 119.017163 
L 478.490775 128.981576 
L 478.772698 131.70146 
L 479.05462 126.193882 
L 479.336543 133.7295 
L 479.618466 134.86812 
L 479.900388 133.028425 
L 480.182311 128.963131 
L 480.464233 119.184396 
L 480.746156 117.486669 
L 481.028079 127.822487 
L 481.310001 142.811107 
L 481.591924 136.525174 
L 481.873846 125.203985 
L 482.155769 128.182405 
L 482.437692 127.299472 
L 482.719614 119.900119 
L 483.001537 124.154228 
L 483.283459 137.618185 
L 483.565382 142.805209 
L 484.129227 111.840977 
L 484.41115 118.230387 
L 484.693072 135.653802 
L 484.974995 141.49008 
L 485.53884 126.865903 
L 485.820763 127.932384 
L 486.102685 120.523134 
L 486.384608 126.478833 
L 486.66653 129.254735 
L 486.948453 122.278909 
L 487.230376 137.449477 
L 487.512298 142.69623 
L 488.076143 121.444916 
L 488.358066 121.937968 
L 488.639989 122.786975 
L 488.921911 124.096861 
L 489.203834 136.642456 
L 489.485756 136.566503 
L 489.767679 126.909402 
L 490.049602 125.590294 
L 490.331524 129.254787 
L 490.613447 125.786538 
L 491.177292 137.242985 
L 491.459215 135.52449 
L 491.741137 130.448941 
L 492.02306 102.707017 
L 492.304982 109.919837 
L 492.586905 135.483256 
L 492.868828 143.147661 
L 493.15075 144.589265 
L 493.996518 124.121364 
L 494.278441 109.38368 
L 494.560363 112.376535 
L 494.842286 123.722149 
L 495.406131 157.065879 
L 495.688054 124.911357 
L 495.969976 119.037447 
L 496.533821 129.849897 
L 496.815744 140.709852 
L 497.097667 119.361719 
L 497.379589 118.004868 
L 497.661512 115.9348 
L 497.943434 148.206413 
L 498.225357 144.006881 
L 498.50728 128.970034 
L 498.789202 135.008808 
L 499.353047 95.443525 
L 499.916893 179.932857 
L 500.198815 117.138677 
L 500.480738 118.33565 
L 500.76266 127.622247 
L 501.326506 133.905684 
L 501.608428 107.77534 
L 501.890351 149.979389 
L 502.172273 101.162663 
L 502.454196 129.520428 
L 502.736119 185.54579 
L 503.018041 101.733932 
L 503.581886 146.89291 
L 503.863809 84.364552 
L 504.427654 153.393076 
L 504.709577 123.194909 
L 504.991499 131.76288 
L 505.273422 149.291731 
L 505.555345 139.491953 
L 505.837267 113.222188 
L 506.11919 100.815258 
L 506.401112 123.45527 
L 506.683035 157.303016 
L 506.964958 127.779784 
L 507.24688 119.909712 
L 507.528803 121.823355 
L 507.810725 133.29574 
L 508.092648 168.801426 
L 508.37457 116.517577 
L 508.656493 85.892992 
L 509.220338 164.168662 
L 509.502261 120.859842 
L 509.784183 98.463315 
L 510.066106 141.830443 
L 510.348029 147.688518 
L 510.629951 146.614057 
L 511.193796 105.992916 
L 511.757642 135.789673 
L 512.039564 122.363737 
L 512.321487 124.446597 
L 512.603409 150.875048 
L 512.885332 129.928902 
L 513.167255 122.907333 
L 513.449177 128.020363 
L 513.7311 121.21957 
L 514.294945 139.297351 
L 514.85879 123.53018 
L 515.140713 122.043165 
L 515.422635 114.623986 
L 515.704558 135.071102 
L 515.986481 134.314532 
L 516.268403 138.281196 
L 516.550326 153.776862 
L 516.832248 124.848478 
L 517.114171 113.075463 
L 517.396094 90.807814 
L 517.678016 112.592662 
L 517.959939 161.024541 
L 518.523784 140.734197 
L 518.805707 136.608507 
L 519.087629 129.586634 
L 519.369552 107.192769 
L 519.651474 96.579159 
L 520.21532 148.027124 
L 520.497242 153.706693 
L 520.779165 137.185886 
L 521.061087 131.464247 
L 521.34301 117.290436 
L 521.624933 116.873739 
L 522.4707 137.182876 
L 523.316468 128.797614 
L 523.598391 129.746222 
L 523.880313 127.137581 
L 524.162236 125.930714 
L 524.444159 122.355063 
L 524.726081 123.596304 
L 525.008004 135.180956 
L 525.571849 126.327238 
L 525.853772 136.168331 
L 526.135694 138.342121 
L 526.699539 126.869307 
L 526.981462 106.684175 
L 527.263385 113.184945 
L 527.545307 140.199096 
L 527.82723 141.167335 
L 528.109152 143.954706 
L 528.391075 122.647871 
L 528.672998 117.406209 
L 528.95492 136.2546 
L 529.236843 123.310804 
L 529.518765 131.280306 
L 529.800688 129.887114 
L 530.082611 112.666245 
L 530.646456 140.651206 
L 530.928378 146.299499 
L 531.210301 134.874474 
L 531.492223 109.754599 
L 532.056069 141.21598 
L 532.619914 104.37026 
L 532.901836 111.423596 
L 533.183759 161.678954 
L 533.465682 184.969878 
L 534.029527 74.835364 
L 534.311449 83.107576 
L 534.593372 144.929388 
L 534.875295 176.013739 
L 535.43914 110.398146 
L 535.721062 114.605571 
L 536.002985 126.419564 
L 536.284908 121.16193 
L 536.56683 125.857028 
L 537.130675 143.113769 
L 537.412598 137.440473 
L 537.694521 129.105375 
L 537.976443 129.740639 
L 538.258366 109.769514 
L 538.822211 122.16412 
L 539.104134 145.727395 
L 539.386056 148.84302 
L 539.667979 123.130808 
L 539.949901 143.895622 
L 540.231824 97.144642 
L 540.795669 143.128987 
L 541.077592 121.045049 
L 541.359514 143.646002 
L 541.641437 115.570281 
L 541.92336 150.106194 
L 542.205282 138.132826 
L 542.487205 113.535983 
L 542.769127 138.475867 
L 543.05105 96.007582 
L 543.332973 112.18527 
L 543.614895 150.757189 
L 543.896818 139.821787 
L 544.17874 141.281299 
L 544.460663 132.57416 
L 544.742586 119.662882 
L 545.024508 136.297973 
L 545.306431 119.891243 
L 545.588353 110.189452 
L 545.870276 128.031647 
L 546.152199 132.212499 
L 546.434121 145.469677 
L 546.997966 115.62029 
L 547.279889 132.760611 
L 547.561812 139.337702 
L 547.843734 128.498611 
L 548.125657 126.66599 
L 548.407579 129.821575 
L 548.689502 117.464459 
L 548.971425 120.262725 
L 549.253347 129.790799 
L 549.53527 134.068928 
L 549.817192 145.604224 
L 550.381038 115.63408 
L 550.66296 131.753455 
L 550.944883 136.765652 
L 551.508728 121.675767 
L 551.790651 122.984545 
L 552.072573 120.949087 
L 552.354496 136.88398 
L 552.636418 140.442745 
L 552.918341 127.253817 
L 553.200264 128.895767 
L 553.482186 128.834284 
L 553.764109 132.471662 
L 554.046031 116.345877 
L 554.327954 121.579062 
L 554.609877 136.807799 
L 554.891799 128.839925 
L 555.173722 138.365709 
L 555.455644 137.722545 
L 555.737567 122.690456 
L 556.019489 115.315279 
L 556.583335 129.481542 
L 556.865257 135.332643 
L 557.14718 138.536747 
L 557.429102 121.100231 
L 557.711025 126.670527 
L 557.992948 139.081904 
L 558.27487 128.137774 
L 558.556793 125.495094 
L 558.838715 128.097819 
L 559.120638 125.138963 
L 559.402561 125.235203 
L 559.684483 121.972264 
L 559.966406 129.673701 
L 560.248328 142.465535 
L 560.530251 134.790313 
L 560.812174 122.720568 
L 561.094096 121.738496 
L 561.657941 147.93649 
L 561.939864 128.152658 
L 562.221787 98.540394 
L 562.503709 104.030086 
L 562.785632 132.522776 
L 563.067554 148.777722 
L 563.349477 150.679839 
L 563.6314 145.756865 
L 564.195245 112.040805 
L 564.477167 110.013997 
L 564.75909 114.07886 
L 565.041013 124.229234 
L 565.322935 140.007197 
L 565.604858 149.435391 
L 565.88678 142.382391 
L 566.168703 123.370703 
L 566.450626 116.733656 
L 566.732548 120.028016 
L 567.296393 133.969135 
L 567.578316 134.441025 
L 567.860239 131.137526 
L 568.142161 124.080429 
L 568.424084 125.313954 
L 568.706006 129.846909 
L 568.987929 132.229812 
L 569.269852 136.374681 
L 569.833697 117.382625 
L 570.115619 121.68493 
L 570.961387 138.667291 
L 571.24331 133.623435 
L 571.525232 133.109251 
L 572.371 113.229438 
L 572.934845 141.254152 
L 573.216768 141.595763 
L 573.498691 133.525984 
L 573.780613 120.675865 
L 574.062536 127.445359 
L 574.626381 125.501325 
L 574.908304 126.714065 
L 575.190226 129.942889 
L 575.472149 135.830615 
L 575.754071 127.225702 
L 576.035994 138.228981 
L 576.317917 133.657004 
L 576.599839 109.90626 
L 576.881762 105.007687 
L 577.445607 164.530271 
L 577.72753 128.910824 
L 578.009452 114.791305 
L 578.291375 107.236124 
L 578.573297 115.061991 
L 578.85522 164.466355 
L 579.419065 122.795425 
L 579.700988 129.784107 
L 579.98291 94.441274 
L 580.264833 136.879529 
L 580.546755 141.007762 
L 580.828678 122.426129 
L 581.110601 153.968102 
L 581.392523 128.14655 
L 581.674446 119.171413 
L 581.956368 115.187566 
L 582.238291 94.829436 
L 582.802136 180.392393 
L 583.084059 123.98654 
L 583.365981 118.112827 
L 583.929827 113.711697 
L 584.211749 138.258147 
L 584.493672 119.633014 
L 584.775594 135.200699 
L 585.33944 138.282164 
L 585.621362 138.753522 
L 585.903285 120.568816 
L 586.185207 119.308497 
L 586.46713 95.209529 
L 586.749053 124.571442 
L 587.030975 169.747358 
L 587.312898 162.462569 
L 587.876743 94.128391 
L 588.158666 103.449428 
L 588.440588 123.540948 
L 588.722511 151.705419 
L 589.004433 152.725653 
L 589.286356 126.654034 
L 589.568279 119.667378 
L 589.850201 122.594359 
L 590.132124 119.155923 
L 590.414046 127.334244 
L 590.695969 141.400572 
L 590.977892 138.417056 
L 591.259814 137.039513 
L 591.541737 117.718849 
L 591.823659 114.60455 
L 592.105582 128.138995 
L 592.387505 118.006184 
L 592.669427 143.993448 
L 592.95135 146.072114 
L 593.233272 113.222422 
L 593.797118 133.883205 
L 594.07904 152.989278 
L 594.360963 137.14238 
L 594.642885 85.040712 
L 595.206731 143.07999 
L 595.488653 144.948362 
L 595.770576 140.77967 
L 596.052498 123.051866 
L 596.334421 132.191219 
L 596.616344 135.356226 
L 597.462111 105.44298 
L 598.025957 151.0704 
L 598.307879 145.825837 
L 598.871724 117.214395 
L 599.153647 119.8555 
L 599.43557 123.636852 
L 599.717492 129.180692 
L 599.999415 129.674102 
L 600.281337 127.12567 
L 600.56326 126.093377 
L 600.845183 138.830813 
L 601.127105 140.088551 
L 601.409028 111.585642 
L 601.69095 122.236786 
L 601.972873 145.082045 
L 602.254795 151.955477 
L 602.818641 93.380798 
L 603.100563 100.148215 
L 603.664408 176.550752 
L 604.510176 106.595197 
L 604.792099 96.512552 
L 605.074021 121.726306 
L 605.355944 123.859609 
L 605.637867 153.880891 
L 605.919789 153.177781 
L 606.201712 126.69986 
L 606.483634 123.89944 
L 606.765557 112.815828 
L 607.329402 135.269386 
L 607.611325 115.296719 
L 607.893247 140.298944 
L 608.17517 139.157304 
L 608.457093 118.504651 
L 608.739015 138.314043 
L 609.020938 123.384894 
L 609.30286 134.477161 
L 609.584783 125.957735 
L 609.866706 104.264545 
L 610.430551 151.091183 
L 610.712473 155.793104 
L 610.994396 114.432389 
L 611.276319 95.954013 
L 611.558241 121.614195 
L 611.840164 134.111992 
L 612.122086 152.252339 
L 612.404009 136.397066 
L 612.685932 112.683797 
L 612.967854 137.995414 
L 613.249777 133.226965 
L 613.531699 115.476371 
L 613.813622 119.142171 
L 614.095545 117.220541 
L 614.377467 150.696933 
L 614.65939 151.283779 
L 614.941312 121.578344 
L 615.223235 117.479005 
L 615.505158 115.816882 
L 615.78708 131.211624 
L 616.069003 128.981856 
L 616.350925 123.765838 
L 616.632848 149.391209 
L 616.914771 149.46175 
L 617.478616 93.706764 
L 617.760538 94.840297 
L 618.042461 148.259451 
L 618.324384 158.153796 
L 618.606306 152.22687 
L 618.888229 138.32381 
L 619.452074 99.905589 
L 619.733997 90.645599 
L 620.015919 146.057604 
L 620.297842 145.56616 
L 620.579764 147.119116 
L 620.861687 144.021036 
L 621.14361 107.829418 
L 621.425532 144.277764 
L 621.707455 116.420513 
L 621.989377 99.817582 
L 622.2713 135.618737 
L 622.553223 132.682296 
L 622.835145 142.70996 
L 623.117068 145.295864 
L 623.680913 118.408735 
L 623.962836 113.050115 
L 624.244758 113.578473 
L 624.808603 147.258014 
L 625.654371 122.950752 
L 625.936294 107.927239 
L 626.218216 111.781518 
L 626.782061 173.210322 
L 627.063984 135.413255 
L 627.345907 76.4256 
L 627.627829 119.892279 
L 627.909752 139.471417 
L 628.191674 118.924036 
L 628.473597 139.593619 
L 628.75552 148.428264 
L 629.037442 164.71481 
L 629.601287 78.113569 
L 629.88321 118.592899 
L 630.447055 152.955555 
L 630.728978 144.558137 
L 631.0109 116.690785 
L 631.292823 116.408379 
L 631.574746 123.300668 
L 631.856668 124.621855 
L 632.138591 127.6222 
L 632.420513 143.371016 
L 632.702436 167.850873 
L 632.984359 118.391408 
L 633.266281 101.366954 
L 633.548204 104.891721 
L 633.830126 102.901117 
L 634.393972 172.760947 
L 634.675894 182.685619 
L 634.957817 102.420848 
L 635.239739 78.222609 
L 635.521662 99.251947 
L 636.085507 167.514289 
L 636.36743 114.842031 
L 636.649352 145.210854 
L 636.931275 156.093789 
L 637.49512 97.547574 
L 637.777043 101.104069 
L 638.058965 114.388704 
L 638.622811 191.211403 
L 638.904733 108.834487 
L 639.186656 104.565184 
L 639.468578 124.056287 
L 639.750501 126.184204 
L 640.032424 141.975177 
L 640.314346 107.800081 
L 640.596269 148.354095 
L 640.878191 155.743436 
L 641.160114 104.900706 
L 641.442037 100.429462 
L 642.005882 146.899822 
L 642.287804 144.604138 
L 642.569727 134.054626 
L 642.85165 138.676803 
L 643.133572 122.760773 
L 643.415495 94.441892 
L 643.697417 132.670942 
L 643.97934 130.378025 
L 644.261263 134.759103 
L 644.543185 143.488193 
L 644.825108 110.837337 
L 645.10703 143.541314 
L 645.388953 123.050908 
L 645.670876 123.059085 
L 645.952798 153.769933 
L 646.234721 118.754658 
L 647.080489 124.145068 
L 647.362411 132.613498 
L 647.644334 127.382606 
L 647.926256 129.002968 
L 648.490102 144.250742 
L 648.772024 135.105923 
L 649.053947 111.424791 
L 649.335869 107.079935 
L 649.617792 131.82584 
L 649.899714 133.980775 
L 650.181637 140.931584 
L 650.46356 153.047892 
L 650.745482 119.2099 
L 651.027405 105.479277 
L 651.59125 131.434598 
L 651.873173 138.101266 
L 652.155095 137.904678 
L 652.437018 130.471263 
L 652.71894 118.71162 
L 653.000863 138.780805 
L 653.282786 135.420235 
L 653.564708 111.809453 
L 653.846631 127.553643 
L 654.128553 134.846722 
L 654.410476 128.734088 
L 654.692399 125.774738 
L 654.974321 126.69201 
L 655.256244 131.796038 
L 655.538166 127.994092 
L 656.102012 135.884699 
L 656.383934 128.448847 
L 656.665857 125.056063 
L 656.947779 118.659255 
L 657.229702 122.771689 
L 657.511625 135.956919 
L 657.793547 138.391395 
L 658.07547 133.296262 
L 658.357392 123.764483 
L 658.639315 126.927093 
L 658.921238 128.08254 
L 659.20316 124.091862 
L 659.485083 129.09159 
L 659.767005 130.774358 
L 660.048928 129.459302 
L 660.330851 126.865575 
L 660.894696 133.340667 
L 661.176618 131.557293 
L 661.458541 123.831074 
L 661.740464 121.01822 
L 662.022386 132.878665 
L 662.304309 137.274625 
L 662.586231 132.481871 
L 662.868154 123.741599 
L 663.150077 118.8062 
L 663.431999 121.503178 
L 663.713922 133.604707 
L 663.995844 137.471627 
L 664.277767 133.685583 
L 664.55969 132.665394 
L 664.841612 124.531672 
L 665.405457 126.481403 
L 665.68738 124.978847 
L 665.969303 124.530813 
L 666.533148 139.404836 
L 666.81507 130.170567 
L 667.096993 125.722723 
L 667.378916 123.871591 
L 667.660838 126.788375 
L 667.942761 124.562282 
L 668.506606 137.043315 
L 668.788529 130.45824 
L 669.070451 130.769333 
L 669.352374 121.016221 
L 669.634296 121.381288 
L 669.916219 131.732321 
L 670.198142 135.073718 
L 670.480064 129.317347 
L 670.761987 127.620065 
L 671.043909 131.274086 
L 671.325832 127.404438 
L 671.607755 128.303944 
L 671.889677 127.336485 
L 672.1716 126.779063 
L 672.735445 127.935963 
L 673.017367 132.945941 
L 673.29929 131.589546 
L 673.581213 129.552462 
L 673.863135 130.654358 
L 674.145058 127.451954 
L 674.42698 128.607455 
L 674.708903 126.174247 
L 674.990826 121.098447 
L 675.554671 129.172464 
L 675.836593 140.406974 
L 676.118516 145.375502 
L 676.682361 109.950049 
L 676.964284 116.267068 
L 677.246206 134.495347 
L 677.528129 134.806659 
L 677.810052 133.067398 
L 678.091974 136.36924 
L 678.373897 132.316823 
L 678.937742 115.850627 
L 679.219665 121.143807 
L 679.78351 142.625664 
L 680.347355 124.237983 
L 680.629278 126.850009 
L 680.9112 117.554002 
L 681.193123 131.857093 
L 681.475045 132.568316 
L 681.756968 120.357847 
L 682.038891 131.494859 
L 682.602736 144.552683 
L 682.884658 128.227323 
L 683.166581 120.156345 
L 683.448504 123.46573 
L 683.730426 110.72147 
L 684.294271 136.752654 
L 684.576194 136.162254 
L 684.858117 133.796511 
L 685.140039 124.348998 
L 685.703884 146.805295 
L 686.26773 107.117595 
L 686.549652 110.320667 
L 687.113497 142.414758 
L 687.39542 141.425402 
L 687.677343 128.500576 
L 687.959265 121.203724 
L 688.52311 127.879183 
L 688.805033 131.594908 
L 689.086956 132.754181 
L 689.368878 127.891735 
L 689.650801 126.694539 
L 689.932723 138.117679 
L 690.214646 133.411357 
L 690.496569 117.351161 
L 690.778491 119.777661 
L 691.342336 131.596524 
L 691.624259 136.63958 
L 691.906182 137.793353 
L 692.470027 121.59177 
L 692.751949 120.869638 
L 693.033872 123.89942 
L 693.315795 133.003718 
L 693.597717 132.443981 
L 693.87964 133.114747 
L 694.161562 137.87789 
L 694.725408 128.091242 
L 695.289253 110.552155 
L 695.571175 118.874894 
L 696.13502 149.380252 
L 696.698866 126.291836 
L 696.980788 127.287251 
L 697.262711 122.196322 
L 697.544633 122.632712 
L 697.826556 131.360541 
L 698.108479 134.576181 
L 698.390401 128.204757 
L 698.954246 122.171443 
L 699.236169 125.553864 
L 699.518092 138.390659 
L 699.800014 136.321479 
L 700.081937 124.283072 
L 700.363859 124.877603 
L 700.645782 134.240414 
L 700.927705 137.557712 
L 701.49155 114.756831 
L 701.773472 118.988001 
L 702.337318 138.382609 
L 702.61924 139.462959 
L 702.901163 130.468844 
L 703.465008 128.39818 
L 703.746931 123.928719 
L 704.028853 116.860432 
L 704.310776 121.535964 
L 704.592698 133.055691 
L 704.874621 135.009344 
L 705.156544 141.492354 
L 705.438466 139.772483 
L 706.284234 112.086696 
L 706.566157 121.734323 
L 706.848079 127.114258 
L 707.411924 140.980032 
L 707.97577 132.89049 
L 708.257692 124.380305 
L 708.539615 122.899522 
L 708.821537 122.468142 
L 709.385383 128.443465 
L 709.667305 126.833636 
L 710.513073 137.292346 
L 710.794996 137.101386 
L 711.358841 117.473699 
L 711.640763 118.25736 
L 711.922686 131.53625 
L 712.204609 128.370863 
L 712.486531 113.79437 
L 712.768454 129.340468 
L 713.050376 160.963093 
L 713.332299 165.967662 
L 713.896144 74.222802 
L 714.459989 150.793443 
L 715.023835 127.271049 
L 715.305757 131.802024 
L 715.58768 148.20588 
L 715.869602 137.859473 
L 716.151525 106.894441 
L 716.433448 101.239686 
L 716.997293 149.860509 
L 717.561138 128.562406 
L 717.843061 124.187468 
L 718.124983 130.417123 
L 718.406906 139.209406 
L 718.688828 117.307485 
L 718.970751 118.188106 
L 719.534596 133.091003 
L 719.816519 134.377521 
L 720.098441 118.990692 
L 720.380364 143.459253 
L 720.662286 146.240073 
L 720.944209 139.186443 
L 721.508054 90.690512 
L 721.789977 122.466299 
L 722.635745 154.249973 
L 723.481512 103.542893 
L 723.763435 94.761967 
L 724.045358 144.735876 
L 724.32728 167.803179 
L 724.609203 150.308408 
L 725.173048 75.250161 
L 726.018816 178.5069 
L 726.300738 132.997346 
L 726.582661 67.107569 
L 726.864584 91.967596 
L 727.146506 156.632618 
L 727.428429 191.942261 
L 727.710351 177.637907 
L 728.274197 33.267885 
L 728.838042 145.325678 
L 729.119964 192.201912 
L 729.401887 195.175702 
L 729.68381 112.812778 
L 729.965732 76.507749 
L 730.247655 67.250602 
L 730.529577 145.287285 
L 730.8115 176.231836 
L 731.657268 105.410738 
L 731.93919 123.674434 
L 732.221113 117.050303 
L 732.503036 122.082086 
L 732.784958 110.733614 
L 733.066881 204.808714 
L 733.348803 168.377676 
L 733.630726 33.61423 
L 733.912649 107.186703 
L 734.194571 106.951344 
L 734.758416 241.430816 
L 735.040339 61.221135 
L 735.322262 71.657926 
L 735.604184 107.148831 
L 735.886107 93.804455 
L 736.168029 209.247151 
L 736.449952 193.285783 
L 736.731875 111.103036 
L 737.013797 78.941039 
L 737.29572 82.97619 
L 737.577642 138.418432 
L 737.859565 164.148425 
L 738.141488 149.553482 
L 738.42341 125.156315 
L 738.705333 116.43581 
L 738.987255 131.941411 
L 739.269178 131.19087 
L 739.551101 111.655442 
L 739.833023 114.377014 
L 740.114946 124.947664 
L 740.396868 150.569463 
L 740.678791 160.016053 
L 740.960714 128.686212 
L 741.242636 112.104597 
L 741.524559 114.024133 
L 741.806481 121.710488 
L 742.088404 124.948316 
L 742.370326 131.249252 
L 742.652249 142.882559 
L 742.934172 138.239873 
L 743.216094 127.082578 
L 743.498017 128.726295 
L 743.779939 124.399711 
L 744.061862 118.210188 
L 744.625707 135.637045 
L 744.90763 134.757552 
L 745.189552 123.966218 
L 745.471475 119.76956 
L 745.753398 133.90132 
L 746.03532 137.565106 
L 746.599165 118.765354 
L 746.881088 123.646167 
L 747.163011 140.706544 
L 747.444933 140.288719 
L 748.008778 118.073684 
L 748.290701 115.916157 
L 748.572624 126.75983 
L 748.854546 131.789207 
L 749.136469 139.575922 
L 749.418391 137.838486 
L 749.700314 125.862008 
L 749.982237 126.006784 
L 750.264159 122.548975 
L 750.546082 124.689734 
L 750.828004 136.760881 
L 751.39185 122.326483 
L 751.673772 129.463538 
L 751.955695 131.334418 
L 752.237617 130.430079 
L 752.51954 128.686939 
L 752.801463 132.137964 
L 753.083385 129.486934 
L 753.365308 122.391832 
L 753.64723 125.286241 
L 753.929153 125.827616 
L 754.492998 137.078433 
L 754.774921 135.561935 
L 755.338766 118.215822 
L 755.620689 125.954858 
L 755.902611 129.283753 
L 756.184534 128.079746 
L 756.466456 130.825001 
L 756.748379 131.638158 
L 757.030302 131.51718 
L 757.312224 132.128441 
L 757.594147 129.312601 
L 757.876069 128.549444 
L 758.439915 117.653631 
L 758.721837 130.432229 
L 759.00376 137.343772 
L 759.285682 136.136737 
L 759.567605 129.689248 
L 759.849528 126.457334 
L 760.13145 129.631295 
L 760.695295 123.964724 
L 760.977218 123.736138 
L 761.259141 123.690209 
L 761.822986 143.047789 
L 762.104908 137.774195 
L 762.950676 113.821495 
L 763.514521 130.28631 
L 763.796444 137.344869 
L 764.078367 137.854505 
L 764.360289 131.817813 
L 764.642212 129.786342 
L 764.924134 121.582666 
L 765.206057 122.180988 
L 765.48798 127.661011 
L 765.769902 128.703811 
L 766.051825 132.647421 
L 766.333747 130.705053 
L 766.61567 131.789529 
L 766.897592 136.516987 
L 767.179515 134.605309 
L 767.74336 100.538603 
L 768.307205 149.761006 
L 768.589128 154.526505 
L 768.871051 143.060911 
L 769.152973 114.617591 
L 769.434896 104.830687 
L 769.998741 129.465684 
L 770.280664 142.652964 
L 770.562586 145.00232 
L 771.126431 120.513956 
L 771.408354 110.201836 
L 771.690277 118.29187 
L 771.972199 135.10266 
L 772.254122 144.43979 
L 772.536044 146.609108 
L 773.09989 120.311518 
L 773.381812 114.395253 
L 773.945657 128.206054 
L 774.22758 126.444906 
L 774.509503 130.304999 
L 775.073348 145.37588 
L 775.637193 116.909661 
L 776.201038 128.161912 
L 776.482961 137.388321 
L 776.764883 128.032687 
L 777.046806 123.294467 
L 777.328729 126.677167 
L 777.892574 140.269249 
L 778.456419 116.029102 
L 778.738342 118.361529 
L 779.020264 125.29777 
L 779.584109 148.976046 
L 779.866032 138.593617 
L 780.147955 120.828016 
L 780.429877 112.947197 
L 780.7118 116.635439 
L 781.275645 134.404384 
L 781.557568 141.442132 
L 781.83949 141.836735 
L 782.121413 131.050576 
L 782.403335 115.700076 
L 782.685258 116.241091 
L 782.967181 130.691107 
L 783.249103 135.869742 
L 783.531026 126.243475 
L 783.812948 125.413894 
L 784.094871 133.568575 
L 784.658716 133.106226 
L 784.940639 126.362368 
L 785.222561 124.497527 
L 785.504484 125.790143 
L 785.786407 123.947386 
L 786.068329 135.114793 
L 786.350252 134.238843 
L 786.632174 125.797131 
L 786.914097 123.55516 
L 787.19602 123.741085 
L 787.759865 142.676528 
L 788.041787 134.882654 
L 788.32371 116.535929 
L 788.605633 119.549497 
L 789.169478 133.745743 
L 789.4514 135.453053 
L 789.733323 126.225137 
L 790.015245 124.573304 
L 790.297168 127.583596 
L 790.579091 133.529151 
L 790.861013 136.714072 
L 791.424858 118.990688 
L 791.706781 121.943152 
L 791.988704 131.578682 
L 792.270626 133.393942 
L 792.552549 130.392946 
L 792.834471 132.011358 
L 793.116394 131.528616 
L 793.398317 124.73815 
L 793.962162 129.815741 
L 794.244084 126.924616 
L 794.526007 125.807439 
L 794.80793 126.337999 
L 795.089852 129.660159 
L 795.371775 131.392207 
L 795.653697 135.684237 
L 795.93562 134.473244 
L 796.217543 124.33059 
L 796.499465 123.047398 
L 796.781388 126.639478 
L 797.06331 128.646692 
L 797.345233 131.518994 
L 797.627156 132.885309 
L 797.909078 129.164084 
L 798.191001 118.81873 
L 798.472923 118.747243 
L 799.036769 144.9913 
L 799.318691 142.126383 
L 799.882536 117.079901 
L 800.164459 117.221217 
L 800.446382 122.421337 
L 801.010227 136.883781 
L 801.292149 135.712782 
L 801.574072 129.151067 
L 801.855995 125.342862 
L 802.137917 130.407712 
L 802.41984 128.995926 
L 802.701762 128.687398 
L 802.983685 127.727475 
L 803.265608 120.265974 
L 803.54753 125.031765 
L 803.829453 133.425493 
L 804.111375 138.411708 
L 804.393298 136.939622 
L 804.957143 119.472772 
L 805.239066 119.637819 
L 805.520988 128.859426 
L 805.802911 130.072663 
L 806.084834 129.775337 
L 806.366756 131.464766 
L 806.648679 127.86153 
L 806.930601 128.11519 
L 807.212524 140.604711 
L 807.494447 146.813249 
L 808.058292 98.841323 
L 808.340214 100.4621 
L 808.90406 158.862302 
L 809.185982 159.628881 
L 810.03175 101.990305 
L 810.313673 102.090619 
L 811.15944 157.057189 
L 811.441363 154.158646 
L 811.723286 127.141361 
L 812.005208 114.790712 
L 812.287131 107.74942 
L 812.850976 116.607422 
L 813.132898 141.911871 
L 813.414821 148.046856 
L 813.696744 135.62158 
L 813.978666 170.406948 
L 814.260589 121.020073 
L 814.542511 95.406226 
L 814.824434 94.197974 
L 815.106357 53.848843 
L 815.670202 275.599219 
L 815.952124 113.646774 
L 816.234047 35.182166 
L 816.51597 108.416836 
L 817.079815 138.662629 
L 817.361737 143.857701 
L 817.64366 134.359647 
L 818.207505 154.346613 
L 818.77135 80.065852 
L 819.053273 125.201212 
L 819.335196 124.32358 
L 819.617118 140.041163 
L 819.899041 169.43636 
L 820.180963 132.048676 
L 820.462886 122.0772 
L 820.744809 97.002589 
L 821.026731 98.909839 
L 821.308654 141.671755 
L 821.590576 166.930749 
L 821.872499 148.602016 
L 822.436344 105.319235 
L 822.718267 106.938319 
L 823.000189 140.044659 
L 823.282112 133.082009 
L 823.564035 140.334004 
L 823.845957 136.190719 
L 824.12788 116.362658 
L 824.409802 129.983543 
L 824.691725 116.845272 
L 824.973648 133.101582 
L 825.25557 139.309014 
L 825.537493 119.666263 
L 825.819415 134.753386 
L 826.101338 132.571324 
L 826.383261 142.455846 
L 826.947106 108.527318 
L 827.229028 117.935512 
L 827.510951 109.634356 
L 828.074796 173.988539 
L 828.356719 162.29124 
L 828.638641 104.105105 
L 828.920564 87.902667 
L 829.202487 85.719577 
L 829.766332 178.428803 
L 830.048254 136.415 
L 830.330177 158.59885 
L 830.6121 88.544163 
L 830.894022 104.233998 
L 831.175945 132.107255 
L 831.457867 108.645625 
L 831.73979 185.946383 
L 832.021713 123.144224 
L 832.303635 92.061163 
L 832.585558 148.368201 
L 832.86748 128.906453 
L 833.149403 140.560799 
L 833.431326 146.774397 
L 833.713248 96.993964 
L 833.995171 108.375207 
L 834.277093 134.644909 
L 834.840939 145.501897 
L 835.122861 111.064425 
L 835.686706 145.818014 
L 836.250551 124.60632 
L 836.532474 114.364349 
L 836.814397 135.788572 
L 837.096319 131.413443 
L 837.378242 100.460995 
L 837.660164 122.812443 
L 837.942087 161.679553 
L 838.22401 146.555063 
L 838.505932 124.247379 
L 838.787855 127.812447 
L 839.3517 110.955636 
L 839.633623 112.143608 
L 839.915545 125.810426 
L 840.197468 160.13492 
L 840.47939 168.219326 
L 841.043236 92.199799 
L 841.325158 88.645855 
L 841.889003 159.348834 
L 842.452849 126.035498 
L 842.734771 127.639685 
L 843.016694 135.624041 
L 843.580539 108.668535 
L 843.862462 130.179143 
L 844.144384 141.084292 
L 844.426307 129.55972 
L 844.708229 131.211401 
L 844.990152 136.721667 
L 845.83592 111.079282 
L 846.399765 150.5286 
L 846.96361 130.105821 
L 847.527455 115.224431 
L 847.809378 111.490803 
L 848.091301 123.454956 
L 848.373223 152.884663 
L 848.655146 161.09432 
L 848.937068 145.3831 
L 849.218991 100.477664 
L 849.500914 85.109261 
L 850.346681 167.108895 
L 850.628604 168.195711 
L 851.192449 95.010836 
L 851.474372 97.42368 
L 851.756294 113.516582 
L 852.038217 139.354484 
L 852.32014 152.617212 
L 852.602062 153.76051 
L 852.883985 140.18157 
L 853.165907 118.550626 
L 853.44783 108.160016 
L 853.729753 109.281911 
L 854.011675 120.652866 
L 854.57552 156.064964 
L 854.857443 127.661293 
L 855.139366 120.974616 
L 855.421288 122.09775 
L 855.703211 122.545186 
L 855.985133 131.787661 
L 856.267056 121.293412 
L 856.548979 150.161636 
L 856.830901 146.846347 
L 857.112824 117.112829 
L 857.394746 106.508038 
L 858.522437 152.465451 
L 858.804359 135.783739 
L 859.086282 137.152434 
L 859.368205 83.128732 
L 859.650127 128.661423 
L 859.93205 146.332291 
L 860.213972 93.453958 
L 860.495895 160.755083 
L 860.777817 163.17823 
L 861.05974 142.641732 
L 861.341663 95.679828 
L 861.623585 74.256076 
L 861.905508 145.080807 
L 862.18743 163.485388 
L 862.469353 128.97235 
L 862.751276 115.743361 
L 863.033198 136.826702 
L 863.315121 134.740656 
L 863.878966 115.704369 
L 864.160889 122.224203 
L 864.442811 144.284195 
L 864.724734 143.030447 
L 865.288579 115.943057 
L 865.570502 118.251485 
L 865.852424 129.547982 
L 866.134347 130.007984 
L 866.416269 128.585911 
L 866.980115 138.913218 
L 867.262037 127.746796 
L 867.54396 125.477056 
L 867.825882 125.4803 
L 868.107805 120.575573 
L 868.389728 129.450769 
L 868.67165 131.858513 
L 868.953573 135.749646 
L 869.235495 132.455903 
L 869.799341 118.115816 
L 870.363186 140.747596 
L 870.927031 127.790732 
L 871.208954 111.546525 
L 871.772799 138.630776 
L 872.054721 136.394879 
L 872.336644 126.181765 
L 872.618567 126.564523 
L 872.900489 148.681118 
L 873.464334 102.626762 
L 873.746257 102.57332 
L 874.310102 177.227251 
L 874.592025 129.261121 
L 875.15587 119.847429 
L 875.437793 86.358172 
L 875.719715 109.485725 
L 876.28356 182.157814 
L 876.565483 138.281741 
L 876.565483 138.281741 
" clip-path="url(#pa8ff0104bf)" style="fill: none; stroke: #000000; stroke-width: 1.5; stroke-linecap: square"/>
   </g>
   <g id="patch_3">
    <path d="M 77.610938 288.199219 
L 77.610938 10.999219 
" style="fill: none; stroke: #000000; stroke-width: 0.8; stroke-linejoin: miter; stroke-linecap: square"/>
   </g>
   <g id="patch_4">
    <path d="M 914.610937 288.199219 
L 914.610937 10.999219 
" style="fill: none; stroke: #000000; stroke-width: 0.8; stroke-linejoin: miter; stroke-linecap: square"/>
   </g>
   <g id="patch_5">
    <path d="M 77.610938 288.199219 
L 914.610938 288.199219 
" style="fill: none; stroke: #000000; stroke-width: 0.8; stroke-linejoin: miter; stroke-linecap: square"/>
   </g>
   <g id="patch_6">
    <path d="M 77.610938 10.999219 
L 914.610938 10.999219 
" style="fill: none; stroke: #000000; stroke-width: 0.8; stroke-linejoin: miter; stroke-linecap: square"/>
   </g>
  </g>
  <g id="axes_2">
   <g id="matplotlib.axis_3">
    <g id="ytick_6">
     <g id="line2d_13">
      <defs>
       <path id="m66cb123758" d="M 0 0 
L 3.5 0 
" style="stroke: #000000; stroke-width: 0.8"/>
      </defs>
      <g>
       <use xlink:href="#m66cb123758" x="914.610937" y="288.199219" style="stroke: #000000; stroke-width: 0.8"/>
      </g>
     </g>
     <g id="text_14">
      <text style="font: 10px 'sans-serif'; text-anchor: start" x="921.610937" y="291.998438" transform="rotate(-0, 921.610937, 291.998438)">−1.00</text>
     </g>
    </g>
    <g id="ytick_7">
     <g id="line2d_14">
      <g>
       <use xlink:href="#m66cb123758" x="914.610937" y="253.549219" style="stroke: #000000; stroke-width: 0.8"/>
      </g>
     </g>
     <g id="text_15">
      <text style="font: 10px 'sans-serif'; text-anchor: start" x="921.610937" y="257.348438" transform="rotate(-0, 921.610937, 257.348438)">−0.75</text>
     </g>
    </g>
    <g id="ytick_8">
     <g id="line2d_15">
      <g>
       <use xlink:href="#m66cb123758" x="914.610937" y="218.899219" style="stroke: #000000; stroke-width: 0.8"/>
      </g>
     </g>
     <g id="text_16">
      <text style="font: 10px 'sans-serif'; text-anchor: start" x="921.610937" y="222.698438" transform="rotate(-0, 921.610937, 222.698438)">−0.50</text>
     </g>
    </g>
    <g id="ytick_9">
     <g id="line2d_16">
      <g>
       <use xlink:href="#m66cb123758" x="914.610937" y="184.249219" style="stroke: #000000; stroke-width: 0.8"/>
      </g>
     </g>
     <g id="text_17">
      <text style="font: 10px 'sans-serif'; text-anchor: start" x="921.610937" y="188.048438" transform="rotate(-0, 921.610937, 188.048438)">−0.25</text>
     </g>
    </g>
    <g id="ytick_10">
     <g id="line2d_17">
      <g>
       <use xlink:href="#m66cb123758" x="914.610937" y="149.599219" style="stroke: #000000; stroke-width: 0.8"/>
      </g>
     </g>
     <g id="text_18">
      <text style="font: 10px 'sans-serif'; text-anchor: start" x="921.610937" y="153.398438" transform="rotate(-0, 921.610937, 153.398438)">0.00</text>
     </g>
    </g>
    <g id="ytick_11">
     <g id="line2d_18">
      <g>
       <use xlink:href="#m66cb123758" x="914.610937" y="114.949219" style="stroke: #000000; stroke-width: 0.8"/>
      </g>
     </g>
     <g id="text_19">
      <text style="font: 10px 'sans-serif'; text-anchor: start" x="921.610937" y="118.748437" transform="rotate(-0, 921.610937, 118.748437)">0.25</text>
     </g>
    </g>
    <g id="ytick_12">
     <g id="line2d_19">
      <g>
       <use xlink:href="#m66cb123758" x="914.610937" y="80.299219" style="stroke: #000000; stroke-width: 0.8"/>
      </g>
     </g>
     <g id="text_20">
      <text style="font: 10px 'sans-serif'; text-anchor: start" x="921.610937" y="84.098437" transform="rotate(-0, 921.610937, 84.098437)">0.50</text>
     </g>
    </g>
    <g id="ytick_13">
     <g id="line2d_20">
      <g>
       <use xlink:href="#m66cb123758" x="914.610937" y="45.649219" style="stroke: #000000; stroke-width: 0.8"/>
      </g>
     </g>
     <g id="text_21">
      <text style="font: 10px 'sans-serif'; text-anchor: start" x="921.610937" y="49.448438" transform="rotate(-0, 921.610937, 49.448438)">0.75</text>
     </g>
    </g>
    <g id="ytick_14">
     <g id="line2d_21">
      <g>
       <use xlink:href="#m66cb123758" x="914.610937" y="10.999219" style="stroke: #000000; stroke-width: 0.8"/>
      </g>
     </g>
     <g id="text_22">
      <text style="font: 10px 'sans-serif'; text-anchor: start" x="921.610937" y="14.798438" transform="rotate(-0, 921.610937, 14.798438)">1.00</text>
     </g>
    </g>
    <g id="text_23">
     <text style="font: 10px 'sans-serif'; text-anchor: middle" x="963.854688" y="149.599219" transform="rotate(-90, 963.854688, 149.599219)">Waveform Feature</text>
    </g>
   </g>
   <g id="line2d_22">
    <path d="M 115.656392 149.598043 
L 331.327179 149.598415 
L 876.565483 149.593538 
L 876.565483 149.593538 
" clip-path="url(#pa8ff0104bf)" style="fill: none; stroke: #1f77b4; stroke-width: 1.5; stroke-linecap: square"/>
   </g>
   <g id="line2d_23">
    <path d="M 115.656392 149.596363 
L 225.04236 149.585489 
L 233.218115 149.522153 
L 237.165032 149.596175 
L 254.926155 149.588462 
L 286.219564 149.598168 
L 876.565483 149.596924 
L 876.565483 149.596924 
" clip-path="url(#pa8ff0104bf)" style="fill: none; stroke: #ff7f0e; stroke-width: 1.5; stroke-linecap: square"/>
   </g>
   <g id="patch_7">
    <path d="M 77.610938 288.199219 
L 77.610938 10.999219 
" style="fill: none; stroke: #000000; stroke-width: 0.8; stroke-linejoin: miter; stroke-linecap: square"/>
   </g>
   <g id="patch_8">
    <path d="M 914.610937 288.199219 
L 914.610937 10.999219 
" style="fill: none; stroke: #000000; stroke-width: 0.8; stroke-linejoin: miter; stroke-linecap: square"/>
   </g>
   <g id="patch_9">
    <path d="M 77.610938 288.199219 
L 914.610938 288.199219 
" style="fill: none; stroke: #000000; stroke-width: 0.8; stroke-linejoin: miter; stroke-linecap: square"/>
   </g>
   <g id="patch_10">
    <path d="M 77.610938 10.999219 
L 914.610938 10.999219 
" style="fill: none; stroke: #000000; stroke-width: 0.8; stroke-linejoin: miter; stroke-linecap: square"/>
   </g>
   <g id="legend_1">
    <g id="patch_11">
     <path d="M 777.346875 283.199219 
L 907.610937 283.199219 
Q 909.610937 283.199219 909.610937 281.199219 
L 909.610937 252.842969 
Q 909.610937 250.842969 907.610937 250.842969 
L 777.346875 250.842969 
Q 775.346875 250.842969 775.346875 252.842969 
L 775.346875 281.199219 
Q 775.346875 283.199219 777.346875 283.199219 
z
" style="fill: #ffffff; opacity: 0.8; stroke: #cccccc; stroke-linejoin: miter"/>
    </g>
    <g id="line2d_24">
     <path d="M 779.346875 258.941406 
L 789.346875 258.941406 
L 799.346875 258.941406 
" style="fill: none; stroke: #1f77b4; stroke-width: 1.5; stroke-linecap: square"/>
    </g>
    <g id="text_24">
     <text style="font: 10px 'sans-serif'; text-anchor: start" x="807.346875" y="262.441406" transform="rotate(-0, 807.346875, 262.441406)">P-arrival probability</text>
    </g>
    <g id="line2d_25">
     <path d="M 779.346875 273.619531 
L 789.346875 273.619531 
L 799.346875 273.619531 
" style="fill: none; stroke: #ff7f0e; stroke-width: 1.5; stroke-linecap: square"/>
    </g>
    <g id="text_25">
     <text style="font: 10px 'sans-serif'; text-anchor: start" x="807.346875" y="277.119531" transform="rotate(-0, 807.346875, 277.119531)">S-arrival probability</text>
    </g>
   </g>
  </g>
 </g>
 <defs>
  <clipPath id="pa8ff0104bf">
   <rect x="77.610938" y="10.999219" width="837" height="277.2"/>
  </clipPath>
 </defs>
</svg>
