<?xml version="1.0" encoding="utf-8" standalone="no"?>
<!DOCTYPE svg PUBLIC "-//W3C//DTD SVG 1.1//EN"
  "http://www.w3.org/Graphics/SVG/1.1/DTD/svg11.dtd">
<svg xmlns:xlink="http://www.w3.org/1999/xlink" width="886.820312pt" height="436.299928pt" viewBox="0 0 886.820312 436.299928" xmlns="http://www.w3.org/2000/svg" version="1.1">
 <metadata>
  <rdf:RDF xmlns:dc="http://purl.org/dc/elements/1.1/" xmlns:cc="http://creativecommons.org/ns#" xmlns:rdf="http://www.w3.org/1999/02/22-rdf-syntax-ns#">
   <cc:Work>
    <dc:type rdf:resource="http://purl.org/dc/dcmitype/StillImage"/>
    <dc:date>2024-04-13T16:57:19.564122</dc:date>
    <dc:format>image/svg+xml</dc:format>
    <dc:creator>
     <cc:Agent>
      <dc:title>Matplotlib v3.5.2, https://matplotlib.org/</dc:title>
     </cc:Agent>
    </dc:creator>
   </cc:Work>
  </rdf:RDF>
 </metadata>
 <defs>
  <style type="text/css">*{stroke-linejoin: round; stroke-linecap: butt}</style>
 </defs>
 <g id="figure_1">
  <g id="patch_1">
   <path d="M 0 436.299928 
L 886.820312 436.299928 
L 886.820312 0 
L 0 0 
z
" style="fill: #ffffff"/>
  </g>
  <g id="axes_1">
   <g id="patch_2">
    <path d="M 42.620313 398.743678 
L 879.620312 398.743678 
L 879.620312 10.663678 
L 42.620313 10.663678 
z
" style="fill: #ffffff"/>
   </g>
   <g id="matplotlib.axis_1">
    <g id="xtick_1">
     <g id="line2d_1">
      <defs>
       <path id="m26023a4cfd" d="M 0 0 
L 0 3.5 
" style="stroke: #000000; stroke-width: 0.8"/>
      </defs>
      <g>
       <use xlink:href="#m26023a4cfd" x="101.999667" y="398.743678" style="stroke: #000000; stroke-width: 0.8"/>
      </g>
     </g>
     <g id="text_1">
      <!-- −100 -->
      <g transform="translate(88.266073 413.342115)scale(0.1 -0.1)">
       <defs>
        <path id="DejaVuSans-2212" d="M 678 2272 
L 4684 2272 
L 4684 1741 
L 678 1741 
L 678 2272 
z
" transform="scale(0.015625)"/>
        <path id="DejaVuSans-31" d="M 794 531 
L 1825 531 
L 1825 4091 
L 703 3866 
L 703 4441 
L 1819 4666 
L 2450 4666 
L 2450 531 
L 3481 531 
L 3481 0 
L 794 0 
L 794 531 
z
" transform="scale(0.015625)"/>
        <path id="DejaVuSans-30" d="M 2034 4250 
Q 1547 4250 1301 3770 
Q 1056 3291 1056 2328 
Q 1056 1369 1301 889 
Q 1547 409 2034 409 
Q 2525 409 2770 889 
Q 3016 1369 3016 2328 
Q 3016 3291 2770 3770 
Q 2525 4250 2034 4250 
z
M 2034 4750 
Q 2819 4750 3233 4129 
Q 3647 3509 3647 2328 
Q 3647 1150 3233 529 
Q 2819 -91 2034 -91 
Q 1250 -91 836 529 
Q 422 1150 422 2328 
Q 422 3509 836 4129 
Q 1250 4750 2034 4750 
z
" transform="scale(0.015625)"/>
       </defs>
       <use xlink:href="#DejaVuSans-2212"/>
       <use xlink:href="#DejaVuSans-31" x="83.789062"/>
       <use xlink:href="#DejaVuSans-30" x="147.412109"/>
       <use xlink:href="#DejaVuSans-30" x="211.035156"/>
      </g>
     </g>
    </g>
    <g id="xtick_2">
     <g id="line2d_2">
      <g>
       <use xlink:href="#m26023a4cfd" x="279.782165" y="398.743678" style="stroke: #000000; stroke-width: 0.8"/>
      </g>
     </g>
     <g id="text_2">
      <!-- −50 -->
      <g transform="translate(269.229821 413.342115)scale(0.1 -0.1)">
       <defs>
        <path id="DejaVuSans-35" d="M 691 4666 
L 3169 4666 
L 3169 4134 
L 1269 4134 
L 1269 2991 
Q 1406 3038 1543 3061 
Q 1681 3084 1819 3084 
Q 2600 3084 3056 2656 
Q 3513 2228 3513 1497 
Q 3513 744 3044 326 
Q 2575 -91 1722 -91 
Q 1428 -91 1123 -41 
Q 819 9 494 109 
L 494 744 
Q 775 591 1075 516 
Q 1375 441 1709 441 
Q 2250 441 2565 725 
Q 2881 1009 2881 1497 
Q 2881 1984 2565 2268 
Q 2250 2553 1709 2553 
Q 1456 2553 1204 2497 
Q 953 2441 691 2322 
L 691 4666 
z
" transform="scale(0.015625)"/>
       </defs>
       <use xlink:href="#DejaVuSans-2212"/>
       <use xlink:href="#DejaVuSans-35" x="83.789062"/>
       <use xlink:href="#DejaVuSans-30" x="147.412109"/>
      </g>
     </g>
    </g>
    <g id="xtick_3">
     <g id="line2d_3">
      <g>
       <use xlink:href="#m26023a4cfd" x="457.564663" y="398.743678" style="stroke: #000000; stroke-width: 0.8"/>
      </g>
     </g>
     <g id="text_3">
      <!-- 0 -->
      <g transform="translate(454.383413 413.342115)scale(0.1 -0.1)">
       <use xlink:href="#DejaVuSans-30"/>
      </g>
     </g>
    </g>
    <g id="xtick_4">
     <g id="line2d_4">
      <g>
       <use xlink:href="#m26023a4cfd" x="635.34716" y="398.743678" style="stroke: #000000; stroke-width: 0.8"/>
      </g>
     </g>
     <g id="text_4">
      <!-- 50 -->
      <g transform="translate(628.98466 413.342115)scale(0.1 -0.1)">
       <use xlink:href="#DejaVuSans-35"/>
       <use xlink:href="#DejaVuSans-30" x="63.623047"/>
      </g>
     </g>
    </g>
    <g id="xtick_5">
     <g id="line2d_5">
      <g>
       <use xlink:href="#m26023a4cfd" x="813.129658" y="398.743678" style="stroke: #000000; stroke-width: 0.8"/>
      </g>
     </g>
     <g id="text_5">
      <!-- 100 -->
      <g transform="translate(803.585908 413.342115)scale(0.1 -0.1)">
       <use xlink:href="#DejaVuSans-31"/>
       <use xlink:href="#DejaVuSans-30" x="63.623047"/>
       <use xlink:href="#DejaVuSans-30" x="127.246094"/>
      </g>
     </g>
    </g>
    <g id="text_6">
     <!-- Time to max (samples) -->
     <g transform="translate(403.521094 427.02024)scale(0.1 -0.1)">
      <defs>
       <path id="DejaVuSans-54" d="M -19 4666 
L 3928 4666 
L 3928 4134 
L 2272 4134 
L 2272 0 
L 1638 0 
L 1638 4134 
L -19 4134 
L -19 4666 
z
" transform="scale(0.015625)"/>
       <path id="DejaVuSans-69" d="M 603 3500 
L 1178 3500 
L 1178 0 
L 603 0 
L 603 3500 
z
M 603 4863 
L 1178 4863 
L 1178 4134 
L 603 4134 
L 603 4863 
z
" transform="scale(0.015625)"/>
       <path id="DejaVuSans-6d" d="M 3328 2828 
Q 3544 3216 3844 3400 
Q 4144 3584 4550 3584 
Q 5097 3584 5394 3201 
Q 5691 2819 5691 2113 
L 5691 0 
L 5113 0 
L 5113 2094 
Q 5113 2597 4934 2840 
Q 4756 3084 4391 3084 
Q 3944 3084 3684 2787 
Q 3425 2491 3425 1978 
L 3425 0 
L 2847 0 
L 2847 2094 
Q 2847 2600 2669 2842 
Q 2491 3084 2119 3084 
Q 1678 3084 1418 2786 
Q 1159 2488 1159 1978 
L 1159 0 
L 581 0 
L 581 3500 
L 1159 3500 
L 1159 2956 
Q 1356 3278 1631 3431 
Q 1906 3584 2284 3584 
Q 2666 3584 2933 3390 
Q 3200 3197 3328 2828 
z
" transform="scale(0.015625)"/>
       <path id="DejaVuSans-65" d="M 3597 1894 
L 3597 1613 
L 953 1613 
Q 991 1019 1311 708 
Q 1631 397 2203 397 
Q 2534 397 2845 478 
Q 3156 559 3463 722 
L 3463 178 
Q 3153 47 2828 -22 
Q 2503 -91 2169 -91 
Q 1331 -91 842 396 
Q 353 884 353 1716 
Q 353 2575 817 3079 
Q 1281 3584 2069 3584 
Q 2775 3584 3186 3129 
Q 3597 2675 3597 1894 
z
M 3022 2063 
Q 3016 2534 2758 2815 
Q 2500 3097 2075 3097 
Q 1594 3097 1305 2825 
Q 1016 2553 972 2059 
L 3022 2063 
z
" transform="scale(0.015625)"/>
       <path id="DejaVuSans-20" transform="scale(0.015625)"/>
       <path id="DejaVuSans-74" d="M 1172 4494 
L 1172 3500 
L 2356 3500 
L 2356 3053 
L 1172 3053 
L 1172 1153 
Q 1172 725 1289 603 
Q 1406 481 1766 481 
L 2356 481 
L 2356 0 
L 1766 0 
Q 1100 0 847 248 
Q 594 497 594 1153 
L 594 3053 
L 172 3053 
L 172 3500 
L 594 3500 
L 594 4494 
L 1172 4494 
z
" transform="scale(0.015625)"/>
       <path id="DejaVuSans-6f" d="M 1959 3097 
Q 1497 3097 1228 2736 
Q 959 2375 959 1747 
Q 959 1119 1226 758 
Q 1494 397 1959 397 
Q 2419 397 2687 759 
Q 2956 1122 2956 1747 
Q 2956 2369 2687 2733 
Q 2419 3097 1959 3097 
z
M 1959 3584 
Q 2709 3584 3137 3096 
Q 3566 2609 3566 1747 
Q 3566 888 3137 398 
Q 2709 -91 1959 -91 
Q 1206 -91 779 398 
Q 353 888 353 1747 
Q 353 2609 779 3096 
Q 1206 3584 1959 3584 
z
" transform="scale(0.015625)"/>
       <path id="DejaVuSans-61" d="M 2194 1759 
Q 1497 1759 1228 1600 
Q 959 1441 959 1056 
Q 959 750 1161 570 
Q 1363 391 1709 391 
Q 2188 391 2477 730 
Q 2766 1069 2766 1631 
L 2766 1759 
L 2194 1759 
z
M 3341 1997 
L 3341 0 
L 2766 0 
L 2766 531 
Q 2569 213 2275 61 
Q 1981 -91 1556 -91 
Q 1019 -91 701 211 
Q 384 513 384 1019 
Q 384 1609 779 1909 
Q 1175 2209 1959 2209 
L 2766 2209 
L 2766 2266 
Q 2766 2663 2505 2880 
Q 2244 3097 1772 3097 
Q 1472 3097 1187 3025 
Q 903 2953 641 2809 
L 641 3341 
Q 956 3463 1253 3523 
Q 1550 3584 1831 3584 
Q 2591 3584 2966 3190 
Q 3341 2797 3341 1997 
z
" transform="scale(0.015625)"/>
       <path id="DejaVuSans-78" d="M 3513 3500 
L 2247 1797 
L 3578 0 
L 2900 0 
L 1881 1375 
L 863 0 
L 184 0 
L 1544 1831 
L 300 3500 
L 978 3500 
L 1906 2253 
L 2834 3500 
L 3513 3500 
z
" transform="scale(0.015625)"/>
       <path id="DejaVuSans-28" d="M 1984 4856 
Q 1566 4138 1362 3434 
Q 1159 2731 1159 2009 
Q 1159 1288 1364 580 
Q 1569 -128 1984 -844 
L 1484 -844 
Q 1016 -109 783 600 
Q 550 1309 550 2009 
Q 550 2706 781 3412 
Q 1013 4119 1484 4856 
L 1984 4856 
z
" transform="scale(0.015625)"/>
       <path id="DejaVuSans-73" d="M 2834 3397 
L 2834 2853 
Q 2591 2978 2328 3040 
Q 2066 3103 1784 3103 
Q 1356 3103 1142 2972 
Q 928 2841 928 2578 
Q 928 2378 1081 2264 
Q 1234 2150 1697 2047 
L 1894 2003 
Q 2506 1872 2764 1633 
Q 3022 1394 3022 966 
Q 3022 478 2636 193 
Q 2250 -91 1575 -91 
Q 1294 -91 989 -36 
Q 684 19 347 128 
L 347 722 
Q 666 556 975 473 
Q 1284 391 1588 391 
Q 1994 391 2212 530 
Q 2431 669 2431 922 
Q 2431 1156 2273 1281 
Q 2116 1406 1581 1522 
L 1381 1569 
Q 847 1681 609 1914 
Q 372 2147 372 2553 
Q 372 3047 722 3315 
Q 1072 3584 1716 3584 
Q 2034 3584 2315 3537 
Q 2597 3491 2834 3397 
z
" transform="scale(0.015625)"/>
       <path id="DejaVuSans-70" d="M 1159 525 
L 1159 -1331 
L 581 -1331 
L 581 3500 
L 1159 3500 
L 1159 2969 
Q 1341 3281 1617 3432 
Q 1894 3584 2278 3584 
Q 2916 3584 3314 3078 
Q 3713 2572 3713 1747 
Q 3713 922 3314 415 
Q 2916 -91 2278 -91 
Q 1894 -91 1617 61 
Q 1341 213 1159 525 
z
M 3116 1747 
Q 3116 2381 2855 2742 
Q 2594 3103 2138 3103 
Q 1681 3103 1420 2742 
Q 1159 2381 1159 1747 
Q 1159 1113 1420 752 
Q 1681 391 2138 391 
Q 2594 391 2855 752 
Q 3116 1113 3116 1747 
z
" transform="scale(0.015625)"/>
       <path id="DejaVuSans-6c" d="M 603 4863 
L 1178 4863 
L 1178 0 
L 603 0 
L 603 4863 
z
" transform="scale(0.015625)"/>
       <path id="DejaVuSans-29" d="M 513 4856 
L 1013 4856 
Q 1481 4119 1714 3412 
Q 1947 2706 1947 2009 
Q 1947 1309 1714 600 
Q 1481 -109 1013 -844 
L 513 -844 
Q 928 -128 1133 580 
Q 1338 1288 1338 2009 
Q 1338 2731 1133 3434 
Q 928 4138 513 4856 
z
" transform="scale(0.015625)"/>
      </defs>
      <use xlink:href="#DejaVuSans-54"/>
      <use xlink:href="#DejaVuSans-69" x="57.958984"/>
      <use xlink:href="#DejaVuSans-6d" x="85.742188"/>
      <use xlink:href="#DejaVuSans-65" x="183.154297"/>
      <use xlink:href="#DejaVuSans-20" x="244.677734"/>
      <use xlink:href="#DejaVuSans-74" x="276.464844"/>
      <use xlink:href="#DejaVuSans-6f" x="315.673828"/>
      <use xlink:href="#DejaVuSans-20" x="376.855469"/>
      <use xlink:href="#DejaVuSans-6d" x="408.642578"/>
      <use xlink:href="#DejaVuSans-61" x="506.054688"/>
      <use xlink:href="#DejaVuSans-78" x="567.333984"/>
      <use xlink:href="#DejaVuSans-20" x="626.513672"/>
      <use xlink:href="#DejaVuSans-28" x="658.300781"/>
      <use xlink:href="#DejaVuSans-73" x="697.314453"/>
      <use xlink:href="#DejaVuSans-61" x="749.414062"/>
      <use xlink:href="#DejaVuSans-6d" x="810.693359"/>
      <use xlink:href="#DejaVuSans-70" x="908.105469"/>
      <use xlink:href="#DejaVuSans-6c" x="971.582031"/>
      <use xlink:href="#DejaVuSans-65" x="999.365234"/>
      <use xlink:href="#DejaVuSans-73" x="1060.888672"/>
      <use xlink:href="#DejaVuSans-29" x="1112.988281"/>
     </g>
    </g>
   </g>
   <g id="matplotlib.axis_2">
    <g id="ytick_1">
     <g id="line2d_6">
      <defs>
       <path id="m37969101b1" d="M 0 0 
L -3.5 0 
" style="stroke: #000000; stroke-width: 0.8"/>
      </defs>
      <g>
       <use xlink:href="#m37969101b1" x="42.620313" y="382.311844" style="stroke: #000000; stroke-width: 0.8"/>
      </g>
     </g>
     <g id="text_7">
      <!-- −6 -->
      <g transform="translate(20.878125 386.111063)scale(0.1 -0.1)">
       <defs>
        <path id="DejaVuSans-36" d="M 2113 2584 
Q 1688 2584 1439 2293 
Q 1191 2003 1191 1497 
Q 1191 994 1439 701 
Q 1688 409 2113 409 
Q 2538 409 2786 701 
Q 3034 994 3034 1497 
Q 3034 2003 2786 2293 
Q 2538 2584 2113 2584 
z
M 3366 4563 
L 3366 3988 
Q 3128 4100 2886 4159 
Q 2644 4219 2406 4219 
Q 1781 4219 1451 3797 
Q 1122 3375 1075 2522 
Q 1259 2794 1537 2939 
Q 1816 3084 2150 3084 
Q 2853 3084 3261 2657 
Q 3669 2231 3669 1497 
Q 3669 778 3244 343 
Q 2819 -91 2113 -91 
Q 1303 -91 875 529 
Q 447 1150 447 2328 
Q 447 3434 972 4092 
Q 1497 4750 2381 4750 
Q 2619 4750 2861 4703 
Q 3103 4656 3366 4563 
z
" transform="scale(0.015625)"/>
       </defs>
       <use xlink:href="#DejaVuSans-2212"/>
       <use xlink:href="#DejaVuSans-36" x="83.789062"/>
      </g>
     </g>
    </g>
    <g id="ytick_2">
     <g id="line2d_7">
      <g>
       <use xlink:href="#m37969101b1" x="42.620313" y="320.426407" style="stroke: #000000; stroke-width: 0.8"/>
      </g>
     </g>
     <g id="text_8">
      <!-- −4 -->
      <g transform="translate(20.878125 324.225625)scale(0.1 -0.1)">
       <defs>
        <path id="DejaVuSans-34" d="M 2419 4116 
L 825 1625 
L 2419 1625 
L 2419 4116 
z
M 2253 4666 
L 3047 4666 
L 3047 1625 
L 3713 1625 
L 3713 1100 
L 3047 1100 
L 3047 0 
L 2419 0 
L 2419 1100 
L 313 1100 
L 313 1709 
L 2253 4666 
z
" transform="scale(0.015625)"/>
       </defs>
       <use xlink:href="#DejaVuSans-2212"/>
       <use xlink:href="#DejaVuSans-34" x="83.789062"/>
      </g>
     </g>
    </g>
    <g id="ytick_3">
     <g id="line2d_8">
      <g>
       <use xlink:href="#m37969101b1" x="42.620313" y="258.540969" style="stroke: #000000; stroke-width: 0.8"/>
      </g>
     </g>
     <g id="text_9">
      <!-- −2 -->
      <g transform="translate(20.878125 262.340188)scale(0.1 -0.1)">
       <defs>
        <path id="DejaVuSans-32" d="M 1228 531 
L 3431 531 
L 3431 0 
L 469 0 
L 469 531 
Q 828 903 1448 1529 
Q 2069 2156 2228 2338 
Q 2531 2678 2651 2914 
Q 2772 3150 2772 3378 
Q 2772 3750 2511 3984 
Q 2250 4219 1831 4219 
Q 1534 4219 1204 4116 
Q 875 4013 500 3803 
L 500 4441 
Q 881 4594 1212 4672 
Q 1544 4750 1819 4750 
Q 2544 4750 2975 4387 
Q 3406 4025 3406 3419 
Q 3406 3131 3298 2873 
Q 3191 2616 2906 2266 
Q 2828 2175 2409 1742 
Q 1991 1309 1228 531 
z
" transform="scale(0.015625)"/>
       </defs>
       <use xlink:href="#DejaVuSans-2212"/>
       <use xlink:href="#DejaVuSans-32" x="83.789062"/>
      </g>
     </g>
    </g>
    <g id="ytick_4">
     <g id="line2d_9">
      <g>
       <use xlink:href="#m37969101b1" x="42.620313" y="196.655532" style="stroke: #000000; stroke-width: 0.8"/>
      </g>
     </g>
     <g id="text_10">
      <!-- 0 -->
      <g transform="translate(29.257813 200.45475)scale(0.1 -0.1)">
       <use xlink:href="#DejaVuSans-30"/>
      </g>
     </g>
    </g>
    <g id="ytick_5">
     <g id="line2d_10">
      <g>
       <use xlink:href="#m37969101b1" x="42.620313" y="134.770094" style="stroke: #000000; stroke-width: 0.8"/>
      </g>
     </g>
     <g id="text_11">
      <!-- 2 -->
      <g transform="translate(29.257813 138.569313)scale(0.1 -0.1)">
       <use xlink:href="#DejaVuSans-32"/>
      </g>
     </g>
    </g>
    <g id="ytick_6">
     <g id="line2d_11">
      <g>
       <use xlink:href="#m37969101b1" x="42.620313" y="72.884656" style="stroke: #000000; stroke-width: 0.8"/>
      </g>
     </g>
     <g id="text_12">
      <!-- 4 -->
      <g transform="translate(29.257813 76.683875)scale(0.1 -0.1)">
       <use xlink:href="#DejaVuSans-34"/>
      </g>
     </g>
    </g>
    <g id="ytick_7">
     <g id="line2d_12">
      <g>
       <use xlink:href="#m37969101b1" x="42.620313" y="10.999219" style="stroke: #000000; stroke-width: 0.8"/>
      </g>
     </g>
     <g id="text_13">
      <!-- 6 -->
      <g transform="translate(29.257813 14.798437)scale(0.1 -0.1)">
       <use xlink:href="#DejaVuSans-36"/>
      </g>
     </g>
    </g>
    <g id="text_14">
     <!-- Velocity (AU) -->
     <g transform="translate(14.798438 236.889615)rotate(-90)scale(0.1 -0.1)">
      <defs>
       <path id="DejaVuSans-56" d="M 1831 0 
L 50 4666 
L 709 4666 
L 2188 738 
L 3669 4666 
L 4325 4666 
L 2547 0 
L 1831 0 
z
" transform="scale(0.015625)"/>
       <path id="DejaVuSans-63" d="M 3122 3366 
L 3122 2828 
Q 2878 2963 2633 3030 
Q 2388 3097 2138 3097 
Q 1578 3097 1268 2742 
Q 959 2388 959 1747 
Q 959 1106 1268 751 
Q 1578 397 2138 397 
Q 2388 397 2633 464 
Q 2878 531 3122 666 
L 3122 134 
Q 2881 22 2623 -34 
Q 2366 -91 2075 -91 
Q 1284 -91 818 406 
Q 353 903 353 1747 
Q 353 2603 823 3093 
Q 1294 3584 2113 3584 
Q 2378 3584 2631 3529 
Q 2884 3475 3122 3366 
z
" transform="scale(0.015625)"/>
       <path id="DejaVuSans-79" d="M 2059 -325 
Q 1816 -950 1584 -1140 
Q 1353 -1331 966 -1331 
L 506 -1331 
L 506 -850 
L 844 -850 
Q 1081 -850 1212 -737 
Q 1344 -625 1503 -206 
L 1606 56 
L 191 3500 
L 800 3500 
L 1894 763 
L 2988 3500 
L 3597 3500 
L 2059 -325 
z
" transform="scale(0.015625)"/>
       <path id="DejaVuSans-41" d="M 2188 4044 
L 1331 1722 
L 3047 1722 
L 2188 4044 
z
M 1831 4666 
L 2547 4666 
L 4325 0 
L 3669 0 
L 3244 1197 
L 1141 1197 
L 716 0 
L 50 0 
L 1831 4666 
z
" transform="scale(0.015625)"/>
       <path id="DejaVuSans-55" d="M 556 4666 
L 1191 4666 
L 1191 1831 
Q 1191 1081 1462 751 
Q 1734 422 2344 422 
Q 2950 422 3222 751 
Q 3494 1081 3494 1831 
L 3494 4666 
L 4128 4666 
L 4128 1753 
Q 4128 841 3676 375 
Q 3225 -91 2344 -91 
Q 1459 -91 1007 375 
Q 556 841 556 1753 
L 556 4666 
z
" transform="scale(0.015625)"/>
      </defs>
      <use xlink:href="#DejaVuSans-56"/>
      <use xlink:href="#DejaVuSans-65" x="60.658203"/>
      <use xlink:href="#DejaVuSans-6c" x="122.181641"/>
      <use xlink:href="#DejaVuSans-6f" x="149.964844"/>
      <use xlink:href="#DejaVuSans-63" x="211.146484"/>
      <use xlink:href="#DejaVuSans-69" x="266.126953"/>
      <use xlink:href="#DejaVuSans-74" x="293.910156"/>
      <use xlink:href="#DejaVuSans-79" x="333.119141"/>
      <use xlink:href="#DejaVuSans-20" x="392.298828"/>
      <use xlink:href="#DejaVuSans-28" x="424.085938"/>
      <use xlink:href="#DejaVuSans-41" x="463.099609"/>
      <use xlink:href="#DejaVuSans-55" x="531.507812"/>
      <use xlink:href="#DejaVuSans-29" x="604.701172"/>
     </g>
    </g>
   </g>
   <g id="line2d_13">
    <path d="M 105.555317 196.681145 
L 109.110967 196.021732 
L 112.666617 195.903393 
L 116.222267 198.179408 
L 119.777917 197.758388 
L 123.333567 195.967035 
L 126.889216 196.667613 
L 130.444866 196.685793 
L 134.000516 196.242677 
L 137.556166 197.102702 
L 141.111816 196.396629 
L 144.667466 195.511887 
L 148.223116 196.498316 
L 151.778766 196.897846 
L 155.334416 197.431138 
L 158.890066 196.514123 
L 162.445716 196.300248 
L 166.001366 197.932133 
L 169.557016 196.75796 
L 173.112666 196.804886 
L 176.668316 196.243662 
L 180.223966 195.382536 
L 183.779616 196.455792 
L 190.890916 197.669059 
L 194.446566 196.187268 
L 198.002216 195.951088 
L 205.113516 196.833744 
L 208.669166 198.37905 
L 212.224815 196.160212 
L 215.780465 195.536244 
L 219.336115 197.21051 
L 222.891765 197.137773 
L 226.447415 197.662414 
L 230.003065 195.116782 
L 233.558715 195.257597 
L 237.114365 197.454924 
L 240.670015 196.132515 
L 244.225665 197.578622 
L 247.781315 197.680927 
L 251.336965 196.389805 
L 254.892615 196.675109 
L 258.448265 196.169849 
L 262.003915 196.325805 
L 265.559565 196.818051 
L 269.115215 196.851267 
L 272.670865 196.647353 
L 276.226515 196.151326 
L 279.782165 197.239998 
L 283.337815 197.646338 
L 286.893465 194.261335 
L 290.449115 196.495961 
L 294.004764 197.710413 
L 297.560414 197.376791 
L 301.116064 196.780715 
L 304.671714 195.928759 
L 308.227364 198.621227 
L 311.783014 194.589236 
L 315.338664 199.73402 
L 318.894314 193.568072 
L 322.449964 193.910542 
L 326.005614 198.867433 
L 329.561264 190.797965 
L 333.116914 208.26213 
L 336.672564 199.744739 
L 340.228214 188.066023 
L 343.783864 189.050761 
L 347.339514 200.42732 
L 350.895164 208.57085 
L 354.450814 189.149291 
L 358.006464 201.939365 
L 361.562114 192.459739 
L 365.117764 192.071911 
L 368.673414 200.033994 
L 372.229064 190.446175 
L 375.784714 208.713642 
L 379.340363 190.103936 
L 382.896013 192.265487 
L 386.451663 202.319488 
L 390.007313 190.921865 
L 393.562963 209.009533 
L 397.118613 189.339863 
L 400.674263 187.083706 
L 404.229913 215.712558 
L 407.785563 205.17384 
L 411.341213 185.904385 
L 414.896863 186.880761 
L 418.452513 200.440452 
L 422.008163 188.755186 
L 425.563813 196.079839 
L 429.119463 172.507361 
L 432.675113 188.040209 
L 436.230763 243.33383 
L 439.786413 236.419573 
L 443.342063 204.739903 
L 446.897713 115.763992 
L 450.453363 264.357013 
L 454.009013 191.025048 
L 457.564663 28.303678 
L 461.120313 330.174466 
L 464.675962 252.870334 
L 468.231612 108.088021 
L 471.787262 188.908168 
L 475.342912 278.932354 
L 478.898562 212.738269 
L 482.454212 69.353621 
L 486.009862 322.20277 
L 489.565512 162.598999 
L 493.121162 83.944788 
L 496.676812 312.734354 
L 500.232462 144.605846 
L 503.788112 219.379266 
L 507.343762 228.797389 
L 510.899412 156.515763 
L 514.455062 256.581618 
L 518.010712 185.03112 
L 521.566362 125.333835 
L 525.122012 141.04365 
L 528.677662 286.748099 
L 532.233312 265.760061 
L 535.788962 118.679261 
L 539.344612 183.780828 
L 542.900262 211.929076 
L 546.455911 235.406733 
L 550.011561 179.990975 
L 553.567211 136.995063 
L 557.122861 232.942428 
L 560.678511 223.586656 
L 564.234161 181.875093 
L 567.789811 181.459653 
L 571.345461 207.401834 
L 574.901111 208.789312 
L 578.456761 189.615626 
L 582.012411 180.968311 
L 585.568061 195.26761 
L 589.123711 212.308721 
L 592.679361 185.130295 
L 596.235011 204.967824 
L 599.790661 213.797319 
L 603.346311 177.449363 
L 606.901961 178.162729 
L 610.457611 218.731252 
L 614.013261 213.885917 
L 617.568911 176.908913 
L 621.124561 197.429897 
L 624.680211 192.46294 
L 628.235861 189.571016 
L 631.79151 200.901856 
L 635.34716 195.976251 
L 638.90281 202.121403 
L 642.45846 208.643947 
L 646.01411 209.919104 
L 649.56976 171.622967 
L 653.12541 185.427932 
L 656.68106 208.914729 
L 660.23671 192.241258 
L 663.79236 205.306849 
L 667.34801 189.359298 
L 670.90366 189.841915 
L 674.45931 212.99766 
L 678.01496 199.519055 
L 681.57061 188.256838 
L 685.12626 191.762559 
L 688.68191 197.360006 
L 692.23756 201.098479 
L 695.79321 197.005631 
L 699.34886 196.537006 
L 702.90451 199.25566 
L 706.46016 188.144056 
L 710.01581 198.902857 
L 713.571459 200.114807 
L 717.127109 189.194929 
L 720.682759 207.724957 
L 724.238409 196.610982 
L 727.794059 197.217871 
L 731.349709 202.825987 
L 734.905359 180.896265 
L 738.461009 187.734801 
L 742.016659 198.685386 
L 745.572309 205.41909 
L 749.127959 201.699931 
L 752.683609 199.329851 
L 756.239259 202.142874 
L 759.794909 190.855366 
L 763.350559 192.049734 
L 766.906209 190.506067 
L 770.461859 196.133873 
L 774.017509 207.715469 
L 777.573159 194.850988 
L 781.128809 192.855558 
L 784.684459 194.802148 
L 788.240109 194.05292 
L 791.795759 202.941092 
L 795.351409 198.536525 
L 798.907058 196.777906 
L 802.462708 195.929112 
L 806.018358 193.098921 
L 813.129658 197.204391 
L 816.685308 204.162637 
L 816.685308 204.162637 
" clip-path="url(#p82a02c413d)" style="fill: none; stroke: #000000; stroke-width: 1.5; stroke-linecap: square"/>
   </g>
   <g id="line2d_14">
    <path d="M 130.444866 191.323041 
L 134.000516 187.712738 
L 137.556166 192.38794 
L 141.111816 201.080161 
L 144.667466 203.196069 
L 148.223116 195.850402 
L 151.778766 203.603463 
L 158.890066 190.108877 
L 162.445716 194.769445 
L 166.001366 195.4475 
L 169.557016 199.868258 
L 173.112666 191.684816 
L 176.668316 189.700258 
L 180.223966 197.898335 
L 183.779616 204.639536 
L 187.335266 204.192965 
L 190.890916 195.003449 
L 194.446566 200.388662 
L 198.002216 201.595323 
L 205.113516 183.875228 
L 208.669166 181.223363 
L 212.224815 197.588969 
L 215.780465 208.706051 
L 219.336115 208.52519 
L 222.891765 203.055671 
L 226.447415 198.537203 
L 230.003065 190.988422 
L 233.558715 181.255724 
L 237.114365 193.289538 
L 240.670015 200.27108 
L 244.225665 200.431058 
L 247.781315 200.379934 
L 251.336965 195.447266 
L 254.892615 202.167262 
L 258.448265 198.412595 
L 262.003915 191.028007 
L 265.559565 193.047653 
L 272.670865 198.871832 
L 276.226515 198.072437 
L 279.782165 197.046627 
L 283.337815 194.436279 
L 286.893465 197.327903 
L 290.449115 195.722083 
L 294.004764 196.323675 
L 297.560414 199.321289 
L 301.116064 195.486198 
L 304.671714 200.225412 
L 308.227364 195.642181 
L 311.783014 197.078271 
L 315.338664 193.47898 
L 318.894314 189.621616 
L 322.449964 203.089391 
L 326.005614 197.730015 
L 329.561264 197.622905 
L 333.116914 196.9258 
L 336.672564 196.528171 
L 340.228214 197.942254 
L 343.783864 192.711054 
L 347.339514 196.282235 
L 350.895164 198.503309 
L 354.450814 201.037146 
L 358.006464 194.996951 
L 361.562114 195.009129 
L 365.117764 192.84975 
L 368.673414 187.786732 
L 372.229064 203.312297 
L 375.784714 207.962836 
L 379.340363 197.973029 
L 382.896013 194.041235 
L 386.451663 189.940019 
L 390.007313 197.71908 
L 393.562963 193.572055 
L 397.118613 181.869085 
L 400.674263 210.339283 
L 404.229913 218.453768 
L 407.785563 203.433426 
L 411.341213 183.515437 
L 414.896863 190.163565 
L 418.452513 186.763028 
L 422.008163 189.315148 
L 425.563813 197.80093 
L 429.119463 158.691311 
L 432.675113 219.584673 
L 436.230763 234.317279 
L 439.786413 251.909842 
L 443.342063 167.659697 
L 446.897713 158.828623 
L 450.453363 267.488028 
L 454.009013 36.039148 
L 457.564663 206.489668 
L 461.120313 344.660095 
L 464.675962 123.86772 
L 468.231612 168.111249 
L 471.787262 240.216225 
L 475.342912 244.794216 
L 478.898562 100.017951 
L 482.454212 258.444982 
L 486.009862 229.736669 
L 489.565512 44.21717 
L 493.121162 308.966285 
L 496.676812 177.89518 
L 500.232462 167.046629 
L 503.788112 276.446866 
L 507.343762 128.101093 
L 510.899412 243.422001 
L 514.455062 245.031341 
L 518.010712 128.214906 
L 521.566362 92.055655 
L 525.122012 243.920351 
L 528.677662 308.790858 
L 532.233312 148.190118 
L 535.788962 177.063441 
L 539.344612 191.91423 
L 542.900262 229.473531 
L 546.455911 220.23532 
L 550.011561 119.93917 
L 553.567211 198.37027 
L 557.122861 232.202765 
L 560.678511 201.225102 
L 564.234161 201.16513 
L 567.789811 181.981729 
L 574.901111 211.793355 
L 578.456761 178.592438 
L 582.012411 184.759886 
L 585.568061 209.295779 
L 589.123711 192.523419 
L 592.679361 207.060085 
L 596.235011 215.569887 
L 599.790661 187.549607 
L 603.346311 165.958869 
L 606.901961 189.192692 
L 610.457611 230.730993 
L 614.013261 203.360319 
L 617.568911 191.900155 
L 621.124561 192.82782 
L 624.680211 187.208689 
L 628.235861 194.930101 
L 631.79151 182.673047 
L 635.34716 199.455128 
L 638.90281 209.139906 
L 642.45846 222.435299 
L 646.01411 193.342061 
L 649.56976 172.942405 
L 653.12541 201.986209 
L 656.68106 184.696657 
L 660.23671 209.350647 
L 663.79236 204.124136 
L 667.34801 176.711002 
L 670.90366 206.41811 
L 674.45931 202.49304 
L 678.01496 190.748958 
L 681.57061 195.609113 
L 685.12626 193.903476 
L 688.68191 196.00769 
L 692.23756 203.014418 
L 695.79321 202.796325 
L 699.34886 204.695 
L 702.90451 191.431411 
L 706.46016 182.406422 
L 710.01581 193.01558 
L 713.571459 193.014755 
L 717.127109 204.606163 
L 720.682759 199.89673 
L 724.238409 200.265962 
L 727.794059 208.131387 
L 731.349709 191.406623 
L 734.905359 185.704723 
L 738.461009 183.019181 
L 742.016659 201.569714 
L 745.572309 206.336821 
L 749.127959 197.013321 
L 752.683609 205.283408 
L 756.239259 197.71619 
L 759.794909 196.503501 
L 763.350559 188.720945 
L 766.906209 187.153561 
L 770.461859 200.745082 
L 774.017509 200.118229 
L 777.573159 199.338317 
L 781.128809 194.476439 
L 784.684459 192.736853 
L 788.240109 197.01916 
L 791.795759 200.760078 
L 795.351409 201.711572 
L 798.907058 197.602912 
L 802.462708 190.411362 
L 806.018358 192.612329 
L 809.574008 201.229873 
L 813.129658 197.318634 
L 816.685308 194.317627 
L 820.240958 196.186444 
L 823.796608 201.381473 
L 827.352258 196.816635 
L 830.907908 188.256217 
L 834.463558 197.016043 
L 838.019208 204.381167 
L 841.574858 197.478139 
L 841.574858 197.478139 
" clip-path="url(#p82a02c413d)" style="fill: none; stroke: #696969; stroke-width: 0.75; stroke-linecap: square"/>
   </g>
   <g id="line2d_15">
    <path d="M 109.110967 195.617445 
L 112.666617 194.365582 
L 116.222267 196.765556 
L 119.777917 195.086275 
L 123.333567 197.320153 
L 126.889216 198.090355 
L 130.444866 198.247301 
L 134.000516 197.74062 
L 137.556166 195.452266 
L 141.111816 196.812235 
L 144.667466 196.266905 
L 148.223116 194.124322 
L 151.778766 196.516623 
L 155.334416 197.850487 
L 158.890066 196.362696 
L 162.445716 197.953333 
L 166.001366 197.222018 
L 169.557016 194.931816 
L 173.112666 198.114633 
L 176.668316 196.951723 
L 180.223966 195.075703 
L 183.779616 196.643348 
L 187.335266 197.303661 
L 190.890916 196.396922 
L 194.446566 196.116529 
L 198.002216 198.703845 
L 201.557866 196.469631 
L 205.113516 196.113211 
L 208.669166 195.985046 
L 212.224815 195.235783 
L 215.780465 198.618198 
L 219.336115 195.020405 
L 222.891765 195.374724 
L 226.447415 199.261154 
L 230.003065 196.885422 
L 233.558715 197.92514 
L 237.114365 197.099067 
L 240.670015 195.961643 
L 244.225665 196.440018 
L 247.781315 193.837698 
L 251.336965 195.602802 
L 254.892615 197.698717 
L 258.448265 199.171319 
L 262.003915 195.100008 
L 265.559565 195.721974 
L 269.115215 201.932142 
L 272.670865 193.432149 
L 276.226515 196.346978 
L 279.782165 198.014442 
L 283.337815 193.426577 
L 286.893465 199.155352 
L 290.449115 193.996754 
L 294.004764 198.14706 
L 297.560414 197.414892 
L 301.116064 194.613635 
L 304.671714 199.873369 
L 308.227364 195.125162 
L 311.783014 200.158865 
L 315.338664 193.503944 
L 318.894314 196.188 
L 322.449964 195.69517 
L 326.005614 189.915846 
L 329.561264 207.745948 
L 333.116914 198.487621 
L 336.672564 190.743031 
L 340.228214 191.155275 
L 343.783864 202.950884 
L 347.339514 202.791378 
L 350.895164 189.289445 
L 354.450814 203.743258 
L 358.006464 188.376936 
L 361.562114 195.923174 
L 365.117764 202.807339 
L 368.673414 187.143051 
L 372.229064 206.41365 
L 375.784714 194.76555 
L 379.340363 192.051299 
L 382.896013 199.445171 
L 386.451663 193.309919 
L 390.007313 204.605402 
L 393.562963 186.561468 
L 397.118613 195.593186 
L 400.674263 216.860208 
L 404.229913 199.644667 
L 407.785563 187.519315 
L 411.341213 186.621296 
L 414.896863 205.786144 
L 418.452513 182.867383 
L 422.008163 190.733154 
L 425.563813 182.666338 
L 429.119463 185.570008 
L 432.675113 235.023273 
L 436.230763 228.629541 
L 439.786413 233.564172 
L 443.342063 123.377905 
L 446.897713 231.003185 
L 450.453363 196.443262 
L 454.009013 35.077204 
L 457.564663 325.842715 
L 461.120313 248.865849 
L 464.675962 116.273313 
L 468.231612 206.177942 
L 471.787262 260.254384 
L 475.342912 195.068624 
L 478.898562 100.283322 
L 482.454212 324.13424 
L 486.009862 119.934138 
L 489.565512 114.85498 
L 493.121162 329.177366 
L 496.676812 108.605782 
L 500.232462 248.77466 
L 503.788112 222.281272 
L 507.343762 129.675846 
L 510.899412 281.402577 
L 518.010712 106.22905 
L 521.566362 144.146546 
L 525.122012 306.315453 
L 528.677662 240.759504 
L 532.233312 124.672443 
L 535.788962 196.826421 
L 539.344612 197.520704 
L 542.900262 242.242838 
L 546.455911 174.566608 
L 550.011561 140.031303 
L 553.567211 239.646131 
L 560.678511 185.187338 
L 564.234161 194.690441 
L 567.789811 193.402598 
L 571.345461 203.039935 
L 574.901111 196.728026 
L 578.456761 183.253692 
L 582.012411 200.651701 
L 585.568061 204.137327 
L 589.123711 183.985631 
L 592.679361 206.684715 
L 596.235011 211.925386 
L 599.790661 186.023694 
L 603.346311 173.834192 
L 606.901961 209.196183 
L 610.457611 225.52278 
L 614.013261 178.231465 
L 617.568911 187.50974 
L 621.124561 198.649745 
L 624.680211 196.465995 
L 628.235861 189.252776 
L 631.79151 191.37702 
L 635.34716 210.670476 
L 638.90281 209.451181 
L 642.45846 211.041483 
L 646.01411 165.835625 
L 649.56976 192.155291 
L 653.12541 213.425237 
L 656.68106 182.289887 
L 660.23671 207.922088 
L 663.79236 184.751739 
L 667.34801 189.299692 
L 670.90366 218.276529 
L 674.45931 201.865804 
L 678.01496 187.419637 
L 681.57061 186.991816 
L 685.12626 201.479881 
L 688.68191 199.621448 
L 692.23756 197.015716 
L 695.79321 200.439595 
L 699.34886 193.447087 
L 702.90451 190.838062 
L 706.46016 200.191442 
L 710.01581 193.105379 
L 713.571459 194.738475 
L 717.127109 206.47251 
L 720.682759 196.239075 
L 724.238409 200.426776 
L 727.794059 197.652374 
L 731.349709 189.03131 
L 734.905359 184.635563 
L 738.461009 195.216118 
L 742.016659 208.196121 
L 745.572309 196.48893 
L 749.127959 205.124066 
L 752.683609 197.901911 
L 756.239259 192.030112 
L 759.794909 198.166501 
L 763.350559 184.347685 
L 766.906209 198.2477 
L 770.461859 204.691681 
L 774.017509 195.53982 
L 777.573159 197.387211 
L 781.128809 190.556987 
L 784.684459 195.532064 
L 788.240109 203.740707 
L 791.795759 197.018593 
L 795.351409 195.845282 
L 798.907058 197.210114 
L 802.462708 196.026523 
L 806.018358 192.505748 
L 809.574008 196.858665 
L 813.129658 202.324978 
L 816.685308 192.710168 
L 820.240958 197.83381 
L 820.240958 197.83381 
" clip-path="url(#p82a02c413d)" style="fill: none; stroke: #696969; stroke-width: 0.75; stroke-linecap: square"/>
   </g>
   <g id="line2d_16">
    <path d="M 130.444866 199.04265 
L 134.000516 200.562613 
L 137.556166 199.713065 
L 141.111816 194.604629 
L 144.667466 192.946088 
L 148.223116 196.013376 
L 155.334416 198.556764 
L 158.890066 198.335253 
L 162.445716 196.299409 
L 166.001366 195.958186 
L 169.557016 193.583431 
L 176.668316 196.840998 
L 180.223966 198.617494 
L 183.779616 199.93018 
L 190.890916 197.994369 
L 194.446566 190.472147 
L 198.002216 196.020072 
L 201.557866 196.664974 
L 205.113516 193.734644 
L 208.669166 201.690815 
L 212.224815 192.62775 
L 215.780465 195.451036 
L 219.336115 204.067253 
L 222.891765 199.162149 
L 226.447415 195.168942 
L 230.003065 189.476175 
L 233.558715 197.393714 
L 237.114365 198.458222 
L 240.670015 193.790085 
L 244.225665 201.39005 
L 247.781315 198.54574 
L 251.336965 194.287843 
L 254.892615 194.263044 
L 258.448265 196.892924 
L 262.003915 200.884104 
L 265.559565 194.776384 
L 269.115215 189.873327 
L 272.670865 198.109137 
L 276.226515 201.801526 
L 279.782165 196.8597 
L 283.337815 198.716905 
L 286.893465 196.79206 
L 290.449115 196.876806 
L 294.004764 195.300206 
L 297.560414 189.857534 
L 301.116064 196.404954 
L 304.671714 200.133976 
L 308.227364 196.355777 
L 311.783014 196.3353 
L 315.338664 200.474305 
L 318.894314 196.90745 
L 322.449964 196.024453 
L 326.005614 197.196181 
L 329.561264 198.554944 
L 333.116914 198.663257 
L 336.672564 189.28522 
L 340.228214 187.577647 
L 343.783864 195.601968 
L 347.339514 206.579017 
L 350.895164 201.062736 
L 354.450814 201.977337 
L 358.006464 203.483242 
L 361.562114 186.373537 
L 365.117764 187.832012 
L 368.673414 190.819143 
L 372.229064 199.313381 
L 375.784714 204.619871 
L 379.340363 193.681724 
L 382.896013 196.660779 
L 386.451663 200.486531 
L 390.007313 201.454362 
L 393.562963 194.216792 
L 397.118613 191.414764 
L 400.674263 200.336989 
L 404.229913 196.232227 
L 407.785563 199.249723 
L 411.341213 190.423669 
L 414.896863 205.321237 
L 418.452513 196.853291 
L 422.008163 177.582464 
L 425.563813 199.012912 
L 429.119463 163.791599 
L 432.675113 220.057833 
L 436.230763 242.347789 
L 439.786413 217.812151 
L 443.342063 168.514862 
L 446.897713 176.298554 
L 450.453363 263.038748 
L 454.009013 42.370659 
L 457.564663 193.726218 
L 461.120313 381.103678 
L 464.675962 100.805625 
L 468.231612 140.090056 
L 471.787262 291.007029 
L 475.342912 220.797416 
L 478.898562 94.314566 
L 482.454212 257.789973 
L 486.009862 225.600639 
L 489.565512 73.213057 
L 493.121162 279.495974 
L 496.676812 180.063842 
L 500.232462 183.244261 
L 503.788112 258.496755 
L 507.343762 139.725862 
L 510.899412 239.430002 
L 514.455062 239.150249 
L 518.010712 142.887325 
L 521.566362 91.946596 
L 525.122012 241.646437 
L 528.677662 309.467044 
L 532.233312 137.184479 
L 535.788962 175.163123 
L 539.344612 203.057838 
L 542.900262 215.507431 
L 546.455911 225.332013 
L 550.011561 133.598385 
L 553.567211 188.97501 
L 557.122861 246.69538 
L 560.678511 179.489343 
L 564.234161 192.321376 
L 567.789811 222.419566 
L 571.345461 166.319446 
L 574.901111 199.099533 
L 578.456761 212.639283 
L 582.012411 182.411248 
L 585.568061 206.491016 
L 589.123711 181.539448 
L 592.679361 195.441758 
L 596.235011 211.384967 
L 599.790661 194.414397 
L 603.346311 191.297683 
L 606.901961 188.722819 
L 610.457611 219.520764 
L 614.013261 197.066093 
L 617.568911 192.012554 
L 621.124561 197.721871 
L 624.680211 172.319732 
L 628.235861 202.960635 
L 631.79151 208.726004 
L 638.90281 181.907919 
L 642.45846 218.409667 
L 646.01411 211.49574 
L 649.56976 151.08459 
L 653.12541 217.98602 
L 656.68106 210.697405 
L 660.23671 180.027542 
L 663.79236 210.125557 
L 667.34801 176.181965 
L 670.90366 198.50027 
L 674.45931 214.445913 
L 678.01496 185.933125 
L 681.57061 198.261938 
L 685.12626 206.916657 
L 688.68191 186.805177 
L 692.23756 180.853083 
L 695.79321 212.439125 
L 699.34886 212.182555 
L 702.90451 181.816661 
L 706.46016 191.011541 
L 710.01581 199.266305 
L 713.571459 188.372674 
L 717.127109 208.227849 
L 720.682759 202.147841 
L 724.238409 190.966483 
L 727.794059 208.72453 
L 731.349709 189.084398 
L 734.905359 185.487165 
L 738.461009 192.368177 
L 742.016659 191.952748 
L 745.572309 210.574075 
L 749.127959 204.377078 
L 752.683609 195.318955 
L 756.239259 202.225036 
L 759.794909 195.069247 
L 763.350559 181.077098 
L 766.906209 188.639411 
L 770.461859 207.50496 
L 774.017509 202.383605 
L 777.573159 193.628557 
L 781.128809 202.86673 
L 784.684459 194.866203 
L 788.240109 192.811568 
L 791.795759 199.011245 
L 795.351409 188.806709 
L 798.907058 199.100556 
L 806.018358 195.295997 
L 809.574008 204.591687 
L 813.129658 197.862033 
L 816.685308 200.539638 
L 820.240958 183.955286 
L 823.796608 191.445343 
L 827.352258 210.546848 
L 830.907908 189.47951 
L 834.463558 193.93498 
L 838.019208 202.511937 
L 841.574858 200.019414 
L 841.574858 200.019414 
" clip-path="url(#p82a02c413d)" style="fill: none; stroke: #696969; stroke-width: 0.75; stroke-linecap: square"/>
   </g>
   <g id="line2d_17">
    <path d="M 80.665767 195.165742 
L 84.221417 194.918399 
L 87.777067 196.889154 
L 91.332717 195.877879 
L 94.888367 197.575674 
L 98.444017 196.66731 
L 101.999667 196.923055 
L 105.555317 199.289233 
L 109.110967 195.718207 
L 112.666617 195.237972 
L 116.222267 196.846675 
L 119.777917 195.598826 
L 126.889216 196.568753 
L 130.444866 197.338352 
L 134.000516 198.38208 
L 137.556166 197.109032 
L 141.111816 196.562979 
L 144.667466 194.846654 
L 148.223116 195.967461 
L 151.778766 197.945973 
L 155.334416 196.761595 
L 158.890066 198.350266 
L 162.445716 194.927939 
L 166.001366 194.332363 
L 169.557016 198.201239 
L 173.112666 196.600531 
L 176.668316 197.119828 
L 180.223966 197.10963 
L 183.779616 196.542365 
L 187.335266 196.851641 
L 190.890916 196.726634 
L 194.446566 197.516615 
L 198.002216 196.932676 
L 201.557866 195.648282 
L 205.113516 195.04104 
L 208.669166 195.082961 
L 212.224815 196.474092 
L 215.780465 199.987232 
L 219.336115 198.579054 
L 222.891765 195.369474 
L 226.447415 195.038597 
L 230.003065 196.260869 
L 233.558715 198.641215 
L 237.114365 195.386759 
L 240.670015 196.557232 
L 244.225665 197.103706 
L 247.781315 195.035401 
L 251.336965 198.647053 
L 254.892615 195.761166 
L 258.448265 196.932797 
L 262.003915 198.495274 
L 265.559565 195.402975 
L 269.115215 196.220256 
L 272.670865 195.312845 
L 276.226515 197.022625 
L 279.782165 196.531353 
L 283.337815 196.352065 
L 286.893465 198.488333 
L 294.004764 196.726028 
L 297.560414 195.573657 
L 301.116064 195.300524 
L 304.671714 196.619721 
L 308.227364 196.589786 
L 311.783014 197.288177 
L 315.338664 200.247756 
L 318.894314 192.739208 
L 322.449964 196.702465 
L 326.005614 196.464235 
L 329.561264 193.444935 
L 333.116914 206.532229 
L 336.672564 194.401791 
L 340.228214 188.604015 
L 343.783864 192.770651 
L 347.339514 205.091407 
L 350.895164 202.699567 
L 354.450814 190.16178 
L 358.006464 203.126067 
L 361.562114 190.34202 
L 365.117764 196.667228 
L 368.673414 196.737891 
L 372.229064 190.284517 
L 375.784714 207.475411 
L 379.340363 189.666996 
L 382.896013 195.529454 
L 386.451663 198.755997 
L 390.007313 193.324475 
L 393.562963 206.826432 
L 397.118613 187.981481 
L 400.674263 196.740763 
L 404.229913 213.906342 
L 407.785563 200.981221 
L 411.341213 182.458168 
L 414.896863 190.093097 
L 418.452513 201.871288 
L 422.008163 183.032625 
L 425.563813 196.21118 
L 429.119463 167.621573 
L 432.675113 201.537309 
L 436.230763 246.21461 
L 439.786413 237.90783 
L 443.342063 189.562676 
L 446.897713 122.657887 
L 450.453363 286.215134 
L 454.009013 123.531098 
L 457.564663 71.967997 
L 461.120313 369.243935 
L 464.675962 194.190501 
L 468.231612 117.86053 
L 471.787262 216.387691 
L 475.342912 284.155556 
L 478.898562 152.417518 
L 482.454212 123.620918 
L 486.009862 332.761026 
L 489.565512 82.639937 
L 493.121162 163.499892 
L 496.676812 289.927898 
L 500.232462 126.585589 
L 503.788112 259.722157 
L 507.343762 185.177249 
L 510.899412 182.546748 
L 514.455062 264.342226 
L 518.010712 159.492757 
L 521.566362 111.611725 
L 525.122012 167.94614 
L 528.677662 317.875469 
L 532.233312 215.322769 
L 535.788962 123.712433 
L 539.344612 200.859966 
L 542.900262 207.912309 
L 546.455911 239.377306 
L 550.011561 157.132479 
L 553.567211 156.631766 
L 557.122861 248.1974 
L 560.678511 201.410009 
L 564.234161 178.016461 
L 567.789811 193.62538 
L 571.345461 203.448482 
L 574.901111 205.337231 
L 578.456761 192.717614 
L 582.012411 180.992452 
L 585.568061 202.663703 
L 589.123711 203.026944 
L 592.679361 183.953514 
L 596.235011 212.588415 
L 599.790661 207.861209 
L 603.346311 174.185252 
L 606.901961 180.427643 
L 610.457611 226.450365 
L 614.013261 209.966022 
L 617.568911 176.302078 
L 621.124561 199.332298 
L 624.680211 189.14861 
L 628.235861 190.52735 
L 631.79151 196.835581 
L 638.90281 202.31798 
L 642.45846 212.176864 
L 646.01411 208.34519 
L 649.56976 162.898396 
L 653.12541 195.177846 
L 656.68106 208.250658 
L 660.23671 191.841853 
L 663.79236 205.305869 
L 667.34801 182.38661 
L 670.90366 195.177868 
L 674.45931 214.456475 
L 678.01496 196.038767 
L 681.57061 188.979256 
L 685.12626 193.977031 
L 688.68191 197.96091 
L 692.23756 199.700699 
L 695.79321 196.680939 
L 699.34886 199.720137 
L 702.90451 195.568534 
L 706.46016 186.570773 
L 710.01581 201.26976 
L 713.571459 195.486114 
L 717.127109 195.937164 
L 720.682759 208.243831 
L 724.238409 193.746502 
L 727.794059 199.435004 
L 731.349709 196.770166 
L 734.905359 184.292661 
L 738.461009 187.695673 
L 742.016659 198.935751 
L 745.572309 209.082416 
L 749.127959 197.871923 
L 752.683609 201.93085 
L 756.239259 199.135383 
L 759.794909 188.928662 
L 763.350559 194.66259 
L 766.906209 188.473769 
L 770.461859 202.626112 
L 774.017509 204.346661 
L 777.573159 189.556905 
L 781.128809 199.877943 
L 784.684459 191.956952 
L 788.240109 194.038226 
L 791.795759 204.173692 
L 791.795759 204.173692 
" clip-path="url(#p82a02c413d)" style="fill: none; stroke: #696969; stroke-width: 0.75; stroke-linecap: square"/>
   </g>
   <g id="patch_3">
    <path d="M 42.620313 398.743678 
L 42.620313 10.663678 
" style="fill: none; stroke: #000000; stroke-width: 0.8; stroke-linejoin: miter; stroke-linecap: square"/>
   </g>
   <g id="patch_4">
    <path d="M 879.620312 398.743678 
L 879.620312 10.663678 
" style="fill: none; stroke: #000000; stroke-width: 0.8; stroke-linejoin: miter; stroke-linecap: square"/>
   </g>
   <g id="patch_5">
    <path d="M 42.620313 398.743678 
L 879.620312 398.743678 
" style="fill: none; stroke: #000000; stroke-width: 0.8; stroke-linejoin: miter; stroke-linecap: square"/>
   </g>
   <g id="patch_6">
    <path d="M 42.620313 10.663678 
L 879.620312 10.663678 
" style="fill: none; stroke: #000000; stroke-width: 0.8; stroke-linejoin: miter; stroke-linecap: square"/>
   </g>
  </g>
 </g>
 <defs>
  <clipPath id="p82a02c413d">
   <rect x="42.620313" y="10.663678" width="837" height="388.08"/>
  </clipPath>
 </defs>
</svg>
